<?xml version="1.0" encoding="UTF-8" standalone="no"?>
<svg version="1.1"
  xmlns="http://www.w3.org/2000/svg"
  xmlns:svg="http://www.w3.org/2000/svg"
  width="1600" height="2800">
<path fill="none" stroke-width="6" stroke="black" stroke-linecap="round" stroke-linejoin="round" d="
M 68.750000 12.500000
L 68.750000 56.250000
M 67.187500 78.125000
L 67.187500 75.000000
L 70.312500 75.000000
L 70.312500 78.125000
L 67.187500 78.125000
M 107.812500 10.937500
L 107.812500 31.250000
M 121.875000 31.250000
L 121.875000 10.937500
M 164.062500 12.500000
L 154.687500 78.125000
M 182.812500 12.500000
L 173.437500 78.125000
M 148.437500 35.937500
L 192.187500 35.937500
M 145.312500 54.687500
L 189.062500 54.687500
M 239.062500 12.500000
C 232.812500 10.937500 206.250000 6.250000 206.250000 26.562500
C 206.250000 43.750000 242.187500 40.625000 242.187500 59.375000
C 240.625000 81.250000 212.500000 78.125000 206.250000 73.437500
M 223.437500 85.937500
L 223.437500 1.562500
M 285.937500 29.687500
C 285.937500 7.812500 267.187500 7.812500 267.187500 29.687500
C 267.187500 51.562500 285.937500 51.562500 285.937500 29.687500
M 320.312500 12.500000
L 281.250000 78.125000
M 332.812500 60.937500
C 332.812500 39.062500 314.062500 39.062500 314.062500 60.937500
C 314.062500 82.812500 332.812500 82.812500 332.812500 60.937500
M 409.375000 43.750000
C 409.375000 57.812500 400.000000 78.125000 381.250000 78.125000
C 373.437500 78.125000 362.500000 76.562500 362.500000 62.500000
C 362.500000 40.625000 396.875000 45.312500 396.875000 25.000000
C 396.875000 7.812500 370.312500 7.812500 370.312500 25.000000
C 370.312500 31.250000 373.437500 37.500000 378.125000 42.187500
L 414.062500 78.125000
M 434.375000 10.937500
L 434.375000 31.250000
M 473.437500 6.250000
C 453.125000 31.250000 453.125000 64.062500 473.437500 89.062500
M 489.062500 6.250000
C 509.375000 31.250000 509.375000 64.062500 489.062500 89.062500
M 542.187500 10.937500
L 542.187500 48.437500
M 526.562500 20.312500
L 557.812500 39.062500
M 557.812500 20.312500
L 526.562500 39.062500
M 598.437500 31.250000
L 598.437500 78.125000
M 575.000000 54.687500
L 621.875000 54.687500
M 639.062500 78.125000
L 637.500000 78.125000
L 637.500000 75.000000
L 640.625000 75.000000
C 640.625000 81.250000 639.062500 87.500000 634.375000 90.625000
M 659.375000 51.562500
L 681.250000 51.562500
M 698.437500 78.125000
L 698.437500 75.000000
L 701.562500 75.000000
L 701.562500 78.125000
L 698.437500 78.125000
M 739.062500 9.375000
L 715.625000 78.125000
M 95.312500 145.312500
C 95.312500 101.562500 57.812500 101.562500 57.812500 145.312500
C 57.812500 189.062500 95.312500 189.062500 95.312500 145.312500
M 118.750000 126.562500
L 135.937500 112.500000
L 135.937500 178.125000
M 167.187500 115.625000
C 171.875000 112.500000 203.125000 106.250000 201.562500 129.687500
C 201.562500 140.625000 196.875000 146.875000 165.625000 178.125000
L 203.125000 178.125000
M 221.875000 115.625000
C 260.937500 101.562500 271.875000 143.750000 229.687500 143.750000
C 273.437500 143.750000 262.500000 190.625000 220.312500 175.000000
M 304.687500 178.125000
L 304.687500 112.500000
L 275.000000 160.937500
L 312.500000 160.937500
M 362.500000 112.500000
L 331.250000 112.500000
L 329.687500 142.187500
C 343.750000 135.937500 367.187500 140.625000 367.187500 157.812500
C 367.187500 181.250000 335.937500 179.687500 329.687500 175.000000
M 420.312500 114.062500
C 414.062500 112.500000 384.375000 104.687500 384.375000 148.437500
C 384.375000 190.625000 421.875000 181.250000 421.875000 159.375000
C 421.875000 139.062500 390.625000 129.687500 385.937500 159.375000
M 439.062500 112.500000
L 476.562500 112.500000
L 450.000000 178.125000
M 528.125000 126.562500
C 528.125000 107.812500 496.875000 107.812500 496.875000 126.562500
C 496.875000 145.312500 531.250000 143.750000 531.250000 162.500000
C 531.250000 182.812500 493.750000 182.812500 493.750000 162.500000
C 493.750000 143.750000 528.125000 145.312500 528.125000 126.562500
M 550.000000 176.562500
C 556.250000 178.125000 585.937500 185.937500 585.937500 142.187500
C 585.937500 100.000000 548.437500 109.375000 548.437500 131.250000
C 548.437500 151.562500 579.687500 160.937500 584.375000 131.250000
M 607.812500 178.125000
L 607.812500 175.000000
L 610.937500 175.000000
L 610.937500 178.125000
L 607.812500 178.125000
M 607.812500 137.500000
L 607.812500 134.375000
L 610.937500 134.375000
L 610.937500 137.500000
L 607.812500 137.500000
M 635.937500 178.125000
L 634.375000 178.125000
L 634.375000 175.000000
L 637.500000 175.000000
C 637.500000 181.250000 635.937500 187.500000 631.250000 190.625000
M 634.375000 137.500000
L 634.375000 134.375000
L 637.500000 134.375000
L 637.500000 137.500000
L 634.375000 137.500000
M 703.125000 132.812500
L 656.250000 153.125000
L 703.125000 173.437500
M 715.625000 143.750000
L 762.500000 143.750000
M 715.625000 164.062500
L 762.500000 164.062500
M 775.000000 132.812500
L 821.875000 153.125000
L 775.000000 173.437500
M 835.937500 115.625000
C 843.750000 110.937500 868.750000 109.375000 868.750000 126.562500
C 867.187500 140.625000 853.125000 142.187500 853.125000 159.375000
M 851.562500 178.125000
L 851.562500 175.000000
L 854.687500 175.000000
L 854.687500 178.125000
L 851.562500 178.125000
M 101.562500 237.500000
C 96.875000 223.437500 75.000000 221.875000 71.875000 243.750000
C 68.750000 265.625000 101.562500 278.125000 103.125000 228.125000
C 92.187500 271.875000 121.875000 270.312500 121.875000 243.750000
C 121.875000 201.562500 56.250000 201.562500 56.250000 243.750000
C 56.250000 287.500000 104.687500 281.250000 112.500000 268.750000
M 137.500000 278.125000
L 164.062500 212.500000
L 190.625000 278.125000
M 146.875000 256.250000
L 181.250000 256.250000
M 210.937500 278.125000
L 210.937500 212.500000
L 229.687500 212.500000
C 251.562500 212.500000 251.562500 243.750000 226.562500 243.750000
M 210.937500 243.750000
L 226.562500 243.750000
C 254.687500 243.750000 254.687500 278.125000 226.562500 278.125000
L 210.937500 278.125000
M 312.500000 215.625000
C 293.750000 207.812500 268.750000 217.187500 268.750000 245.312500
C 268.750000 273.437500 293.750000 282.812500 312.500000 275.000000
M 329.687500 278.125000
L 329.687500 212.500000
L 345.312500 212.500000
C 387.500000 212.500000 387.500000 278.125000 345.312500 278.125000
L 329.687500 278.125000
M 431.250000 212.500000
L 401.562500 212.500000
L 401.562500 278.125000
L 431.250000 278.125000
M 401.562500 243.750000
L 428.125000 243.750000
M 482.812500 212.500000
L 454.687500 212.500000
L 454.687500 278.125000
M 454.687500 243.750000
L 481.250000 243.750000
M 548.437500 217.187500
C 529.687500 206.250000 500.000000 214.062500 500.000000 245.312500
C 500.000000 275.000000 528.125000 282.812500 548.437500 275.000000
L 548.437500 245.312500
L 531.250000 245.312500
M 575.000000 212.500000
L 575.000000 278.125000
M 618.750000 212.500000
L 618.750000 278.125000
M 575.000000 243.750000
L 618.750000 243.750000
M 643.750000 212.500000
L 643.750000 278.125000
M 681.250000 212.500000
L 681.250000 259.375000
C 681.250000 281.250000 665.625000 278.125000 660.937500 276.562500
M 707.812500 212.500000
L 707.812500 278.125000
M 750.000000 212.500000
L 707.812500 256.250000
M 720.312500 243.750000
L 751.562500 278.125000
M 773.437500 212.500000
L 773.437500 278.125000
L 806.250000 278.125000
M 823.437500 278.125000
L 823.437500 212.500000
L 848.437500 246.875000
L 873.437500 212.500000
L 873.437500 278.125000
M 898.437500 278.125000
L 898.437500 212.500000
L 942.187500 278.125000
L 942.187500 212.500000
M 964.062500 245.312500
C 964.062500 201.562500 1020.312500 201.562500 1020.312500 245.312500
C 1020.312500 289.062500 964.062500 289.062500 964.062500 245.312500
M 62.500000 378.125000
L 62.500000 312.500000
L 78.125000 312.500000
C 104.687500 312.500000 104.687500 346.875000 78.125000 346.875000
L 62.500000 346.875000
M 114.062500 345.312500
C 114.062500 301.562500 170.312500 301.562500 170.312500 345.312500
C 170.312500 389.062500 114.062500 389.062500 114.062500 345.312500
M 153.125000 376.562500
L 167.187500 390.625000
M 193.750000 378.125000
L 193.750000 312.500000
L 209.375000 312.500000
C 234.375000 312.500000 234.375000 343.750000 209.375000 343.750000
L 193.750000 343.750000
M 215.625000 343.750000
L 232.812500 378.125000
M 279.687500 314.062500
C 273.437500 312.500000 246.875000 307.812500 246.875000 328.125000
C 246.875000 345.312500 282.812500 342.187500 282.812500 360.937500
C 281.250000 382.812500 253.125000 379.687500 246.875000 375.000000
M 315.625000 312.500000
L 315.625000 378.125000
M 293.750000 312.500000
L 337.500000 312.500000
M 356.250000 312.500000
L 356.250000 350.000000
C 356.250000 387.500000 400.000000 387.500000 400.000000 350.000000
L 400.000000 312.500000
M 421.875000 312.500000
L 446.875000 378.125000
L 471.875000 312.500000
M 485.937500 312.500000
L 504.687500 378.125000
L 517.187500 334.375000
L 529.687500 378.125000
L 548.437500 312.500000
M 560.937500 312.500000
L 607.812500 378.125000
M 607.812500 312.500000
L 560.937500 378.125000
M 623.437500 312.500000
L 648.437500 348.437500
L 648.437500 378.125000
M 673.437500 312.500000
L 648.437500 348.437500
M 685.937500 312.500000
L 729.687500 312.500000
L 685.937500 378.125000
L 729.687500 378.125000
M 762.500000 307.812500
L 748.437500 307.812500
L 748.437500 387.500000
L 762.500000 387.500000
M 768.750000 309.375000
L 792.187500 378.125000
M 801.562500 307.812500
L 815.625000 307.812500
L 815.625000 387.500000
L 801.562500 387.500000
M 840.625000 348.437500
L 857.812500 312.500000
L 875.000000 348.437500
M 887.500000 387.500000
L 935.937500 387.500000
M 65.625000 420.312500
L 56.250000 407.812500
M 85.937500 437.500000
C 100.000000 431.250000 120.312500 432.812500 120.312500 451.562500
L 120.312500 478.125000
M 120.312500 454.687500
C 104.687500 453.125000 82.812500 453.125000 82.812500 467.187500
C 82.812500 484.375000 120.312500 481.250000 120.312500 457.812500
M 143.750000 412.500000
L 143.750000 478.125000
M 143.750000 456.250000
C 143.750000 428.125000 181.250000 428.125000 181.250000 456.250000
C 181.250000 484.375000 143.750000 484.375000 143.750000 456.250000
M 228.125000 435.937500
C 220.312500 432.812500 198.437500 432.812500 198.437500 456.250000
C 198.437500 478.125000 220.312500 479.687500 228.125000 476.562500
M 281.250000 412.500000
L 281.250000 478.125000
M 281.250000 456.250000
C 281.250000 428.125000 243.750000 428.125000 243.750000 456.250000
C 243.750000 484.375000 281.250000 484.375000 281.250000 456.250000
M 301.562500 454.687500
L 339.062500 454.687500
C 339.062500 428.125000 301.562500 428.125000 301.562500 454.687500
C 301.562500 478.125000 323.437500 481.250000 339.062500 475.000000
M 381.250000 414.062500
C 371.875000 410.937500 365.625000 415.625000 365.625000 426.562500
L 365.625000 478.125000
M 353.125000 435.937500
L 379.687500 435.937500
M 431.250000 434.375000
L 431.250000 478.125000
C 431.250000 504.687500 406.250000 501.562500 396.875000 496.875000
M 431.250000 456.250000
C 431.250000 428.125000 393.750000 428.125000 393.750000 456.250000
C 393.750000 484.375000 431.250000 484.375000 431.250000 456.250000
M 456.250000 412.500000
L 456.250000 478.125000
M 456.250000 453.125000
C 462.500000 431.250000 493.750000 426.562500 493.750000 453.125000
L 493.750000 478.125000
M 517.187500 434.375000
L 517.187500 478.125000
M 515.625000 417.187500
L 515.625000 414.062500
L 518.750000 414.062500
L 518.750000 417.187500
L 515.625000 417.187500
M 543.750000 434.375000
L 543.750000 482.812500
C 543.750000 496.875000 540.625000 501.562500 531.250000 498.437500
M 542.187500 417.187500
L 542.187500 414.062500
L 545.312500 414.062500
L 545.312500 417.187500
L 542.187500 417.187500
M 568.750000 412.500000
L 568.750000 478.125000
M 598.437500 431.250000
L 568.750000 460.937500
M 579.687500 451.562500
L 603.125000 478.125000
M 625.000000 412.500000
L 625.000000 478.125000
M 650.000000 434.375000
L 650.000000 478.125000
M 650.000000 453.125000
C 656.250000 431.250000 682.812500 426.562500 682.812500 453.125000
L 682.812500 478.125000
M 682.812500 453.125000
C 689.062500 431.250000 715.625000 426.562500 715.625000 453.125000
L 715.625000 478.125000
M 737.500000 434.375000
L 737.500000 478.125000
M 737.500000 453.125000
C 743.750000 431.250000 775.000000 426.562500 775.000000 453.125000
L 775.000000 478.125000
M 835.937500 456.250000
C 835.937500 426.562500 795.312500 426.562500 795.312500 456.250000
C 795.312500 485.937500 835.937500 485.937500 835.937500 456.250000
M 62.500000 600.000000
L 62.500000 534.375000
M 62.500000 556.250000
C 62.500000 584.375000 100.000000 584.375000 100.000000 556.250000
C 100.000000 528.125000 62.500000 528.125000 62.500000 556.250000
M 156.250000 600.000000
L 156.250000 534.375000
M 156.250000 556.250000
C 156.250000 584.375000 118.750000 584.375000 118.750000 556.250000
C 118.750000 528.125000 156.250000 528.125000 156.250000 556.250000
M 181.250000 534.375000
L 181.250000 578.125000
M 181.250000 559.375000
C 184.375000 543.750000 192.187500 534.375000 203.125000 534.375000
M 235.937500 535.937500
C 232.812500 534.375000 212.500000 531.250000 212.500000 545.312500
C 212.500000 554.687500 235.937500 556.250000 235.937500 567.187500
C 235.937500 581.250000 220.312500 579.687500 212.500000 576.562500
M 260.937500 518.750000
L 260.937500 562.500000
C 260.937500 576.562500 267.187500 579.687500 275.000000 576.562500
M 248.437500 534.375000
L 273.437500 534.375000
M 331.250000 578.125000
L 331.250000 534.375000
M 331.250000 559.375000
C 325.000000 581.250000 293.750000 585.937500 293.750000 559.375000
L 293.750000 534.375000
M 351.562500 534.375000
L 367.187500 578.125000
L 382.812500 534.375000
M 400.000000 534.375000
L 415.625000 578.125000
L 431.250000 534.375000
L 446.875000 578.125000
L 462.500000 534.375000
M 473.437500 534.375000
L 503.125000 578.125000
M 503.125000 534.375000
L 473.437500 578.125000
M 521.875000 534.375000
L 537.500000 578.125000
M 553.125000 534.375000
L 537.500000 578.125000
C 531.250000 598.437500 526.562500 600.000000 517.187500 596.875000
M 568.750000 534.375000
L 603.125000 534.375000
L 568.750000 578.125000
L 603.125000 578.125000
M 639.062500 507.812500
C 626.562500 507.812500 626.562500 507.812500 626.562500 525.000000
C 626.562500 548.437500 626.562500 546.875000 615.625000 546.875000
C 626.562500 546.875000 626.562500 545.312500 626.562500 568.750000
C 626.562500 585.937500 626.562500 585.937500 639.062500 585.937500
M 653.125000 506.250000
L 653.125000 587.500000
M 667.187500 507.812500
C 679.687500 507.812500 679.687500 507.812500 679.687500 525.000000
C 679.687500 548.437500 679.687500 546.875000 690.625000 546.875000
C 679.687500 546.875000 679.687500 545.312500 679.687500 568.750000
C 679.687500 585.937500 679.687500 585.937500 667.187500 585.937500
M 706.250000 556.250000
C 720.312500 535.937500 732.812500 570.312500 746.875000 550.000000
M 68.750000 698.437500
L 68.750000 654.687500
M 67.187500 632.812500
L 67.187500 635.937500
L 70.312500 635.937500
L 70.312500 632.812500
L 67.187500 632.812500
M 126.562500 625.000000
L 107.812500 687.500000
M 129.687500 635.937500
C 121.875000 632.812500 100.000000 632.812500 100.000000 656.250000
C 100.000000 678.125000 121.875000 679.687500 129.687500 676.562500
M 187.500000 620.312500
C 173.437500 614.062500 160.937500 620.312500 160.937500 639.062500
L 160.937500 678.125000
M 153.125000 645.312500
L 176.562500 645.312500
M 153.125000 678.125000
L 187.500000 678.125000
M 223.437500 628.125000
C 212.500000 628.125000 204.687500 635.937500 204.687500 646.875000
C 204.687500 657.812500 212.500000 665.625000 223.437500 665.625000
C 234.375000 665.625000 242.187500 657.812500 242.187500 646.875000
C 242.187500 635.937500 234.375000 628.125000 223.437500 628.125000
M 204.687500 628.125000
L 209.375000 632.812500
M 242.187500 628.125000
L 237.500000 632.812500
M 204.687500 665.625000
L 209.375000 660.937500
M 242.187500 665.625000
L 237.500000 660.937500
M 259.375000 646.875000
L 296.875000 646.875000
M 259.375000 662.500000
L 296.875000 662.500000
M 253.125000 612.500000
L 278.125000 648.437500
L 278.125000 678.125000
M 303.125000 612.500000
L 278.125000 648.437500
M 317.187500 614.062500
L 317.187500 645.312500
M 317.187500 660.937500
L 317.187500 692.187500
M 348.437500 635.937500
C 342.187500 640.625000 340.625000 642.187500 340.625000 648.437500
C 340.625000 662.500000 370.312500 656.250000 370.312500 671.875000
C 370.312500 678.125000 360.937500 685.937500 340.625000 681.250000
M 362.500000 660.937500
C 367.187500 657.812500 370.312500 656.250000 370.312500 650.000000
C 370.312500 635.937500 340.625000 639.062500 340.625000 626.562500
C 340.625000 620.312500 350.000000 612.500000 367.187500 617.187500
M 387.500000 617.187500
L 387.500000 614.062500
L 390.625000 614.062500
L 390.625000 617.187500
L 387.500000 617.187500
M 403.125000 617.187500
L 403.125000 614.062500
L 406.250000 614.062500
L 406.250000 617.187500
L 403.125000 617.187500
M 448.437500 615.625000
C 429.687500 615.625000 417.187500 628.125000 417.187500 646.875000
C 417.187500 665.625000 429.687500 678.125000 448.437500 678.125000
C 467.187500 678.125000 479.687500 665.625000 479.687500 646.875000
C 479.687500 628.125000 467.187500 615.625000 448.437500 615.625000
M 462.500000 635.937500
C 460.937500 632.812500 454.687500 628.125000 448.437500 628.125000
C 437.500000 628.125000 431.250000 635.937500 431.250000 646.875000
C 431.250000 657.812500 437.500000 665.625000 448.437500 665.625000
C 456.250000 665.625000 460.937500 660.937500 462.500000 657.812500
M 492.187500 614.062500
C 500.000000 610.937500 510.937500 610.937500 510.937500 621.875000
L 510.937500 635.937500
M 510.937500 623.437500
C 503.125000 621.875000 490.625000 621.875000 490.625000 629.687500
C 490.625000 639.062500 510.937500 637.500000 510.937500 625.000000
M 537.500000 634.375000
L 525.000000 651.562500
L 537.500000 668.750000
M 557.812500 634.375000
L 545.312500 651.562500
L 557.812500 668.750000
M 576.562500 643.750000
L 620.312500 643.750000
L 620.312500 662.500000
M 687.500000 615.625000
C 668.750000 615.625000 656.250000 628.125000 656.250000 646.875000
C 656.250000 665.625000 668.750000 678.125000 687.500000 678.125000
C 706.250000 678.125000 718.750000 665.625000 718.750000 646.875000
C 718.750000 628.125000 706.250000 615.625000 687.500000 615.625000
M 676.562500 665.625000
L 676.562500 628.125000
L 685.937500 628.125000
C 701.562500 628.125000 701.562500 646.875000 685.937500 646.875000
L 676.562500 646.875000
M 689.062500 646.875000
L 701.562500 665.625000
M 726.562500 617.187500
L 753.125000 617.187500
M 68.750000 734.375000
C 62.500000 734.375000 57.812500 729.687500 57.812500 723.437500
C 57.812500 717.187500 62.500000 712.500000 68.750000 712.500000
C 75.000000 712.500000 79.687500 717.187500 79.687500 723.437500
C 79.687500 729.687500 75.000000 734.375000 68.750000 734.375000
M 118.750000 729.687500
L 118.750000 764.062500
M 95.312500 746.875000
L 142.187500 746.875000
M 95.312500 773.437500
L 142.187500 773.437500
M 153.125000 714.062500
C 156.250000 712.500000 171.875000 709.375000 171.875000 721.875000
C 171.875000 728.125000 168.750000 731.250000 151.562500 748.437500
L 171.875000 748.437500
M 184.375000 714.062500
C 206.250000 706.250000 210.937500 729.687500 189.062500 729.687500
C 212.500000 729.687500 206.250000 754.687500 182.812500 746.875000
M 220.312500 725.000000
L 229.687500 712.500000
M 292.187500 778.125000
C 290.625000 776.562500 289.062500 775.000000 289.062500 765.625000
L 289.062500 734.375000
M 289.062500 759.375000
C 282.812500 781.250000 251.562500 785.937500 251.562500 759.375000
L 251.562500 734.375000
L 251.562500 800.000000
M 326.562500 712.500000
L 326.562500 785.937500
M 345.312500 785.937500
L 345.312500 712.500000
L 320.312500 712.500000
C 296.875000 712.500000 296.875000 739.062500 320.312500 737.500000
L 326.562500 737.500000
M 368.750000 750.000000
L 368.750000 746.875000
L 371.875000 746.875000
L 371.875000 750.000000
L 368.750000 750.000000
M 407.812500 778.125000
L 401.562500 785.937500
C 417.187500 782.812500 412.500000 804.687500 396.875000 796.875000
M 420.312500 720.312500
L 429.687500 712.500000
L 429.687500 748.437500
M 471.875000 725.000000
C 471.875000 707.812500 448.437500 707.812500 448.437500 725.000000
C 448.437500 742.187500 471.875000 742.187500 471.875000 723.437500
M 490.625000 734.375000
L 503.125000 751.562500
L 490.625000 768.750000
M 510.937500 734.375000
L 523.437500 751.562500
L 510.937500 768.750000
M 542.187500 720.312500
L 551.562500 712.500000
L 551.562500 748.437500
M 589.062500 712.500000
L 551.562500 778.125000
M 598.437500 778.125000
L 598.437500 742.187500
L 581.250000 768.750000
L 601.562500 768.750000
M 623.437500 720.312500
L 632.812500 712.500000
L 632.812500 748.437500
M 670.312500 712.500000
L 632.812500 778.125000
M 668.750000 743.750000
C 670.312500 742.187500 687.500000 739.062500 687.500000 751.562500
C 687.500000 757.812500 684.375000 760.937500 667.187500 778.125000
L 687.500000 778.125000
M 703.125000 714.062500
C 725.000000 706.250000 729.687500 729.687500 707.812500 729.687500
C 731.250000 729.687500 725.000000 754.687500 701.562500 746.875000
M 756.250000 712.500000
L 718.750000 778.125000
M 760.937500 778.125000
L 760.937500 742.187500
L 743.750000 768.750000
L 764.062500 768.750000
M 818.750000 795.312500
C 810.937500 800.000000 781.250000 801.562500 781.250000 782.812500
C 781.250000 770.312500 801.562500 767.187500 801.562500 751.562500
M 803.125000 732.812500
L 803.125000 735.937500
L 800.000000 735.937500
L 800.000000 732.812500
L 803.125000 732.812500
M 89.062500 804.687500
L 79.687500 792.187500
M 59.375000 878.125000
L 85.937500 812.500000
L 112.500000 878.125000
M 68.750000 856.250000
L 103.125000 856.250000
M 153.125000 804.687500
L 162.500000 792.187500
M 129.687500 878.125000
L 156.250000 812.500000
L 182.812500 878.125000
M 139.062500 856.250000
L 173.437500 856.250000
M 200.000000 878.125000
L 226.562500 812.500000
L 253.125000 878.125000
M 209.375000 856.250000
L 243.750000 856.250000
M 218.750000 804.687500
L 226.562500 792.187500
L 234.375000 804.687500
M 270.312500 878.125000
L 296.875000 812.500000
L 323.437500 878.125000
M 279.687500 856.250000
L 314.062500 856.250000
M 284.375000 801.562500
C 293.750000 781.250000 300.000000 818.750000 309.375000 798.437500
M 340.625000 878.125000
L 367.187500 812.500000
L 393.750000 878.125000
M 350.000000 856.250000
L 384.375000 856.250000
M 357.812500 801.562500
L 357.812500 798.437500
L 360.937500 798.437500
L 360.937500 801.562500
L 357.812500 801.562500
M 373.437500 801.562500
L 373.437500 798.437500
L 376.562500 798.437500
L 376.562500 801.562500
L 373.437500 801.562500
M 437.500000 806.250000
C 434.375000 806.250000 431.250000 803.125000 431.250000 800.000000
C 431.250000 796.875000 434.375000 793.750000 437.500000 793.750000
C 440.625000 793.750000 443.750000 796.875000 443.750000 800.000000
C 443.750000 803.125000 440.625000 806.250000 437.500000 806.250000
M 410.937500 878.125000
L 437.500000 812.500000
L 464.062500 878.125000
M 420.312500 856.250000
L 454.687500 856.250000
M 479.687500 878.125000
L 518.750000 812.500000
L 553.125000 812.500000
M 523.437500 812.500000
L 528.125000 878.125000
L 554.687500 878.125000
M 550.000000 843.750000
L 526.562500 843.750000
M 525.000000 856.250000
L 493.750000 856.250000
M 618.750000 815.625000
C 600.000000 807.812500 575.000000 817.187500 575.000000 845.312500
C 575.000000 873.437500 600.000000 882.812500 618.750000 875.000000
M 603.125000 878.125000
L 596.875000 885.937500
C 612.500000 882.812500 607.812500 904.687500 592.187500 896.875000
M 667.187500 812.500000
L 637.500000 812.500000
L 637.500000 878.125000
L 667.187500 878.125000
M 637.500000 843.750000
L 664.062500 843.750000
M 654.687500 804.687500
L 645.312500 792.187500
M 721.875000 812.500000
L 692.187500 812.500000
L 692.187500 878.125000
L 721.875000 878.125000
M 692.187500 843.750000
L 718.750000 843.750000
M 701.562500 804.687500
L 710.937500 792.187500
M 776.562500 812.500000
L 746.875000 812.500000
L 746.875000 878.125000
L 776.562500 878.125000
M 746.875000 843.750000
L 773.437500 843.750000
M 753.125000 804.687500
L 760.937500 792.187500
L 768.750000 804.687500
M 831.250000 812.500000
L 801.562500 812.500000
L 801.562500 878.125000
L 831.250000 878.125000
M 801.562500 843.750000
L 828.125000 843.750000
M 806.250000 801.562500
L 806.250000 798.437500
L 809.375000 798.437500
L 809.375000 801.562500
L 806.250000 801.562500
M 821.875000 801.562500
L 821.875000 798.437500
L 825.000000 798.437500
L 825.000000 801.562500
L 821.875000 801.562500
M 854.687500 812.500000
L 854.687500 878.125000
M 856.250000 804.687500
L 846.875000 792.187500
M 881.250000 812.500000
L 881.250000 878.125000
M 879.687500 804.687500
L 889.062500 792.187500
M 907.812500 812.500000
L 907.812500 878.125000
M 900.000000 804.687500
L 907.812500 792.187500
L 915.625000 804.687500
M 934.375000 812.500000
L 934.375000 878.125000
M 925.000000 801.562500
L 925.000000 798.437500
L 928.125000 798.437500
L 928.125000 801.562500
L 925.000000 801.562500
M 940.625000 801.562500
L 940.625000 798.437500
L 943.750000 798.437500
L 943.750000 801.562500
L 940.625000 801.562500
M 62.500000 978.125000
L 62.500000 912.500000
L 78.125000 912.500000
C 120.312500 912.500000 120.312500 978.125000 78.125000 978.125000
L 62.500000 978.125000
M 53.125000 942.187500
L 84.375000 942.187500
M 134.375000 978.125000
L 134.375000 912.500000
L 178.125000 978.125000
L 178.125000 912.500000
M 143.750000 901.562500
C 153.125000 881.250000 159.375000 918.750000 168.750000 898.437500
M 200.000000 945.312500
C 200.000000 901.562500 256.250000 901.562500 256.250000 945.312500
C 256.250000 989.062500 200.000000 989.062500 200.000000 945.312500
M 231.250000 904.687500
L 221.875000 892.187500
M 276.562500 945.312500
C 276.562500 901.562500 332.812500 901.562500 332.812500 945.312500
C 332.812500 989.062500 276.562500 989.062500 276.562500 945.312500
M 301.562500 904.687500
L 310.937500 892.187500
M 353.125000 945.312500
C 353.125000 901.562500 409.375000 901.562500 409.375000 945.312500
C 409.375000 989.062500 353.125000 989.062500 353.125000 945.312500
M 373.437500 904.687500
L 381.250000 892.187500
L 389.062500 904.687500
M 429.687500 945.312500
C 429.687500 901.562500 485.937500 901.562500 485.937500 945.312500
C 485.937500 989.062500 429.687500 989.062500 429.687500 945.312500
M 445.312500 901.562500
C 454.687500 881.250000 460.937500 918.750000 470.312500 898.437500
M 506.250000 945.312500
C 506.250000 901.562500 562.500000 901.562500 562.500000 945.312500
C 562.500000 989.062500 506.250000 989.062500 506.250000 945.312500
M 525.000000 901.562500
L 525.000000 898.437500
L 528.125000 898.437500
L 528.125000 901.562500
L 525.000000 901.562500
M 540.625000 901.562500
L 540.625000 898.437500
L 543.750000 898.437500
L 543.750000 901.562500
L 540.625000 901.562500
M 584.375000 935.937500
L 620.312500 971.875000
M 584.375000 971.875000
L 620.312500 935.937500
M 642.187500 945.312500
C 642.187500 901.562500 698.437500 901.562500 698.437500 945.312500
C 698.437500 989.062500 642.187500 989.062500 642.187500 945.312500
M 696.875000 910.937500
L 645.312500 978.125000
M 723.437500 912.500000
L 723.437500 950.000000
C 723.437500 987.500000 767.187500 987.500000 767.187500 950.000000
L 767.187500 912.500000
M 748.437500 904.687500
L 739.062500 892.187500
M 793.750000 912.500000
L 793.750000 950.000000
C 793.750000 987.500000 837.500000 987.500000 837.500000 950.000000
L 837.500000 912.500000
M 812.500000 904.687500
L 821.875000 892.187500
M 864.062500 912.500000
L 864.062500 950.000000
C 864.062500 987.500000 907.812500 987.500000 907.812500 950.000000
L 907.812500 912.500000
M 878.125000 904.687500
L 885.937500 892.187500
L 893.750000 904.687500
M 934.375000 912.500000
L 934.375000 950.000000
C 934.375000 987.500000 978.125000 987.500000 978.125000 950.000000
L 978.125000 912.500000
M 946.875000 901.562500
L 946.875000 898.437500
L 950.000000 898.437500
L 950.000000 901.562500
L 946.875000 901.562500
M 962.500000 901.562500
L 962.500000 898.437500
L 965.625000 898.437500
L 965.625000 901.562500
L 962.500000 901.562500
M 998.437500 912.500000
L 1023.437500 948.437500
L 1023.437500 978.125000
M 1048.437500 912.500000
L 1023.437500 948.437500
M 1020.312500 904.687500
L 1029.687500 892.187500
M 1068.750000 978.125000
L 1068.750000 912.500000
M 1068.750000 923.437500
L 1084.375000 923.437500
C 1110.937500 923.437500 1110.937500 957.812500 1084.375000 957.812500
L 1068.750000 957.812500
M 1123.437500 978.125000
L 1123.437500 935.937500
C 1123.437500 920.312500 1128.125000 912.500000 1140.625000 912.500000
C 1165.625000 912.500000 1167.187500 942.187500 1140.625000 943.750000
C 1171.875000 943.750000 1171.875000 987.500000 1135.937500 975.000000
M 59.375000 1037.500000
C 73.437500 1031.250000 93.750000 1032.812500 93.750000 1051.562500
L 93.750000 1078.125000
M 93.750000 1054.687500
C 78.125000 1053.125000 56.250000 1053.125000 56.250000 1067.187500
C 56.250000 1084.375000 93.750000 1081.250000 93.750000 1057.812500
M 79.687500 1020.312500
L 70.312500 1007.812500
M 114.062500 1037.500000
C 128.125000 1031.250000 148.437500 1032.812500 148.437500 1051.562500
L 148.437500 1078.125000
M 148.437500 1054.687500
C 132.812500 1053.125000 110.937500 1053.125000 110.937500 1067.187500
C 110.937500 1084.375000 148.437500 1081.250000 148.437500 1057.812500
M 128.125000 1020.312500
L 137.500000 1007.812500
M 168.750000 1037.500000
C 182.812500 1031.250000 203.125000 1032.812500 203.125000 1051.562500
L 203.125000 1078.125000
M 203.125000 1054.687500
C 187.500000 1053.125000 165.625000 1053.125000 165.625000 1067.187500
C 165.625000 1084.375000 203.125000 1081.250000 203.125000 1057.812500
M 176.562500 1020.312500
L 184.375000 1007.812500
L 192.187500 1020.312500
M 223.437500 1037.500000
C 237.500000 1031.250000 257.812500 1032.812500 257.812500 1051.562500
L 257.812500 1078.125000
M 257.812500 1054.687500
C 242.187500 1053.125000 220.312500 1053.125000 220.312500 1067.187500
C 220.312500 1084.375000 257.812500 1081.250000 257.812500 1057.812500
M 226.562500 1017.187500
C 235.937500 996.875000 242.187500 1034.375000 251.562500 1014.062500
M 278.125000 1037.500000
C 292.187500 1031.250000 312.500000 1032.812500 312.500000 1051.562500
L 312.500000 1078.125000
M 312.500000 1054.687500
C 296.875000 1053.125000 275.000000 1053.125000 275.000000 1067.187500
C 275.000000 1084.375000 312.500000 1081.250000 312.500000 1057.812500
M 285.937500 1017.187500
L 285.937500 1014.062500
L 289.062500 1014.062500
L 289.062500 1017.187500
L 285.937500 1017.187500
M 301.562500 1017.187500
L 301.562500 1014.062500
L 304.687500 1014.062500
L 304.687500 1017.187500
L 301.562500 1017.187500
M 332.812500 1037.500000
C 346.875000 1031.250000 367.187500 1032.812500 367.187500 1051.562500
L 367.187500 1078.125000
M 367.187500 1054.687500
C 351.562500 1053.125000 329.687500 1053.125000 329.687500 1067.187500
C 329.687500 1084.375000 367.187500 1081.250000 367.187500 1057.812500
M 348.437500 1020.312500
C 345.312500 1020.312500 342.187500 1017.187500 342.187500 1014.062500
C 342.187500 1010.937500 345.312500 1007.812500 348.437500 1007.812500
C 351.562500 1007.812500 354.687500 1010.937500 354.687500 1014.062500
C 354.687500 1017.187500 351.562500 1020.312500 348.437500 1020.312500
M 387.500000 1037.500000
C 401.562500 1031.250000 418.750000 1032.812500 418.750000 1051.562500
L 418.750000 1057.812500
C 418.750000 1081.250000 384.375000 1084.375000 384.375000 1067.187500
C 384.375000 1053.125000 406.250000 1053.125000 418.750000 1054.687500
L 454.687500 1054.687500
C 454.687500 1028.125000 418.750000 1028.125000 418.750000 1054.687500
C 418.750000 1081.250000 440.625000 1079.687500 454.687500 1075.000000
M 503.125000 1035.937500
C 495.312500 1032.812500 473.437500 1032.812500 473.437500 1056.250000
C 473.437500 1078.125000 495.312500 1079.687500 503.125000 1076.562500
M 493.750000 1078.125000
L 487.500000 1085.937500
C 503.125000 1082.812500 498.437500 1104.687500 482.812500 1096.875000
M 515.625000 1054.687500
L 553.125000 1054.687500
C 553.125000 1028.125000 515.625000 1028.125000 515.625000 1054.687500
C 515.625000 1078.125000 537.500000 1081.250000 553.125000 1075.000000
M 539.062500 1020.312500
L 529.687500 1007.812500
M 570.312500 1054.687500
L 607.812500 1054.687500
C 607.812500 1028.125000 570.312500 1028.125000 570.312500 1054.687500
C 570.312500 1078.125000 592.187500 1081.250000 607.812500 1075.000000
M 585.937500 1020.312500
L 595.312500 1007.812500
M 625.000000 1054.687500
L 662.500000 1054.687500
C 662.500000 1028.125000 625.000000 1028.125000 625.000000 1054.687500
C 625.000000 1078.125000 646.875000 1081.250000 662.500000 1075.000000
M 635.937500 1020.312500
L 643.750000 1007.812500
L 651.562500 1020.312500
M 679.687500 1054.687500
L 717.187500 1054.687500
C 717.187500 1028.125000 679.687500 1028.125000 679.687500 1054.687500
C 679.687500 1078.125000 701.562500 1081.250000 717.187500 1075.000000
M 689.062500 1017.187500
L 689.062500 1014.062500
L 692.187500 1014.062500
L 692.187500 1017.187500
L 689.062500 1017.187500
M 704.687500 1017.187500
L 704.687500 1014.062500
L 707.812500 1014.062500
L 707.812500 1017.187500
L 704.687500 1017.187500
M 740.625000 1034.375000
L 740.625000 1078.125000
M 742.187500 1020.312500
L 732.812500 1007.812500
M 767.187500 1034.375000
L 767.187500 1078.125000
M 765.625000 1020.312500
L 775.000000 1007.812500
M 793.750000 1034.375000
L 793.750000 1078.125000
M 785.937500 1020.312500
L 793.750000 1007.812500
L 801.562500 1020.312500
M 820.312500 1034.375000
L 820.312500 1078.125000
M 810.937500 1017.187500
L 810.937500 1014.062500
L 814.062500 1014.062500
L 814.062500 1017.187500
L 810.937500 1017.187500
M 826.562500 1017.187500
L 826.562500 1014.062500
L 829.687500 1014.062500
L 829.687500 1017.187500
L 826.562500 1017.187500
M 98.437500 1156.250000
C 98.437500 1126.562500 57.812500 1126.562500 57.812500 1156.250000
C 57.812500 1185.937500 98.437500 1185.937500 98.437500 1156.250000
C 98.437500 1139.062500 85.937500 1120.312500 65.625000 1112.500000
M 64.062500 1126.562500
L 90.625000 1112.500000
M 120.312500 1134.375000
L 120.312500 1178.125000
M 120.312500 1153.125000
C 126.562500 1131.250000 157.812500 1126.562500 157.812500 1153.125000
L 157.812500 1178.125000
M 126.562500 1117.187500
C 135.937500 1096.875000 142.187500 1134.375000 151.562500 1114.062500
M 218.750000 1156.250000
C 218.750000 1126.562500 178.125000 1126.562500 178.125000 1156.250000
C 178.125000 1185.937500 218.750000 1185.937500 218.750000 1156.250000
M 201.562500 1120.312500
L 192.187500 1107.812500
M 278.125000 1156.250000
C 278.125000 1126.562500 237.500000 1126.562500 237.500000 1156.250000
C 237.500000 1185.937500 278.125000 1185.937500 278.125000 1156.250000
M 254.687500 1120.312500
L 264.062500 1107.812500
M 337.500000 1156.250000
C 337.500000 1126.562500 296.875000 1126.562500 296.875000 1156.250000
C 296.875000 1185.937500 337.500000 1185.937500 337.500000 1156.250000
M 309.375000 1120.312500
L 317.187500 1107.812500
L 325.000000 1120.312500
M 396.875000 1156.250000
C 396.875000 1126.562500 356.250000 1126.562500 356.250000 1156.250000
C 356.250000 1185.937500 396.875000 1185.937500 396.875000 1156.250000
M 364.062500 1117.187500
C 373.437500 1096.875000 379.687500 1134.375000 389.062500 1114.062500
M 456.250000 1156.250000
C 456.250000 1126.562500 415.625000 1126.562500 415.625000 1156.250000
C 415.625000 1185.937500 456.250000 1185.937500 456.250000 1156.250000
M 426.562500 1117.187500
L 426.562500 1114.062500
L 429.687500 1114.062500
L 429.687500 1117.187500
L 426.562500 1117.187500
M 442.187500 1117.187500
L 442.187500 1114.062500
L 445.312500 1114.062500
L 445.312500 1117.187500
L 442.187500 1117.187500
M 471.875000 1151.562500
L 518.750000 1151.562500
M 493.750000 1173.437500
L 493.750000 1170.312500
L 496.875000 1170.312500
L 496.875000 1173.437500
L 493.750000 1173.437500
M 493.750000 1134.375000
L 493.750000 1131.250000
L 496.875000 1131.250000
L 496.875000 1134.375000
L 493.750000 1134.375000
M 575.000000 1156.250000
C 575.000000 1126.562500 534.375000 1126.562500 534.375000 1156.250000
C 534.375000 1185.937500 575.000000 1185.937500 575.000000 1156.250000
M 571.875000 1131.250000
L 534.375000 1178.125000
M 632.812500 1178.125000
L 632.812500 1134.375000
M 632.812500 1159.375000
C 626.562500 1181.250000 595.312500 1185.937500 595.312500 1159.375000
L 595.312500 1134.375000
M 618.750000 1120.312500
L 609.375000 1107.812500
M 692.187500 1178.125000
L 692.187500 1134.375000
M 692.187500 1159.375000
C 685.937500 1181.250000 654.687500 1185.937500 654.687500 1159.375000
L 654.687500 1134.375000
M 668.750000 1120.312500
L 678.125000 1107.812500
M 751.562500 1178.125000
L 751.562500 1134.375000
M 751.562500 1159.375000
C 745.312500 1181.250000 714.062500 1185.937500 714.062500 1159.375000
L 714.062500 1134.375000
M 725.000000 1120.312500
L 732.812500 1107.812500
L 740.625000 1120.312500
M 810.937500 1178.125000
L 810.937500 1134.375000
M 810.937500 1159.375000
C 804.687500 1181.250000 773.437500 1185.937500 773.437500 1159.375000
L 773.437500 1134.375000
M 782.812500 1117.187500
L 782.812500 1114.062500
L 785.937500 1114.062500
L 785.937500 1117.187500
L 782.812500 1117.187500
M 798.437500 1117.187500
L 798.437500 1114.062500
L 801.562500 1114.062500
L 801.562500 1117.187500
L 798.437500 1117.187500
M 831.250000 1134.375000
L 846.875000 1178.125000
M 862.500000 1134.375000
L 846.875000 1178.125000
C 840.625000 1198.437500 835.937500 1200.000000 826.562500 1196.875000
M 843.750000 1120.312500
L 853.125000 1107.812500
M 882.812500 1112.500000
L 882.812500 1200.000000
M 882.812500 1143.750000
C 887.500000 1137.500000 892.187500 1134.375000 900.000000 1134.375000
C 917.187500 1134.375000 920.312500 1148.437500 920.312500 1156.250000
C 920.312500 1164.062500 917.187500 1178.125000 900.000000 1178.125000
C 892.187500 1178.125000 887.500000 1175.000000 882.812500 1168.750000
M 939.062500 1134.375000
L 954.687500 1178.125000
M 970.312500 1134.375000
L 954.687500 1178.125000
C 948.437500 1198.437500 943.750000 1200.000000 934.375000 1196.875000
M 945.312500 1117.187500
L 945.312500 1114.062500
L 948.437500 1114.062500
L 948.437500 1117.187500
L 945.312500 1117.187500
M 960.937500 1117.187500
L 960.937500 1114.062500
L 964.062500 1114.062500
L 964.062500 1117.187500
L 960.937500 1117.187500
M 59.375000 1278.125000
L 85.937500 1212.500000
L 112.500000 1278.125000
M 68.750000 1256.250000
L 103.125000 1256.250000
M 76.562500 1203.125000
L 95.312500 1203.125000
M 129.687500 1237.500000
C 143.750000 1231.250000 164.062500 1232.812500 164.062500 1251.562500
L 164.062500 1278.125000
M 164.062500 1254.687500
C 148.437500 1253.125000 126.562500 1253.125000 126.562500 1267.187500
C 126.562500 1284.375000 164.062500 1281.250000 164.062500 1257.812500
M 135.937500 1217.187500
L 154.687500 1217.187500
M 184.375000 1278.125000
L 210.937500 1212.500000
L 237.500000 1278.125000
M 193.750000 1256.250000
L 228.125000 1256.250000
M 201.562500 1200.000000
C 206.250000 1206.250000 215.625000 1206.250000 220.312500 1200.000000
M 254.687500 1237.500000
C 268.750000 1231.250000 289.062500 1232.812500 289.062500 1251.562500
L 289.062500 1278.125000
M 289.062500 1254.687500
C 273.437500 1253.125000 251.562500 1253.125000 251.562500 1267.187500
C 251.562500 1284.375000 289.062500 1281.250000 289.062500 1257.812500
M 260.937500 1215.625000
C 265.625000 1221.875000 275.000000 1221.875000 279.687500 1215.625000
M 309.375000 1278.125000
L 335.937500 1212.500000
L 362.500000 1278.125000
M 318.750000 1256.250000
L 353.125000 1256.250000
M 362.500000 1278.125000
C 359.375000 1281.250000 362.500000 1290.625000 373.437500 1285.937500
M 379.687500 1237.500000
C 393.750000 1231.250000 414.062500 1232.812500 414.062500 1251.562500
L 414.062500 1278.125000
M 414.062500 1254.687500
C 398.437500 1253.125000 376.562500 1253.125000 376.562500 1267.187500
C 376.562500 1284.375000 414.062500 1281.250000 414.062500 1257.812500
M 414.062500 1278.125000
C 410.937500 1281.250000 414.062500 1290.625000 425.000000 1285.937500
M 479.687500 1215.625000
C 460.937500 1207.812500 435.937500 1217.187500 435.937500 1245.312500
C 435.937500 1273.437500 460.937500 1282.812500 479.687500 1275.000000
M 464.062500 1204.687500
L 473.437500 1192.187500
M 521.875000 1235.937500
C 514.062500 1232.812500 492.187500 1232.812500 492.187500 1256.250000
C 492.187500 1278.125000 514.062500 1279.687500 521.875000 1276.562500
M 509.375000 1225.000000
L 518.750000 1212.500000
M 587.500000 1215.625000
C 568.750000 1207.812500 543.750000 1217.187500 543.750000 1245.312500
C 543.750000 1273.437500 568.750000 1282.812500 587.500000 1275.000000
M 565.625000 1204.687500
L 573.437500 1192.187500
L 581.250000 1204.687500
M 629.687500 1235.937500
C 621.875000 1232.812500 600.000000 1232.812500 600.000000 1256.250000
C 600.000000 1278.125000 621.875000 1279.687500 629.687500 1276.562500
M 614.062500 1220.312500
L 621.875000 1207.812500
L 629.687500 1220.312500
M 695.312500 1215.625000
C 676.562500 1207.812500 651.562500 1217.187500 651.562500 1245.312500
C 651.562500 1273.437500 676.562500 1282.812500 695.312500 1275.000000
M 679.687500 1201.562500
L 679.687500 1198.437500
L 682.812500 1198.437500
L 682.812500 1201.562500
L 679.687500 1201.562500
M 737.500000 1235.937500
C 729.687500 1232.812500 707.812500 1232.812500 707.812500 1256.250000
C 707.812500 1278.125000 729.687500 1279.687500 737.500000 1276.562500
M 725.000000 1218.750000
L 725.000000 1215.625000
L 728.125000 1215.625000
L 728.125000 1218.750000
L 725.000000 1218.750000
M 803.125000 1215.625000
C 784.375000 1207.812500 759.375000 1217.187500 759.375000 1245.312500
C 759.375000 1273.437500 784.375000 1282.812500 803.125000 1275.000000
M 781.250000 1192.187500
L 789.062500 1204.687500
L 796.875000 1192.187500
M 845.312500 1235.937500
C 837.500000 1232.812500 815.625000 1232.812500 815.625000 1256.250000
C 815.625000 1278.125000 837.500000 1279.687500 845.312500 1276.562500
M 829.687500 1204.687500
L 837.500000 1217.187500
L 845.312500 1204.687500
M 868.750000 1278.125000
L 868.750000 1212.500000
L 884.375000 1212.500000
C 926.562500 1212.500000 926.562500 1278.125000 884.375000 1278.125000
L 868.750000 1278.125000
M 882.812500 1192.187500
L 890.625000 1204.687500
L 898.437500 1192.187500
M 973.437500 1212.500000
L 973.437500 1278.125000
M 973.437500 1256.250000
C 973.437500 1228.125000 935.937500 1228.125000 935.937500 1256.250000
C 935.937500 1284.375000 973.437500 1284.375000 973.437500 1256.250000
M 985.937500 1212.500000
L 982.812500 1225.000000
M 62.500000 1378.125000
L 62.500000 1312.500000
L 78.125000 1312.500000
C 120.312500 1312.500000 120.312500 1378.125000 78.125000 1378.125000
L 62.500000 1378.125000
M 53.125000 1342.187500
L 84.375000 1342.187500
M 167.187500 1312.500000
L 167.187500 1378.125000
M 167.187500 1356.250000
C 167.187500 1328.125000 129.687500 1328.125000 129.687500 1356.250000
C 129.687500 1384.375000 167.187500 1384.375000 167.187500 1356.250000
M 154.687500 1323.437500
L 179.687500 1323.437500
M 223.437500 1312.500000
L 193.750000 1312.500000
L 193.750000 1378.125000
L 223.437500 1378.125000
M 193.750000 1343.750000
L 220.312500 1343.750000
M 198.437500 1303.125000
L 217.187500 1303.125000
M 242.187500 1354.687500
L 279.687500 1354.687500
C 279.687500 1328.125000 242.187500 1328.125000 242.187500 1354.687500
C 242.187500 1378.125000 264.062500 1381.250000 279.687500 1375.000000
M 251.562500 1320.312500
L 270.312500 1320.312500
M 332.812500 1312.500000
L 303.125000 1312.500000
L 303.125000 1378.125000
L 332.812500 1378.125000
M 303.125000 1343.750000
L 329.687500 1343.750000
M 307.812500 1300.000000
C 312.500000 1306.250000 321.875000 1306.250000 326.562500 1300.000000
M 351.562500 1354.687500
L 389.062500 1354.687500
C 389.062500 1328.125000 351.562500 1328.125000 351.562500 1354.687500
C 351.562500 1378.125000 373.437500 1381.250000 389.062500 1375.000000
M 360.937500 1315.625000
C 365.625000 1321.875000 375.000000 1321.875000 379.687500 1315.625000
M 442.187500 1312.500000
L 412.500000 1312.500000
L 412.500000 1378.125000
L 442.187500 1378.125000
M 412.500000 1343.750000
L 439.062500 1343.750000
M 426.562500 1301.562500
L 426.562500 1298.437500
L 429.687500 1298.437500
L 429.687500 1301.562500
L 426.562500 1301.562500
M 460.937500 1354.687500
L 498.437500 1354.687500
C 498.437500 1328.125000 460.937500 1328.125000 460.937500 1354.687500
C 460.937500 1378.125000 482.812500 1381.250000 498.437500 1375.000000
M 478.125000 1317.187500
L 478.125000 1314.062500
L 481.250000 1314.062500
L 481.250000 1317.187500
L 478.125000 1317.187500
M 551.562500 1312.500000
L 521.875000 1312.500000
L 521.875000 1378.125000
L 551.562500 1378.125000
M 521.875000 1343.750000
L 548.437500 1343.750000
M 548.437500 1378.125000
C 545.312500 1381.250000 548.437500 1390.625000 559.375000 1385.937500
M 570.312500 1354.687500
L 607.812500 1354.687500
C 607.812500 1328.125000 570.312500 1328.125000 570.312500 1354.687500
C 570.312500 1378.125000 592.187500 1381.250000 607.812500 1375.000000
M 596.875000 1378.125000
C 593.750000 1381.250000 596.875000 1390.625000 607.812500 1385.937500
M 660.937500 1312.500000
L 631.250000 1312.500000
L 631.250000 1378.125000
L 660.937500 1378.125000
M 631.250000 1343.750000
L 657.812500 1343.750000
M 637.500000 1292.187500
L 645.312500 1304.687500
L 653.125000 1292.187500
M 679.687500 1354.687500
L 717.187500 1354.687500
C 717.187500 1328.125000 679.687500 1328.125000 679.687500 1354.687500
C 679.687500 1378.125000 701.562500 1381.250000 717.187500 1375.000000
M 690.625000 1307.812500
L 698.437500 1320.312500
L 706.250000 1307.812500
M 784.375000 1317.187500
C 765.625000 1306.250000 735.937500 1314.062500 735.937500 1345.312500
C 735.937500 1375.000000 764.062500 1382.812500 784.375000 1375.000000
L 784.375000 1345.312500
L 767.187500 1345.312500
M 759.375000 1304.687500
L 767.187500 1292.187500
L 775.000000 1304.687500
M 842.187500 1334.375000
L 842.187500 1378.125000
C 842.187500 1404.687500 817.187500 1401.562500 807.812500 1396.875000
M 842.187500 1356.250000
C 842.187500 1328.125000 804.687500 1328.125000 804.687500 1356.250000
C 804.687500 1384.375000 842.187500 1384.375000 842.187500 1356.250000
M 815.625000 1320.312500
L 823.437500 1307.812500
L 831.250000 1320.312500
M 914.062500 1317.187500
C 895.312500 1306.250000 865.625000 1314.062500 865.625000 1345.312500
C 865.625000 1375.000000 893.750000 1382.812500 914.062500 1375.000000
L 914.062500 1345.312500
L 896.875000 1345.312500
M 887.500000 1300.000000
C 892.187500 1306.250000 901.562500 1306.250000 906.250000 1300.000000
M 971.875000 1334.375000
L 971.875000 1378.125000
C 971.875000 1404.687500 946.875000 1401.562500 937.500000 1396.875000
M 971.875000 1356.250000
C 971.875000 1328.125000 934.375000 1328.125000 934.375000 1356.250000
C 934.375000 1384.375000 971.875000 1384.375000 971.875000 1356.250000
M 943.750000 1315.625000
C 948.437500 1321.875000 957.812500 1321.875000 962.500000 1315.625000
M 107.812500 1417.187500
C 89.062500 1406.250000 59.375000 1414.062500 59.375000 1445.312500
C 59.375000 1475.000000 87.500000 1482.812500 107.812500 1475.000000
L 107.812500 1445.312500
L 90.625000 1445.312500
M 89.062500 1401.562500
L 89.062500 1398.437500
L 92.187500 1398.437500
L 92.187500 1401.562500
L 89.062500 1401.562500
M 165.625000 1434.375000
L 165.625000 1478.125000
C 165.625000 1504.687500 140.625000 1501.562500 131.250000 1496.875000
M 165.625000 1456.250000
C 165.625000 1428.125000 128.125000 1428.125000 128.125000 1456.250000
C 128.125000 1484.375000 165.625000 1484.375000 165.625000 1456.250000
M 145.312500 1417.187500
L 145.312500 1414.062500
L 148.437500 1414.062500
L 148.437500 1417.187500
L 145.312500 1417.187500
M 237.500000 1417.187500
C 218.750000 1406.250000 189.062500 1414.062500 189.062500 1445.312500
C 189.062500 1475.000000 217.187500 1482.812500 237.500000 1475.000000
L 237.500000 1445.312500
L 220.312500 1445.312500
M 223.437500 1485.937500
L 220.312500 1492.187500
M 295.312500 1434.375000
L 295.312500 1478.125000
C 295.312500 1504.687500 270.312500 1501.562500 260.937500 1496.875000
M 295.312500 1456.250000
C 295.312500 1428.125000 257.812500 1428.125000 257.812500 1456.250000
C 257.812500 1484.375000 295.312500 1484.375000 295.312500 1456.250000
M 278.125000 1407.812500
L 275.000000 1420.312500
M 323.437500 1412.500000
L 323.437500 1478.125000
M 367.187500 1412.500000
L 367.187500 1478.125000
M 323.437500 1443.750000
L 367.187500 1443.750000
M 337.500000 1404.687500
L 345.312500 1392.187500
L 353.125000 1404.687500
M 390.625000 1412.500000
L 390.625000 1478.125000
M 390.625000 1453.125000
C 396.875000 1431.250000 428.125000 1426.562500 428.125000 1453.125000
L 428.125000 1478.125000
M 382.812500 1412.500000
L 390.625000 1400.000000
L 398.437500 1412.500000
M 453.125000 1412.500000
L 453.125000 1478.125000
M 496.875000 1412.500000
L 496.875000 1478.125000
M 453.125000 1443.750000
L 496.875000 1443.750000
M 448.437500 1428.125000
L 501.562500 1428.125000
M 520.312500 1412.500000
L 520.312500 1478.125000
M 520.312500 1453.125000
C 526.562500 1431.250000 557.812500 1426.562500 557.812500 1453.125000
L 557.812500 1478.125000
M 509.375000 1423.437500
L 531.250000 1423.437500
M 581.250000 1412.500000
L 581.250000 1478.125000
M 568.750000 1401.562500
C 578.125000 1381.250000 584.375000 1418.750000 593.750000 1398.437500
M 607.812500 1434.375000
L 607.812500 1478.125000
M 595.312500 1417.187500
C 604.687500 1396.875000 610.937500 1434.375000 620.312500 1414.062500
M 634.375000 1412.500000
L 634.375000 1478.125000
M 625.000000 1403.125000
L 643.750000 1403.125000
M 660.937500 1434.375000
L 660.937500 1478.125000
M 651.562500 1418.750000
L 670.312500 1418.750000
M 687.500000 1412.500000
L 687.500000 1478.125000
M 678.125000 1400.000000
C 682.812500 1406.250000 692.187500 1406.250000 696.875000 1400.000000
M 714.062500 1434.375000
L 714.062500 1478.125000
M 704.687500 1415.625000
C 709.375000 1421.875000 718.750000 1421.875000 723.437500 1415.625000
M 740.625000 1412.500000
L 740.625000 1478.125000
C 737.500000 1481.250000 740.625000 1490.625000 751.562500 1485.937500
M 767.187500 1434.375000
L 767.187500 1478.125000
M 765.625000 1417.187500
L 765.625000 1414.062500
L 768.750000 1414.062500
L 768.750000 1417.187500
L 765.625000 1417.187500
M 767.187500 1478.125000
C 764.062500 1481.250000 767.187500 1490.625000 778.125000 1485.937500
M 62.500000 1512.500000
L 62.500000 1578.125000
M 60.937500 1501.562500
L 60.937500 1498.437500
L 64.062500 1498.437500
L 64.062500 1501.562500
L 60.937500 1501.562500
M 89.062500 1534.375000
L 89.062500 1578.125000
M 115.625000 1512.500000
L 115.625000 1578.125000
M 135.937500 1512.500000
L 135.937500 1568.750000
C 135.937500 1590.625000 120.312500 1587.500000 115.625000 1585.937500
M 162.500000 1534.375000
L 162.500000 1578.125000
M 160.937500 1517.187500
L 160.937500 1514.062500
L 164.062500 1514.062500
L 164.062500 1517.187500
L 160.937500 1517.187500
M 175.000000 1534.375000
L 175.000000 1585.937500
C 175.000000 1596.875000 168.750000 1601.562500 159.375000 1598.437500
M 173.437500 1517.187500
L 173.437500 1514.062500
L 176.562500 1514.062500
L 176.562500 1517.187500
L 173.437500 1517.187500
M 212.500000 1512.500000
L 212.500000 1559.375000
C 212.500000 1581.250000 196.875000 1578.125000 192.187500 1576.562500
M 204.687500 1504.687500
L 212.500000 1492.187500
L 220.312500 1504.687500
M 239.062500 1534.375000
L 239.062500 1582.812500
C 239.062500 1596.875000 235.937500 1601.562500 226.562500 1598.437500
M 231.250000 1520.312500
L 239.062500 1507.812500
L 246.875000 1520.312500
M 265.625000 1512.500000
L 265.625000 1578.125000
M 307.812500 1512.500000
L 265.625000 1556.250000
M 278.125000 1543.750000
L 309.375000 1578.125000
M 289.062500 1585.937500
L 285.937500 1592.187500
M 329.687500 1512.500000
L 329.687500 1578.125000
M 359.375000 1531.250000
L 329.687500 1560.937500
M 340.625000 1551.562500
L 364.062500 1578.125000
M 350.000000 1585.937500
L 346.875000 1592.187500
M 385.937500 1534.375000
L 385.937500 1578.125000
M 414.062500 1534.375000
L 385.937500 1564.062500
M 395.312500 1554.687500
L 415.625000 1578.125000
M 435.937500 1512.500000
L 435.937500 1578.125000
L 468.750000 1578.125000
M 448.437500 1504.687500
L 457.812500 1492.187500
M 485.937500 1512.500000
L 485.937500 1578.125000
M 484.375000 1504.687500
L 493.750000 1492.187500
M 512.500000 1512.500000
L 512.500000 1578.125000
L 545.312500 1578.125000
M 529.687500 1585.937500
L 526.562500 1592.187500
M 562.500000 1512.500000
L 562.500000 1578.125000
M 564.062500 1585.937500
L 560.937500 1592.187500
M 589.062500 1512.500000
L 589.062500 1578.125000
L 621.875000 1578.125000
M 603.125000 1512.500000
L 600.000000 1518.750000
M 639.062500 1512.500000
L 639.062500 1578.125000
M 650.000000 1512.500000
L 646.875000 1518.750000
M 665.625000 1512.500000
L 665.625000 1578.125000
L 698.437500 1578.125000
M 682.812500 1546.875000
L 682.812500 1543.750000
L 685.937500 1543.750000
L 685.937500 1546.875000
L 682.812500 1546.875000
M 62.500000 1612.500000
L 62.500000 1678.125000
M 71.875000 1646.875000
L 71.875000 1643.750000
L 75.000000 1643.750000
L 75.000000 1646.875000
L 71.875000 1646.875000
M 89.062500 1612.500000
L 89.062500 1678.125000
L 121.875000 1678.125000
M 81.250000 1654.687500
L 112.500000 1635.937500
M 139.062500 1612.500000
L 139.062500 1678.125000
M 131.250000 1651.562500
L 146.875000 1639.062500
M 167.187500 1678.125000
L 167.187500 1612.500000
L 210.937500 1678.125000
L 210.937500 1612.500000
M 184.375000 1604.687500
L 193.750000 1592.187500
M 234.375000 1634.375000
L 234.375000 1678.125000
M 234.375000 1653.125000
C 240.625000 1631.250000 271.875000 1626.562500 271.875000 1653.125000
L 271.875000 1678.125000
M 248.437500 1620.312500
L 257.812500 1607.812500
M 296.875000 1678.125000
L 296.875000 1612.500000
L 340.625000 1678.125000
L 340.625000 1612.500000
M 320.312500 1685.937500
L 317.187500 1692.187500
M 364.062500 1634.375000
L 364.062500 1678.125000
M 364.062500 1653.125000
C 370.312500 1631.250000 401.562500 1626.562500 401.562500 1653.125000
L 401.562500 1678.125000
M 384.375000 1685.937500
L 381.250000 1692.187500
M 426.562500 1678.125000
L 426.562500 1612.500000
L 470.312500 1678.125000
L 470.312500 1612.500000
M 440.625000 1592.187500
L 448.437500 1604.687500
L 456.250000 1592.187500
M 493.750000 1634.375000
L 493.750000 1678.125000
M 493.750000 1653.125000
C 500.000000 1631.250000 531.250000 1626.562500 531.250000 1653.125000
L 531.250000 1678.125000
M 504.687500 1607.812500
L 512.500000 1620.312500
L 520.312500 1607.812500
M 553.125000 1634.375000
L 553.125000 1678.125000
M 553.125000 1653.125000
C 559.375000 1631.250000 590.625000 1626.562500 590.625000 1653.125000
L 590.625000 1678.125000
M 550.000000 1623.437500
L 546.875000 1629.687500
M 615.625000 1612.500000
L 615.625000 1678.125000
M 615.625000 1640.625000
C 621.875000 1609.375000 665.625000 1600.000000 665.625000 1640.625000
L 665.625000 1678.125000
C 665.625000 1695.312500 664.062500 1698.437500 640.625000 1698.437500
M 690.625000 1634.375000
L 690.625000 1678.125000
M 690.625000 1653.125000
C 696.875000 1631.250000 728.125000 1626.562500 728.125000 1653.125000
L 728.125000 1678.125000
C 728.125000 1693.750000 726.562500 1695.312500 710.937500 1695.312500
M 748.437500 1645.312500
C 748.437500 1601.562500 804.687500 1601.562500 804.687500 1645.312500
C 804.687500 1689.062500 748.437500 1689.062500 748.437500 1645.312500
M 767.187500 1603.125000
L 785.937500 1603.125000
M 865.625000 1656.250000
C 865.625000 1626.562500 825.000000 1626.562500 825.000000 1656.250000
C 825.000000 1685.937500 865.625000 1685.937500 865.625000 1656.250000
M 835.937500 1618.750000
L 854.687500 1618.750000
M 884.375000 1645.312500
C 884.375000 1601.562500 940.625000 1601.562500 940.625000 1645.312500
C 940.625000 1689.062500 884.375000 1689.062500 884.375000 1645.312500
M 903.125000 1600.000000
C 907.812500 1606.250000 917.187500 1606.250000 921.875000 1600.000000
M 1001.562500 1656.250000
C 1001.562500 1626.562500 960.937500 1626.562500 960.937500 1656.250000
C 960.937500 1685.937500 1001.562500 1685.937500 1001.562500 1656.250000
M 971.875000 1615.625000
C 976.562500 1621.875000 985.937500 1621.875000 990.625000 1615.625000
M 59.375000 1745.312500
C 59.375000 1701.562500 115.625000 1701.562500 115.625000 1745.312500
C 115.625000 1789.062500 59.375000 1789.062500 59.375000 1745.312500
M 81.250000 1704.687500
L 90.625000 1692.187500
M 93.750000 1704.687500
L 103.125000 1692.187500
M 176.562500 1756.250000
C 176.562500 1726.562500 135.937500 1726.562500 135.937500 1756.250000
C 135.937500 1785.937500 176.562500 1785.937500 176.562500 1756.250000
M 150.000000 1720.312500
L 159.375000 1707.812500
M 162.500000 1720.312500
L 171.875000 1707.812500
M 239.062500 1773.437500
C 217.187500 1785.937500 195.312500 1771.875000 195.312500 1745.312500
C 195.312500 1718.750000 217.187500 1704.687500 239.062500 1717.187500
M 268.750000 1712.500000
L 239.062500 1712.500000
L 239.062500 1778.125000
L 268.750000 1778.125000
M 239.062500 1743.750000
L 265.625000 1743.750000
M 326.562500 1756.250000
C 326.562500 1726.562500 285.937500 1726.562500 285.937500 1756.250000
C 285.937500 1785.937500 326.562500 1785.937500 326.562500 1756.250000
M 326.562500 1754.687500
L 364.062500 1754.687500
C 364.062500 1728.125000 326.562500 1728.125000 326.562500 1754.687500
C 326.562500 1778.125000 348.437500 1781.250000 364.062500 1775.000000
M 382.812500 1778.125000
L 382.812500 1712.500000
L 398.437500 1712.500000
C 423.437500 1712.500000 423.437500 1743.750000 398.437500 1743.750000
L 382.812500 1743.750000
M 404.687500 1743.750000
L 421.875000 1778.125000
M 396.875000 1704.687500
L 406.250000 1692.187500
M 442.187500 1734.375000
L 442.187500 1778.125000
M 442.187500 1759.375000
C 445.312500 1743.750000 453.125000 1734.375000 464.062500 1734.375000
M 450.000000 1720.312500
L 459.375000 1707.812500
M 479.687500 1778.125000
L 479.687500 1712.500000
L 495.312500 1712.500000
C 520.312500 1712.500000 520.312500 1743.750000 495.312500 1743.750000
L 479.687500 1743.750000
M 501.562500 1743.750000
L 518.750000 1778.125000
M 500.000000 1785.937500
L 496.875000 1792.187500
M 539.062500 1734.375000
L 539.062500 1778.125000
M 539.062500 1759.375000
C 542.187500 1743.750000 550.000000 1734.375000 560.937500 1734.375000
M 553.125000 1785.937500
L 550.000000 1792.187500
M 576.562500 1778.125000
L 576.562500 1712.500000
L 592.187500 1712.500000
C 617.187500 1712.500000 617.187500 1743.750000 592.187500 1743.750000
L 576.562500 1743.750000
M 598.437500 1743.750000
L 615.625000 1778.125000
M 585.937500 1692.187500
L 593.750000 1704.687500
L 601.562500 1692.187500
M 635.937500 1734.375000
L 635.937500 1778.125000
M 635.937500 1759.375000
C 639.062500 1743.750000 646.875000 1734.375000 657.812500 1734.375000
M 639.062500 1707.812500
L 646.875000 1720.312500
L 654.687500 1707.812500
M 700.000000 1714.062500
C 693.750000 1712.500000 667.187500 1707.812500 667.187500 1728.125000
C 667.187500 1745.312500 703.125000 1742.187500 703.125000 1760.937500
C 701.562500 1782.812500 673.437500 1779.687500 667.187500 1775.000000
M 682.812500 1704.687500
L 692.187500 1692.187500
M 739.062500 1735.937500
C 735.937500 1734.375000 715.625000 1731.250000 715.625000 1745.312500
C 715.625000 1754.687500 739.062500 1756.250000 739.062500 1767.187500
C 739.062500 1781.250000 723.437500 1779.687500 715.625000 1776.562500
M 726.562500 1720.312500
L 735.937500 1707.812500
M 793.750000 1714.062500
C 787.500000 1712.500000 760.937500 1707.812500 760.937500 1728.125000
C 760.937500 1745.312500 796.875000 1742.187500 796.875000 1760.937500
C 795.312500 1782.812500 767.187500 1779.687500 760.937500 1775.000000
M 771.875000 1704.687500
L 779.687500 1692.187500
L 787.500000 1704.687500
M 832.812500 1735.937500
C 829.687500 1734.375000 809.375000 1731.250000 809.375000 1745.312500
C 809.375000 1754.687500 832.812500 1756.250000 832.812500 1767.187500
C 832.812500 1781.250000 817.187500 1779.687500 809.375000 1776.562500
M 814.062500 1720.312500
L 821.875000 1707.812500
L 829.687500 1720.312500
M 887.500000 1714.062500
C 881.250000 1712.500000 854.687500 1707.812500 854.687500 1728.125000
C 854.687500 1745.312500 890.625000 1742.187500 890.625000 1760.937500
C 889.062500 1782.812500 860.937500 1779.687500 854.687500 1775.000000
M 875.000000 1778.125000
L 868.750000 1785.937500
C 884.375000 1782.812500 879.687500 1804.687500 864.062500 1796.875000
M 934.375000 1735.937500
C 931.250000 1734.375000 910.937500 1731.250000 910.937500 1745.312500
C 910.937500 1754.687500 934.375000 1756.250000 934.375000 1767.187500
C 934.375000 1781.250000 918.750000 1779.687500 910.937500 1776.562500
M 926.562500 1778.125000
L 920.312500 1785.937500
C 935.937500 1782.812500 931.250000 1804.687500 915.625000 1796.875000
M 89.062500 1814.062500
C 82.812500 1812.500000 56.250000 1807.812500 56.250000 1828.125000
C 56.250000 1845.312500 92.187500 1842.187500 92.187500 1860.937500
C 90.625000 1882.812500 62.500000 1879.687500 56.250000 1875.000000
M 67.187500 1792.187500
L 75.000000 1804.687500
L 82.812500 1792.187500
M 128.125000 1835.937500
C 125.000000 1834.375000 104.687500 1831.250000 104.687500 1845.312500
C 104.687500 1854.687500 128.125000 1856.250000 128.125000 1867.187500
C 128.125000 1881.250000 112.500000 1879.687500 104.687500 1876.562500
M 109.375000 1807.812500
L 117.187500 1820.312500
L 125.000000 1807.812500
M 162.500000 1812.500000
L 162.500000 1878.125000
M 140.625000 1812.500000
L 184.375000 1812.500000
M 162.500000 1878.125000
L 156.250000 1885.937500
C 171.875000 1882.812500 167.187500 1904.687500 151.562500 1896.875000
M 207.812500 1818.750000
L 207.812500 1862.500000
C 207.812500 1876.562500 214.062500 1879.687500 221.875000 1876.562500
M 195.312500 1834.375000
L 220.312500 1834.375000
M 217.187500 1878.125000
L 210.937500 1885.937500
C 226.562500 1882.812500 221.875000 1904.687500 206.250000 1896.875000
M 256.250000 1812.500000
L 256.250000 1878.125000
M 234.375000 1812.500000
L 278.125000 1812.500000
M 248.437500 1792.187500
L 256.250000 1804.687500
L 264.062500 1792.187500
M 301.562500 1818.750000
L 301.562500 1862.500000
C 301.562500 1876.562500 307.812500 1879.687500 315.625000 1876.562500
M 289.062500 1834.375000
L 314.062500 1834.375000
M 312.500000 1812.500000
L 309.375000 1818.750000
M 350.000000 1812.500000
L 350.000000 1878.125000
M 328.125000 1812.500000
L 371.875000 1812.500000
M 339.062500 1845.312500
L 360.937500 1845.312500
M 395.312500 1818.750000
L 395.312500 1862.500000
C 395.312500 1876.562500 401.562500 1879.687500 409.375000 1876.562500
M 382.812500 1834.375000
L 407.812500 1834.375000
M 382.812500 1850.000000
L 407.812500 1850.000000
M 429.687500 1812.500000
L 429.687500 1850.000000
C 429.687500 1887.500000 473.437500 1887.500000 473.437500 1850.000000
L 473.437500 1812.500000
M 439.062500 1801.562500
C 448.437500 1781.250000 454.687500 1818.750000 464.062500 1798.437500
M 535.937500 1878.125000
L 535.937500 1834.375000
M 535.937500 1859.375000
C 529.687500 1881.250000 498.437500 1885.937500 498.437500 1859.375000
L 498.437500 1834.375000
M 504.687500 1817.187500
C 514.062500 1796.875000 520.312500 1834.375000 529.687500 1814.062500
M 559.375000 1812.500000
L 559.375000 1850.000000
C 559.375000 1887.500000 603.125000 1887.500000 603.125000 1850.000000
L 603.125000 1812.500000
M 571.875000 1803.125000
L 590.625000 1803.125000
M 665.625000 1878.125000
L 665.625000 1834.375000
M 665.625000 1859.375000
C 659.375000 1881.250000 628.125000 1885.937500 628.125000 1859.375000
L 628.125000 1834.375000
M 637.500000 1818.750000
L 656.250000 1818.750000
M 689.062500 1812.500000
L 689.062500 1850.000000
C 689.062500 1887.500000 732.812500 1887.500000 732.812500 1850.000000
L 732.812500 1812.500000
M 701.562500 1800.000000
C 706.250000 1806.250000 715.625000 1806.250000 720.312500 1800.000000
M 795.312500 1878.125000
L 795.312500 1834.375000
M 795.312500 1859.375000
C 789.062500 1881.250000 757.812500 1885.937500 757.812500 1859.375000
L 757.812500 1834.375000
M 767.187500 1815.625000
C 771.875000 1821.875000 781.250000 1821.875000 785.937500 1815.625000
M 818.750000 1812.500000
L 818.750000 1850.000000
C 818.750000 1887.500000 862.500000 1887.500000 862.500000 1850.000000
L 862.500000 1812.500000
M 840.625000 1806.250000
C 837.500000 1806.250000 834.375000 1803.125000 834.375000 1800.000000
C 834.375000 1796.875000 837.500000 1793.750000 840.625000 1793.750000
C 843.750000 1793.750000 846.875000 1796.875000 846.875000 1800.000000
C 846.875000 1803.125000 843.750000 1806.250000 840.625000 1806.250000
M 925.000000 1878.125000
L 925.000000 1834.375000
M 925.000000 1859.375000
C 918.750000 1881.250000 887.500000 1885.937500 887.500000 1859.375000
L 887.500000 1834.375000
M 906.250000 1820.312500
C 903.125000 1820.312500 900.000000 1817.187500 900.000000 1814.062500
C 900.000000 1810.937500 903.125000 1807.812500 906.250000 1807.812500
C 909.375000 1807.812500 912.500000 1810.937500 912.500000 1814.062500
C 912.500000 1817.187500 909.375000 1820.312500 906.250000 1820.312500
M 62.500000 1912.500000
L 62.500000 1950.000000
C 62.500000 1987.500000 106.250000 1987.500000 106.250000 1950.000000
L 106.250000 1912.500000
M 78.125000 1904.687500
L 87.500000 1892.187500
M 90.625000 1904.687500
L 100.000000 1892.187500
M 168.750000 1978.125000
L 168.750000 1934.375000
M 168.750000 1959.375000
C 162.500000 1981.250000 131.250000 1985.937500 131.250000 1959.375000
L 131.250000 1934.375000
M 143.750000 1920.312500
L 153.125000 1907.812500
M 156.250000 1920.312500
L 165.625000 1907.812500
M 192.187500 1912.500000
L 192.187500 1950.000000
C 192.187500 1987.500000 235.937500 1987.500000 235.937500 1950.000000
L 235.937500 1912.500000
M 214.062500 1978.125000
C 210.937500 1981.250000 214.062500 1990.625000 225.000000 1985.937500
M 298.437500 1978.125000
L 298.437500 1934.375000
M 298.437500 1959.375000
C 292.187500 1981.250000 260.937500 1985.937500 260.937500 1959.375000
L 260.937500 1934.375000
M 276.562500 1978.125000
C 273.437500 1981.250000 276.562500 1990.625000 287.500000 1985.937500
M 315.625000 1912.500000
L 334.375000 1978.125000
L 346.875000 1934.375000
L 359.375000 1978.125000
L 378.125000 1912.500000
M 339.062500 1904.687500
L 346.875000 1892.187500
L 354.687500 1904.687500
M 389.062500 1934.375000
L 404.687500 1978.125000
L 420.312500 1934.375000
L 435.937500 1978.125000
L 451.562500 1934.375000
M 412.500000 1920.312500
L 420.312500 1907.812500
L 428.125000 1920.312500
M 460.937500 1912.500000
L 485.937500 1948.437500
L 485.937500 1978.125000
M 510.937500 1912.500000
L 485.937500 1948.437500
M 478.125000 1904.687500
L 485.937500 1892.187500
L 493.750000 1904.687500
M 528.125000 1934.375000
L 543.750000 1978.125000
M 559.375000 1934.375000
L 543.750000 1978.125000
C 537.500000 1998.437500 532.812500 2000.000000 523.437500 1996.875000
M 535.937500 1920.312500
L 543.750000 1907.812500
L 551.562500 1920.312500
M 575.000000 1912.500000
L 600.000000 1948.437500
L 600.000000 1978.125000
M 625.000000 1912.500000
L 600.000000 1948.437500
M 590.625000 1901.562500
L 590.625000 1898.437500
L 593.750000 1898.437500
L 593.750000 1901.562500
L 590.625000 1901.562500
M 606.250000 1901.562500
L 606.250000 1898.437500
L 609.375000 1898.437500
L 609.375000 1901.562500
L 606.250000 1901.562500
M 637.500000 1912.500000
L 681.250000 1912.500000
L 637.500000 1978.125000
L 681.250000 1978.125000
M 657.812500 1904.687500
L 667.187500 1892.187500
M 695.312500 1934.375000
L 729.687500 1934.375000
L 695.312500 1978.125000
L 729.687500 1978.125000
M 710.937500 1920.312500
L 720.312500 1907.812500
M 740.625000 1912.500000
L 784.375000 1912.500000
L 740.625000 1978.125000
L 784.375000 1978.125000
M 760.937500 1901.562500
L 760.937500 1898.437500
L 764.062500 1898.437500
L 764.062500 1901.562500
L 760.937500 1901.562500
M 798.437500 1934.375000
L 832.812500 1934.375000
L 798.437500 1978.125000
L 832.812500 1978.125000
M 815.625000 1918.750000
L 815.625000 1915.625000
L 818.750000 1915.625000
L 818.750000 1918.750000
L 815.625000 1918.750000
M 843.750000 1912.500000
L 887.500000 1912.500000
L 843.750000 1978.125000
L 887.500000 1978.125000
M 857.812500 1892.187500
L 865.625000 1904.687500
L 873.437500 1892.187500
M 901.562500 1934.375000
L 935.937500 1934.375000
L 901.562500 1978.125000
L 935.937500 1978.125000
M 910.937500 1907.812500
L 918.750000 1920.312500
L 926.562500 1907.812500
M 975.000000 1914.062500
C 965.625000 1910.937500 959.375000 1915.625000 959.375000 1926.562500
L 959.375000 1978.125000
M 946.875000 1935.937500
L 959.375000 1935.937500
M 62.500000 2009.375000
L 62.500000 2087.500000
M 89.062500 2009.375000
L 89.062500 2087.500000
M 101.562500 2009.375000
L 101.562500 2087.500000
M 131.250000 2009.375000
L 131.250000 2087.500000
M 120.312500 2037.500000
L 142.187500 2037.500000
M 142.187500 2056.250000
L 120.312500 2056.250000
M 167.187500 2012.500000
L 167.187500 2056.250000
M 165.625000 2078.125000
L 165.625000 2075.000000
L 168.750000 2075.000000
L 168.750000 2078.125000
L 165.625000 2078.125000
M 198.437500 2078.125000
L 198.437500 2012.500000
L 214.062500 2012.500000
C 256.250000 2012.500000 256.250000 2078.125000 214.062500 2078.125000
L 198.437500 2078.125000
M 248.437500 2012.500000
L 292.187500 2012.500000
L 248.437500 2078.125000
L 292.187500 2078.125000
M 262.500000 1992.187500
L 270.312500 2004.687500
L 278.125000 1992.187500
M 310.937500 2078.125000
L 310.937500 2012.500000
L 326.562500 2012.500000
C 368.750000 2012.500000 368.750000 2078.125000 326.562500 2078.125000
L 310.937500 2078.125000
M 365.625000 2034.375000
L 400.000000 2034.375000
L 365.625000 2078.125000
L 400.000000 2078.125000
M 375.000000 2007.812500
L 382.812500 2020.312500
L 390.625000 2007.812500
M 453.125000 2012.500000
L 453.125000 2078.125000
M 453.125000 2056.250000
C 453.125000 2028.125000 415.625000 2028.125000 415.625000 2056.250000
C 415.625000 2084.375000 453.125000 2084.375000 453.125000 2056.250000
M 464.062500 2034.375000
L 498.437500 2034.375000
L 464.062500 2078.125000
L 498.437500 2078.125000
M 473.437500 2007.812500
L 481.250000 2020.312500
L 489.062500 2007.812500
M 517.187500 2012.500000
L 517.187500 2078.125000
L 550.000000 2078.125000
M 565.625000 2012.500000
L 565.625000 2068.750000
C 565.625000 2090.625000 550.000000 2087.500000 545.312500 2085.937500
M 592.187500 2012.500000
L 592.187500 2078.125000
L 625.000000 2078.125000
M 637.500000 2034.375000
L 637.500000 2082.812500
C 637.500000 2096.875000 634.375000 2101.562500 625.000000 2098.437500
M 635.937500 2017.187500
L 635.937500 2014.062500
L 639.062500 2014.062500
L 639.062500 2017.187500
L 635.937500 2017.187500
M 662.500000 2012.500000
L 662.500000 2078.125000
M 675.000000 2034.375000
L 675.000000 2082.812500
C 675.000000 2096.875000 671.875000 2101.562500 662.500000 2098.437500
M 673.437500 2017.187500
L 673.437500 2014.062500
L 676.562500 2014.062500
L 676.562500 2017.187500
L 673.437500 2017.187500
M 703.125000 2078.125000
L 703.125000 2012.500000
L 746.875000 2078.125000
L 746.875000 2012.500000
M 762.500000 2012.500000
L 762.500000 2068.750000
C 762.500000 2090.625000 746.875000 2087.500000 742.187500 2085.937500
M 790.625000 2078.125000
L 790.625000 2012.500000
L 834.375000 2078.125000
L 834.375000 2012.500000
M 846.875000 2034.375000
L 846.875000 2082.812500
C 846.875000 2096.875000 843.750000 2101.562500 834.375000 2098.437500
M 845.312500 2017.187500
L 845.312500 2014.062500
L 848.437500 2014.062500
L 848.437500 2017.187500
L 845.312500 2017.187500
M 870.312500 2034.375000
L 870.312500 2078.125000
M 870.312500 2053.125000
C 876.562500 2031.250000 907.812500 2026.562500 907.812500 2053.125000
L 907.812500 2078.125000
M 920.312500 2034.375000
L 920.312500 2082.812500
C 920.312500 2096.875000 917.187500 2101.562500 907.812500 2098.437500
M 918.750000 2017.187500
L 918.750000 2014.062500
L 921.875000 2014.062500
L 921.875000 2017.187500
L 918.750000 2017.187500
M 942.187500 2078.125000
L 968.750000 2012.500000
L 995.312500 2078.125000
M 951.562500 2056.250000
L 985.937500 2056.250000
M 960.937500 1992.187500
L 968.750000 2004.687500
L 976.562500 1992.187500
M 1012.500000 2037.500000
C 1026.562500 2031.250000 1046.875000 2032.812500 1046.875000 2051.562500
L 1046.875000 2078.125000
M 1046.875000 2054.687500
C 1031.250000 2053.125000 1009.375000 2053.125000 1009.375000 2067.187500
C 1009.375000 2084.375000 1046.875000 2081.250000 1046.875000 2057.812500
M 1020.312500 2007.812500
L 1028.125000 2020.312500
L 1035.937500 2007.812500
M 1070.312500 2012.500000
L 1070.312500 2078.125000
M 1062.500000 1992.187500
L 1070.312500 2004.687500
L 1078.125000 1992.187500
M 56.250000 2151.562500
L 81.250000 2151.562500
M 93.750000 2151.562500
L 118.750000 2151.562500
M 132.812500 2151.562500
L 170.312500 2151.562500
M 179.687500 2151.562500
L 223.437500 2151.562500
M 223.437500 2151.562500
L 310.937500 2151.562500
M 310.937500 2151.562500
L 373.437500 2151.562500
M 404.687500 2112.500000
L 404.687500 2178.125000
M 417.187500 2178.125000
L 417.187500 2112.500000
M 439.062500 2178.125000
L 476.562500 2178.125000
M 476.562500 2165.625000
L 439.062500 2165.625000
M 495.312500 2125.000000
L 496.875000 2125.000000
L 496.875000 2128.125000
L 493.750000 2128.125000
C 493.750000 2121.875000 495.312500 2115.625000 500.000000 2112.500000
M 525.000000 2115.625000
L 523.437500 2115.625000
L 523.437500 2112.500000
L 526.562500 2112.500000
C 526.562500 2118.750000 525.000000 2125.000000 520.312500 2128.125000
M 550.000000 2178.125000
L 548.437500 2178.125000
L 548.437500 2175.000000
L 551.562500 2175.000000
C 551.562500 2181.250000 550.000000 2187.500000 545.312500 2190.625000
M 575.000000 2115.625000
L 576.562500 2115.625000
L 576.562500 2112.500000
L 573.437500 2112.500000
C 573.437500 2118.750000 575.000000 2125.000000 579.687500 2128.125000
M 607.812500 2125.000000
L 609.375000 2125.000000
L 609.375000 2128.125000
L 606.250000 2128.125000
C 606.250000 2121.875000 607.812500 2115.625000 612.500000 2112.500000
M 626.562500 2125.000000
L 628.125000 2125.000000
L 628.125000 2128.125000
L 625.000000 2128.125000
C 625.000000 2121.875000 626.562500 2115.625000 631.250000 2112.500000
M 664.062500 2115.625000
L 662.500000 2115.625000
L 662.500000 2112.500000
L 665.625000 2112.500000
C 665.625000 2118.750000 664.062500 2125.000000 659.375000 2128.125000
M 682.812500 2115.625000
L 681.250000 2115.625000
L 681.250000 2112.500000
L 684.375000 2112.500000
C 684.375000 2118.750000 682.812500 2125.000000 678.125000 2128.125000
M 718.750000 2175.000000
L 717.187500 2175.000000
L 717.187500 2171.875000
L 720.312500 2171.875000
C 720.312500 2178.125000 718.750000 2184.375000 714.062500 2187.500000
M 737.500000 2175.000000
L 735.937500 2175.000000
L 735.937500 2171.875000
L 739.062500 2171.875000
C 739.062500 2178.125000 737.500000 2184.375000 732.812500 2187.500000
M 771.875000 2115.625000
L 773.437500 2115.625000
L 773.437500 2112.500000
L 770.312500 2112.500000
C 770.312500 2118.750000 771.875000 2125.000000 776.562500 2128.125000
M 790.625000 2115.625000
L 792.187500 2115.625000
L 792.187500 2112.500000
L 789.062500 2112.500000
C 789.062500 2118.750000 790.625000 2125.000000 795.312500 2128.125000
M 76.562500 2212.500000
L 76.562500 2278.125000
M 57.812500 2231.250000
L 95.312500 2231.250000
M 131.250000 2212.500000
L 131.250000 2278.125000
M 112.500000 2231.250000
L 150.000000 2231.250000
M 112.500000 2259.375000
L 150.000000 2259.375000
M 170.312500 2245.312500
C 170.312500 2235.937500 176.562500 2231.250000 184.375000 2231.250000
C 192.187500 2231.250000 198.437500 2237.500000 198.437500 2245.312500
C 198.437500 2253.125000 192.187500 2259.375000 184.375000 2259.375000
C 176.562500 2259.375000 170.312500 2253.125000 170.312500 2245.312500
M 173.437500 2239.062500
L 173.437500 2251.562500
M 176.562500 2254.687500
L 176.562500 2235.937500
M 179.687500 2234.375000
L 179.687500 2256.250000
M 182.812500 2257.812500
L 182.812500 2232.812500
M 185.937500 2232.812500
L 185.937500 2257.812500
M 189.062500 2256.250000
L 189.062500 2234.375000
M 192.187500 2235.937500
L 192.187500 2254.687500
M 195.312500 2251.562500
L 195.312500 2239.062500
M 221.875000 2278.125000
L 221.875000 2212.500000
L 265.625000 2212.500000
L 265.625000 2278.125000
L 221.875000 2278.125000
M 292.187500 2278.125000
L 292.187500 2212.500000
L 335.937500 2212.500000
L 335.937500 2278.125000
L 292.187500 2278.125000
M 362.500000 2278.125000
L 362.500000 2212.500000
L 406.250000 2212.500000
L 406.250000 2278.125000
L 362.500000 2278.125000
M 432.812500 2276.562500
L 432.812500 2273.437500
L 435.937500 2273.437500
L 435.937500 2276.562500
L 432.812500 2276.562500
M 465.625000 2276.562500
L 465.625000 2273.437500
L 468.750000 2273.437500
L 468.750000 2276.562500
L 465.625000 2276.562500
M 498.437500 2276.562500
L 498.437500 2273.437500
L 501.562500 2273.437500
L 501.562500 2276.562500
L 498.437500 2276.562500
M 531.250000 2278.125000
L 531.250000 2212.500000
L 575.000000 2212.500000
L 575.000000 2278.125000
L 531.250000 2278.125000
M 601.562500 2278.125000
L 601.562500 2212.500000
L 645.312500 2212.500000
L 645.312500 2278.125000
L 601.562500 2278.125000
M 671.875000 2278.125000
L 671.875000 2212.500000
L 715.625000 2212.500000
L 715.625000 2278.125000
L 671.875000 2278.125000
M 742.187500 2278.125000
L 742.187500 2212.500000
L 785.937500 2212.500000
L 785.937500 2278.125000
L 742.187500 2278.125000
M 812.500000 2278.125000
L 812.500000 2212.500000
L 856.250000 2212.500000
L 856.250000 2278.125000
L 812.500000 2278.125000
M 882.812500 2278.125000
L 882.812500 2212.500000
L 926.562500 2212.500000
L 926.562500 2278.125000
L 882.812500 2278.125000
M 953.125000 2278.125000
L 953.125000 2212.500000
L 996.875000 2212.500000
L 996.875000 2278.125000
L 953.125000 2278.125000
M 1023.437500 2278.125000
L 1023.437500 2212.500000
L 1067.187500 2212.500000
L 1067.187500 2278.125000
L 1023.437500 2278.125000
M 73.437500 2329.687500
C 73.437500 2307.812500 54.687500 2307.812500 54.687500 2329.687500
C 54.687500 2351.562500 73.437500 2351.562500 73.437500 2329.687500
M 101.562500 2312.500000
L 62.500000 2378.125000
M 109.375000 2360.937500
C 109.375000 2339.062500 90.625000 2339.062500 90.625000 2360.937500
C 90.625000 2382.812500 109.375000 2382.812500 109.375000 2360.937500
M 140.625000 2360.937500
C 140.625000 2339.062500 121.875000 2339.062500 121.875000 2360.937500
C 121.875000 2382.812500 140.625000 2382.812500 140.625000 2360.937500
M 160.937500 2378.125000
L 160.937500 2312.500000
L 204.687500 2312.500000
L 204.687500 2378.125000
L 160.937500 2378.125000
M 231.250000 2378.125000
L 231.250000 2312.500000
L 275.000000 2312.500000
L 275.000000 2378.125000
L 231.250000 2378.125000
M 301.562500 2378.125000
L 301.562500 2312.500000
L 345.312500 2312.500000
L 345.312500 2378.125000
L 301.562500 2378.125000
M 371.875000 2378.125000
L 371.875000 2312.500000
L 415.625000 2312.500000
L 415.625000 2378.125000
L 371.875000 2378.125000
M 442.187500 2378.125000
L 442.187500 2312.500000
L 485.937500 2312.500000
L 485.937500 2378.125000
L 442.187500 2378.125000
M 512.500000 2378.125000
L 512.500000 2312.500000
L 556.250000 2312.500000
L 556.250000 2378.125000
L 512.500000 2378.125000
M 582.812500 2378.125000
L 582.812500 2312.500000
L 626.562500 2312.500000
L 626.562500 2378.125000
L 582.812500 2378.125000
M 653.125000 2378.125000
L 653.125000 2312.500000
L 696.875000 2312.500000
L 696.875000 2378.125000
L 653.125000 2378.125000
M 728.125000 2334.375000
L 715.625000 2351.562500
L 728.125000 2368.750000
M 743.750000 2334.375000
L 756.250000 2351.562500
L 743.750000 2368.750000
M 776.562500 2378.125000
L 776.562500 2312.500000
L 820.312500 2312.500000
L 820.312500 2378.125000
L 776.562500 2378.125000
M 846.875000 2378.125000
L 846.875000 2312.500000
L 890.625000 2312.500000
L 890.625000 2378.125000
L 846.875000 2378.125000
M 917.187500 2378.125000
L 917.187500 2312.500000
L 960.937500 2312.500000
L 960.937500 2378.125000
L 917.187500 2378.125000
M 987.500000 2378.125000
L 987.500000 2312.500000
L 1031.250000 2312.500000
L 1031.250000 2378.125000
L 987.500000 2378.125000
M 1057.812500 2378.125000
L 1057.812500 2312.500000
L 1101.562500 2312.500000
L 1101.562500 2378.125000
L 1057.812500 2378.125000
M 75.000000 2429.687500
C 75.000000 2406.250000 54.687500 2406.250000 54.687500 2429.687500
C 54.687500 2454.687500 75.000000 2454.687500 75.000000 2429.687500
M 87.500000 2425.000000
L 87.500000 2448.437500
M 87.500000 2415.625000
L 87.500000 2412.500000
L 89.062500 2412.500000
L 89.062500 2415.625000
L 87.500000 2415.625000
M 109.375000 2478.125000
L 109.375000 2412.500000
L 153.125000 2412.500000
L 153.125000 2478.125000
L 109.375000 2478.125000
M 179.687500 2478.125000
L 179.687500 2412.500000
L 223.437500 2412.500000
L 223.437500 2478.125000
L 179.687500 2478.125000
M 256.250000 2448.437500
L 256.250000 2412.500000
L 239.062500 2439.062500
L 259.375000 2439.062500
M 289.062500 2412.500000
L 271.875000 2412.500000
L 270.312500 2428.125000
C 278.125000 2425.000000 290.625000 2428.125000 290.625000 2437.500000
C 290.625000 2450.000000 273.437500 2450.000000 270.312500 2446.875000
M 320.312500 2414.062500
C 318.750000 2412.500000 301.562500 2407.812500 301.562500 2432.812500
C 301.562500 2454.687500 321.875000 2450.000000 321.875000 2437.500000
C 321.875000 2426.562500 304.687500 2421.875000 303.125000 2437.500000
M 332.812500 2412.500000
L 353.125000 2412.500000
L 339.062500 2448.437500
M 382.812500 2420.312500
C 382.812500 2409.375000 365.625000 2409.375000 365.625000 2420.312500
C 365.625000 2429.687500 384.375000 2429.687500 384.375000 2440.625000
C 384.375000 2451.562500 364.062500 2451.562500 364.062500 2440.625000
C 364.062500 2429.687500 382.812500 2429.687500 382.812500 2420.312500
M 396.875000 2446.875000
C 400.000000 2448.437500 415.625000 2453.125000 415.625000 2428.125000
C 415.625000 2406.250000 395.312500 2410.937500 395.312500 2423.437500
C 395.312500 2434.375000 412.500000 2439.062500 415.625000 2423.437500
M 439.062500 2420.312500
L 439.062500 2445.312500
M 426.562500 2432.812500
L 451.562500 2432.812500
M 457.812500 2428.125000
L 482.812500 2428.125000
M 489.062500 2420.312500
L 514.062500 2420.312500
M 489.062500 2432.812500
L 514.062500 2432.812500
M 531.250000 2404.687500
C 520.312500 2418.750000 520.312500 2435.937500 531.250000 2450.000000
M 540.625000 2404.687500
C 551.562500 2418.750000 551.562500 2435.937500 540.625000 2450.000000
M 560.937500 2425.000000
L 560.937500 2448.437500
M 560.937500 2434.375000
C 564.062500 2423.437500 581.250000 2420.312500 581.250000 2434.375000
L 581.250000 2448.437500
M 75.000000 2564.062500
C 75.000000 2540.625000 54.687500 2540.625000 54.687500 2564.062500
C 54.687500 2589.062500 75.000000 2589.062500 75.000000 2564.062500
M 89.062500 2554.687500
L 98.437500 2546.875000
L 98.437500 2582.812500
M 117.187500 2548.437500
C 120.312500 2546.875000 135.937500 2543.750000 135.937500 2556.250000
C 135.937500 2562.500000 132.812500 2565.625000 115.625000 2582.812500
L 135.937500 2582.812500
M 148.437500 2548.437500
C 170.312500 2540.625000 175.000000 2564.062500 153.125000 2564.062500
C 176.562500 2564.062500 170.312500 2589.062500 146.875000 2581.250000
M 195.312500 2582.812500
L 195.312500 2546.875000
L 178.125000 2573.437500
L 198.437500 2573.437500
M 228.125000 2546.875000
L 210.937500 2546.875000
L 209.375000 2562.500000
C 217.187500 2559.375000 229.687500 2562.500000 229.687500 2571.875000
C 229.687500 2584.375000 212.500000 2584.375000 209.375000 2581.250000
M 259.375000 2548.437500
C 257.812500 2546.875000 240.625000 2542.187500 240.625000 2567.187500
C 240.625000 2589.062500 260.937500 2584.375000 260.937500 2571.875000
C 260.937500 2560.937500 243.750000 2556.250000 242.187500 2571.875000
M 271.875000 2546.875000
L 292.187500 2546.875000
L 278.125000 2582.812500
M 321.875000 2554.687500
C 321.875000 2543.750000 304.687500 2543.750000 304.687500 2554.687500
C 304.687500 2564.062500 323.437500 2564.062500 323.437500 2575.000000
C 323.437500 2585.937500 303.125000 2585.937500 303.125000 2575.000000
C 303.125000 2564.062500 321.875000 2564.062500 321.875000 2554.687500
M 335.937500 2581.250000
C 339.062500 2582.812500 354.687500 2587.500000 354.687500 2562.500000
C 354.687500 2540.625000 334.375000 2545.312500 334.375000 2557.812500
C 334.375000 2568.750000 351.562500 2573.437500 354.687500 2557.812500
M 378.125000 2556.250000
L 378.125000 2581.250000
M 365.625000 2568.750000
L 390.625000 2568.750000
M 396.875000 2568.750000
L 421.875000 2568.750000
M 428.125000 2562.500000
L 453.125000 2562.500000
M 428.125000 2575.000000
L 453.125000 2575.000000
M 470.312500 2546.875000
C 459.375000 2560.937500 459.375000 2578.125000 470.312500 2592.187500
M 479.687500 2546.875000
C 490.625000 2560.937500 490.625000 2578.125000 479.687500 2592.187500
M 507.812500 2578.125000
L 507.812500 2512.500000
L 551.562500 2512.500000
L 551.562500 2578.125000
L 507.812500 2578.125000
M 56.250000 2660.937500
C 64.062500 2657.812500 75.000000 2657.812500 75.000000 2668.750000
L 75.000000 2682.812500
M 75.000000 2670.312500
C 67.187500 2668.750000 54.687500 2668.750000 54.687500 2676.562500
C 54.687500 2685.937500 75.000000 2684.375000 75.000000 2671.875000
M 82.812500 2670.312500
L 103.125000 2670.312500
C 103.125000 2654.687500 82.812500 2654.687500 82.812500 2670.312500
C 82.812500 2682.812500 95.312500 2685.937500 103.125000 2679.687500
M 135.937500 2670.312500
C 135.937500 2653.125000 112.500000 2653.125000 112.500000 2670.312500
C 112.500000 2687.500000 135.937500 2687.500000 135.937500 2670.312500
M 146.875000 2659.375000
L 164.062500 2682.812500
M 164.062500 2659.375000
L 146.875000 2682.812500
M 193.750000 2670.312500
L 173.437500 2670.312500
C 173.437500 2685.937500 193.750000 2685.937500 193.750000 2670.312500
C 193.750000 2657.812500 181.250000 2654.687500 173.437500 2660.937500
M 204.687500 2646.875000
L 204.687500 2682.812500
M 204.687500 2668.750000
C 207.812500 2657.812500 225.000000 2654.687500 225.000000 2668.750000
L 225.000000 2682.812500
M 237.500000 2646.875000
L 237.500000 2682.812500
M 253.125000 2657.812500
L 237.500000 2673.437500
M 243.750000 2668.750000
L 256.250000 2682.812500
M 267.187500 2646.875000
L 267.187500 2682.812500
M 281.250000 2659.375000
L 281.250000 2682.812500
M 281.250000 2668.750000
C 284.375000 2657.812500 298.437500 2654.687500 298.437500 2668.750000
L 298.437500 2682.812500
M 298.437500 2668.750000
C 303.125000 2657.812500 317.187500 2654.687500 317.187500 2668.750000
L 317.187500 2682.812500
M 331.250000 2659.375000
L 331.250000 2682.812500
M 331.250000 2668.750000
C 334.375000 2657.812500 351.562500 2654.687500 351.562500 2668.750000
L 351.562500 2682.812500
M 364.062500 2695.312500
L 364.062500 2659.375000
M 364.062500 2670.312500
C 364.062500 2685.937500 385.937500 2685.937500 385.937500 2670.312500
C 385.937500 2654.687500 364.062500 2654.687500 364.062500 2670.312500
M 407.812500 2660.937500
C 406.250000 2659.375000 395.312500 2657.812500 395.312500 2664.062500
C 395.312500 2670.312500 407.812500 2670.312500 407.812500 2676.562500
C 407.812500 2684.375000 400.000000 2684.375000 395.312500 2681.250000
M 421.875000 2650.000000
L 421.875000 2675.000000
C 421.875000 2681.250000 425.000000 2684.375000 429.687500 2681.250000
M 415.625000 2659.375000
L 428.125000 2659.375000
M 448.437500 2678.125000
L 448.437500 2612.500000
L 492.187500 2612.500000
L 492.187500 2678.125000
L 448.437500 2678.125000
M 518.750000 2678.125000
L 518.750000 2612.500000
L 562.500000 2612.500000
L 562.500000 2678.125000
L 518.750000 2678.125000
M 589.062500 2678.125000
L 589.062500 2612.500000
L 632.812500 2612.500000
L 632.812500 2678.125000
L 589.062500 2678.125000
M 64.062500 2778.125000
L 64.062500 2712.500000
L 107.812500 2712.500000
L 107.812500 2778.125000
L 64.062500 2778.125000
M 134.375000 2778.125000
L 134.375000 2712.500000
L 178.125000 2712.500000
L 178.125000 2778.125000
L 134.375000 2778.125000
M 204.687500 2778.125000
L 204.687500 2712.500000
L 248.437500 2712.500000
L 248.437500 2778.125000
L 204.687500 2778.125000
M 275.000000 2778.125000
L 275.000000 2712.500000
L 318.750000 2712.500000
L 318.750000 2778.125000
L 275.000000 2778.125000
M 345.312500 2778.125000
L 345.312500 2712.500000
L 389.062500 2712.500000
L 389.062500 2778.125000
L 345.312500 2778.125000
M 415.625000 2778.125000
L 415.625000 2712.500000
L 459.375000 2712.500000
L 459.375000 2778.125000
L 415.625000 2778.125000
M 485.937500 2778.125000
L 485.937500 2712.500000
L 529.687500 2712.500000
L 529.687500 2778.125000
L 485.937500 2778.125000
M 556.250000 2778.125000
L 556.250000 2712.500000
L 600.000000 2712.500000
L 600.000000 2778.125000
L 556.250000 2778.125000
M 626.562500 2778.125000
L 626.562500 2712.500000
L 670.312500 2712.500000
L 670.312500 2778.125000
L 626.562500 2778.125000
M 696.875000 2778.125000
L 696.875000 2712.500000
L 740.625000 2712.500000
L 740.625000 2778.125000
L 696.875000 2778.125000
M 767.187500 2778.125000
L 767.187500 2712.500000
L 810.937500 2712.500000
L 810.937500 2778.125000
L 767.187500 2778.125000
M 837.500000 2778.125000
L 837.500000 2712.500000
L 881.250000 2712.500000
L 881.250000 2778.125000
L 837.500000 2778.125000
M 948.437500 2715.625000
C 929.687500 2707.812500 904.687500 2717.187500 904.687500 2745.312500
C 904.687500 2773.437500 929.687500 2782.812500 948.437500 2775.000000
M 940.625000 2751.562500
L 896.875000 2751.562500
M 896.875000 2735.937500
L 943.750000 2735.937500
M 967.187500 2778.125000
L 967.187500 2712.500000
L 1010.937500 2712.500000
L 1010.937500 2778.125000
L 967.187500 2778.125000
M 1037.500000 2778.125000
L 1037.500000 2712.500000
L 1081.250000 2712.500000
L 1081.250000 2778.125000
L 1037.500000 2778.125000
M 1107.812500 2778.125000
L 1107.812500 2712.500000
L 1151.562500 2712.500000
L 1151.562500 2778.125000
L 1107.812500 2778.125000
"/>
</svg>