<?xml version="1.0" encoding="UTF-8" standalone="no"?>
<svg version="1.1"
  xmlns="http://www.w3.org/2000/svg"
  xmlns:svg="http://www.w3.org/2000/svg"
  width="1600" height="1900">
<path fill="none" stroke-width="6" stroke="black" stroke-linecap="round" stroke-linejoin="round" d="
M 51.562500 12.500000
L 51.562500 56.250000
M 50.000000 78.125000
L 50.000000 75.000000
L 53.125000 75.000000
L 53.125000 78.125000
L 50.000000 78.125000
M 75.000000 4.687500
L 75.000000 20.312500
M 87.500000 20.312500
L 87.500000 4.687500
M 129.687500 12.500000
L 115.625000 78.125000
M 146.875000 12.500000
L 132.812500 78.125000
M 109.375000 35.937500
L 153.125000 35.937500
M 106.250000 54.687500
L 150.000000 54.687500
M 193.750000 3.125000
L 193.750000 87.500000
M 214.062500 15.625000
C 206.250000 12.500000 171.875000 7.812500 171.875000 28.125000
C 171.875000 45.312500 215.625000 42.187500 215.625000 60.937500
C 215.625000 82.812500 179.687500 78.125000 171.875000 75.000000
M 253.125000 29.687500
C 253.125000 7.812500 234.375000 7.812500 234.375000 29.687500
C 234.375000 51.562500 253.125000 51.562500 253.125000 29.687500
M 278.125000 12.500000
L 246.875000 78.125000
M 290.625000 60.937500
C 290.625000 39.062500 271.875000 39.062500 271.875000 60.937500
C 271.875000 82.812500 290.625000 82.812500 290.625000 60.937500
M 356.250000 43.750000
C 356.250000 57.812500 346.875000 78.125000 328.125000 78.125000
C 320.312500 78.125000 309.375000 76.562500 309.375000 62.500000
C 309.375000 40.625000 343.750000 45.312500 343.750000 25.000000
C 343.750000 7.812500 317.187500 7.812500 317.187500 25.000000
C 317.187500 31.250000 320.312500 37.500000 325.000000 42.187500
L 360.937500 78.125000
M 379.687500 4.687500
L 379.687500 20.312500
M 423.437500 9.375000
C 400.000000 31.250000 400.000000 65.625000 423.437500 87.500000
M 442.187500 9.375000
C 465.625000 31.250000 465.625000 65.625000 442.187500 87.500000
M 495.312500 31.250000
L 495.312500 68.750000
M 479.687500 40.625000
L 510.937500 59.375000
M 510.937500 40.625000
L 479.687500 59.375000
M 557.812500 21.875000
L 557.812500 78.125000
M 529.687500 50.000000
L 585.937500 50.000000
M 606.250000 78.125000
L 604.687500 78.125000
L 604.687500 75.000000
L 607.812500 75.000000
C 607.812500 81.250000 606.250000 87.500000 601.562500 90.625000
M 626.562500 50.000000
L 682.812500 50.000000
M 701.562500 78.125000
L 701.562500 75.000000
L 704.687500 75.000000
L 704.687500 78.125000
L 701.562500 78.125000
M 764.062500 9.375000
L 723.437500 87.500000
M 87.500000 145.312500
C 87.500000 101.562500 50.000000 101.562500 50.000000 145.312500
C 50.000000 189.062500 87.500000 189.062500 87.500000 145.312500
M 115.625000 121.875000
L 128.125000 112.500000
L 128.125000 178.125000
M 164.062500 115.625000
C 168.750000 112.500000 200.000000 106.250000 198.437500 129.687500
C 198.437500 140.625000 193.750000 146.875000 162.500000 178.125000
L 200.000000 178.125000
M 220.312500 115.625000
C 259.375000 101.562500 270.312500 143.750000 228.125000 143.750000
C 271.875000 143.750000 260.937500 190.625000 218.750000 175.000000
M 304.687500 178.125000
L 304.687500 112.500000
L 275.000000 160.937500
L 312.500000 160.937500
M 364.062500 112.500000
L 332.812500 112.500000
L 331.250000 142.187500
C 345.312500 135.937500 368.750000 140.625000 368.750000 157.812500
C 368.750000 181.250000 337.500000 179.687500 331.250000 175.000000
M 423.437500 114.062500
C 417.187500 112.500000 387.500000 104.687500 387.500000 148.437500
C 387.500000 190.625000 425.000000 181.250000 425.000000 159.375000
C 425.000000 139.062500 393.750000 129.687500 389.062500 159.375000
M 443.750000 112.500000
L 481.250000 112.500000
L 454.687500 178.125000
M 534.375000 126.562500
C 534.375000 107.812500 503.125000 107.812500 503.125000 126.562500
C 503.125000 145.312500 537.500000 143.750000 537.500000 162.500000
C 537.500000 182.812500 500.000000 182.812500 500.000000 162.500000
C 500.000000 143.750000 534.375000 145.312500 534.375000 126.562500
M 557.812500 176.562500
C 564.062500 178.125000 593.750000 185.937500 593.750000 142.187500
C 593.750000 100.000000 556.250000 109.375000 556.250000 131.250000
C 556.250000 151.562500 587.500000 160.937500 592.187500 131.250000
M 612.500000 178.125000
L 612.500000 175.000000
L 615.625000 175.000000
L 615.625000 178.125000
L 612.500000 178.125000
M 612.500000 137.500000
L 612.500000 134.375000
L 615.625000 134.375000
L 615.625000 137.500000
L 612.500000 137.500000
M 635.937500 178.125000
L 634.375000 178.125000
L 634.375000 175.000000
L 637.500000 175.000000
C 637.500000 181.250000 635.937500 187.500000 631.250000 190.625000
M 634.375000 137.500000
L 634.375000 134.375000
L 637.500000 134.375000
L 637.500000 137.500000
L 634.375000 137.500000
M 712.500000 129.687500
L 656.250000 150.000000
L 712.500000 170.312500
M 731.250000 140.625000
L 787.500000 140.625000
M 731.250000 159.375000
L 787.500000 159.375000
M 806.250000 129.687500
L 862.500000 150.000000
L 806.250000 170.312500
M 881.250000 115.625000
C 889.062500 110.937500 918.750000 109.375000 918.750000 128.125000
C 918.750000 140.625000 898.437500 143.750000 898.437500 159.375000
M 896.875000 178.125000
L 896.875000 175.000000
L 900.000000 175.000000
L 900.000000 178.125000
L 896.875000 178.125000
M 95.312500 237.500000
C 90.625000 223.437500 68.750000 221.875000 65.625000 243.750000
C 62.500000 265.625000 95.312500 278.125000 96.875000 228.125000
C 85.937500 271.875000 115.625000 270.312500 115.625000 243.750000
C 115.625000 201.562500 50.000000 201.562500 50.000000 243.750000
C 50.000000 287.500000 98.437500 281.250000 106.250000 268.750000
M 134.375000 278.125000
L 159.375000 212.500000
L 184.375000 278.125000
M 143.750000 256.250000
L 175.000000 256.250000
M 203.125000 278.125000
L 203.125000 212.500000
L 221.875000 212.500000
C 253.125000 212.500000 251.562500 243.750000 218.750000 243.750000
M 203.125000 243.750000
L 218.750000 243.750000
C 253.125000 243.750000 259.375000 278.125000 218.750000 278.125000
L 203.125000 278.125000
M 312.500000 215.625000
C 293.750000 207.812500 265.625000 215.625000 265.625000 245.312500
C 265.625000 275.000000 293.750000 282.812500 312.500000 275.000000
M 331.250000 278.125000
L 331.250000 212.500000
L 346.875000 212.500000
C 384.375000 212.500000 384.375000 278.125000 346.875000 278.125000
L 331.250000 278.125000
M 434.375000 212.500000
L 393.750000 212.500000
L 393.750000 278.125000
L 434.375000 278.125000
M 393.750000 243.750000
L 431.250000 243.750000
M 493.750000 212.500000
L 453.125000 212.500000
L 453.125000 278.125000
M 453.125000 243.750000
L 490.625000 243.750000
M 559.375000 215.625000
C 540.625000 207.812500 512.500000 215.625000 512.500000 245.312500
C 512.500000 275.000000 540.625000 282.812500 559.375000 275.000000
L 559.375000 246.875000
L 545.312500 246.875000
M 578.125000 212.500000
L 578.125000 278.125000
M 621.875000 212.500000
L 621.875000 278.125000
M 578.125000 243.750000
L 621.875000 243.750000
M 643.750000 212.500000
L 643.750000 278.125000
M 696.875000 212.500000
L 696.875000 259.375000
C 696.875000 281.250000 670.312500 278.125000 665.625000 276.562500
M 715.625000 212.500000
L 715.625000 278.125000
M 759.375000 212.500000
L 715.625000 256.250000
M 731.250000 240.625000
L 759.375000 278.125000
M 778.125000 212.500000
L 778.125000 278.125000
L 815.625000 278.125000
M 834.375000 278.125000
L 834.375000 212.500000
L 859.375000 246.875000
L 884.375000 212.500000
L 884.375000 278.125000
M 903.125000 278.125000
L 903.125000 212.500000
L 946.875000 278.125000
L 946.875000 212.500000
M 965.625000 245.312500
C 965.625000 201.562500 1015.625000 201.562500 1015.625000 245.312500
C 1015.625000 289.062500 965.625000 289.062500 965.625000 245.312500
M 50.000000 378.125000
L 50.000000 312.500000
L 65.625000 312.500000
C 103.125000 312.500000 103.125000 346.875000 65.625000 346.875000
L 50.000000 346.875000
M 162.500000 345.312500
C 162.500000 301.562500 112.500000 301.562500 112.500000 345.312500
C 112.500000 389.062500 162.500000 389.062500 162.500000 345.312500
M 142.187500 360.937500
L 162.500000 384.375000
M 181.250000 378.125000
L 181.250000 312.500000
L 196.875000 312.500000
C 226.562500 312.500000 226.562500 343.750000 196.875000 343.750000
L 181.250000 343.750000
M 203.125000 343.750000
L 225.000000 378.125000
M 285.937500 315.625000
C 278.125000 312.500000 243.750000 307.812500 243.750000 328.125000
C 243.750000 345.312500 287.500000 342.187500 287.500000 360.937500
C 287.500000 382.812500 251.562500 378.125000 243.750000 375.000000
M 328.125000 312.500000
L 328.125000 378.125000
M 306.250000 312.500000
L 350.000000 312.500000
M 368.750000 312.500000
L 368.750000 350.000000
C 368.750000 387.500000 412.500000 387.500000 412.500000 350.000000
L 412.500000 312.500000
M 431.250000 312.500000
L 456.250000 378.125000
L 481.250000 312.500000
M 500.000000 312.500000
L 518.750000 378.125000
L 531.250000 334.375000
L 543.750000 378.125000
L 562.500000 312.500000
M 581.250000 312.500000
L 625.000000 378.125000
M 625.000000 312.500000
L 581.250000 378.125000
M 643.750000 312.500000
L 668.750000 348.437500
L 668.750000 378.125000
M 693.750000 312.500000
L 668.750000 348.437500
M 712.500000 312.500000
L 756.250000 312.500000
L 712.500000 378.125000
L 756.250000 378.125000
M 796.875000 309.375000
L 775.000000 309.375000
L 775.000000 378.125000
L 796.875000 378.125000
M 815.625000 309.375000
L 856.250000 387.500000
M 875.000000 309.375000
L 896.875000 309.375000
L 896.875000 378.125000
L 875.000000 378.125000
M 915.625000 337.500000
L 940.625000 312.500000
L 965.625000 337.500000
M 984.375000 378.125000
L 1040.625000 378.125000
M 59.375000 418.750000
L 50.000000 406.250000
M 81.250000 437.500000
C 95.312500 431.250000 115.625000 432.812500 115.625000 451.562500
L 115.625000 478.125000
M 115.625000 454.687500
C 100.000000 453.125000 78.125000 453.125000 78.125000 467.187500
C 78.125000 484.375000 115.625000 481.250000 115.625000 457.812500
M 134.375000 412.500000
L 134.375000 478.125000
M 134.375000 456.250000
C 134.375000 428.125000 171.875000 428.125000 171.875000 456.250000
C 171.875000 484.375000 134.375000 484.375000 134.375000 456.250000
M 220.312500 435.937500
C 212.500000 432.812500 190.625000 432.812500 190.625000 456.250000
C 190.625000 478.125000 212.500000 479.687500 220.312500 476.562500
M 276.562500 412.500000
L 276.562500 478.125000
M 276.562500 456.250000
C 276.562500 428.125000 239.062500 428.125000 239.062500 456.250000
C 239.062500 484.375000 276.562500 484.375000 276.562500 456.250000
M 295.312500 454.687500
L 332.812500 454.687500
C 332.812500 428.125000 295.312500 428.125000 295.312500 454.687500
C 295.312500 478.125000 317.187500 481.250000 332.812500 475.000000
M 376.562500 414.062500
C 367.187500 410.937500 360.937500 415.625000 360.937500 426.562500
L 360.937500 478.125000
M 351.562500 435.937500
L 373.437500 435.937500
M 429.687500 434.375000
L 429.687500 478.125000
C 429.687500 504.687500 404.687500 501.562500 395.312500 496.875000
M 429.687500 456.250000
C 429.687500 428.125000 392.187500 428.125000 392.187500 456.250000
C 392.187500 484.375000 429.687500 484.375000 429.687500 456.250000
M 448.437500 412.500000
L 448.437500 478.125000
M 448.437500 453.125000
C 454.687500 431.250000 485.937500 426.562500 485.937500 453.125000
L 485.937500 478.125000
M 507.812500 434.375000
L 507.812500 478.125000
M 506.250000 417.187500
L 506.250000 414.062500
L 509.375000 414.062500
L 509.375000 417.187500
L 506.250000 417.187500
M 532.812500 434.375000
L 532.812500 485.937500
C 532.812500 496.875000 526.562500 501.562500 517.187500 498.437500
M 531.250000 417.187500
L 531.250000 414.062500
L 534.375000 414.062500
L 534.375000 417.187500
L 531.250000 417.187500
M 554.687500 412.500000
L 554.687500 478.125000
M 585.937500 434.375000
L 554.687500 465.625000
M 567.187500 453.125000
L 589.062500 478.125000
M 610.937500 412.500000
L 610.937500 478.125000
M 632.812500 434.375000
L 632.812500 478.125000
M 632.812500 453.125000
C 635.937500 432.812500 664.062500 425.000000 664.062500 453.125000
L 664.062500 478.125000
M 664.062500 453.125000
C 667.187500 432.812500 695.312500 425.000000 695.312500 453.125000
L 695.312500 478.125000
M 714.062500 434.375000
L 714.062500 478.125000
M 714.062500 453.125000
C 720.312500 431.250000 751.562500 426.562500 751.562500 453.125000
L 751.562500 478.125000
M 807.812500 456.250000
C 807.812500 426.562500 770.312500 426.562500 770.312500 456.250000
C 770.312500 485.937500 807.812500 485.937500 807.812500 456.250000
M 50.000000 600.000000
L 50.000000 534.375000
M 50.000000 556.250000
C 50.000000 584.375000 87.500000 584.375000 87.500000 556.250000
C 87.500000 528.125000 50.000000 528.125000 50.000000 556.250000
M 143.750000 600.000000
L 143.750000 534.375000
M 143.750000 556.250000
C 143.750000 584.375000 106.250000 584.375000 106.250000 556.250000
C 106.250000 528.125000 143.750000 528.125000 143.750000 556.250000
M 162.500000 534.375000
L 162.500000 578.125000
M 162.500000 559.375000
C 167.187500 542.187500 173.437500 534.375000 187.500000 534.375000
M 237.500000 535.937500
C 232.812500 534.375000 206.250000 531.250000 206.250000 545.312500
C 206.250000 554.687500 240.625000 556.250000 240.625000 567.187500
C 240.625000 581.250000 217.187500 578.125000 209.375000 576.562500
M 270.312500 512.500000
L 270.312500 562.500000
C 270.312500 575.000000 275.000000 579.687500 284.375000 576.562500
M 259.375000 529.687500
L 281.250000 529.687500
M 340.625000 578.125000
L 340.625000 534.375000
M 340.625000 559.375000
C 334.375000 581.250000 303.125000 585.937500 303.125000 559.375000
L 303.125000 534.375000
M 359.375000 534.375000
L 376.562500 578.125000
L 393.750000 534.375000
M 412.500000 534.375000
L 425.000000 578.125000
L 437.500000 534.375000
L 450.000000 578.125000
L 462.500000 534.375000
M 481.250000 534.375000
L 515.625000 578.125000
M 515.625000 534.375000
L 481.250000 578.125000
M 534.375000 534.375000
L 553.125000 578.125000
M 571.875000 534.375000
L 553.125000 578.125000
C 543.750000 600.000000 540.625000 601.562500 531.250000 598.437500
M 590.625000 534.375000
L 625.000000 534.375000
L 590.625000 578.125000
L 625.000000 578.125000
M 656.250000 509.375000
C 651.562500 509.375000 650.000000 510.937500 650.000000 521.875000
C 650.000000 545.312500 646.875000 543.750000 643.750000 543.750000
C 646.875000 543.750000 650.000000 542.187500 650.000000 565.625000
C 650.000000 576.562500 651.562500 578.125000 656.250000 578.125000
M 678.125000 509.375000
L 678.125000 587.500000
M 700.000000 509.375000
C 704.687500 509.375000 706.250000 510.937500 706.250000 521.875000
C 706.250000 545.312500 709.375000 543.750000 712.500000 543.750000
C 709.375000 543.750000 706.250000 542.187500 706.250000 565.625000
C 706.250000 576.562500 704.687500 578.125000 700.000000 578.125000
M 731.250000 554.687500
C 753.125000 515.625000 767.187500 585.937500 787.500000 546.875000
M 51.562500 678.125000
L 51.562500 634.375000
M 50.000000 612.500000
L 50.000000 615.625000
L 53.125000 615.625000
L 53.125000 612.500000
L 50.000000 612.500000
M 101.562500 628.125000
L 81.250000 684.375000
M 104.687500 635.937500
C 96.875000 632.812500 75.000000 632.812500 75.000000 656.250000
C 75.000000 678.125000 96.875000 679.687500 104.687500 676.562500
M 154.687500 618.750000
C 142.187500 615.625000 132.812500 620.312500 131.250000 639.062500
L 131.250000 678.125000
M 123.437500 645.312500
L 146.875000 645.312500
M 123.437500 678.125000
L 154.687500 678.125000
M 185.937500 637.500000
C 179.687500 637.500000 176.562500 640.625000 176.562500 646.875000
C 176.562500 653.125000 179.687500 656.250000 185.937500 656.250000
C 192.187500 656.250000 195.312500 653.125000 195.312500 646.875000
C 195.312500 640.625000 192.187500 637.500000 185.937500 637.500000
M 173.437500 634.375000
L 178.125000 639.062500
M 198.437500 634.375000
L 193.750000 639.062500
M 173.437500 659.375000
L 178.125000 654.687500
M 198.437500 659.375000
L 193.750000 654.687500
M 223.437500 646.875000
L 260.937500 646.875000
M 223.437500 662.500000
L 260.937500 662.500000
M 217.187500 612.500000
L 242.187500 648.437500
L 242.187500 678.125000
M 267.187500 612.500000
L 242.187500 648.437500
M 289.062500 609.375000
L 289.062500 640.625000
M 289.062500 656.250000
L 289.062500 687.500000
M 318.750000 631.250000
C 312.500000 635.937500 310.937500 637.500000 310.937500 643.750000
C 310.937500 657.812500 340.625000 651.562500 340.625000 667.187500
C 340.625000 673.437500 331.250000 681.250000 310.937500 676.562500
M 332.812500 656.250000
C 337.500000 653.125000 340.625000 651.562500 340.625000 645.312500
C 340.625000 631.250000 310.937500 634.375000 310.937500 621.875000
C 310.937500 615.625000 320.312500 607.812500 337.500000 612.500000
M 359.375000 615.625000
L 359.375000 612.500000
L 362.500000 612.500000
L 362.500000 615.625000
L 359.375000 615.625000
M 375.000000 615.625000
L 375.000000 612.500000
L 378.125000 612.500000
L 378.125000 615.625000
L 375.000000 615.625000
M 420.312500 631.250000
C 406.250000 631.250000 396.875000 640.625000 396.875000 654.687500
C 396.875000 668.750000 406.250000 678.125000 420.312500 678.125000
C 434.375000 678.125000 443.750000 668.750000 443.750000 654.687500
C 443.750000 640.625000 434.375000 631.250000 420.312500 631.250000
M 431.250000 646.875000
C 429.687500 643.750000 425.000000 640.625000 420.312500 640.625000
C 412.500000 640.625000 407.812500 646.875000 407.812500 654.687500
C 407.812500 662.500000 412.500000 668.750000 420.312500 668.750000
C 426.562500 668.750000 429.687500 665.625000 431.250000 662.500000
M 464.062500 640.625000
L 481.250000 640.625000
M 464.062500 614.062500
C 471.875000 610.937500 481.250000 612.500000 481.250000 621.875000
L 481.250000 634.375000
M 481.250000 623.437500
C 473.437500 621.875000 462.500000 621.875000 462.500000 629.687500
C 462.500000 637.500000 481.250000 635.937500 481.250000 625.000000
M 510.937500 634.375000
L 500.000000 654.687500
L 510.937500 675.000000
M 529.687500 634.375000
L 518.750000 654.687500
L 529.687500 675.000000
M 548.437500 640.625000
L 604.687500 640.625000
L 604.687500 659.375000
M 665.625000 631.250000
C 651.562500 631.250000 642.187500 640.625000 642.187500 654.687500
C 642.187500 668.750000 651.562500 678.125000 665.625000 678.125000
C 679.687500 678.125000 689.062500 668.750000 689.062500 654.687500
C 689.062500 640.625000 679.687500 631.250000 665.625000 631.250000
M 657.812500 668.750000
L 657.812500 640.625000
L 664.062500 640.625000
C 676.562500 640.625000 676.562500 654.687500 664.062500 654.687500
L 657.812500 654.687500
M 667.187500 654.687500
L 676.562500 668.750000
M 707.812500 610.937500
L 764.062500 610.937500
M 59.375000 731.250000
C 53.125000 731.250000 50.000000 728.125000 50.000000 721.875000
C 50.000000 715.625000 53.125000 712.500000 59.375000 712.500000
C 65.625000 712.500000 68.750000 715.625000 68.750000 721.875000
C 68.750000 728.125000 65.625000 731.250000 59.375000 731.250000
M 115.625000 721.875000
L 115.625000 759.375000
M 87.500000 740.625000
L 143.750000 740.625000
M 87.500000 768.750000
L 143.750000 768.750000
M 164.062500 714.062500
C 165.625000 712.500000 181.250000 709.375000 181.250000 721.875000
C 181.250000 726.562500 178.125000 729.687500 162.500000 745.312500
L 181.250000 745.312500
M 201.562500 714.062500
C 220.312500 707.812500 226.562500 728.125000 204.687500 728.125000
C 226.562500 728.125000 221.875000 751.562500 200.000000 743.750000
M 237.500000 725.000000
L 246.875000 712.500000
M 306.250000 778.125000
C 304.687500 776.562500 303.125000 775.000000 303.125000 765.625000
L 303.125000 734.375000
M 303.125000 759.375000
C 296.875000 781.250000 265.625000 785.937500 265.625000 759.375000
L 265.625000 734.375000
L 265.625000 800.000000
M 348.437500 712.500000
L 348.437500 778.125000
M 367.187500 778.125000
L 367.187500 712.500000
L 342.187500 712.500000
C 318.750000 712.500000 318.750000 739.062500 342.187500 737.500000
L 348.437500 737.500000
M 385.937500 746.875000
L 385.937500 743.750000
L 389.062500 743.750000
L 389.062500 746.875000
L 385.937500 746.875000
M 434.375000 778.125000
C 437.500000 781.250000 434.375000 790.625000 423.437500 785.937500
M 473.437500 718.750000
C 476.562500 718.750000 479.687500 715.625000 481.250000 712.500000
L 481.250000 745.312500
M 507.812500 740.625000
L 526.562500 740.625000
M 526.562500 723.437500
C 526.562500 709.375000 507.812500 709.375000 507.812500 723.437500
C 507.812500 739.062500 526.562500 739.062500 526.562500 723.437500
M 564.062500 734.375000
L 575.000000 754.687500
L 564.062500 775.000000
M 545.312500 734.375000
L 556.250000 754.687500
L 545.312500 775.000000
M 603.125000 778.125000
L 635.937500 712.500000
M 596.875000 718.750000
C 600.000000 718.750000 603.125000 715.625000 604.687500 712.500000
L 604.687500 745.312500
M 646.875000 778.125000
L 646.875000 745.312500
L 631.250000 770.312500
L 650.000000 770.312500
M 678.125000 778.125000
L 710.937500 712.500000
M 671.875000 718.750000
C 675.000000 718.750000 678.125000 715.625000 679.687500 712.500000
L 679.687500 745.312500
M 707.812500 746.875000
C 709.375000 745.312500 725.000000 742.187500 725.000000 754.687500
C 725.000000 759.375000 721.875000 762.500000 706.250000 778.125000
L 725.000000 778.125000
M 745.312500 714.062500
C 764.062500 707.812500 770.312500 728.125000 748.437500 728.125000
C 770.312500 728.125000 765.625000 751.562500 743.750000 743.750000
M 753.125000 778.125000
L 785.937500 712.500000
M 796.875000 778.125000
L 796.875000 745.312500
L 781.250000 770.312500
L 800.000000 770.312500
M 856.250000 775.000000
C 848.437500 779.687500 818.750000 781.250000 818.750000 762.500000
C 818.750000 750.000000 839.062500 746.875000 839.062500 731.250000
M 840.625000 712.500000
L 840.625000 715.625000
L 837.500000 715.625000
L 837.500000 712.500000
L 840.625000 712.500000
M 50.000000 878.125000
L 75.000000 812.500000
L 100.000000 878.125000
M 59.375000 856.250000
L 90.625000 856.250000
M 79.687500 804.687500
L 70.312500 792.187500
M 118.750000 878.125000
L 143.750000 812.500000
L 168.750000 878.125000
M 128.125000 856.250000
L 159.375000 856.250000
M 139.062500 804.687500
L 148.437500 792.187500
M 187.500000 878.125000
L 212.500000 812.500000
L 237.500000 878.125000
M 196.875000 856.250000
L 228.125000 856.250000
M 204.687500 804.687500
L 212.500000 792.187500
L 220.312500 804.687500
M 256.250000 878.125000
L 281.250000 812.500000
L 306.250000 878.125000
M 265.625000 856.250000
L 296.875000 856.250000
M 268.750000 801.562500
C 278.125000 781.250000 284.375000 818.750000 293.750000 798.437500
M 325.000000 878.125000
L 350.000000 812.500000
L 375.000000 878.125000
M 334.375000 856.250000
L 365.625000 856.250000
M 340.625000 801.562500
L 340.625000 798.437500
L 343.750000 798.437500
L 343.750000 801.562500
L 340.625000 801.562500
M 356.250000 801.562500
L 356.250000 798.437500
L 359.375000 798.437500
L 359.375000 801.562500
L 356.250000 801.562500
M 418.750000 806.250000
C 415.625000 806.250000 412.500000 803.125000 412.500000 800.000000
C 412.500000 796.875000 415.625000 793.750000 418.750000 793.750000
C 421.875000 793.750000 425.000000 796.875000 425.000000 800.000000
C 425.000000 803.125000 421.875000 806.250000 418.750000 806.250000
M 393.750000 878.125000
L 418.750000 812.500000
L 443.750000 878.125000
M 403.125000 856.250000
L 434.375000 856.250000
M 462.500000 878.125000
L 487.500000 812.500000
L 512.500000 812.500000
M 493.750000 812.500000
L 496.875000 878.125000
L 515.625000 878.125000
M 510.937500 843.750000
L 495.312500 843.750000
M 495.312500 856.250000
L 471.875000 856.250000
M 562.500000 878.125000
C 565.625000 881.250000 562.500000 890.625000 551.562500 885.937500
M 581.250000 815.625000
C 562.500000 807.812500 534.375000 815.625000 534.375000 845.312500
C 534.375000 875.000000 562.500000 882.812500 581.250000 875.000000
M 625.000000 804.687500
L 615.625000 792.187500
M 640.625000 812.500000
L 600.000000 812.500000
L 600.000000 878.125000
L 640.625000 878.125000
M 600.000000 843.750000
L 637.500000 843.750000
M 700.000000 812.500000
L 659.375000 812.500000
L 659.375000 878.125000
L 700.000000 878.125000
M 659.375000 843.750000
L 696.875000 843.750000
M 675.000000 804.687500
L 684.375000 792.187500
M 759.375000 812.500000
L 718.750000 812.500000
L 718.750000 878.125000
L 759.375000 878.125000
M 718.750000 843.750000
L 756.250000 843.750000
M 731.250000 804.687500
L 739.062500 792.187500
L 746.875000 804.687500
M 818.750000 812.500000
L 778.125000 812.500000
L 778.125000 878.125000
L 818.750000 878.125000
M 778.125000 843.750000
L 815.625000 843.750000
M 787.500000 801.562500
L 787.500000 798.437500
L 790.625000 798.437500
L 790.625000 801.562500
L 787.500000 801.562500
M 803.125000 801.562500
L 803.125000 798.437500
L 806.250000 798.437500
L 806.250000 801.562500
L 803.125000 801.562500
M 840.625000 812.500000
L 840.625000 878.125000
M 840.625000 804.687500
L 831.250000 792.187500
M 865.625000 812.500000
L 865.625000 878.125000
M 865.625000 804.687500
L 875.000000 792.187500
M 890.625000 812.500000
L 890.625000 878.125000
M 882.812500 804.687500
L 890.625000 792.187500
L 898.437500 804.687500
M 915.625000 812.500000
L 915.625000 878.125000
M 906.250000 801.562500
L 906.250000 798.437500
L 909.375000 798.437500
L 909.375000 801.562500
L 906.250000 801.562500
M 921.875000 801.562500
L 921.875000 798.437500
L 925.000000 798.437500
L 925.000000 801.562500
L 921.875000 801.562500
M 50.000000 978.125000
L 50.000000 912.500000
L 65.625000 912.500000
C 103.125000 912.500000 103.125000 978.125000 65.625000 978.125000
L 50.000000 978.125000
M 43.750000 945.312500
L 65.625000 945.312500
M 112.500000 978.125000
L 112.500000 912.500000
L 156.250000 978.125000
L 156.250000 912.500000
M 121.875000 901.562500
C 131.250000 881.250000 137.500000 918.750000 146.875000 898.437500
M 175.000000 945.312500
C 175.000000 901.562500 225.000000 901.562500 225.000000 945.312500
C 225.000000 989.062500 175.000000 989.062500 175.000000 945.312500
M 204.687500 904.687500
L 195.312500 892.187500
M 243.750000 945.312500
C 243.750000 901.562500 293.750000 901.562500 293.750000 945.312500
C 293.750000 989.062500 243.750000 989.062500 243.750000 945.312500
M 264.062500 904.687500
L 273.437500 892.187500
M 312.500000 945.312500
C 312.500000 901.562500 362.500000 901.562500 362.500000 945.312500
C 362.500000 989.062500 312.500000 989.062500 312.500000 945.312500
M 329.687500 904.687500
L 337.500000 892.187500
L 345.312500 904.687500
M 381.250000 945.312500
C 381.250000 901.562500 431.250000 901.562500 431.250000 945.312500
C 431.250000 989.062500 381.250000 989.062500 381.250000 945.312500
M 393.750000 901.562500
C 403.125000 881.250000 409.375000 918.750000 418.750000 898.437500
M 450.000000 945.312500
C 450.000000 901.562500 500.000000 901.562500 500.000000 945.312500
C 500.000000 989.062500 450.000000 989.062500 450.000000 945.312500
M 465.625000 901.562500
L 465.625000 898.437500
L 468.750000 898.437500
L 468.750000 901.562500
L 465.625000 901.562500
M 481.250000 901.562500
L 481.250000 898.437500
L 484.375000 898.437500
L 484.375000 901.562500
L 481.250000 901.562500
M 518.750000 925.000000
L 560.937500 967.187500
M 518.750000 967.187500
L 560.937500 925.000000
M 579.687500 945.312500
C 579.687500 901.562500 629.687500 901.562500 629.687500 945.312500
C 629.687500 989.062500 579.687500 989.062500 579.687500 945.312500
M 581.250000 981.250000
L 628.125000 909.375000
M 648.437500 912.500000
L 648.437500 950.000000
C 648.437500 987.500000 692.187500 987.500000 692.187500 950.000000
L 692.187500 912.500000
M 675.000000 904.687500
L 665.625000 892.187500
M 710.937500 912.500000
L 710.937500 950.000000
C 710.937500 987.500000 754.687500 987.500000 754.687500 950.000000
L 754.687500 912.500000
M 731.250000 904.687500
L 740.625000 892.187500
M 773.437500 912.500000
L 773.437500 950.000000
C 773.437500 987.500000 817.187500 987.500000 817.187500 950.000000
L 817.187500 912.500000
M 787.500000 904.687500
L 795.312500 892.187500
L 803.125000 904.687500
M 835.937500 912.500000
L 835.937500 950.000000
C 835.937500 987.500000 879.687500 987.500000 879.687500 950.000000
L 879.687500 912.500000
M 848.437500 901.562500
L 848.437500 898.437500
L 851.562500 898.437500
L 851.562500 901.562500
L 848.437500 901.562500
M 864.062500 901.562500
L 864.062500 898.437500
L 867.187500 898.437500
L 867.187500 901.562500
L 864.062500 901.562500
M 898.437500 912.500000
L 923.437500 948.437500
L 923.437500 978.125000
M 948.437500 912.500000
L 923.437500 948.437500
M 918.750000 904.687500
L 928.125000 892.187500
M 967.187500 978.125000
L 967.187500 912.500000
M 967.187500 945.312500
C 967.187500 973.437500 1004.687500 973.437500 1004.687500 945.312500
C 1004.687500 917.187500 967.187500 917.187500 967.187500 945.312500
M 1023.437500 978.125000
L 1023.437500 935.937500
C 1023.437500 921.875000 1029.687500 912.500000 1048.437500 912.500000
C 1075.000000 912.500000 1076.562500 942.187500 1045.312500 943.750000
C 1082.812500 943.750000 1082.812500 985.937500 1039.062500 976.562500
M 53.125000 1037.500000
C 67.187500 1031.250000 87.500000 1032.812500 87.500000 1051.562500
L 87.500000 1078.125000
M 87.500000 1054.687500
C 71.875000 1053.125000 50.000000 1053.125000 50.000000 1067.187500
C 50.000000 1084.375000 87.500000 1081.250000 87.500000 1057.812500
M 73.437500 1020.312500
L 64.062500 1007.812500
M 109.375000 1037.500000
C 123.437500 1031.250000 143.750000 1032.812500 143.750000 1051.562500
L 143.750000 1078.125000
M 143.750000 1054.687500
C 128.125000 1053.125000 106.250000 1053.125000 106.250000 1067.187500
C 106.250000 1084.375000 143.750000 1081.250000 143.750000 1057.812500
M 120.312500 1020.312500
L 129.687500 1007.812500
M 165.625000 1037.500000
C 179.687500 1031.250000 200.000000 1032.812500 200.000000 1051.562500
L 200.000000 1078.125000
M 200.000000 1054.687500
C 184.375000 1053.125000 162.500000 1053.125000 162.500000 1067.187500
C 162.500000 1084.375000 200.000000 1081.250000 200.000000 1057.812500
M 173.437500 1020.312500
L 181.250000 1007.812500
L 189.062500 1020.312500
M 221.875000 1037.500000
C 235.937500 1031.250000 256.250000 1032.812500 256.250000 1051.562500
L 256.250000 1078.125000
M 256.250000 1054.687500
C 240.625000 1053.125000 218.750000 1053.125000 218.750000 1067.187500
C 218.750000 1084.375000 256.250000 1081.250000 256.250000 1057.812500
M 225.000000 1017.187500
C 234.375000 996.875000 240.625000 1034.375000 250.000000 1014.062500
M 278.125000 1037.500000
C 292.187500 1031.250000 312.500000 1032.812500 312.500000 1051.562500
L 312.500000 1078.125000
M 312.500000 1054.687500
C 296.875000 1053.125000 275.000000 1053.125000 275.000000 1067.187500
C 275.000000 1084.375000 312.500000 1081.250000 312.500000 1057.812500
M 285.937500 1017.187500
L 285.937500 1014.062500
L 289.062500 1014.062500
L 289.062500 1017.187500
L 285.937500 1017.187500
M 301.562500 1017.187500
L 301.562500 1014.062500
L 304.687500 1014.062500
L 304.687500 1017.187500
L 301.562500 1017.187500
M 334.375000 1037.500000
C 348.437500 1031.250000 368.750000 1032.812500 368.750000 1051.562500
L 368.750000 1078.125000
M 368.750000 1054.687500
C 353.125000 1053.125000 331.250000 1053.125000 331.250000 1067.187500
C 331.250000 1084.375000 368.750000 1081.250000 368.750000 1057.812500
M 350.000000 1020.312500
C 346.875000 1020.312500 343.750000 1017.187500 343.750000 1014.062500
C 343.750000 1010.937500 346.875000 1007.812500 350.000000 1007.812500
C 353.125000 1007.812500 356.250000 1010.937500 356.250000 1014.062500
C 356.250000 1017.187500 353.125000 1020.312500 350.000000 1020.312500
M 390.625000 1037.500000
C 404.687500 1031.250000 421.875000 1032.812500 421.875000 1051.562500
L 421.875000 1057.812500
C 421.875000 1081.250000 387.500000 1084.375000 387.500000 1067.187500
C 387.500000 1053.125000 409.375000 1053.125000 421.875000 1054.687500
M 421.875000 1054.687500
L 457.812500 1054.687500
M 457.812500 1054.687500
C 457.812500 1028.125000 421.875000 1028.125000 421.875000 1054.687500
C 421.875000 1081.250000 443.750000 1079.687500 457.812500 1075.000000
M 506.250000 1035.937500
C 498.437500 1032.812500 476.562500 1032.812500 476.562500 1056.250000
C 476.562500 1078.125000 498.437500 1079.687500 506.250000 1076.562500
M 496.875000 1078.125000
C 500.000000 1081.250000 496.875000 1090.625000 485.937500 1085.937500
M 525.000000 1054.687500
L 562.500000 1054.687500
C 562.500000 1028.125000 525.000000 1028.125000 525.000000 1054.687500
C 525.000000 1078.125000 546.875000 1081.250000 562.500000 1075.000000
M 548.437500 1020.312500
L 539.062500 1007.812500
M 581.250000 1054.687500
L 618.750000 1054.687500
C 618.750000 1028.125000 581.250000 1028.125000 581.250000 1054.687500
C 581.250000 1078.125000 603.125000 1081.250000 618.750000 1075.000000
M 595.312500 1020.312500
L 604.687500 1007.812500
M 637.500000 1054.687500
L 675.000000 1054.687500
C 675.000000 1028.125000 637.500000 1028.125000 637.500000 1054.687500
C 637.500000 1078.125000 659.375000 1081.250000 675.000000 1075.000000
M 648.437500 1020.312500
L 656.250000 1007.812500
L 664.062500 1020.312500
M 693.750000 1054.687500
L 731.250000 1054.687500
C 731.250000 1028.125000 693.750000 1028.125000 693.750000 1054.687500
C 693.750000 1078.125000 715.625000 1081.250000 731.250000 1075.000000
M 703.125000 1017.187500
L 703.125000 1014.062500
L 706.250000 1014.062500
L 706.250000 1017.187500
L 703.125000 1017.187500
M 718.750000 1017.187500
L 718.750000 1014.062500
L 721.875000 1014.062500
L 721.875000 1017.187500
L 718.750000 1017.187500
M 753.125000 1034.375000
L 753.125000 1078.125000
M 753.125000 1020.312500
L 743.750000 1007.812500
M 778.125000 1034.375000
L 778.125000 1078.125000
M 778.125000 1020.312500
L 787.500000 1007.812500
M 801.562500 1034.375000
L 801.562500 1078.125000
M 793.750000 1020.312500
L 801.562500 1007.812500
L 809.375000 1020.312500
M 826.562500 1034.375000
L 826.562500 1078.125000
M 817.187500 1017.187500
L 817.187500 1014.062500
L 820.312500 1014.062500
L 820.312500 1017.187500
L 817.187500 1017.187500
M 832.812500 1017.187500
L 832.812500 1014.062500
L 835.937500 1014.062500
L 835.937500 1017.187500
L 832.812500 1017.187500
M 90.625000 1156.250000
C 90.625000 1126.562500 50.000000 1126.562500 50.000000 1156.250000
C 50.000000 1185.937500 90.625000 1185.937500 90.625000 1156.250000
C 90.625000 1139.062500 78.125000 1120.312500 57.812500 1112.500000
M 56.250000 1126.562500
L 82.812500 1112.500000
M 109.375000 1134.375000
L 109.375000 1178.125000
M 109.375000 1153.125000
C 115.625000 1131.250000 146.875000 1126.562500 146.875000 1153.125000
L 146.875000 1178.125000
M 115.625000 1117.187500
C 125.000000 1096.875000 131.250000 1134.375000 140.625000 1114.062500
M 203.125000 1156.250000
C 203.125000 1126.562500 165.625000 1126.562500 165.625000 1156.250000
C 165.625000 1185.937500 203.125000 1185.937500 203.125000 1156.250000
M 189.062500 1120.312500
L 179.687500 1107.812500
M 259.375000 1156.250000
C 259.375000 1126.562500 221.875000 1126.562500 221.875000 1156.250000
C 221.875000 1185.937500 259.375000 1185.937500 259.375000 1156.250000
M 235.937500 1120.312500
L 245.312500 1107.812500
M 315.625000 1156.250000
C 315.625000 1126.562500 278.125000 1126.562500 278.125000 1156.250000
C 278.125000 1185.937500 315.625000 1185.937500 315.625000 1156.250000
M 289.062500 1120.312500
L 296.875000 1107.812500
L 304.687500 1120.312500
M 371.875000 1156.250000
C 371.875000 1126.562500 334.375000 1126.562500 334.375000 1156.250000
C 334.375000 1185.937500 371.875000 1185.937500 371.875000 1156.250000
M 340.625000 1117.187500
C 350.000000 1096.875000 356.250000 1134.375000 365.625000 1114.062500
M 428.125000 1156.250000
C 428.125000 1126.562500 390.625000 1126.562500 390.625000 1156.250000
C 390.625000 1185.937500 428.125000 1185.937500 428.125000 1156.250000
M 400.000000 1117.187500
L 400.000000 1114.062500
L 403.125000 1114.062500
L 403.125000 1117.187500
L 400.000000 1117.187500
M 415.625000 1117.187500
L 415.625000 1114.062500
L 418.750000 1114.062500
L 418.750000 1117.187500
L 415.625000 1117.187500
M 446.875000 1150.000000
L 503.125000 1150.000000
M 473.437500 1167.187500
L 473.437500 1164.062500
L 476.562500 1164.062500
L 476.562500 1167.187500
L 473.437500 1167.187500
M 473.437500 1135.937500
L 473.437500 1132.812500
L 476.562500 1132.812500
L 476.562500 1135.937500
L 473.437500 1135.937500
M 559.375000 1156.250000
C 559.375000 1126.562500 521.875000 1126.562500 521.875000 1156.250000
C 521.875000 1185.937500 559.375000 1185.937500 559.375000 1156.250000
M 521.875000 1181.250000
L 559.375000 1131.250000
M 615.625000 1178.125000
L 615.625000 1134.375000
M 615.625000 1159.375000
C 609.375000 1181.250000 578.125000 1185.937500 578.125000 1159.375000
L 578.125000 1134.375000
M 601.562500 1120.312500
L 592.187500 1107.812500
M 671.875000 1178.125000
L 671.875000 1134.375000
M 671.875000 1159.375000
C 665.625000 1181.250000 634.375000 1185.937500 634.375000 1159.375000
L 634.375000 1134.375000
M 648.437500 1120.312500
L 657.812500 1107.812500
M 728.125000 1178.125000
L 728.125000 1134.375000
M 728.125000 1159.375000
C 721.875000 1181.250000 690.625000 1185.937500 690.625000 1159.375000
L 690.625000 1134.375000
M 701.562500 1120.312500
L 709.375000 1107.812500
L 717.187500 1120.312500
M 784.375000 1178.125000
L 784.375000 1134.375000
M 784.375000 1159.375000
C 778.125000 1181.250000 746.875000 1185.937500 746.875000 1159.375000
L 746.875000 1134.375000
M 756.250000 1117.187500
L 756.250000 1114.062500
L 759.375000 1114.062500
L 759.375000 1117.187500
L 756.250000 1117.187500
M 771.875000 1117.187500
L 771.875000 1114.062500
L 775.000000 1114.062500
L 775.000000 1117.187500
L 771.875000 1117.187500
M 803.125000 1134.375000
L 821.875000 1178.125000
M 840.625000 1134.375000
L 821.875000 1178.125000
C 812.500000 1200.000000 809.375000 1201.562500 800.000000 1198.437500
M 817.187500 1120.312500
L 826.562500 1107.812500
M 859.375000 1112.500000
L 859.375000 1200.000000
M 859.375000 1143.750000
C 864.062500 1137.500000 868.750000 1134.375000 876.562500 1134.375000
C 893.750000 1134.375000 896.875000 1148.437500 896.875000 1156.250000
C 896.875000 1164.062500 893.750000 1178.125000 876.562500 1178.125000
C 868.750000 1178.125000 864.062500 1175.000000 859.375000 1168.750000
M 915.625000 1134.375000
L 934.375000 1178.125000
M 953.125000 1134.375000
L 934.375000 1178.125000
C 925.000000 1200.000000 921.875000 1201.562500 912.500000 1198.437500
M 925.000000 1117.187500
L 925.000000 1114.062500
L 928.125000 1114.062500
L 928.125000 1117.187500
L 925.000000 1117.187500
M 940.625000 1117.187500
L 940.625000 1114.062500
L 943.750000 1114.062500
L 943.750000 1117.187500
L 940.625000 1117.187500
M 50.000000 1250.000000
L 75.000000 1250.000000
M 93.750000 1250.000000
L 118.750000 1250.000000
M 137.500000 1250.000000
L 184.375000 1250.000000
M 203.125000 1250.000000
L 237.500000 1250.000000
M 256.250000 1250.000000
L 306.250000 1250.000000
M 325.000000 1250.000000
L 387.500000 1250.000000
M 406.250000 1212.500000
L 406.250000 1278.125000
M 418.750000 1278.125000
L 418.750000 1212.500000
M 437.500000 1278.125000
L 475.000000 1278.125000
M 475.000000 1265.625000
L 437.500000 1265.625000
M 495.312500 1217.187500
L 496.875000 1217.187500
L 496.875000 1220.312500
L 493.750000 1220.312500
C 493.750000 1214.062500 495.312500 1207.812500 500.000000 1204.687500
M 523.437500 1207.812500
L 521.875000 1207.812500
L 521.875000 1204.687500
L 525.000000 1204.687500
C 525.000000 1210.937500 523.437500 1217.187500 518.750000 1220.312500
M 550.000000 1278.125000
L 548.437500 1278.125000
L 548.437500 1275.000000
L 551.562500 1275.000000
C 551.562500 1281.250000 550.000000 1287.500000 545.312500 1290.625000
M 571.875000 1207.812500
L 573.437500 1207.812500
L 573.437500 1204.687500
L 570.312500 1204.687500
C 570.312500 1210.937500 571.875000 1217.187500 576.562500 1220.312500
M 596.875000 1217.187500
L 598.437500 1217.187500
L 598.437500 1220.312500
L 595.312500 1220.312500
C 595.312500 1214.062500 596.875000 1207.812500 601.562500 1204.687500
M 610.937500 1217.187500
L 612.500000 1217.187500
L 612.500000 1220.312500
L 609.375000 1220.312500
C 609.375000 1214.062500 610.937500 1207.812500 615.625000 1204.687500
M 639.062500 1207.812500
L 637.500000 1207.812500
L 637.500000 1204.687500
L 640.625000 1204.687500
C 640.625000 1210.937500 639.062500 1217.187500 634.375000 1220.312500
M 653.125000 1207.812500
L 651.562500 1207.812500
L 651.562500 1204.687500
L 654.687500 1204.687500
C 654.687500 1210.937500 653.125000 1217.187500 648.437500 1220.312500
M 678.125000 1278.125000
L 676.562500 1278.125000
L 676.562500 1275.000000
L 679.687500 1275.000000
C 679.687500 1281.250000 678.125000 1287.500000 673.437500 1290.625000
M 692.187500 1278.125000
L 690.625000 1278.125000
L 690.625000 1275.000000
L 693.750000 1275.000000
C 693.750000 1281.250000 692.187500 1287.500000 687.500000 1290.625000
M 714.062500 1207.812500
L 715.625000 1207.812500
L 715.625000 1204.687500
L 712.500000 1204.687500
C 712.500000 1210.937500 714.062500 1217.187500 718.750000 1220.312500
M 728.125000 1207.812500
L 729.687500 1207.812500
L 729.687500 1204.687500
L 726.562500 1204.687500
C 726.562500 1210.937500 728.125000 1217.187500 732.812500 1220.312500
M 68.750000 1312.500000
L 68.750000 1400.000000
M 50.000000 1340.625000
L 87.500000 1340.625000
M 125.000000 1312.500000
L 125.000000 1400.000000
M 106.250000 1340.625000
L 143.750000 1340.625000
M 106.250000 1368.750000
L 143.750000 1368.750000
M 162.500000 1354.687500
C 162.500000 1345.312500 168.750000 1340.625000 176.562500 1340.625000
C 184.375000 1340.625000 190.625000 1346.875000 190.625000 1354.687500
C 190.625000 1362.500000 184.375000 1368.750000 176.562500 1368.750000
C 168.750000 1368.750000 162.500000 1362.500000 162.500000 1354.687500
M 165.625000 1348.437500
L 165.625000 1360.937500
M 168.750000 1364.062500
L 168.750000 1345.312500
M 171.875000 1343.750000
L 171.875000 1365.625000
M 175.000000 1367.187500
L 175.000000 1342.187500
M 178.125000 1342.187500
L 178.125000 1367.187500
M 181.250000 1365.625000
L 181.250000 1343.750000
M 184.375000 1345.312500
L 184.375000 1364.062500
M 187.500000 1360.937500
L 187.500000 1348.437500
M 209.375000 1378.125000
L 209.375000 1312.500000
L 259.375000 1312.500000
L 259.375000 1378.125000
L 209.375000 1378.125000
M 278.125000 1378.125000
L 278.125000 1312.500000
L 328.125000 1312.500000
L 328.125000 1378.125000
L 278.125000 1378.125000
M 346.875000 1378.125000
L 346.875000 1312.500000
L 396.875000 1312.500000
L 396.875000 1378.125000
L 346.875000 1378.125000
M 415.625000 1378.125000
L 415.625000 1375.000000
L 418.750000 1375.000000
L 418.750000 1378.125000
L 415.625000 1378.125000
M 429.687500 1378.125000
L 429.687500 1375.000000
L 432.812500 1375.000000
L 432.812500 1378.125000
L 429.687500 1378.125000
M 443.750000 1378.125000
L 443.750000 1375.000000
L 446.875000 1375.000000
L 446.875000 1378.125000
L 443.750000 1378.125000
M 465.625000 1378.125000
L 465.625000 1312.500000
L 515.625000 1312.500000
L 515.625000 1378.125000
L 465.625000 1378.125000
M 534.375000 1378.125000
L 534.375000 1312.500000
L 584.375000 1312.500000
L 584.375000 1378.125000
L 534.375000 1378.125000
M 603.125000 1378.125000
L 603.125000 1312.500000
L 653.125000 1312.500000
L 653.125000 1378.125000
L 603.125000 1378.125000
M 671.875000 1378.125000
L 671.875000 1312.500000
L 721.875000 1312.500000
L 721.875000 1378.125000
L 671.875000 1378.125000
M 740.625000 1378.125000
L 740.625000 1312.500000
L 790.625000 1312.500000
L 790.625000 1378.125000
L 740.625000 1378.125000
M 809.375000 1378.125000
L 809.375000 1312.500000
L 859.375000 1312.500000
L 859.375000 1378.125000
L 809.375000 1378.125000
M 878.125000 1378.125000
L 878.125000 1312.500000
L 928.125000 1312.500000
L 928.125000 1378.125000
L 878.125000 1378.125000
M 946.875000 1378.125000
L 946.875000 1312.500000
L 996.875000 1312.500000
L 996.875000 1378.125000
L 946.875000 1378.125000
M 68.750000 1429.687500
C 68.750000 1407.812500 50.000000 1407.812500 50.000000 1429.687500
C 50.000000 1451.562500 68.750000 1451.562500 68.750000 1429.687500
M 93.750000 1412.500000
L 62.500000 1478.125000
M 103.125000 1460.937500
C 103.125000 1439.062500 84.375000 1439.062500 84.375000 1460.937500
C 84.375000 1482.812500 103.125000 1482.812500 103.125000 1460.937500
M 134.375000 1460.937500
C 134.375000 1439.062500 115.625000 1439.062500 115.625000 1460.937500
C 115.625000 1482.812500 134.375000 1482.812500 134.375000 1460.937500
M 153.125000 1478.125000
L 153.125000 1412.500000
L 203.125000 1412.500000
L 203.125000 1478.125000
L 153.125000 1478.125000
M 221.875000 1478.125000
L 221.875000 1412.500000
L 271.875000 1412.500000
L 271.875000 1478.125000
L 221.875000 1478.125000
M 290.625000 1478.125000
L 290.625000 1412.500000
L 340.625000 1412.500000
L 340.625000 1478.125000
L 290.625000 1478.125000
M 359.375000 1478.125000
L 359.375000 1412.500000
L 409.375000 1412.500000
L 409.375000 1478.125000
L 359.375000 1478.125000
M 428.125000 1478.125000
L 428.125000 1412.500000
L 478.125000 1412.500000
L 478.125000 1478.125000
L 428.125000 1478.125000
M 496.875000 1478.125000
L 496.875000 1412.500000
L 546.875000 1412.500000
L 546.875000 1478.125000
L 496.875000 1478.125000
M 565.625000 1478.125000
L 565.625000 1412.500000
L 615.625000 1412.500000
L 615.625000 1478.125000
L 565.625000 1478.125000
M 634.375000 1478.125000
L 634.375000 1412.500000
L 684.375000 1412.500000
L 684.375000 1478.125000
L 634.375000 1478.125000
M 714.062500 1434.375000
L 703.125000 1454.687500
L 714.062500 1475.000000
M 732.812500 1434.375000
L 743.750000 1454.687500
L 732.812500 1475.000000
M 762.500000 1478.125000
L 762.500000 1412.500000
L 812.500000 1412.500000
L 812.500000 1478.125000
L 762.500000 1478.125000
M 831.250000 1478.125000
L 831.250000 1412.500000
L 881.250000 1412.500000
L 881.250000 1478.125000
L 831.250000 1478.125000
M 900.000000 1478.125000
L 900.000000 1412.500000
L 950.000000 1412.500000
L 950.000000 1478.125000
L 900.000000 1478.125000
M 968.750000 1478.125000
L 968.750000 1412.500000
L 1018.750000 1412.500000
L 1018.750000 1478.125000
L 968.750000 1478.125000
M 1037.500000 1478.125000
L 1037.500000 1412.500000
L 1087.500000 1412.500000
L 1087.500000 1478.125000
L 1037.500000 1478.125000
M 68.750000 1529.687500
C 68.750000 1507.812500 50.000000 1507.812500 50.000000 1529.687500
C 50.000000 1551.562500 68.750000 1551.562500 68.750000 1529.687500
M 89.062500 1521.875000
L 89.062500 1543.750000
M 89.062500 1514.062500
L 89.062500 1512.500000
L 90.625000 1512.500000
L 90.625000 1514.062500
L 89.062500 1514.062500
M 109.375000 1578.125000
L 109.375000 1512.500000
L 159.375000 1512.500000
L 159.375000 1578.125000
L 109.375000 1578.125000
M 178.125000 1578.125000
L 178.125000 1512.500000
L 228.125000 1512.500000
L 228.125000 1578.125000
L 178.125000 1578.125000
M 262.500000 1545.312500
L 262.500000 1512.500000
L 246.875000 1537.500000
L 265.625000 1537.500000
M 301.562500 1512.500000
L 285.937500 1512.500000
L 284.375000 1528.125000
C 292.187500 1525.000000 303.125000 1526.562500 303.125000 1535.937500
C 303.125000 1546.875000 287.500000 1546.875000 284.375000 1543.750000
M 339.062500 1514.062500
C 337.500000 1512.500000 321.875000 1509.375000 321.875000 1531.250000
C 321.875000 1551.562500 340.625000 1546.875000 340.625000 1535.937500
C 340.625000 1526.562500 325.000000 1521.875000 323.437500 1535.937500
M 359.375000 1512.500000
L 378.125000 1512.500000
L 365.625000 1545.312500
M 414.062500 1520.312500
C 414.062500 1510.937500 398.437500 1510.937500 398.437500 1520.312500
C 398.437500 1529.687500 415.625000 1528.125000 415.625000 1537.500000
C 415.625000 1548.437500 396.875000 1548.437500 396.875000 1537.500000
C 396.875000 1528.125000 414.062500 1529.687500 414.062500 1520.312500
M 435.937500 1545.312500
C 439.062500 1545.312500 453.125000 1550.000000 453.125000 1528.125000
C 453.125000 1506.250000 434.375000 1510.937500 434.375000 1521.875000
C 434.375000 1532.812500 450.000000 1535.937500 451.562500 1523.437500
M 485.937500 1517.187500
L 485.937500 1545.312500
M 471.875000 1531.250000
L 500.000000 1531.250000
M 518.750000 1531.250000
L 546.875000 1531.250000
M 565.625000 1526.562500
L 593.750000 1526.562500
M 565.625000 1535.937500
L 593.750000 1535.937500
M 621.875000 1510.937500
C 610.937500 1521.875000 610.937500 1539.062500 621.875000 1550.000000
M 640.625000 1510.937500
C 653.125000 1521.875000 653.125000 1539.062500 640.625000 1550.000000
M 668.750000 1523.437500
L 668.750000 1545.312500
M 668.750000 1532.812500
C 671.875000 1521.875000 687.500000 1520.312500 687.500000 1532.812500
L 687.500000 1545.312500
M 68.750000 1665.625000
C 68.750000 1643.750000 50.000000 1643.750000 50.000000 1665.625000
C 50.000000 1687.500000 68.750000 1687.500000 68.750000 1665.625000
M 90.625000 1654.687500
C 93.750000 1654.687500 96.875000 1651.562500 98.437500 1648.437500
L 98.437500 1681.250000
M 126.562500 1650.000000
C 128.125000 1648.437500 143.750000 1645.312500 143.750000 1657.812500
C 143.750000 1662.500000 140.625000 1665.625000 125.000000 1681.250000
L 143.750000 1681.250000
M 164.062500 1650.000000
C 182.812500 1643.750000 189.062500 1664.062500 167.187500 1664.062500
C 189.062500 1664.062500 184.375000 1687.500000 162.500000 1679.687500
M 215.625000 1681.250000
L 215.625000 1648.437500
L 200.000000 1673.437500
L 218.750000 1673.437500
M 254.687500 1648.437500
L 239.062500 1648.437500
L 237.500000 1664.062500
C 245.312500 1660.937500 256.250000 1662.500000 256.250000 1671.875000
C 256.250000 1682.812500 240.625000 1682.812500 237.500000 1679.687500
M 292.187500 1650.000000
C 290.625000 1648.437500 275.000000 1645.312500 275.000000 1667.187500
C 275.000000 1687.500000 293.750000 1682.812500 293.750000 1671.875000
C 293.750000 1662.500000 278.125000 1657.812500 276.562500 1671.875000
M 312.500000 1648.437500
L 331.250000 1648.437500
L 318.750000 1681.250000
M 367.187500 1656.250000
C 367.187500 1646.875000 351.562500 1646.875000 351.562500 1656.250000
C 351.562500 1665.625000 368.750000 1664.062500 368.750000 1673.437500
C 368.750000 1684.375000 350.000000 1684.375000 350.000000 1673.437500
C 350.000000 1664.062500 367.187500 1665.625000 367.187500 1656.250000
M 389.062500 1681.250000
C 392.187500 1681.250000 406.250000 1685.937500 406.250000 1664.062500
C 406.250000 1642.187500 387.500000 1646.875000 387.500000 1657.812500
C 387.500000 1668.750000 403.125000 1671.875000 404.687500 1659.375000
M 439.062500 1653.125000
L 439.062500 1681.250000
M 425.000000 1667.187500
L 453.125000 1667.187500
M 471.875000 1659.375000
L 500.000000 1659.375000
M 518.750000 1662.500000
L 546.875000 1662.500000
M 518.750000 1671.875000
L 546.875000 1671.875000
M 575.000000 1646.875000
C 564.062500 1657.812500 564.062500 1675.000000 575.000000 1685.937500
M 593.750000 1646.875000
C 606.250000 1657.812500 606.250000 1675.000000 593.750000 1685.937500
M 621.875000 1678.125000
L 621.875000 1612.500000
L 671.875000 1612.500000
L 671.875000 1678.125000
L 621.875000 1678.125000
M 51.562500 1760.937500
C 59.375000 1757.812500 68.750000 1759.375000 68.750000 1768.750000
L 68.750000 1781.250000
M 68.750000 1770.312500
C 60.937500 1768.750000 50.000000 1768.750000 50.000000 1776.562500
C 50.000000 1784.375000 68.750000 1782.812500 68.750000 1771.875000
M 87.500000 1770.312500
L 106.250000 1770.312500
C 106.250000 1756.250000 87.500000 1756.250000 87.500000 1770.312500
C 87.500000 1781.250000 98.437500 1782.812500 106.250000 1779.687500
M 143.750000 1770.312500
C 143.750000 1756.250000 125.000000 1756.250000 125.000000 1770.312500
C 125.000000 1785.937500 143.750000 1785.937500 143.750000 1770.312500
M 162.500000 1759.375000
L 179.687500 1781.250000
M 179.687500 1759.375000
L 162.500000 1781.250000
M 217.187500 1770.312500
L 198.437500 1770.312500
C 198.437500 1784.375000 217.187500 1784.375000 217.187500 1770.312500
C 217.187500 1759.375000 206.250000 1757.812500 198.437500 1760.937500
M 235.937500 1748.437500
L 235.937500 1781.250000
M 235.937500 1768.750000
C 239.062500 1757.812500 254.687500 1756.250000 254.687500 1768.750000
L 254.687500 1781.250000
M 273.437500 1748.437500
L 273.437500 1781.250000
M 289.062500 1759.375000
L 273.437500 1775.000000
M 279.687500 1768.750000
L 290.625000 1781.250000
M 310.937500 1748.437500
L 310.937500 1781.250000
M 331.250000 1759.375000
L 331.250000 1781.250000
M 331.250000 1768.750000
C 332.812500 1759.375000 346.875000 1754.687500 346.875000 1768.750000
L 346.875000 1781.250000
M 346.875000 1768.750000
C 348.437500 1759.375000 362.500000 1754.687500 362.500000 1768.750000
L 362.500000 1781.250000
M 381.250000 1759.375000
L 381.250000 1781.250000
M 381.250000 1768.750000
C 384.375000 1757.812500 400.000000 1756.250000 400.000000 1768.750000
L 400.000000 1781.250000
M 418.750000 1792.187500
L 418.750000 1759.375000
M 418.750000 1770.312500
C 418.750000 1784.375000 437.500000 1784.375000 437.500000 1770.312500
C 437.500000 1756.250000 418.750000 1756.250000 418.750000 1770.312500
M 471.875000 1760.937500
C 470.312500 1759.375000 456.250000 1757.812500 456.250000 1765.625000
C 456.250000 1770.312500 473.437500 1770.312500 473.437500 1776.562500
C 473.437500 1782.812500 462.500000 1781.250000 457.812500 1779.687500
M 496.875000 1748.437500
L 496.875000 1773.437500
C 496.875000 1779.687500 498.437500 1782.812500 503.125000 1781.250000
M 492.187500 1757.812500
L 501.562500 1757.812500
M 521.875000 1778.125000
L 521.875000 1712.500000
L 571.875000 1712.500000
L 571.875000 1778.125000
L 521.875000 1778.125000
M 590.625000 1778.125000
L 590.625000 1712.500000
L 640.625000 1712.500000
L 640.625000 1778.125000
L 590.625000 1778.125000
M 659.375000 1778.125000
L 659.375000 1712.500000
L 709.375000 1712.500000
L 709.375000 1778.125000
L 659.375000 1778.125000
M 50.000000 1878.125000
L 50.000000 1812.500000
L 100.000000 1812.500000
L 100.000000 1878.125000
L 50.000000 1878.125000
M 118.750000 1878.125000
L 118.750000 1812.500000
L 168.750000 1812.500000
L 168.750000 1878.125000
L 118.750000 1878.125000
M 187.500000 1878.125000
L 187.500000 1812.500000
L 237.500000 1812.500000
L 237.500000 1878.125000
L 187.500000 1878.125000
M 256.250000 1878.125000
L 256.250000 1812.500000
L 306.250000 1812.500000
L 306.250000 1878.125000
L 256.250000 1878.125000
M 325.000000 1878.125000
L 325.000000 1812.500000
L 375.000000 1812.500000
L 375.000000 1878.125000
L 325.000000 1878.125000
M 393.750000 1878.125000
L 393.750000 1812.500000
L 443.750000 1812.500000
L 443.750000 1878.125000
L 393.750000 1878.125000
M 462.500000 1878.125000
L 462.500000 1812.500000
L 512.500000 1812.500000
L 512.500000 1878.125000
L 462.500000 1878.125000
M 531.250000 1878.125000
L 531.250000 1812.500000
L 581.250000 1812.500000
L 581.250000 1878.125000
L 531.250000 1878.125000
M 600.000000 1878.125000
L 600.000000 1812.500000
L 650.000000 1812.500000
L 650.000000 1878.125000
L 600.000000 1878.125000
M 668.750000 1878.125000
L 668.750000 1812.500000
L 718.750000 1812.500000
L 718.750000 1878.125000
L 668.750000 1878.125000
M 737.500000 1878.125000
L 737.500000 1812.500000
L 787.500000 1812.500000
L 787.500000 1878.125000
L 737.500000 1878.125000
M 806.250000 1878.125000
L 806.250000 1812.500000
L 856.250000 1812.500000
L 856.250000 1878.125000
L 806.250000 1878.125000
M 921.875000 1815.625000
C 903.125000 1807.812500 875.000000 1815.625000 875.000000 1845.312500
C 875.000000 1875.000000 903.125000 1882.812500 921.875000 1875.000000
M 915.625000 1851.562500
L 871.875000 1851.562500
M 871.875000 1839.062500
L 918.750000 1839.062500
M 940.625000 1878.125000
L 940.625000 1812.500000
L 990.625000 1812.500000
L 990.625000 1878.125000
L 940.625000 1878.125000
M 1009.375000 1878.125000
L 1009.375000 1812.500000
L 1059.375000 1812.500000
L 1059.375000 1878.125000
L 1009.375000 1878.125000
M 1078.125000 1878.125000
L 1078.125000 1812.500000
L 1128.125000 1812.500000
L 1128.125000 1878.125000
L 1078.125000 1878.125000
"/>
</svg>