<?xml version="1.0" encoding="UTF-8" standalone="no"?>
<svg version="1.1"
  xmlns="http://www.w3.org/2000/svg"
  xmlns:svg="http://www.w3.org/2000/svg"
  width="800" height="600">
<path fill="none" stroke-width="1.5" stroke="black" stroke-linecap="round" stroke-linejoin="round" d="
M 28.318182 52.227273
C 28.318182 51.409091 27.772727 50.863636 26.954545 50.863636
C 26.136364 50.863636 25.590909 51.409091 25.590909 52.227273
C 25.590909 53.045455 26.136364 53.590909 26.954545 53.590909
C 27.772727 53.590909 28.318182 53.045455 28.318182 52.227273
M 30.909091 44.727273
C 42.909091 26.727273 48.636364 23.454545 46.181818 21.818182
C 43.727273 20.181818 42.909091 26.727273 30.909091 44.727273
M 66.227273 24.954545
L 65.000000 12.681818
C 64.454545 7.227273 68.681818 7.227273 68.136364 12.681818
L 66.909091 24.954545
C 66.772727 26.318182 66.363636 26.318182 66.227273 24.954545
M 57.500000 24.954545
L 56.272727 12.681818
C 55.727273 7.227273 59.954545 7.227273 59.409091 12.681818
L 58.181818 24.954545
C 58.045455 26.318182 57.636364 26.318182 57.500000 24.954545
M 74.954545 54.545455
L 89.136364 20.727273
M 98.409091 20.727273
L 84.227273 54.545455
M 95.272727 42.136364
L 74.000000 42.136364
M 78.090909 32.181818
L 99.363636 32.181818
M 134.545455 29.727273
C 140.272727 17.045455 118.454545 15.954545 118.454545 30.000000
C 118.454545 34.909091 125.000000 38.181818 125.000000 43.636364
C 125.000000 59.727273 96.363636 56.863636 108.090909 40.363636
M 108.090909 56.454545
L 134.136364 15.818182
M 158.545455 21.409091
C 152.272727 17.318182 141.636364 26.181818 141.636364 33.545455
C 141.636364 49.909091 164.818182 27.136364 158.409091 21.272727
C 162.500000 29.181818 169.181818 27.409091 175.318182 20.045455
L 145.590909 56.863636
M 180.636364 39.409091
C 180.636364 30.000000 163.318182 39.681818 163.318182 48.681818
C 163.318182 61.636364 180.636364 50.045455 180.636364 39.409091
M 221.681818 38.318182
C 218.272727 33.409091 211.727273 37.500000 205.727273 46.500000
C 198.909091 56.727273 184.590909 57.545455 184.590909 46.227273
C 184.590909 31.500000 206.818182 33.272727 206.818182 23.318182
C 206.818182 16.363636 194.409091 19.909091 194.409091 34.363636
C 194.409091 51.954545 215.681818 62.318182 227.272727 47.045455
M 234.500000 24.954545
L 233.272727 12.681818
C 232.727273 7.227273 236.954545 7.227273 236.409091 12.681818
L 235.181818 24.954545
C 235.045455 26.318182 234.636364 26.318182 234.500000 24.954545
M 276.636364 9.818182
C 252.772727 20.318182 236.954545 46.500000 236.954545 72.545455
M 245.545455 72.545455
C 269.409091 62.045455 285.227273 35.863636 285.227273 9.818182
M 305.954545 25.363636
L 310.454545 9.000000
M 316.318182 15.136364
L 300.090909 19.363636
M 302.272727 11.181818
L 314.000000 23.181818
M 332.818182 32.727273
L 332.818182 54.545455
M 321.909091 43.227273
L 343.727273 43.227273
M 355.454545 52.227273
C 355.454545 53.045455 354.909091 53.590909 354.090909 53.590909
C 353.272727 53.590909 352.727273 53.045455 352.727273 52.227273
C 352.727273 51.409091 353.272727 50.863636 354.090909 50.863636
C 354.909091 50.863636 355.454545 51.409091 355.454545 52.227273
C 355.454545 57.818182 351.909091 60.545455 345.772727 62.454545
M 369.363636 43.363636
L 383.272727 43.363636
M 393.636364 52.227273
C 393.636364 53.045455 393.090909 53.590909 392.272727 53.590909
C 391.454545 53.590909 390.909091 53.045455 390.909091 52.227273
C 390.909091 51.409091 391.454545 50.863636 392.272727 50.863636
C 393.090909 50.863636 393.636364 51.409091 393.636364 52.227273
M 428.409091 8.590909
L 410.136364 55.090909
M 56.818182 108.500000
C 56.818182 89.954545 28.727273 106.590909 28.727273 126.500000
C 28.727273 145.318182 56.818182 128.136364 56.818182 108.500000
M 65.545455 111.363636
C 71.681818 109.454545 77.272727 106.863636 82.727273 103.045455
L 63.090909 133.181818
M 100.318182 113.000000
C 98.409091 114.363636 93.772727 114.090909 93.772727 110.000000
C 93.772727 97.590909 112.454545 96.636364 112.454545 107.954545
C 112.454545 122.272727 88.590909 123.772727 78.090909 134.272727
C 81.636364 131.681818 84.363636 130.181818 87.636364 130.181818
C 90.909091 130.181818 94.590909 133.590909 98.272727 133.590909
C 102.500000 133.590909 106.727273 130.454545 109.590909 124.045455
M 137.000000 110.545455
C 135.636364 111.772727 131.545455 111.909091 131.545455 108.090909
C 131.545455 97.727273 147.090909 97.863636 147.090909 106.318182
C 147.090909 107.818182 148.590909 114.500000 128.272727 116.818182
C 145.863636 114.090909 141.090909 134.681818 125.000000 134.681818
C 112.318182 134.681818 112.727273 121.318182 121.045455 121.454545
M 180.090909 95.681818
L 148.727273 122.000000
L 176.681818 122.000000
M 179.954545 102.500000
L 160.318182 132.909091
M 216.500000 101.409091
C 213.500000 103.727273 209.681818 105.500000 205.863636 101.545455
L 191.136364 116.272727
C 211.181818 107.000000 207.909091 134.545455 191.000000 134.545455
C 178.045455 134.545455 180.227273 119.272727 188.818182 121.454545
M 261.500000 98.000000
C 262.181818 77.136364 218.681818 102.227273 218.681818 125.954545
C 218.681818 144.772727 240.772727 128.954545 240.772727 115.318182
C 240.772727 105.909091 228.636364 104.954545 220.454545 122.681818
M 263.681818 98.545455
C 262.727273 101.136364 259.863636 105.090909 257.818182 106.863636
C 261.909091 101.681818 264.636364 100.863636 267.500000 100.863636
C 271.181818 100.863636 275.272727 107.409091 283.727273 99.909091
L 250.727273 139.727273
M 306.227273 114.909091
C 309.909091 113.954545 315.227273 110.818182 315.227273 104.136364
C 315.227273 90.363636 296.545455 92.272727 296.545455 105.227273
C 296.545455 112.045455 302.545455 115.863636 302.545455 123.909091
C 302.545455 139.318182 282.500000 136.181818 282.500000 124.590909
C 282.500000 119.954545 285.772727 111.363636 298.318182 112.045455
M 292.590909 138.772727
C 290.272727 155.136364 327.636364 152.409091 340.045455 108.363636
C 343.727273 92.409091 318.227273 101.818182 318.500000 119.000000
C 318.500000 128.409091 330.636364 129.363636 338.818182 111.636364
M 358.863636 114.500000
C 358.863636 115.318182 358.318182 115.863636 357.500000 115.863636
C 356.681818 115.863636 356.136364 115.318182 356.136364 114.500000
C 356.136364 113.681818 356.681818 113.136364 357.500000 113.136364
C 358.318182 113.136364 358.863636 113.681818 358.863636 114.500000
M 347.272727 132.227273
C 347.272727 133.045455 346.727273 133.590909 345.909091 133.590909
C 345.090909 133.590909 344.545455 133.045455 344.545455 132.227273
C 344.545455 131.409091 345.090909 130.863636 345.909091 130.863636
C 346.727273 130.863636 347.272727 131.409091 347.272727 132.227273
M 363.636364 132.227273
C 363.636364 133.045455 363.090909 133.590909 362.272727 133.590909
C 361.454545 133.590909 360.909091 133.045455 360.909091 132.227273
C 360.909091 131.409091 361.454545 130.863636 362.272727 130.863636
C 363.090909 130.863636 363.636364 131.409091 363.636364 132.227273
C 363.636364 137.818182 360.090909 140.545455 353.954545 142.454545
M 375.227273 114.500000
C 375.227273 115.318182 374.681818 115.863636 373.863636 115.863636
C 373.045455 115.863636 372.500000 115.318182 372.500000 114.500000
C 372.500000 113.681818 373.045455 113.136364 373.863636 113.136364
C 374.681818 113.136364 375.227273 113.681818 375.227273 114.500000
M 407.000000 113.136364
L 385.590909 123.227273
L 407.000000 133.318182
M 425.818182 119.136364
L 446.954545 119.136364
M 446.954545 127.727273
L 425.818182 127.727273
M 467.272727 113.136364
L 488.681818 123.227273
L 467.272727 133.318182
M 511.045455 112.863636
C 508.590909 116.136364 500.818182 117.090909 500.818182 110.000000
C 500.818182 98.818182 520.045455 95.545455 520.045455 107.272727
C 520.045455 118.454545 503.272727 119.954545 500.545455 125.681818
M 498.636364 132.227273
C 498.636364 133.045455 498.090909 133.590909 497.272727 133.590909
C 496.454545 133.590909 495.909091 133.045455 495.909091 132.227273
C 495.909091 131.409091 496.454545 130.863636 497.272727 130.863636
C 498.090909 130.863636 498.636364 131.409091 498.636364 132.227273
M 57.347079 191.623711
C 62.439863 174.778351 41.938144 181.307560 41.938144 196.324742
C 41.938144 208.469072 53.951890 202.853952 57.347079 191.623711
L 60.219931 182.091065
L 55.127148 198.936426
C 53.429553 204.551546 71.580756 207.554983 71.580756 188.750859
C 71.580756 163.417526 28.357388 163.025773 28.357388 192.929553
C 28.357388 210.558419 49.512027 219.438144 64.006873 210.689003
M 107.360825 193.974227
L 117.285223 193.974227
M 78.109966 209.905498
C 76.673540 206.771478 73.147766 213.823024 81.374570 213.823024
C 98.350515 213.823024 110.625430 181.438144 132.824742 170.991409
C 117.154639 189.273196 106.185567 213.823024 117.938144 213.823024
C 123.553265 213.823024 133.608247 202.070447 136.219931 198.152921
M 187.670103 169.554983
C 164.948454 175.170103 161.553265 214.345361 141.443299 214.345361
C 129.821306 214.345361 136.872852 206.510309 137.656357 210.036082
M 156.982818 186.400344
C 162.206186 207.032646 138.048110 207.685567 138.048110 193.843643
C 138.048110 187.314433 144.577320 169.816151 167.560137 169.816151
C 189.759450 169.816151 185.580756 191.754296 170.041237 191.754296
C 185.711340 191.754296 179.965636 213.823024 166.254296 213.823024
C 161.683849 213.823024 157.505155 209.644330 162.075601 205.987973
M 216.790378 179.218213
C 215.092784 189.664948 233.243986 185.747423 233.243986 176.084192
C 233.243986 159.108247 194.199313 181.307560 194.199313 203.506873
C 194.199313 220.091065 220.185567 214.998282 220.185567 199.458763
C 220.185567 196.324742 218.487973 193.060137 214.570447 193.060137
M 286.391753 168.249141
C 277.250859 172.166667 271.113402 174.778351 261.972509 193.060137
C 259.360825 198.283505 250.742268 213.823024 235.463918 213.823024
C 233.505155 213.823024 233.635739 212.517182 235.463918 212.517182
C 238.075601 212.517182 245.910653 214.214777 253.092784 214.214777
C 273.202749 214.214777 279.209622 195.541237 279.209622 189.012027
C 279.209622 156.757732 234.810997 170.730241 234.810997 193.190722
C 234.810997 208.860825 257.532646 206.249141 256.879725 184.963918
M 314.075601 183.788660
C 327.656357 185.355670 329.745704 169.816151 317.993127 169.816151
C 314.075601 169.816151 305.979381 172.427835 305.979381 183.788660
C 305.979381 196.847079 289.003436 187.706186 289.003436 204.682131
C 289.003436 218.785223 317.601375 215.128866 317.601375 202.201031
C 317.601375 195.671821 308.460481 196.455326 302.453608 202.462199
M 358.865979 180.524055
C 365.395189 192.276632 335.230241 204.159794 335.230241 188.750859
C 335.230241 170.077320 365.264605 172.689003 391.381443 172.689003
C 373.883162 176.606529 370.618557 179.740550 362.783505 192.798969
C 358.865979 199.328179 350.900344 213.823024 337.972509 213.823024
C 323.608247 213.823024 328.048110 202.462199 330.268041 205.726804
M 358.474227 193.321306
C 370.226804 193.321306 371.532646 193.321306 374.405498 190.187285
L 367.876289 199.328179
M 399.477663 164.201031
C 394.254296 170.730241 396.865979 180.654639 410.446735 180.654639
C 422.591065 180.654639 427.422680 169.816151 416.584192 169.816151
C 390.467354 169.816151 378.714777 201.548110 391.642612 201.548110
C 398.171821 201.548110 405.223368 196.324742 409.924399 190.187285
C 401.567010 199.328179 398.171821 214.214777 382.501718 214.214777
C 369.443299 214.214777 374.666667 202.462199 376.886598 205.465636
M 438.130584 180.915808
C 442.048110 192.668385 421.415808 196.585911 421.415808 185.878007
C 421.415808 181.307560 427.292096 169.946735 465.945017 169.946735
C 467.250859 169.946735 467.250859 169.554983 465.945017 169.554983
C 459.415808 169.554983 449.752577 175.431271 440.611684 191.101375
C 431.470790 206.771478 426.247423 213.823024 417.890034 213.823024
C 410.054983 213.823024 413.319588 207.685567 414.756014 210.166667
M 440.611684 192.537801
L 452.756014 192.537801
M 481.484536 172.558419
C 480.178694 162.111684 446.357388 190.840206 446.357388 208.991409
C 446.357388 220.613402 461.896907 209.121993 469.209622 198.152921
M 493.759450 182.482818
C 496.893471 192.668385 476.914089 198.283505 476.914089 185.878007
C 476.914089 183.266323 479.525773 171.252577 518.831615 171.252577
C 520.137457 171.252577 520.137457 170.860825 518.831615 170.860825
C 511.649485 170.860825 505.381443 178.042955 497.546392 191.101375
C 489.711340 204.159794 483.443299 213.823024 470.123711 213.823024
C 458.893471 213.823024 461.243986 203.768041 464.639175 206.249141
M 531.628866 182.482818
C 534.762887 192.668385 514.783505 198.283505 514.783505 185.878007
C 514.783505 183.266323 517.395189 171.252577 556.701031 171.252577
C 558.006873 171.252577 558.006873 170.860825 556.701031 170.860825
C 549.518900 170.860825 543.250859 178.042955 535.415808 191.101375
C 527.580756 204.159794 513.477663 231.974227 497.676976 231.974227
C 488.536082 231.974227 481.615120 218.393471 505.120275 214.475945
C 538.027491 210.819588 538.941581 207.163230 544.948454 198.152921
M 565.711340 183.005155
C 569.498282 193.582474 549.388316 198.936426 549.257732 187.706186
C 549.388316 180.524055 560.618557 169.946735 594.831615 170.469072
C 599.140893 170.338488 596.790378 169.032646 591.436426 170.991409
C 586.604811 172.819588 581.120275 175.431271 571.979381 191.101375
C 562.838488 206.771478 556.831615 213.823024 549.780069 213.953608
C 541.814433 213.953608 543.903780 207.946735 545.862543 209.774914
M 612.460481 175.170103
C 614.288660 168.510309 605.278351 167.073883 595.223368 180.785223
C 592.350515 184.702749 583.993127 192.798969 576.027491 191.362543
C 587.388316 192.929553 576.419244 205.073883 576.419244 210.297251
C 576.419244 218.915808 591.175258 211.080756 599.793814 198.152921
M 620.687285 170.860825
C 610.240550 165.637457 603.711340 186.008591 627.216495 186.008591
C 646.804124 186.008591 650.721649 170.077320 641.711340 170.077320
C 636.487973 170.077320 627.347079 173.994845 618.206186 190.970790
C 611.024055 201.417526 607.628866 214.475945 588.432990 214.475945
C 587.388316 214.475945 586.996564 213.692440 588.432990 213.431271
C 600.185567 210.819588 613.243986 210.819588 607.498282 222.963918
M 631.917526 211.603093
C 630.872852 209.121993 627.347079 213.823024 633.615120 213.823024
C 640.144330 213.823024 645.367698 205.465636 653.202749 193.713058
C 661.037801 181.960481 667.567010 171.513746 680.886598 169.163230
C 663.910653 174.125430 663.257732 203.115120 655.161512 213.823024
C 673.443299 199.458763 682.584192 170.077320 704.391753 170.077320
C 680.233677 173.994845 687.285223 211.864261 663.780069 213.823024
C 685.979381 213.823024 691.725086 203.245704 695.120275 198.152921
M 685.979381 211.211340
C 684.673540 208.338488 680.756014 213.823024 688.591065 213.823024
C 693.814433 213.823024 702.955326 211.211340 720.584192 170.207904
C 714.969072 184.702749 723.718213 195.802405 719.147766 213.823024
C 730.900344 187.575601 737.690722 179.871134 744.219931 173.341924
C 750.749141 166.812715 757.147766 173.994845 750.749141 179.218213
M 774.776632 177.259450
C 774.776632 162.242268 744.089347 180.915808 744.089347 203.898625
C 744.089347 227.273196 778.824742 205.596220 778.824742 178.957045
C 778.824742 162.503436 762.632302 170.469072 762.632302 185.225086
C 762.632302 202.201031 783.134021 205.204467 787.835052 198.152921
M 52.181818 265.909091
C 52.181818 283.636364 33.363636 287.727273 33.363636 274.090909
C 33.363636 254.727273 80.818182 236.045455 80.818182 259.227273
C 80.818182 271.909091 64.181818 274.500000 66.772727 267.681818
M 83.272727 247.636364
C 75.090909 249.000000 69.636364 254.454545 58.727273 270.818182
C 47.818182 287.181818 46.454545 294.545455 24.909091 294.818182
C 20.000000 294.818182 20.000000 293.181818 24.909091 293.181818
C 29.000000 293.181818 38.545455 294.954545 49.181818 294.954545
C 69.636364 294.954545 77.545455 279.818182 78.636364 278.181818
M 110.000000 268.090909
C 106.045455 273.272727 91.590909 277.090909 91.590909 264.681818
C 91.590909 249.272727 119.681818 241.090909 119.681818 258.000000
C 119.681818 274.227273 88.318182 294.545455 75.090909 294.545455
C 65.545455 294.545455 69.636364 289.772727 77.272727 289.772727
C 86.136364 289.772727 91.590909 294.409091 98.681818 294.409091
C 113.681818 294.409091 121.727273 283.090909 125.000000 278.181818
M 126.227273 291.272727
C 124.727273 288.272727 120.363636 295.227273 129.909091 295.227273
C 147.227273 295.227273 153.636364 253.363636 177.227273 248.727273
M 147.227273 266.590909
C 147.227273 281.590909 127.318182 286.363636 126.909091 272.045455
C 127.318182 250.227273 175.045455 238.772727 175.045455 258.954545
C 175.045455 264.681818 169.045455 272.454545 158.272727 270.818182
C 171.636364 274.090909 154.863636 291.136364 159.636364 294.000000
C 167.136364 298.500000 180.909091 280.227273 182.272727 278.181818
M 222.909091 256.909091
C 224.681818 253.909091 224.681818 248.863636 218.409091 248.863636
C 192.636364 248.863636 216.909091 294.954545 185.954545 294.954545
C 168.636364 294.954545 172.590909 276.272727 177.227273 281.318182
M 251.409091 262.909091
C 252.363636 278.454545 225.500000 281.727273 225.500000 269.454545
C 225.500000 259.090909 242.272727 249.000000 283.863636 252.000000
C 252.500000 252.000000 253.863636 295.090909 229.727273 295.090909
C 216.090909 295.090909 217.045455 283.772727 220.590909 287.045455
M 285.090909 265.909091
C 282.090909 272.454545 272.136364 273.000000 272.136364 266.454545
C 272.136364 252.409091 296.545455 241.772727 296.545455 253.636364
C 296.545455 261.409091 265.727273 294.272727 279.090909 294.272727
C 289.863636 294.272727 300.772727 278.727273 304.863636 274.772727
L 320.136364 250.636364
M 304.863636 274.772727
C 286.045455 303.136364 309.636364 297.818182 322.727273 278.181818
M 341.000000 263.727273
C 342.227273 272.454545 329.136364 275.318182 329.136364 267.409091
C 329.136364 261.954545 330.500000 257.863636 359.136364 249.409091
C 344.681818 258.954545 345.636364 278.181818 333.227273 294.409091
C 372.772727 271.227273 379.590909 253.500000 373.863636 251.863636
M 386.272727 264.136364
C 386.681818 274.500000 373.590909 276.409091 373.590909 267.409091
C 373.590909 263.318182 377.681818 256.500000 403.863636 249.409091
C 387.909091 262.227273 390.636364 278.727273 378.090909 294.545455
C 394.454545 278.181818 409.454545 260.454545 420.909091 249.681818
C 407.409091 258.272727 408.227273 279.000000 395.954545 294.545455
C 428.681818 275.454545 440.000000 253.636364 434.545455 250.909091
M 456.090909 267.272727
C 452.000000 276.818182 438.227273 279.545455 438.227273 267.954545
C 438.227273 251.045455 464.545455 241.227273 464.545455 257.863636
C 464.545455 267.409091 450.909091 294.545455 432.500000 294.545455
C 423.772727 294.545455 425.272727 289.227273 427.863636 290.727273
M 493.045455 252.136364
C 491.136364 243.681818 456.772727 259.636364 456.772727 286.227273
C 456.772727 301.909091 474.636364 293.727273 485.000000 278.181818
M 503.545455 265.909091
C 499.454545 271.363636 490.454545 272.727273 490.454545 266.590909
C 490.454545 255.681818 514.863636 242.045455 514.863636 253.772727
C 514.863636 261.954545 494.000000 282.409091 494.000000 289.909091
C 494.000000 299.454545 510.363636 293.590909 522.772727 276.272727
L 539.272727 250.772727
M 522.772727 276.272727
C 515.272727 287.863636 502.181818 313.090909 487.181818 313.090909
C 472.181818 313.090909 476.272727 292.636364 488.545455 299.454545
M 552.500000 266.318182
C 539.545455 271.909091 536.818182 250.227273 553.318182 250.227273
C 563.000000 250.227273 565.181818 262.227273 583.045455 249.136364
L 530.818182 294.681818
C 536.136364 290.045455 538.590909 288.954545 544.318182 288.954545
C 549.227273 288.954545 552.090909 294.000000 556.181818 294.000000
C 563.818182 294.000000 572.000000 288.818182 579.090909 278.181818
M 614.136364 249.272727
L 602.681818 249.272727
L 561.772727 313.090909
L 573.227273 313.090909
M 607.454545 248.863636
L 615.090909 295.090909
M 598.590909 313.090909
L 610.045455 313.090909
L 650.954545 249.272727
L 639.500000 249.272727
M 655.863636 282.954545
L 666.636364 261.681818
L 677.409091 282.954545
M 680.000000 300.954545
L 712.727273 300.954545
M 25.590909 340.454545
C 24.227273 337.454545 27.090909 336.636364 27.909091 339.090909
C 28.454545 340.727273 28.045455 343.045455 32.409091 347.000000
C 32.954545 347.409091 33.090909 347.681818 32.681818 347.545455
C 29.954545 345.636364 26.681818 343.045455 25.590909 340.454545
M 55.454545 362.272727
C 61.590909 342.227273 36.363636 358.727273 36.363636 370.454545
C 36.363636 377.272727 48.636364 374.545455 55.454545 362.272727
L 61.863636 352.727273
L 52.727273 366.363636
C 46.454545 384.636364 65.000000 368.409091 71.818182 358.181818
M 89.545455 330.909091
L 71.818182 358.181818
C 51.363636 389.545455 93.636364 367.727273 86.818182 353.545455
C 86.954545 361.181818 96.636364 363.909091 100.454545 358.181818
M 114.090909 355.454545
C 114.772727 348.363636 95.136364 356.272727 95.000000 369.772727
C 95.000000 378.772727 110.818182 375.363636 122.272727 358.181818
M 134.545455 362.272727
C 140.681818 342.227273 115.454545 358.727273 115.454545 370.454545
C 115.454545 377.272727 127.727273 374.545455 134.545455 362.272727
L 155.136364 330.909091
L 131.818182 366.363636
C 123.909091 382.181818 141.363636 372.500000 150.909091 358.181818
M 147.363636 363.363636
C 157.181818 362.818182 163.863636 357.363636 163.863636 354.909091
C 163.863636 349.454545 145.863636 355.863636 145.863636 369.772727
C 145.863636 378.363636 161.272727 375.363636 172.727273 358.181818
M 200.818182 335.000000
C 202.045455 325.181818 188.681818 329.136364 172.727273 358.181818
C 167.409091 367.863636 153.636364 392.818182 137.272727 392.818182
C 127.727273 392.818182 126.363636 379.181818 135.363636 379.727273
M 169.727273 352.590909
L 191.545455 352.590909
M 200.000000 362.272727
C 206.136364 342.227273 180.909091 358.727273 180.909091 370.454545
C 180.909091 377.272727 193.181818 374.545455 200.000000 362.272727
L 206.409091 352.727273
L 202.727273 358.181818
C 197.409091 367.863636 183.636364 392.818182 167.272727 392.818182
C 156.363636 392.818182 155.818182 381.227273 165.363636 379.727273
M 193.045455 374.136364
C 201.909091 374.136364 210.090909 367.590909 216.363636 358.181818
M 234.090909 330.909091
C 222.636364 348.636364 216.363636 358.181818 205.727273 374.545455
C 218.818182 355.045455 233.136364 346.454545 233.136364 355.590909
C 233.136364 359.136364 216.500000 374.545455 225.772727 374.545455
C 230.818182 374.545455 240.636364 364.727273 245.000000 358.181818
M 248.409091 353.272727
L 238.590909 367.590909
C 236.409091 370.590909 236.000000 374.681818 239.000000 374.681818
C 244.454545 374.545455 254.000000 365.136364 258.636364 358.181818
M 256.318182 342.227273
C 256.318182 341.409091 255.772727 340.863636 254.954545 340.863636
C 254.136364 340.863636 253.590909 341.409091 253.590909 342.227273
C 253.590909 343.045455 254.136364 343.590909 254.954545 343.590909
C 255.772727 343.590909 256.318182 343.045455 256.318182 342.227273
M 261.636364 353.681818
C 247.454545 376.318182 239.409091 393.363636 223.863636 393.363636
C 212.272727 392.818182 211.727273 381.227273 221.409091 380.136364
M 248.954545 374.272727
C 257.681818 374.136364 265.727273 368.000000 272.272727 358.181818
M 270.090909 342.227273
C 270.090909 341.409091 269.545455 340.863636 268.727273 340.863636
C 267.909091 340.863636 267.363636 341.409091 267.363636 342.227273
C 267.363636 343.045455 267.909091 343.590909 268.727273 343.590909
C 269.545455 343.590909 270.090909 343.045455 270.090909 342.227273
M 289.727273 331.045455
C 280.863636 344.954545 272.272727 358.045455 262.727273 373.181818
C 281.818182 346.863636 288.363636 351.227273 288.363636 355.318182
C 288.363636 358.045455 285.909091 362.136364 275.545455 362.545455
C 289.181818 360.909091 272.681818 374.681818 281.136364 374.681818
C 287.272727 374.681818 297.363636 363.500000 300.909091 358.181818
M 319.181818 330.772727
L 295.045455 366.909091
C 293.409091 369.363636 291.772727 374.681818 296.136364 374.681818
C 302.136364 374.681818 312.363636 363.500000 315.909091 358.181818
M 319.181818 352.863636
L 305.818182 374.545455
C 323.272727 347.272727 335.954545 349.318182 331.045455 357.500000
L 320.818182 374.545455
C 333.772727 354.227273 346.863636 347.545455 346.863636 354.772727
C 346.863636 359.545455 331.045455 374.545455 339.636364 374.545455
C 345.636364 374.545455 355.454545 364.318182 359.545455 358.181818
M 362.818182 352.863636
L 349.454545 374.545455
C 366.909091 349.181818 375.636364 349.590909 375.636364 355.454545
C 375.636364 359.545455 360.227273 374.545455 368.818182 374.545455
C 375.636364 374.545455 386.545455 360.636364 388.181818 358.181818
M 403.045455 355.318182
C 399.227273 345.500000 382.454545 359.954545 382.318182 369.090909
C 382.181818 384.636364 407.136364 364.045455 403.045455 355.318182
C 406.727273 366.636364 415.727273 359.818182 416.818182 358.181818
M 39.363636 421.000000
C 28.863636 437.090909 18.090909 453.727273 4.863636 474.454545
C 39.227273 420.590909 44.136364 431.090909 44.136364 436.681818
C 44.136364 440.500000 36.363636 454.545455 27.909091 454.545455
C 24.909091 454.545455 24.363636 449.636364 33.500000 448.818182
C 50.409091 447.590909 56.000000 439.409091 56.818182 438.181818
M 71.545455 436.409091
C 71.545455 424.409091 50.818182 440.090909 50.818182 449.772727
C 50.818182 463.136364 71.545455 444.318182 71.545455 436.409091
M 74.954545 433.409091
C 67.454545 445.681818 58.727273 458.500000 48.090909 474.590909
M 62.000000 454.136364
C 70.318182 454.136364 78.636364 448.409091 85.454545 438.181818
M 88.863636 432.727273
L 75.227273 454.545455
C 88.590909 438.318182 92.545455 435.590909 97.727273 432.590909
C 92.818182 446.909091 104.545455 440.227273 105.909091 438.181818
M 115.590909 438.181818
C 120.227273 429.318182 101.409091 429.454545 107.136364 442.272727
C 111.227273 449.090909 107.954545 454.681818 103.181818 454.681818
C 95.681818 454.681818 95.818182 448.954545 97.863636 447.590909
M 103.181818 454.681818
C 114.090909 454.681818 122.545455 445.954545 127.727273 438.181818
M 136.181818 425.500000
L 124.727273 442.681818
C 121.181818 448.000000 118.863636 454.681818 124.454545 454.681818
C 131.681818 454.681818 141.363636 444.318182 145.454545 438.181818
M 126.772727 432.590909
L 141.363636 432.590909
M 149.136364 433.000000
L 141.363636 443.909091
C 131.272727 459.045455 145.045455 460.409091 163.318182 433.000000
C 155.136364 445.272727 148.863636 454.545455 155.409091 454.681818
C 160.590909 454.545455 171.090909 442.681818 174.090909 438.181818
M 177.909091 433.409091
C 170.136364 442.136364 164.272727 454.681818 172.181818 454.681818
C 181.318182 454.681818 191.818182 441.045455 189.227273 433.272727
C 190.727273 444.863636 200.545455 441.454545 202.727273 438.181818
M 206.409091 433.000000
L 198.636364 443.909091
C 193.727273 451.272727 196.863636 468.590909 220.590909 433.000000
C 214.863636 441.045455 207.363636 454.681818 215.272727 454.681818
C 224.409091 454.681818 234.909091 441.045455 232.318182 433.272727
C 233.545455 444.590909 243.909091 441.863636 246.363636 438.181818
M 246.363636 438.181818
C 254.545455 425.909091 261.636364 433.681818 256.863636 443.227273
C 259.045455 438.863636 251.409091 454.681818 241.181818 454.681818
C 234.363636 454.681818 235.318182 449.636364 238.181818 447.727273
M 273.227273 436.409091
C 276.909091 429.045455 263.000000 430.954545 256.863636 443.227273
C 255.909091 445.136364 251.136364 454.409091 257.409091 454.409091
C 264.636364 454.409091 273.636364 446.363636 279.090909 438.181818
M 282.772727 433.000000
L 275.000000 443.909091
C 264.909091 459.045455 278.681818 460.409091 296.954545 433.000000
L 283.590909 454.545455
C 276.909091 465.318182 269.000000 474.181818 258.500000 474.181818
C 250.318182 474.181818 245.818182 464.636364 254.000000 461.227273
M 283.590909 454.409091
C 293.545455 454.545455 302.000000 446.772727 307.727273 438.181818
M 307.727273 438.181818
C 316.181818 425.500000 319.181818 440.772727 328.045455 431.363636
C 319.727273 439.545455 306.636364 447.863636 299.409091 454.545455
C 308.000000 446.909091 309.500000 454.545455 314.545455 454.545455
C 319.863636 454.545455 329.818182 443.909091 333.636364 438.181818
M 362.681818 409.545455
C 355.863636 410.227273 353.136364 414.454545 347.681818 423.181818
C 342.227273 431.909091 338.681818 439.681818 331.045455 441.318182
C 336.363636 442.681818 331.727273 448.681818 326.272727 457.409091
C 322.181818 463.954545 315.636364 471.454545 322.863636 472.681818
M 365.000000 406.272727
L 365.000000 470.090909
M 354.909091 472.681818
C 361.727273 472.000000 364.454545 467.772727 369.909091 459.045455
C 375.363636 450.318182 378.909091 442.545455 386.545455 440.909091
C 381.227273 439.545455 385.863636 433.545455 391.318182 424.818182
C 395.409091 418.272727 401.954545 410.772727 394.727273 409.545455
M 403.045455 445.681818
C 409.863636 432.045455 423.090909 454.681818 429.909091 441.045455
"/>
</svg>