<?xml version="1.0" encoding="UTF-8" standalone="no"?>
<svg version="1.1"
  xmlns="http://www.w3.org/2000/svg"
  xmlns:svg="http://www.w3.org/2000/svg"
  width="1600" height="2280">
<path fill="none" stroke-width="6" stroke="black" stroke-linecap="round" stroke-linejoin="round" d="
M 486.875000 17.500000
L 486.875000 80.000000
M 545.625000 20.000000
L 545.625000 55.000000
M 544.375000 72.500000
L 544.375000 70.000000
L 546.875000 70.000000
L 546.875000 72.500000
L 544.375000 72.500000
M 564.375000 13.750000
L 564.375000 26.250000
M 574.375000 26.250000
L 574.375000 13.750000
M 608.125000 20.000000
L 596.875000 72.500000
M 621.875000 20.000000
L 610.625000 72.500000
M 591.875000 38.750000
L 626.875000 38.750000
M 589.375000 53.750000
L 624.375000 53.750000
M 659.375000 12.500000
L 659.375000 80.000000
M 675.625000 22.500000
C 669.375000 20.000000 641.875000 16.250000 641.875000 32.500000
C 641.875000 46.250000 676.875000 43.750000 676.875000 58.750000
C 676.875000 76.250000 648.125000 72.500000 641.875000 70.000000
M 706.875000 33.750000
C 706.875000 16.250000 691.875000 16.250000 691.875000 33.750000
C 691.875000 51.250000 706.875000 51.250000 706.875000 33.750000
M 726.875000 20.000000
L 701.875000 72.500000
M 736.875000 58.750000
C 736.875000 41.250000 721.875000 41.250000 721.875000 58.750000
C 721.875000 76.250000 736.875000 76.250000 736.875000 58.750000
M 789.375000 45.000000
C 789.375000 56.250000 781.875000 72.500000 766.875000 72.500000
C 760.625000 72.500000 751.875000 71.250000 751.875000 60.000000
C 751.875000 42.500000 779.375000 46.250000 779.375000 30.000000
C 779.375000 16.250000 758.125000 16.250000 758.125000 30.000000
C 758.125000 35.000000 760.625000 40.000000 764.375000 43.750000
L 793.125000 72.500000
M 808.125000 13.750000
L 808.125000 26.250000
M 843.125000 17.500000
C 824.375000 35.000000 824.375000 62.500000 843.125000 80.000000
M 858.125000 17.500000
C 876.875000 35.000000 876.875000 62.500000 858.125000 80.000000
M 900.625000 35.000000
L 900.625000 65.000000
M 888.125000 42.500000
L 913.125000 57.500000
M 913.125000 42.500000
L 888.125000 57.500000
M 950.625000 27.500000
L 950.625000 72.500000
M 928.125000 50.000000
L 973.125000 50.000000
M 988.125000 72.500000
L 988.125000 70.000000
L 990.625000 70.000000
L 985.625000 82.500000
M 1005.625000 50.000000
L 1050.625000 50.000000
M 1065.625000 72.500000
L 1065.625000 70.000000
L 1068.125000 70.000000
L 1068.125000 72.500000
L 1065.625000 72.500000
M 1115.625000 17.500000
L 1083.125000 80.000000
M 350.769231 130.000000
L 350.769231 206.923077
M 433.846154 165.384615
C 433.846154 122.307692 396.923077 122.307692 396.923077 165.384615
C 396.923077 208.461538 433.846154 208.461538 433.846154 165.384615
M 458.461538 145.384615
C 464.615385 143.846154 470.769231 139.230769 473.846154 133.076923
L 473.846154 197.692308
M 509.230769 136.153846
C 513.846154 133.076923 544.615385 126.923077 543.076923 150.000000
C 543.076923 160.769231 538.461538 166.923077 507.692308 197.692308
L 544.615385 197.692308
M 564.615385 136.153846
C 603.076923 122.307692 613.846154 163.846154 572.307692 163.846154
C 615.384615 163.846154 604.615385 210.000000 563.076923 194.615385
M 647.692308 197.692308
L 647.692308 133.076923
L 618.461538 180.769231
L 655.384615 180.769231
M 706.153846 133.076923
L 675.384615 133.076923
L 673.846154 162.307692
C 687.692308 156.153846 710.769231 160.769231 710.769231 177.692308
C 710.769231 200.769231 680.000000 199.230769 673.846154 194.615385
M 764.615385 134.615385
C 758.461538 133.076923 729.230769 125.384615 729.230769 168.461538
C 729.230769 210.000000 766.153846 200.769231 766.153846 179.230769
C 766.153846 159.230769 735.384615 150.000000 730.769231 179.230769
M 784.615385 133.076923
L 821.538462 133.076923
L 795.384615 197.692308
M 873.846154 146.923077
C 873.846154 128.461538 843.076923 128.461538 843.076923 146.923077
C 843.076923 165.384615 876.923077 163.846154 876.923077 182.307692
C 876.923077 202.307692 840.000000 202.307692 840.000000 182.307692
C 840.000000 163.846154 873.846154 165.384615 873.846154 146.923077
M 896.923077 196.153846
C 903.076923 197.692308 932.307692 205.384615 932.307692 162.307692
C 932.307692 120.769231 895.384615 130.000000 895.384615 151.538462
C 895.384615 171.538462 926.153846 180.769231 930.769231 151.538462
M 950.769231 197.692308
L 950.769231 194.615385
L 953.846154 194.615385
L 953.846154 197.692308
L 950.769231 197.692308
M 950.769231 157.692308
L 950.769231 154.615385
L 953.846154 154.615385
L 953.846154 157.692308
L 950.769231 157.692308
M 972.307692 197.692308
L 972.307692 194.615385
L 975.384615 194.615385
L 969.230769 210.000000
M 972.307692 157.692308
L 972.307692 154.615385
L 975.384615 154.615385
L 975.384615 157.692308
L 972.307692 157.692308
M 1049.230769 150.000000
L 993.846154 170.000000
L 1049.230769 190.000000
M 1067.692308 160.769231
L 1123.076923 160.769231
M 1067.692308 179.230769
L 1123.076923 179.230769
M 1141.538462 150.000000
L 1196.923077 170.000000
L 1141.538462 190.000000
M 1215.384615 136.153846
C 1223.076923 131.538462 1252.307692 130.000000 1252.307692 148.461538
C 1252.307692 160.769231 1232.307692 163.846154 1232.307692 179.230769
M 1230.769231 197.692308
L 1230.769231 194.615385
L 1233.846154 194.615385
L 1233.846154 197.692308
L 1230.769231 197.692308
M 283.200000 250.000000
L 283.200000 330.000000
M 377.600000 278.800000
C 372.800000 264.400000 350.400000 262.800000 347.200000 285.200000
C 344.000000 307.600000 377.600000 320.400000 379.200000 269.200000
C 368.000000 314.000000 398.400000 312.400000 398.400000 285.200000
C 398.400000 242.000000 331.200000 242.000000 331.200000 285.200000
C 331.200000 330.000000 380.800000 323.600000 388.800000 310.800000
M 417.600000 320.400000
L 443.200000 253.200000
L 468.800000 320.400000
M 427.200000 298.000000
L 459.200000 298.000000
M 488.000000 320.400000
L 488.000000 253.200000
L 507.200000 253.200000
C 539.200000 253.200000 537.600000 285.200000 504.000000 285.200000
M 488.000000 285.200000
L 504.000000 285.200000
C 539.200000 285.200000 545.600000 320.400000 504.000000 320.400000
L 488.000000 320.400000
M 600.000000 256.400000
C 580.800000 248.400000 552.000000 256.400000 552.000000 286.800000
C 552.000000 317.200000 580.800000 325.200000 600.000000 317.200000
M 619.200000 320.400000
L 619.200000 253.200000
L 635.200000 253.200000
C 673.600000 253.200000 673.600000 320.400000 635.200000 320.400000
L 619.200000 320.400000
M 724.800000 253.200000
L 683.200000 253.200000
L 683.200000 320.400000
L 724.800000 320.400000
M 683.200000 285.200000
L 721.600000 285.200000
M 785.600000 253.200000
L 744.000000 253.200000
L 744.000000 320.400000
M 744.000000 285.200000
L 782.400000 285.200000
M 852.800000 256.400000
C 833.600000 248.400000 804.800000 256.400000 804.800000 286.800000
C 804.800000 317.200000 833.600000 325.200000 852.800000 317.200000
L 852.800000 288.400000
L 838.400000 288.400000
M 872.000000 253.200000
L 872.000000 320.400000
M 916.800000 253.200000
L 916.800000 320.400000
M 872.000000 285.200000
L 916.800000 285.200000
M 939.200000 253.200000
L 939.200000 320.400000
M 993.600000 253.200000
L 993.600000 301.200000
C 993.600000 323.600000 966.400000 320.400000 961.600000 318.800000
M 1012.800000 253.200000
L 1012.800000 320.400000
M 1057.600000 253.200000
L 1012.800000 298.000000
M 1028.800000 282.000000
L 1057.600000 320.400000
M 1076.800000 253.200000
L 1076.800000 320.400000
L 1115.200000 320.400000
M 1134.400000 320.400000
L 1134.400000 253.200000
L 1160.000000 288.400000
L 1185.600000 253.200000
L 1185.600000 320.400000
M 1204.800000 320.400000
L 1204.800000 253.200000
L 1249.600000 320.400000
L 1249.600000 253.200000
M 1268.800000 286.800000
C 1268.800000 242.000000 1320.000000 242.000000 1320.000000 286.800000
C 1320.000000 331.600000 1268.800000 331.600000 1268.800000 286.800000
M 270.400000 370.000000
L 270.400000 450.000000
M 318.400000 440.400000
L 318.400000 373.200000
L 334.400000 373.200000
C 372.800000 373.200000 372.800000 408.400000 334.400000 408.400000
L 318.400000 408.400000
M 433.600000 406.800000
C 433.600000 362.000000 382.400000 362.000000 382.400000 406.800000
C 382.400000 451.600000 433.600000 451.600000 433.600000 406.800000
M 412.800000 422.800000
L 433.600000 446.800000
M 452.800000 440.400000
L 452.800000 373.200000
L 468.800000 373.200000
C 499.200000 373.200000 499.200000 405.200000 468.800000 405.200000
L 452.800000 405.200000
M 475.200000 405.200000
L 497.600000 440.400000
M 560.000000 376.400000
C 552.000000 373.200000 516.800000 368.400000 516.800000 389.200000
C 516.800000 406.800000 561.600000 403.600000 561.600000 422.800000
C 561.600000 445.200000 524.800000 440.400000 516.800000 437.200000
M 603.200000 373.200000
L 603.200000 440.400000
M 580.800000 373.200000
L 625.600000 373.200000
M 644.800000 373.200000
L 644.800000 411.600000
C 644.800000 450.000000 689.600000 450.000000 689.600000 411.600000
L 689.600000 373.200000
M 708.800000 373.200000
L 734.400000 440.400000
L 760.000000 373.200000
M 779.200000 373.200000
L 798.400000 440.400000
L 811.200000 395.600000
L 824.000000 440.400000
L 843.200000 373.200000
M 862.400000 373.200000
L 907.200000 440.400000
M 907.200000 373.200000
L 862.400000 440.400000
M 926.400000 373.200000
L 952.000000 410.000000
L 952.000000 440.400000
M 977.600000 373.200000
L 952.000000 410.000000
M 996.800000 373.200000
L 1041.600000 373.200000
L 996.800000 440.400000
L 1041.600000 440.400000
M 1083.200000 370.000000
L 1060.800000 370.000000
L 1060.800000 440.400000
L 1083.200000 440.400000
M 1102.400000 370.000000
L 1144.000000 450.000000
M 1163.200000 370.000000
L 1185.600000 370.000000
L 1185.600000 440.400000
L 1163.200000 440.400000
M 1204.800000 398.800000
L 1230.400000 373.200000
L 1256.000000 398.800000
M 1275.200000 440.400000
L 1332.800000 440.400000
M 458.000000 492.666667
L 458.000000 559.333333
M 506.000000 500.666667
L 498.000000 490.000000
M 524.666667 516.666667
C 536.666667 511.333333 554.000000 512.666667 554.000000 528.666667
L 554.000000 551.333333
M 554.000000 531.333333
C 540.666667 530.000000 522.000000 530.000000 522.000000 542.000000
C 522.000000 556.666667 554.000000 554.000000 554.000000 534.000000
M 570.000000 495.333333
L 570.000000 551.333333
M 570.000000 532.666667
C 570.000000 508.666667 602.000000 508.666667 602.000000 532.666667
C 602.000000 556.666667 570.000000 556.666667 570.000000 532.666667
M 643.333333 515.333333
C 636.666667 512.666667 618.000000 512.666667 618.000000 532.666667
C 618.000000 551.333333 636.666667 552.666667 643.333333 550.000000
M 691.333333 495.333333
L 691.333333 551.333333
M 691.333333 532.666667
C 691.333333 508.666667 659.333333 508.666667 659.333333 532.666667
C 659.333333 556.666667 691.333333 556.666667 691.333333 532.666667
M 707.333333 531.333333
L 739.333333 531.333333
C 739.333333 508.666667 707.333333 508.666667 707.333333 531.333333
C 707.333333 551.333333 726.000000 554.000000 739.333333 548.666667
M 776.666667 496.666667
C 768.666667 494.000000 763.333333 498.000000 763.333333 507.333333
L 763.333333 551.333333
M 755.333333 515.333333
L 774.000000 515.333333
M 822.000000 514.000000
L 822.000000 551.333333
C 822.000000 574.000000 800.666667 571.333333 792.666667 567.333333
M 822.000000 532.666667
C 822.000000 508.666667 790.000000 508.666667 790.000000 532.666667
C 790.000000 556.666667 822.000000 556.666667 822.000000 532.666667
M 838.000000 495.333333
L 838.000000 551.333333
M 838.000000 530.000000
C 843.333333 511.333333 870.000000 507.333333 870.000000 530.000000
L 870.000000 551.333333
M 888.666667 514.000000
L 888.666667 551.333333
M 887.333333 499.333333
L 887.333333 496.666667
L 890.000000 496.666667
L 890.000000 499.333333
L 887.333333 499.333333
M 910.000000 514.000000
L 910.000000 558.000000
C 910.000000 567.333333 904.666667 571.333333 896.666667 568.666667
M 908.666667 499.333333
L 908.666667 496.666667
L 911.333333 496.666667
L 911.333333 499.333333
L 908.666667 499.333333
M 928.666667 495.333333
L 928.666667 551.333333
M 955.333333 514.000000
L 928.666667 540.666667
M 939.333333 530.000000
L 958.000000 551.333333
M 976.666667 495.333333
L 976.666667 551.333333
M 995.333333 514.000000
L 995.333333 551.333333
M 995.333333 530.000000
C 998.000000 512.666667 1022.000000 506.000000 1022.000000 530.000000
L 1022.000000 551.333333
M 1022.000000 530.000000
C 1024.666667 512.666667 1048.666667 506.000000 1048.666667 530.000000
L 1048.666667 551.333333
M 1064.666667 514.000000
L 1064.666667 551.333333
M 1064.666667 530.000000
C 1070.000000 511.333333 1096.666667 507.333333 1096.666667 530.000000
L 1096.666667 551.333333
M 1144.666667 532.666667
C 1144.666667 507.333333 1112.666667 507.333333 1112.666667 532.666667
C 1112.666667 558.000000 1144.666667 558.000000 1144.666667 532.666667
M 455.172414 610.000000
L 455.172414 678.965517
M 496.551724 690.000000
L 496.551724 632.068966
M 496.551724 651.379310
C 496.551724 676.206897 529.655172 676.206897 529.655172 651.379310
C 529.655172 626.551724 496.551724 626.551724 496.551724 651.379310
M 579.310345 690.000000
L 579.310345 632.068966
M 579.310345 651.379310
C 579.310345 676.206897 546.206897 676.206897 546.206897 651.379310
C 546.206897 626.551724 579.310345 626.551724 579.310345 651.379310
M 595.862069 632.068966
L 595.862069 670.689655
M 595.862069 654.137931
C 600.000000 638.965517 605.517241 632.068966 617.931034 632.068966
M 662.068966 633.448276
C 657.931034 632.068966 634.482759 629.310345 634.482759 641.724138
C 634.482759 650.000000 664.827586 651.379310 664.827586 661.034483
C 664.827586 673.448276 644.137931 670.689655 637.241379 669.310345
M 691.034483 612.758621
L 691.034483 656.896552
C 691.034483 667.931034 695.172414 672.068966 703.448276 669.310345
M 681.379310 627.931034
L 700.689655 627.931034
M 753.103448 670.689655
L 753.103448 632.068966
M 753.103448 654.137931
C 747.586207 673.448276 720.000000 677.586207 720.000000 654.137931
L 720.000000 632.068966
M 769.655172 632.068966
L 784.827586 670.689655
L 800.000000 632.068966
M 816.551724 632.068966
L 827.586207 670.689655
L 838.620690 632.068966
L 849.655172 670.689655
L 860.689655 632.068966
M 877.241379 632.068966
L 907.586207 670.689655
M 907.586207 632.068966
L 877.241379 670.689655
M 924.137931 632.068966
L 940.689655 670.689655
M 957.241379 632.068966
L 940.689655 670.689655
C 932.413793 690.000000 929.655172 691.379310 921.379310 688.620690
M 973.793103 632.068966
L 1004.137931 632.068966
L 973.793103 670.689655
L 1004.137931 670.689655
M 1031.724138 610.000000
C 1027.586207 610.000000 1026.206897 611.379310 1026.206897 621.034483
C 1026.206897 641.724138 1023.448276 640.344828 1020.689655 640.344828
C 1023.448276 640.344828 1026.206897 638.965517 1026.206897 659.655172
C 1026.206897 669.310345 1027.586207 670.689655 1031.724138 670.689655
M 1051.034483 610.000000
L 1051.034483 678.965517
M 1070.344828 610.000000
C 1074.482759 610.000000 1075.862069 611.379310 1075.862069 621.034483
C 1075.862069 641.724138 1078.620690 640.344828 1081.379310 640.344828
C 1078.620690 640.344828 1075.862069 638.965517 1075.862069 659.655172
C 1075.862069 669.310345 1074.482759 670.689655 1070.344828 670.689655
M 1097.931034 650.000000
C 1117.241379 615.517241 1129.655172 677.586207 1147.586207 643.103448
M 399.200000 730.000000
L 399.200000 810.000000
M 474.400000 800.400000
L 474.400000 755.600000
M 472.800000 733.200000
L 472.800000 736.400000
L 476.000000 736.400000
L 476.000000 733.200000
L 472.800000 733.200000
M 525.600000 749.200000
L 504.800000 806.800000
M 528.800000 757.200000
C 520.800000 754.000000 498.400000 754.000000 498.400000 778.000000
C 498.400000 800.400000 520.800000 802.000000 528.800000 798.800000
M 580.000000 739.600000
C 567.200000 736.400000 557.600000 741.200000 556.000000 760.400000
L 556.000000 800.400000
M 548.000000 766.800000
L 572.000000 766.800000
M 548.000000 800.400000
L 580.000000 800.400000
M 612.000000 758.800000
C 605.600000 758.800000 602.400000 762.000000 602.400000 768.400000
C 602.400000 774.800000 605.600000 778.000000 612.000000 778.000000
C 618.400000 778.000000 621.600000 774.800000 621.600000 768.400000
C 621.600000 762.000000 618.400000 758.800000 612.000000 758.800000
M 599.200000 755.600000
L 604.000000 760.400000
M 624.800000 755.600000
L 620.000000 760.400000
M 599.200000 781.200000
L 604.000000 776.400000
M 624.800000 781.200000
L 620.000000 776.400000
M 650.400000 768.400000
L 688.800000 768.400000
M 650.400000 784.400000
L 688.800000 784.400000
M 644.000000 733.200000
L 669.600000 770.000000
L 669.600000 800.400000
M 695.200000 733.200000
L 669.600000 770.000000
M 717.600000 730.000000
L 717.600000 762.000000
M 717.600000 778.000000
L 717.600000 810.000000
M 748.000000 752.400000
C 741.600000 757.200000 740.000000 758.800000 740.000000 765.200000
C 740.000000 779.600000 770.400000 773.200000 770.400000 789.200000
C 770.400000 795.600000 760.800000 803.600000 740.000000 798.800000
M 762.400000 778.000000
C 767.200000 774.800000 770.400000 773.200000 770.400000 766.800000
C 770.400000 752.400000 740.000000 755.600000 740.000000 742.800000
C 740.000000 736.400000 749.600000 728.400000 767.200000 733.200000
M 789.600000 736.400000
L 789.600000 733.200000
L 792.800000 733.200000
L 792.800000 736.400000
L 789.600000 736.400000
M 805.600000 736.400000
L 805.600000 733.200000
L 808.800000 733.200000
L 808.800000 736.400000
L 805.600000 736.400000
M 852.000000 752.400000
C 837.600000 752.400000 828.000000 762.000000 828.000000 776.400000
C 828.000000 790.800000 837.600000 800.400000 852.000000 800.400000
C 866.400000 800.400000 876.000000 790.800000 876.000000 776.400000
C 876.000000 762.000000 866.400000 752.400000 852.000000 752.400000
M 863.200000 768.400000
C 861.600000 765.200000 856.800000 762.000000 852.000000 762.000000
C 844.000000 762.000000 839.200000 768.400000 839.200000 776.400000
C 839.200000 784.400000 844.000000 790.800000 852.000000 790.800000
C 858.400000 790.800000 861.600000 787.600000 863.200000 784.400000
M 896.800000 762.000000
L 914.400000 762.000000
M 896.800000 734.800000
C 904.800000 731.600000 914.400000 733.200000 914.400000 742.800000
L 914.400000 755.600000
M 914.400000 744.400000
C 906.400000 742.800000 895.200000 742.800000 895.200000 750.800000
C 895.200000 758.800000 914.400000 757.200000 914.400000 746.000000
M 944.800000 755.600000
L 933.600000 776.400000
L 944.800000 797.200000
M 964.000000 755.600000
L 952.800000 776.400000
L 964.000000 797.200000
M 983.200000 762.000000
L 1040.800000 762.000000
L 1040.800000 781.200000
M 1103.200000 752.400000
C 1088.800000 752.400000 1079.200000 762.000000 1079.200000 776.400000
C 1079.200000 790.800000 1088.800000 800.400000 1103.200000 800.400000
C 1117.600000 800.400000 1127.200000 790.800000 1127.200000 776.400000
C 1127.200000 762.000000 1117.600000 752.400000 1103.200000 752.400000
M 1095.200000 790.800000
L 1095.200000 762.000000
L 1101.600000 762.000000
C 1114.400000 762.000000 1114.400000 776.400000 1101.600000 776.400000
L 1095.200000 776.400000
M 1104.800000 776.400000
L 1114.400000 790.800000
M 1146.400000 731.600000
L 1204.000000 731.600000
M 424.827586 850.000000
L 424.827586 918.965517
M 474.482759 869.310345
C 468.965517 869.310345 466.206897 866.551724 466.206897 861.034483
C 466.206897 855.517241 468.965517 852.758621 474.482759 852.758621
C 480.000000 852.758621 482.758621 855.517241 482.758621 861.034483
C 482.758621 866.551724 480.000000 869.310345 474.482759 869.310345
M 524.137931 861.034483
L 524.137931 894.137931
M 499.310345 877.586207
L 548.965517 877.586207
M 499.310345 902.413793
L 548.965517 902.413793
M 566.896552 854.137931
C 568.275862 852.758621 582.068966 850.000000 582.068966 861.034483
C 582.068966 865.172414 579.310345 867.931034 565.517241 881.724138
L 582.068966 881.724138
M 600.000000 854.137931
C 616.551724 848.620690 622.068966 866.551724 602.758621 866.551724
C 622.068966 866.551724 617.931034 887.241379 598.620690 880.344828
M 631.724138 863.793103
L 640.000000 852.758621
M 692.413793 910.689655
C 691.034483 909.310345 689.655172 907.931034 689.655172 899.655172
L 689.655172 872.068966
M 689.655172 894.137931
C 684.137931 913.448276 656.551724 917.586207 656.551724 894.137931
L 656.551724 872.068966
L 656.551724 930.000000
M 729.655172 852.758621
L 729.655172 910.689655
M 746.206897 910.689655
L 746.206897 852.758621
L 724.137931 852.758621
C 703.448276 852.758621 703.448276 876.206897 724.137931 874.827586
L 729.655172 874.827586
M 762.758621 883.103448
L 762.758621 880.344828
L 765.517241 880.344828
L 765.517241 883.103448
L 762.758621 883.103448
M 805.517241 910.689655
C 808.275862 913.448276 805.517241 921.724138 795.862069 917.586207
M 840.000000 858.275862
C 842.758621 858.275862 845.517241 855.517241 846.896552 852.758621
L 846.896552 881.724138
M 870.344828 877.586207
L 886.896552 877.586207
M 886.896552 862.413793
C 886.896552 850.000000 870.344828 850.000000 870.344828 862.413793
C 870.344828 876.206897 886.896552 876.206897 886.896552 862.413793
M 920.000000 872.068966
L 929.655172 890.000000
L 920.000000 907.931034
M 903.448276 872.068966
L 913.103448 890.000000
L 903.448276 907.931034
M 954.482759 910.689655
L 983.448276 852.758621
M 948.965517 858.275862
C 951.724138 858.275862 954.482759 855.517241 955.862069 852.758621
L 955.862069 881.724138
M 993.103448 910.689655
L 993.103448 881.724138
L 979.310345 903.793103
L 995.862069 903.793103
M 1020.689655 910.689655
L 1049.655172 852.758621
M 1015.172414 858.275862
C 1017.931034 858.275862 1020.689655 855.517241 1022.068966 852.758621
L 1022.068966 881.724138
M 1046.896552 883.103448
C 1048.275862 881.724138 1062.068966 878.965517 1062.068966 890.000000
C 1062.068966 894.137931 1059.310345 896.896552 1045.517241 910.689655
L 1062.068966 910.689655
M 1080.000000 854.137931
C 1096.551724 848.620690 1102.068966 866.551724 1082.758621 866.551724
C 1102.068966 866.551724 1097.931034 887.241379 1078.620690 880.344828
M 1086.896552 910.689655
L 1115.862069 852.758621
M 1125.517241 910.689655
L 1125.517241 881.724138
L 1111.724138 903.793103
L 1128.275862 903.793103
M 1177.931034 907.931034
C 1171.034483 912.068966 1144.827586 913.448276 1144.827586 896.896552
C 1144.827586 885.862069 1162.758621 883.103448 1162.758621 869.310345
M 1164.137931 852.758621
L 1164.137931 855.517241
L 1161.379310 855.517241
L 1161.379310 852.758621
L 1164.137931 852.758621
M 417.049180 984.426230
L 417.049180 1050.000000
M 456.393443 1042.131148
L 477.377049 987.049180
L 498.360656 1042.131148
M 464.262295 1023.770492
L 490.491803 1023.770492
M 481.311475 980.491803
L 473.442623 970.000000
M 514.098361 1042.131148
L 535.081967 987.049180
L 556.065574 1042.131148
M 521.967213 1023.770492
L 548.196721 1023.770492
M 531.147541 980.491803
L 539.016393 970.000000
M 571.803279 1042.131148
L 592.786885 987.049180
L 613.770492 1042.131148
M 579.672131 1023.770492
L 605.901639 1023.770492
M 586.229508 980.491803
L 592.786885 970.000000
L 599.344262 980.491803
M 629.508197 1042.131148
L 650.491803 987.049180
L 671.475410 1042.131148
M 637.377049 1023.770492
L 663.606557 1023.770492
M 640.000000 977.868852
C 647.868852 960.819672 653.114754 992.295082 660.983607 975.245902
M 687.213115 1042.131148
L 708.196721 987.049180
L 729.180328 1042.131148
M 695.081967 1023.770492
L 721.311475 1023.770492
M 700.327869 977.868852
L 700.327869 975.245902
L 702.950820 975.245902
L 702.950820 977.868852
L 700.327869 977.868852
M 713.442623 977.868852
L 713.442623 975.245902
L 716.065574 975.245902
L 716.065574 977.868852
L 713.442623 977.868852
M 765.901639 981.803279
C 763.278689 981.803279 760.655738 979.180328 760.655738 976.557377
C 760.655738 973.934426 763.278689 971.311475 765.901639 971.311475
C 768.524590 971.311475 771.147541 973.934426 771.147541 976.557377
C 771.147541 979.180328 768.524590 981.803279 765.901639 981.803279
M 744.918033 1042.131148
L 765.901639 987.049180
L 786.885246 1042.131148
M 752.786885 1023.770492
L 779.016393 1023.770492
M 802.622951 1042.131148
L 823.606557 987.049180
L 844.590164 987.049180
M 828.852459 987.049180
L 831.475410 1042.131148
L 847.213115 1042.131148
M 843.278689 1013.278689
L 830.163934 1013.278689
M 830.163934 1023.770492
L 810.491803 1023.770492
M 886.557377 1042.131148
C 889.180328 1044.754098 886.557377 1052.622951 877.377049 1048.688525
M 902.295082 989.672131
C 886.557377 983.114754 862.950820 989.672131 862.950820 1014.590164
C 862.950820 1039.508197 886.557377 1046.065574 902.295082 1039.508197
M 939.016393 980.491803
L 931.147541 970.000000
M 952.131148 987.049180
L 918.032787 987.049180
L 918.032787 1042.131148
L 952.131148 1042.131148
M 918.032787 1013.278689
L 949.508197 1013.278689
M 1001.967213 987.049180
L 967.868852 987.049180
L 967.868852 1042.131148
L 1001.967213 1042.131148
M 967.868852 1013.278689
L 999.344262 1013.278689
M 980.983607 980.491803
L 988.852459 970.000000
M 1051.803279 987.049180
L 1017.704918 987.049180
L 1017.704918 1042.131148
L 1051.803279 1042.131148
M 1017.704918 1013.278689
L 1049.180328 1013.278689
M 1028.196721 980.491803
L 1034.754098 970.000000
L 1041.311475 980.491803
M 1101.639344 987.049180
L 1067.540984 987.049180
L 1067.540984 1042.131148
L 1101.639344 1042.131148
M 1067.540984 1013.278689
L 1099.016393 1013.278689
M 1075.409836 977.868852
L 1075.409836 975.245902
L 1078.032787 975.245902
L 1078.032787 977.868852
L 1075.409836 977.868852
M 1088.524590 977.868852
L 1088.524590 975.245902
L 1091.147541 975.245902
L 1091.147541 977.868852
L 1088.524590 977.868852
M 1120.000000 987.049180
L 1120.000000 1042.131148
M 1120.000000 980.491803
L 1112.131148 970.000000
M 1140.983607 987.049180
L 1140.983607 1042.131148
M 1140.983607 980.491803
L 1148.852459 970.000000
M 1161.967213 987.049180
L 1161.967213 1042.131148
M 1155.409836 980.491803
L 1161.967213 970.000000
L 1168.524590 980.491803
M 1182.950820 987.049180
L 1182.950820 1042.131148
M 1175.081967 977.868852
L 1175.081967 975.245902
L 1177.704918 975.245902
L 1177.704918 977.868852
L 1175.081967 977.868852
M 1188.196721 977.868852
L 1188.196721 975.245902
L 1190.819672 975.245902
L 1190.819672 977.868852
L 1188.196721 977.868852
M 352.131148 1104.426230
L 352.131148 1170.000000
M 391.475410 1162.131148
L 391.475410 1107.049180
L 404.590164 1107.049180
C 436.065574 1107.049180 436.065574 1162.131148 404.590164 1162.131148
L 391.475410 1162.131148
M 386.229508 1134.590164
L 404.590164 1134.590164
M 443.934426 1162.131148
L 443.934426 1107.049180
L 480.655738 1162.131148
L 480.655738 1107.049180
M 451.803279 1097.868852
C 459.672131 1080.819672 464.918033 1112.295082 472.786885 1095.245902
M 496.393443 1134.590164
C 496.393443 1097.868852 538.360656 1097.868852 538.360656 1134.590164
C 538.360656 1171.311475 496.393443 1171.311475 496.393443 1134.590164
M 521.311475 1100.491803
L 513.442623 1090.000000
M 554.098361 1134.590164
C 554.098361 1097.868852 596.065574 1097.868852 596.065574 1134.590164
C 596.065574 1171.311475 554.098361 1171.311475 554.098361 1134.590164
M 571.147541 1100.491803
L 579.016393 1090.000000
M 611.803279 1134.590164
C 611.803279 1097.868852 653.770492 1097.868852 653.770492 1134.590164
C 653.770492 1171.311475 611.803279 1171.311475 611.803279 1134.590164
M 626.229508 1100.491803
L 632.786885 1090.000000
L 639.344262 1100.491803
M 669.508197 1134.590164
C 669.508197 1097.868852 711.475410 1097.868852 711.475410 1134.590164
C 711.475410 1171.311475 669.508197 1171.311475 669.508197 1134.590164
M 680.000000 1097.868852
C 687.868852 1080.819672 693.114754 1112.295082 700.983607 1095.245902
M 727.213115 1134.590164
C 727.213115 1097.868852 769.180328 1097.868852 769.180328 1134.590164
C 769.180328 1171.311475 727.213115 1171.311475 727.213115 1134.590164
M 740.327869 1097.868852
L 740.327869 1095.245902
L 742.950820 1095.245902
L 742.950820 1097.868852
L 740.327869 1097.868852
M 753.442623 1097.868852
L 753.442623 1095.245902
L 756.065574 1095.245902
L 756.065574 1097.868852
L 753.442623 1097.868852
M 784.918033 1117.540984
L 820.327869 1152.950820
M 784.918033 1152.950820
L 820.327869 1117.540984
M 836.065574 1134.590164
C 836.065574 1097.868852 878.032787 1097.868852 878.032787 1134.590164
C 878.032787 1171.311475 836.065574 1171.311475 836.065574 1134.590164
M 837.377049 1164.754098
L 876.721311 1104.426230
M 893.770492 1107.049180
L 893.770492 1138.524590
C 893.770492 1170.000000 930.491803 1170.000000 930.491803 1138.524590
L 930.491803 1107.049180
M 916.065574 1100.491803
L 908.196721 1090.000000
M 946.229508 1107.049180
L 946.229508 1138.524590
C 946.229508 1170.000000 982.950820 1170.000000 982.950820 1138.524590
L 982.950820 1107.049180
M 963.278689 1100.491803
L 971.147541 1090.000000
M 998.688525 1107.049180
L 998.688525 1138.524590
C 998.688525 1170.000000 1035.409836 1170.000000 1035.409836 1138.524590
L 1035.409836 1107.049180
M 1010.491803 1100.491803
L 1017.049180 1090.000000
L 1023.606557 1100.491803
M 1051.147541 1107.049180
L 1051.147541 1138.524590
C 1051.147541 1170.000000 1087.868852 1170.000000 1087.868852 1138.524590
L 1087.868852 1107.049180
M 1061.639344 1097.868852
L 1061.639344 1095.245902
L 1064.262295 1095.245902
L 1064.262295 1097.868852
L 1061.639344 1097.868852
M 1074.754098 1097.868852
L 1074.754098 1095.245902
L 1077.377049 1095.245902
L 1077.377049 1097.868852
L 1074.754098 1097.868852
M 1103.606557 1107.049180
L 1124.590164 1137.213115
L 1124.590164 1162.131148
M 1145.573770 1107.049180
L 1124.590164 1137.213115
M 1120.655738 1100.491803
L 1128.524590 1090.000000
M 1161.311475 1162.131148
L 1161.311475 1107.049180
M 1161.311475 1134.590164
C 1161.311475 1158.196721 1192.786885 1158.196721 1192.786885 1134.590164
C 1192.786885 1110.983607 1161.311475 1110.983607 1161.311475 1134.590164
M 1208.524590 1162.131148
L 1208.524590 1126.721311
C 1208.524590 1114.918033 1213.770492 1107.049180 1229.508197 1107.049180
C 1251.803279 1107.049180 1253.114754 1131.967213 1226.885246 1133.278689
C 1258.360656 1133.278689 1258.360656 1168.688525 1221.639344 1160.819672
M 386.666667 1211.568627
L 386.666667 1290.000000
M 436.862745 1239.803922
C 450.980392 1233.529412 471.372549 1235.098039 471.372549 1253.921569
L 471.372549 1280.588235
M 471.372549 1257.058824
C 455.686275 1255.490196 433.725490 1255.490196 433.725490 1269.607843
C 433.725490 1286.862745 471.372549 1283.725490 471.372549 1260.196078
M 457.254902 1222.549020
L 447.843137 1210.000000
M 493.333333 1239.803922
C 507.450980 1233.529412 527.843137 1235.098039 527.843137 1253.921569
L 527.843137 1280.588235
M 527.843137 1257.058824
C 512.156863 1255.490196 490.196078 1255.490196 490.196078 1269.607843
C 490.196078 1286.862745 527.843137 1283.725490 527.843137 1260.196078
M 504.313725 1222.549020
L 513.725490 1210.000000
M 549.803922 1239.803922
C 563.921569 1233.529412 584.313725 1235.098039 584.313725 1253.921569
L 584.313725 1280.588235
M 584.313725 1257.058824
C 568.627451 1255.490196 546.666667 1255.490196 546.666667 1269.607843
C 546.666667 1286.862745 584.313725 1283.725490 584.313725 1260.196078
M 557.647059 1222.549020
L 565.490196 1210.000000
L 573.333333 1222.549020
M 606.274510 1239.803922
C 620.392157 1233.529412 640.784314 1235.098039 640.784314 1253.921569
L 640.784314 1280.588235
M 640.784314 1257.058824
C 625.098039 1255.490196 603.137255 1255.490196 603.137255 1269.607843
C 603.137255 1286.862745 640.784314 1283.725490 640.784314 1260.196078
M 609.411765 1219.411765
C 618.823529 1199.019608 625.098039 1236.666667 634.509804 1216.274510
M 662.745098 1239.803922
C 676.862745 1233.529412 697.254902 1235.098039 697.254902 1253.921569
L 697.254902 1280.588235
M 697.254902 1257.058824
C 681.568627 1255.490196 659.607843 1255.490196 659.607843 1269.607843
C 659.607843 1286.862745 697.254902 1283.725490 697.254902 1260.196078
M 670.588235 1219.411765
L 670.588235 1216.274510
L 673.725490 1216.274510
L 673.725490 1219.411765
L 670.588235 1219.411765
M 686.274510 1219.411765
L 686.274510 1216.274510
L 689.411765 1216.274510
L 689.411765 1219.411765
L 686.274510 1219.411765
M 719.215686 1239.803922
C 733.333333 1233.529412 753.725490 1235.098039 753.725490 1253.921569
L 753.725490 1280.588235
M 753.725490 1257.058824
C 738.039216 1255.490196 716.078431 1255.490196 716.078431 1269.607843
C 716.078431 1286.862745 753.725490 1283.725490 753.725490 1260.196078
M 734.901961 1222.549020
C 731.764706 1222.549020 728.627451 1219.411765 728.627451 1216.274510
C 728.627451 1213.137255 731.764706 1210.000000 734.901961 1210.000000
C 738.039216 1210.000000 741.176471 1213.137255 741.176471 1216.274510
C 741.176471 1219.411765 738.039216 1222.549020 734.901961 1222.549020
M 775.686275 1239.803922
C 789.803922 1233.529412 807.058824 1235.098039 807.058824 1253.921569
L 807.058824 1260.196078
C 807.058824 1283.725490 772.549020 1286.862745 772.549020 1269.607843
C 772.549020 1255.490196 794.509804 1255.490196 807.058824 1257.058824
M 807.058824 1257.058824
L 843.137255 1257.058824
M 843.137255 1257.058824
C 843.137255 1230.392157 807.058824 1230.392157 807.058824 1257.058824
C 807.058824 1283.725490 829.019608 1282.156863 843.137255 1277.450980
M 891.764706 1238.235294
C 883.921569 1235.098039 861.960784 1235.098039 861.960784 1258.627451
C 861.960784 1280.588235 883.921569 1282.156863 891.764706 1279.019608
M 882.352941 1280.588235
C 885.490196 1283.725490 882.352941 1293.137255 871.372549 1288.431373
M 910.588235 1257.058824
L 948.235294 1257.058824
C 948.235294 1230.392157 910.588235 1230.392157 910.588235 1257.058824
C 910.588235 1280.588235 932.549020 1283.725490 948.235294 1277.450980
M 934.117647 1222.549020
L 924.705882 1210.000000
M 967.058824 1257.058824
L 1004.705882 1257.058824
C 1004.705882 1230.392157 967.058824 1230.392157 967.058824 1257.058824
C 967.058824 1280.588235 989.019608 1283.725490 1004.705882 1277.450980
M 981.176471 1222.549020
L 990.588235 1210.000000
M 1023.529412 1257.058824
L 1061.176471 1257.058824
C 1061.176471 1230.392157 1023.529412 1230.392157 1023.529412 1257.058824
C 1023.529412 1280.588235 1045.490196 1283.725490 1061.176471 1277.450980
M 1034.509804 1222.549020
L 1042.352941 1210.000000
L 1050.196078 1222.549020
M 1080.000000 1257.058824
L 1117.647059 1257.058824
C 1117.647059 1230.392157 1080.000000 1230.392157 1080.000000 1257.058824
C 1080.000000 1280.588235 1101.960784 1283.725490 1117.647059 1277.450980
M 1089.411765 1219.411765
L 1089.411765 1216.274510
L 1092.549020 1216.274510
L 1092.549020 1219.411765
L 1089.411765 1219.411765
M 1105.098039 1219.411765
L 1105.098039 1216.274510
L 1108.235294 1216.274510
L 1108.235294 1219.411765
L 1105.098039 1219.411765
M 1139.607843 1236.666667
L 1139.607843 1280.588235
M 1139.607843 1222.549020
L 1130.196078 1210.000000
M 1164.705882 1236.666667
L 1164.705882 1280.588235
M 1164.705882 1222.549020
L 1174.117647 1210.000000
M 1188.235294 1236.666667
L 1188.235294 1280.588235
M 1180.392157 1222.549020
L 1188.235294 1210.000000
L 1196.078431 1222.549020
M 1213.333333 1236.666667
L 1213.333333 1280.588235
M 1203.921569 1219.411765
L 1203.921569 1216.274510
L 1207.058824 1216.274510
L 1207.058824 1219.411765
L 1203.921569 1219.411765
M 1219.607843 1219.411765
L 1219.607843 1216.274510
L 1222.745098 1216.274510
L 1222.745098 1219.411765
L 1219.607843 1219.411765
M 389.152542 1331.355932
L 389.152542 1399.152542
M 465.084746 1372.033898
C 465.084746 1346.271186 429.830508 1346.271186 429.830508 1372.033898
C 429.830508 1397.796610 465.084746 1397.796610 465.084746 1372.033898
C 465.084746 1357.118644 454.237288 1340.847458 436.610169 1334.067797
M 435.254237 1346.271186
L 458.305085 1334.067797
M 481.355932 1353.050847
L 481.355932 1391.016949
M 481.355932 1369.322034
C 486.779661 1350.338983 513.898305 1346.271186 513.898305 1369.322034
L 513.898305 1391.016949
M 486.779661 1338.135593
C 494.915254 1320.508475 500.338983 1353.050847 508.474576 1335.423729
M 562.711864 1372.033898
C 562.711864 1346.271186 530.169492 1346.271186 530.169492 1372.033898
C 530.169492 1397.796610 562.711864 1397.796610 562.711864 1372.033898
M 550.508475 1340.847458
L 542.372881 1330.000000
M 611.525424 1372.033898
C 611.525424 1346.271186 578.983051 1346.271186 578.983051 1372.033898
C 578.983051 1397.796610 611.525424 1397.796610 611.525424 1372.033898
M 591.186441 1340.847458
L 599.322034 1330.000000
M 660.338983 1372.033898
C 660.338983 1346.271186 627.796610 1346.271186 627.796610 1372.033898
C 627.796610 1397.796610 660.338983 1397.796610 660.338983 1372.033898
M 637.288136 1340.847458
L 644.067797 1330.000000
L 650.847458 1340.847458
M 709.152542 1372.033898
C 709.152542 1346.271186 676.610169 1346.271186 676.610169 1372.033898
C 676.610169 1397.796610 709.152542 1397.796610 709.152542 1372.033898
M 682.033898 1338.135593
C 690.169492 1320.508475 695.593220 1353.050847 703.728814 1335.423729
M 757.966102 1372.033898
C 757.966102 1346.271186 725.423729 1346.271186 725.423729 1372.033898
C 725.423729 1397.796610 757.966102 1397.796610 757.966102 1372.033898
M 733.559322 1338.135593
L 733.559322 1335.423729
L 736.271186 1335.423729
L 736.271186 1338.135593
L 733.559322 1338.135593
M 747.118644 1338.135593
L 747.118644 1335.423729
L 749.830508 1335.423729
L 749.830508 1338.135593
L 747.118644 1338.135593
M 774.237288 1366.610169
L 823.050847 1366.610169
M 797.288136 1381.525424
L 797.288136 1378.813559
L 800.000000 1378.813559
L 800.000000 1381.525424
L 797.288136 1381.525424
M 797.288136 1354.406780
L 797.288136 1351.694915
L 800.000000 1351.694915
L 800.000000 1354.406780
L 797.288136 1354.406780
M 871.864407 1372.033898
C 871.864407 1346.271186 839.322034 1346.271186 839.322034 1372.033898
C 839.322034 1397.796610 871.864407 1397.796610 871.864407 1372.033898
M 839.322034 1393.728814
L 871.864407 1350.338983
M 920.677966 1391.016949
L 920.677966 1353.050847
M 920.677966 1374.745763
C 915.254237 1393.728814 888.135593 1397.796610 888.135593 1374.745763
L 888.135593 1353.050847
M 908.474576 1340.847458
L 900.338983 1330.000000
M 969.491525 1391.016949
L 969.491525 1353.050847
M 969.491525 1374.745763
C 964.067797 1393.728814 936.949153 1397.796610 936.949153 1374.745763
L 936.949153 1353.050847
M 949.152542 1340.847458
L 957.288136 1330.000000
M 1018.305085 1391.016949
L 1018.305085 1353.050847
M 1018.305085 1374.745763
C 1012.881356 1393.728814 985.762712 1397.796610 985.762712 1374.745763
L 985.762712 1353.050847
M 995.254237 1340.847458
L 1002.033898 1330.000000
L 1008.813559 1340.847458
M 1067.118644 1391.016949
L 1067.118644 1353.050847
M 1067.118644 1374.745763
C 1061.694915 1393.728814 1034.576271 1397.796610 1034.576271 1374.745763
L 1034.576271 1353.050847
M 1042.711864 1338.135593
L 1042.711864 1335.423729
L 1045.423729 1335.423729
L 1045.423729 1338.135593
L 1042.711864 1338.135593
M 1056.271186 1338.135593
L 1056.271186 1335.423729
L 1058.983051 1335.423729
L 1058.983051 1338.135593
L 1056.271186 1338.135593
M 1083.389831 1353.050847
L 1099.661017 1391.016949
M 1115.932203 1353.050847
L 1099.661017 1391.016949
C 1091.525424 1410.000000 1088.813559 1411.355932 1080.677966 1408.644068
M 1095.593220 1340.847458
L 1103.728814 1330.000000
M 1132.203390 1334.067797
L 1132.203390 1410.000000
M 1132.203390 1361.186441
C 1136.271186 1355.762712 1140.338983 1353.050847 1147.118644 1353.050847
C 1162.033898 1353.050847 1164.745763 1365.254237 1164.745763 1372.033898
C 1164.745763 1378.813559 1162.033898 1391.016949 1147.118644 1391.016949
C 1140.338983 1391.016949 1136.271186 1388.305085 1132.203390 1382.881356
M 1181.016949 1353.050847
L 1197.288136 1391.016949
M 1213.559322 1353.050847
L 1197.288136 1391.016949
C 1189.152542 1410.000000 1186.440678 1411.355932 1178.305085 1408.644068
M 1189.152542 1338.135593
L 1189.152542 1335.423729
L 1191.864407 1335.423729
L 1191.864407 1338.135593
L 1189.152542 1338.135593
M 1202.711864 1338.135593
L 1202.711864 1335.423729
L 1205.423729 1335.423729
L 1205.423729 1338.135593
L 1202.711864 1338.135593
M 461.818182 1454.363636
L 461.818182 1527.090909
M 505.454545 1492.181818
L 528.727273 1492.181818
M 546.181818 1492.181818
L 569.454545 1492.181818
M 586.909091 1492.181818
L 630.545455 1492.181818
M 648.000000 1492.181818
L 680.000000 1492.181818
M 697.454545 1492.181818
L 744.000000 1492.181818
M 761.454545 1492.181818
L 819.636364 1492.181818
M 837.090909 1457.272727
L 837.090909 1518.363636
M 848.727273 1518.363636
L 848.727273 1457.272727
M 866.181818 1518.363636
L 901.090909 1518.363636
M 901.090909 1506.727273
L 866.181818 1506.727273
M 921.454545 1461.636364
L 921.454545 1464.545455
L 918.545455 1464.545455
L 924.363636 1450.000000
M 944.727273 1452.909091
L 944.727273 1450.000000
L 947.636364 1450.000000
L 941.818182 1464.545455
M 968.000000 1518.363636
L 968.000000 1515.454545
L 970.909091 1515.454545
L 965.090909 1530.000000
M 992.727273 1452.909091
L 992.727273 1450.000000
L 989.818182 1450.000000
L 995.636364 1464.545455
M 1016.000000 1461.636364
L 1016.000000 1464.545455
L 1013.090909 1464.545455
L 1018.909091 1450.000000
M 1029.090909 1461.636364
L 1029.090909 1464.545455
L 1026.181818 1464.545455
L 1032.000000 1450.000000
M 1065.454545 1452.909091
L 1065.454545 1450.000000
L 1068.363636 1450.000000
L 1062.545455 1464.545455
M 1052.363636 1452.909091
L 1052.363636 1450.000000
L 1055.272727 1450.000000
L 1049.454545 1464.545455
M 1101.818182 1518.363636
L 1101.818182 1515.454545
L 1104.727273 1515.454545
L 1098.909091 1530.000000
M 1088.727273 1518.363636
L 1088.727273 1515.454545
L 1091.636364 1515.454545
L 1085.818182 1530.000000
M 1125.090909 1452.909091
L 1125.090909 1450.000000
L 1122.181818 1450.000000
L 1128.000000 1464.545455
M 1138.181818 1452.909091
L 1138.181818 1450.000000
L 1135.272727 1450.000000
L 1141.090909 1464.545455
M 362.758621 1570.000000
L 362.758621 1638.965517
M 420.689655 1572.758621
L 420.689655 1650.000000
M 404.137931 1597.586207
L 437.241379 1597.586207
M 470.344828 1572.758621
L 470.344828 1650.000000
M 453.793103 1597.586207
L 486.896552 1597.586207
M 453.793103 1622.413793
L 486.896552 1622.413793
M 503.448276 1610.000000
C 503.448276 1601.724138 508.965517 1597.586207 515.862069 1597.586207
C 522.758621 1597.586207 528.275862 1603.103448 528.275862 1610.000000
C 528.275862 1616.896552 522.758621 1622.413793 515.862069 1622.413793
C 508.965517 1622.413793 503.448276 1616.896552 503.448276 1610.000000
M 506.206897 1604.482759
L 506.206897 1615.517241
M 508.965517 1618.275862
L 508.965517 1601.724138
M 511.724138 1600.344828
L 511.724138 1619.655172
M 514.482759 1621.034483
L 514.482759 1598.965517
M 517.241379 1598.965517
L 517.241379 1621.034483
M 520.000000 1619.655172
L 520.000000 1600.344828
M 522.758621 1601.724138
L 522.758621 1618.275862
M 525.517241 1615.517241
L 525.517241 1604.482759
M 544.827586 1630.689655
L 544.827586 1572.758621
L 588.965517 1572.758621
L 588.965517 1630.689655
L 544.827586 1630.689655
M 605.517241 1630.689655
L 605.517241 1572.758621
L 649.655172 1572.758621
L 649.655172 1630.689655
L 605.517241 1630.689655
M 666.206897 1630.689655
L 666.206897 1572.758621
L 710.344828 1572.758621
L 710.344828 1630.689655
L 666.206897 1630.689655
M 726.896552 1630.689655
L 726.896552 1627.931034
L 729.655172 1627.931034
L 729.655172 1630.689655
L 726.896552 1630.689655
M 739.310345 1630.689655
L 739.310345 1627.931034
L 742.068966 1627.931034
L 742.068966 1630.689655
L 739.310345 1630.689655
M 751.724138 1630.689655
L 751.724138 1627.931034
L 754.482759 1627.931034
L 754.482759 1630.689655
L 751.724138 1630.689655
M 771.034483 1630.689655
L 771.034483 1572.758621
L 815.172414 1572.758621
L 815.172414 1630.689655
L 771.034483 1630.689655
M 831.724138 1630.689655
L 831.724138 1572.758621
L 875.862069 1572.758621
L 875.862069 1630.689655
L 831.724138 1630.689655
M 892.413793 1630.689655
L 892.413793 1572.758621
L 936.551724 1572.758621
L 936.551724 1630.689655
L 892.413793 1630.689655
M 953.103448 1630.689655
L 953.103448 1572.758621
L 997.241379 1572.758621
L 997.241379 1630.689655
L 953.103448 1630.689655
M 1013.793103 1630.689655
L 1013.793103 1572.758621
L 1057.931034 1572.758621
L 1057.931034 1630.689655
L 1013.793103 1630.689655
M 1074.482759 1630.689655
L 1074.482759 1572.758621
L 1118.620690 1572.758621
L 1118.620690 1630.689655
L 1074.482759 1630.689655
M 1135.172414 1630.689655
L 1135.172414 1572.758621
L 1179.310345 1572.758621
L 1179.310345 1630.689655
L 1135.172414 1630.689655
M 1195.862069 1630.689655
L 1195.862069 1572.758621
L 1240.000000 1572.758621
L 1240.000000 1630.689655
L 1195.862069 1630.689655
M 246.400000 1690.000000
L 246.400000 1770.000000
M 313.600000 1710.800000
C 313.600000 1688.400000 294.400000 1688.400000 294.400000 1710.800000
C 294.400000 1733.200000 313.600000 1733.200000 313.600000 1710.800000
M 339.200000 1693.200000
L 307.200000 1760.400000
M 348.800000 1742.800000
C 348.800000 1720.400000 329.600000 1720.400000 329.600000 1742.800000
C 329.600000 1765.200000 348.800000 1765.200000 348.800000 1742.800000
M 380.800000 1742.800000
C 380.800000 1720.400000 361.600000 1720.400000 361.600000 1742.800000
C 361.600000 1765.200000 380.800000 1765.200000 380.800000 1742.800000
M 400.000000 1760.400000
L 400.000000 1693.200000
L 451.200000 1693.200000
L 451.200000 1760.400000
L 400.000000 1760.400000
M 470.400000 1760.400000
L 470.400000 1693.200000
L 521.600000 1693.200000
L 521.600000 1760.400000
L 470.400000 1760.400000
M 540.800000 1760.400000
L 540.800000 1693.200000
L 592.000000 1693.200000
L 592.000000 1760.400000
L 540.800000 1760.400000
M 611.200000 1760.400000
L 611.200000 1693.200000
L 662.400000 1693.200000
L 662.400000 1760.400000
L 611.200000 1760.400000
M 681.600000 1760.400000
L 681.600000 1693.200000
L 732.800000 1693.200000
L 732.800000 1760.400000
L 681.600000 1760.400000
M 752.000000 1760.400000
L 752.000000 1693.200000
L 803.200000 1693.200000
L 803.200000 1760.400000
L 752.000000 1760.400000
M 822.400000 1760.400000
L 822.400000 1693.200000
L 873.600000 1693.200000
L 873.600000 1760.400000
L 822.400000 1760.400000
M 892.800000 1760.400000
L 892.800000 1693.200000
L 944.000000 1693.200000
L 944.000000 1760.400000
L 892.800000 1760.400000
M 974.400000 1715.600000
L 963.200000 1736.400000
L 974.400000 1757.200000
M 993.600000 1715.600000
L 1004.800000 1736.400000
L 993.600000 1757.200000
M 1024.000000 1760.400000
L 1024.000000 1693.200000
L 1075.200000 1693.200000
L 1075.200000 1760.400000
L 1024.000000 1760.400000
M 1094.400000 1760.400000
L 1094.400000 1693.200000
L 1145.600000 1693.200000
L 1145.600000 1760.400000
L 1094.400000 1760.400000
M 1164.800000 1760.400000
L 1164.800000 1693.200000
L 1216.000000 1693.200000
L 1216.000000 1760.400000
L 1164.800000 1760.400000
M 1235.200000 1760.400000
L 1235.200000 1693.200000
L 1286.400000 1693.200000
L 1286.400000 1760.400000
L 1235.200000 1760.400000
M 1305.600000 1760.400000
L 1305.600000 1693.200000
L 1356.800000 1693.200000
L 1356.800000 1760.400000
L 1305.600000 1760.400000
M 451.200000 1810.000000
L 451.200000 1890.000000
M 518.400000 1830.800000
C 518.400000 1808.400000 499.200000 1808.400000 499.200000 1830.800000
C 499.200000 1853.200000 518.400000 1853.200000 518.400000 1830.800000
M 539.200000 1822.800000
L 539.200000 1845.200000
M 539.200000 1814.800000
L 539.200000 1813.200000
L 540.800000 1813.200000
L 540.800000 1814.800000
L 539.200000 1814.800000
M 560.000000 1880.400000
L 560.000000 1813.200000
L 611.200000 1813.200000
L 611.200000 1880.400000
L 560.000000 1880.400000
M 630.400000 1880.400000
L 630.400000 1813.200000
L 681.600000 1813.200000
L 681.600000 1880.400000
L 630.400000 1880.400000
M 716.800000 1846.800000
L 716.800000 1813.200000
L 700.800000 1838.800000
L 720.000000 1838.800000
M 756.800000 1813.200000
L 740.800000 1813.200000
L 739.200000 1829.200000
C 747.200000 1826.000000 758.400000 1827.600000 758.400000 1837.200000
C 758.400000 1848.400000 742.400000 1848.400000 739.200000 1845.200000
M 795.200000 1814.800000
C 793.600000 1813.200000 777.600000 1810.000000 777.600000 1832.400000
C 777.600000 1853.200000 796.800000 1848.400000 796.800000 1837.200000
C 796.800000 1827.600000 780.800000 1822.800000 779.200000 1837.200000
M 816.000000 1813.200000
L 835.200000 1813.200000
L 822.400000 1846.800000
M 872.000000 1821.200000
C 872.000000 1811.600000 856.000000 1811.600000 856.000000 1821.200000
C 856.000000 1830.800000 873.600000 1829.200000 873.600000 1838.800000
C 873.600000 1850.000000 854.400000 1850.000000 854.400000 1838.800000
C 854.400000 1829.200000 872.000000 1830.800000 872.000000 1821.200000
M 894.400000 1846.800000
C 897.600000 1846.800000 912.000000 1851.600000 912.000000 1829.200000
C 912.000000 1806.800000 892.800000 1811.600000 892.800000 1822.800000
C 892.800000 1834.000000 908.800000 1837.200000 910.400000 1824.400000
M 945.600000 1818.000000
L 945.600000 1846.800000
M 931.200000 1832.400000
L 960.000000 1832.400000
M 979.200000 1832.400000
L 1008.000000 1832.400000
M 1027.200000 1827.600000
L 1056.000000 1827.600000
M 1027.200000 1837.200000
L 1056.000000 1837.200000
M 1084.800000 1811.600000
C 1073.600000 1822.800000 1073.600000 1840.400000 1084.800000 1851.600000
M 1104.000000 1811.600000
C 1116.800000 1822.800000 1116.800000 1840.400000 1104.000000 1851.600000
M 1132.800000 1824.400000
L 1132.800000 1846.800000
M 1132.800000 1834.000000
C 1136.000000 1822.800000 1152.000000 1821.200000 1152.000000 1834.000000
L 1152.000000 1846.800000
M 459.200000 1930.000000
L 459.200000 2010.000000
M 526.400000 1987.600000
C 526.400000 1965.200000 507.200000 1965.200000 507.200000 1987.600000
C 507.200000 2010.000000 526.400000 2010.000000 526.400000 1987.600000
M 548.800000 1976.400000
C 552.000000 1976.400000 555.200000 1973.200000 556.800000 1970.000000
L 556.800000 2003.600000
M 585.600000 1971.600000
C 587.200000 1970.000000 603.200000 1966.800000 603.200000 1979.600000
C 603.200000 1984.400000 600.000000 1987.600000 584.000000 2003.600000
L 603.200000 2003.600000
M 624.000000 1971.600000
C 643.200000 1965.200000 649.600000 1986.000000 627.200000 1986.000000
C 649.600000 1986.000000 644.800000 2010.000000 622.400000 2002.000000
M 676.800000 2003.600000
L 676.800000 1970.000000
L 660.800000 1995.600000
L 680.000000 1995.600000
M 716.800000 1970.000000
L 700.800000 1970.000000
L 699.200000 1986.000000
C 707.200000 1982.800000 718.400000 1984.400000 718.400000 1994.000000
C 718.400000 2005.200000 702.400000 2005.200000 699.200000 2002.000000
M 755.200000 1971.600000
C 753.600000 1970.000000 737.600000 1966.800000 737.600000 1989.200000
C 737.600000 2010.000000 756.800000 2005.200000 756.800000 1994.000000
C 756.800000 1984.400000 740.800000 1979.600000 739.200000 1994.000000
M 776.000000 1970.000000
L 795.200000 1970.000000
L 782.400000 2003.600000
M 832.000000 1978.000000
C 832.000000 1968.400000 816.000000 1968.400000 816.000000 1978.000000
C 816.000000 1987.600000 833.600000 1986.000000 833.600000 1995.600000
C 833.600000 2006.800000 814.400000 2006.800000 814.400000 1995.600000
C 814.400000 1986.000000 832.000000 1987.600000 832.000000 1978.000000
M 854.400000 2003.600000
C 857.600000 2003.600000 872.000000 2008.400000 872.000000 1986.000000
C 872.000000 1963.600000 852.800000 1968.400000 852.800000 1979.600000
C 852.800000 1990.800000 868.800000 1994.000000 870.400000 1981.200000
M 905.600000 1974.800000
L 905.600000 2003.600000
M 891.200000 1989.200000
L 920.000000 1989.200000
M 939.200000 1981.200000
L 968.000000 1981.200000
M 987.200000 1984.400000
L 1016.000000 1984.400000
M 987.200000 1994.000000
L 1016.000000 1994.000000
M 1044.800000 1968.400000
C 1033.600000 1979.600000 1033.600000 1997.200000 1044.800000 2008.400000
M 1064.000000 1968.400000
C 1076.800000 1979.600000 1076.800000 1997.200000 1064.000000 2008.400000
M 1092.800000 2000.400000
L 1092.800000 1933.200000
L 1144.000000 1933.200000
L 1144.000000 2000.400000
L 1092.800000 2000.400000
M 460.377358 2050.000000
L 460.377358 2125.471698
M 507.169811 2099.811321
C 514.716981 2096.792453 523.773585 2098.301887 523.773585 2107.358491
L 523.773585 2119.433962
M 523.773585 2108.867925
C 516.226415 2107.358491 505.660377 2107.358491 505.660377 2114.905660
C 505.660377 2122.452830 523.773585 2120.943396 523.773585 2110.377358
M 541.886792 2108.867925
L 560.000000 2108.867925
C 560.000000 2095.283019 541.886792 2095.283019 541.886792 2108.867925
C 541.886792 2119.433962 552.452830 2120.943396 560.000000 2117.924528
M 596.226415 2108.867925
C 596.226415 2095.283019 578.113208 2095.283019 578.113208 2108.867925
C 578.113208 2123.962264 596.226415 2123.962264 596.226415 2108.867925
M 614.339623 2098.301887
L 630.943396 2119.433962
M 630.943396 2098.301887
L 614.339623 2119.433962
M 667.169811 2108.867925
L 649.056604 2108.867925
C 649.056604 2122.452830 667.169811 2122.452830 667.169811 2108.867925
C 667.169811 2098.301887 656.603774 2096.792453 649.056604 2099.811321
M 685.283019 2087.735849
L 685.283019 2119.433962
M 685.283019 2107.358491
C 688.301887 2096.792453 703.396226 2095.283019 703.396226 2107.358491
L 703.396226 2119.433962
M 721.509434 2087.735849
L 721.509434 2119.433962
M 736.603774 2098.301887
L 721.509434 2113.396226
M 727.547170 2107.358491
L 738.113208 2119.433962
M 757.735849 2087.735849
L 757.735849 2119.433962
M 777.358491 2098.301887
L 777.358491 2119.433962
M 777.358491 2107.358491
C 778.867925 2098.301887 792.452830 2093.773585 792.452830 2107.358491
L 792.452830 2119.433962
M 792.452830 2107.358491
C 793.962264 2098.301887 807.547170 2093.773585 807.547170 2107.358491
L 807.547170 2119.433962
M 825.660377 2098.301887
L 825.660377 2119.433962
M 825.660377 2107.358491
C 828.679245 2096.792453 843.773585 2095.283019 843.773585 2107.358491
L 843.773585 2119.433962
M 861.886792 2130.000000
L 861.886792 2098.301887
M 861.886792 2108.867925
C 861.886792 2122.452830 880.000000 2122.452830 880.000000 2108.867925
C 880.000000 2095.283019 861.886792 2095.283019 861.886792 2108.867925
M 913.207547 2099.811321
C 911.698113 2098.301887 898.113208 2096.792453 898.113208 2104.339623
C 898.113208 2108.867925 914.716981 2108.867925 914.716981 2114.905660
C 914.716981 2120.943396 904.150943 2119.433962 899.622642 2117.924528
M 937.358491 2087.735849
L 937.358491 2111.886792
C 937.358491 2117.924528 938.867925 2120.943396 943.396226 2119.433962
M 932.830189 2096.792453
L 941.886792 2096.792453
M 961.509434 2116.415094
L 961.509434 2053.018868
L 1009.811321 2053.018868
L 1009.811321 2116.415094
L 961.509434 2116.415094
M 1027.924528 2116.415094
L 1027.924528 2053.018868
L 1076.226415 2053.018868
L 1076.226415 2116.415094
L 1027.924528 2116.415094
M 1094.339623 2116.415094
L 1094.339623 2053.018868
L 1142.641509 2053.018868
L 1142.641509 2116.415094
L 1094.339623 2116.415094
M 225.600000 2170.000000
L 225.600000 2250.000000
M 273.600000 2240.400000
L 273.600000 2173.200000
L 324.800000 2173.200000
L 324.800000 2240.400000
L 273.600000 2240.400000
M 344.000000 2240.400000
L 344.000000 2173.200000
L 395.200000 2173.200000
L 395.200000 2240.400000
L 344.000000 2240.400000
M 414.400000 2240.400000
L 414.400000 2173.200000
L 465.600000 2173.200000
L 465.600000 2240.400000
L 414.400000 2240.400000
M 484.800000 2240.400000
L 484.800000 2173.200000
L 536.000000 2173.200000
L 536.000000 2240.400000
L 484.800000 2240.400000
M 555.200000 2240.400000
L 555.200000 2173.200000
L 606.400000 2173.200000
L 606.400000 2240.400000
L 555.200000 2240.400000
M 625.600000 2240.400000
L 625.600000 2173.200000
L 676.800000 2173.200000
L 676.800000 2240.400000
L 625.600000 2240.400000
M 696.000000 2240.400000
L 696.000000 2173.200000
L 747.200000 2173.200000
L 747.200000 2240.400000
L 696.000000 2240.400000
M 766.400000 2240.400000
L 766.400000 2173.200000
L 817.600000 2173.200000
L 817.600000 2240.400000
L 766.400000 2240.400000
M 836.800000 2240.400000
L 836.800000 2173.200000
L 888.000000 2173.200000
L 888.000000 2240.400000
L 836.800000 2240.400000
M 907.200000 2240.400000
L 907.200000 2173.200000
L 958.400000 2173.200000
L 958.400000 2240.400000
L 907.200000 2240.400000
M 977.600000 2240.400000
L 977.600000 2173.200000
L 1028.800000 2173.200000
L 1028.800000 2240.400000
L 977.600000 2240.400000
M 1048.000000 2240.400000
L 1048.000000 2173.200000
L 1099.200000 2173.200000
L 1099.200000 2240.400000
L 1048.000000 2240.400000
M 1166.400000 2176.400000
C 1147.200000 2168.400000 1118.400000 2176.400000 1118.400000 2206.800000
C 1118.400000 2237.200000 1147.200000 2245.200000 1166.400000 2237.200000
M 1160.000000 2213.200000
L 1115.200000 2213.200000
M 1115.200000 2200.400000
L 1163.200000 2200.400000
M 1185.600000 2240.400000
L 1185.600000 2173.200000
L 1236.800000 2173.200000
L 1236.800000 2240.400000
L 1185.600000 2240.400000
M 1256.000000 2240.400000
L 1256.000000 2173.200000
L 1307.200000 2173.200000
L 1307.200000 2240.400000
L 1256.000000 2240.400000
M 1326.400000 2240.400000
L 1326.400000 2173.200000
L 1377.600000 2173.200000
L 1377.600000 2240.400000
L 1326.400000 2240.400000
"/>
</svg>