<?xml version="1.0" encoding="UTF-8" standalone="no"?>
<svg version="1.1"
  xmlns="http://www.w3.org/2000/svg"
  xmlns:svg="http://www.w3.org/2000/svg"
  width="1600" height="2280">
<path fill="none" stroke-width="6" stroke="black" stroke-linecap="round" stroke-linejoin="round" d="
M 479.375000 17.500000
L 479.375000 80.000000
M 539.375000 20.000000
L 539.375000 55.000000
M 536.875000 70.000000
C 536.875000 73.750000 541.875000 73.750000 541.875000 70.000000
C 541.875000 66.250000 536.875000 66.250000 536.875000 70.000000
M 556.875000 20.000000
L 556.875000 37.500000
M 576.875000 20.000000
L 576.875000 37.500000
M 610.625000 20.000000
L 599.375000 72.500000
M 624.375000 20.000000
L 613.125000 72.500000
M 594.375000 38.750000
L 629.375000 38.750000
M 591.875000 53.750000
L 626.875000 53.750000
M 661.875000 12.500000
L 661.875000 80.000000
M 678.125000 22.500000
C 671.875000 20.000000 644.375000 16.250000 644.375000 32.500000
C 644.375000 46.250000 679.375000 43.750000 679.375000 58.750000
C 679.375000 76.250000 650.625000 72.500000 644.375000 70.000000
M 709.375000 33.750000
C 709.375000 16.250000 694.375000 16.250000 694.375000 33.750000
C 694.375000 51.250000 709.375000 51.250000 709.375000 33.750000
M 729.375000 20.000000
L 704.375000 72.500000
M 739.375000 58.750000
C 739.375000 41.250000 724.375000 41.250000 724.375000 58.750000
C 724.375000 76.250000 739.375000 76.250000 739.375000 58.750000
M 791.875000 45.000000
C 791.875000 56.250000 784.375000 72.500000 769.375000 72.500000
C 763.125000 72.500000 754.375000 71.250000 754.375000 60.000000
C 754.375000 42.500000 781.875000 46.250000 781.875000 30.000000
C 781.875000 16.250000 760.625000 16.250000 760.625000 30.000000
C 760.625000 35.000000 763.125000 40.000000 766.875000 43.750000
L 795.625000 72.500000
M 810.625000 20.000000
L 810.625000 37.500000
M 845.625000 17.500000
C 826.875000 35.000000 826.875000 62.500000 845.625000 80.000000
M 860.625000 17.500000
C 879.375000 35.000000 879.375000 62.500000 860.625000 80.000000
M 903.125000 35.000000
L 903.125000 65.000000
M 890.625000 42.500000
L 915.625000 57.500000
M 915.625000 42.500000
L 890.625000 57.500000
M 953.125000 27.500000
L 953.125000 72.500000
M 930.625000 50.000000
L 975.625000 50.000000
M 995.625000 71.250000
C 995.625000 72.500000 990.625000 73.750000 990.625000 70.000000
C 990.625000 66.250000 1001.875000 65.000000 990.625000 82.500000
M 1010.625000 50.000000
L 1055.625000 50.000000
M 1070.625000 70.000000
C 1070.625000 73.750000 1075.625000 73.750000 1075.625000 70.000000
C 1075.625000 66.250000 1070.625000 66.250000 1070.625000 70.000000
M 1123.125000 17.500000
L 1090.625000 80.000000
M 347.692308 130.000000
L 347.692308 206.923077
M 430.769231 165.384615
C 430.769231 122.307692 393.846154 122.307692 393.846154 165.384615
C 393.846154 208.461538 430.769231 208.461538 430.769231 165.384615
M 455.384615 145.384615
C 461.538462 143.846154 467.692308 139.230769 470.769231 133.076923
L 470.769231 197.692308
M 506.153846 136.153846
C 510.769231 133.076923 541.538462 126.923077 540.000000 150.000000
C 540.000000 160.769231 535.384615 166.923077 504.615385 197.692308
L 541.538462 197.692308
M 561.538462 136.153846
C 600.000000 122.307692 610.769231 163.846154 569.230769 163.846154
C 612.307692 163.846154 601.538462 210.000000 560.000000 194.615385
M 644.615385 197.692308
L 644.615385 133.076923
L 615.384615 180.769231
L 652.307692 180.769231
M 703.076923 133.076923
L 672.307692 133.076923
L 670.769231 162.307692
C 684.615385 156.153846 707.692308 160.769231 707.692308 177.692308
C 707.692308 200.769231 676.923077 199.230769 670.769231 194.615385
M 761.538462 134.615385
C 755.384615 133.076923 726.153846 125.384615 726.153846 168.461538
C 726.153846 210.000000 763.076923 200.769231 763.076923 179.230769
C 763.076923 159.230769 732.307692 150.000000 727.692308 179.230769
M 781.538462 133.076923
L 818.461538 133.076923
L 792.307692 197.692308
M 870.769231 146.923077
C 870.769231 128.461538 840.000000 128.461538 840.000000 146.923077
C 840.000000 165.384615 873.846154 163.846154 873.846154 182.307692
C 873.846154 202.307692 836.923077 202.307692 836.923077 182.307692
C 836.923077 163.846154 870.769231 165.384615 870.769231 146.923077
M 893.846154 196.153846
C 900.000000 197.692308 929.230769 205.384615 929.230769 162.307692
C 929.230769 120.769231 892.307692 130.000000 892.307692 151.538462
C 892.307692 171.538462 923.076923 180.769231 927.692308 151.538462
M 947.692308 194.615385
C 947.692308 199.230769 953.846154 199.230769 953.846154 194.615385
C 953.846154 190.000000 947.692308 190.000000 947.692308 194.615385
M 947.692308 157.692308
C 947.692308 162.307692 953.846154 162.307692 953.846154 157.692308
C 953.846154 153.076923 947.692308 153.076923 947.692308 157.692308
M 972.307692 157.692308
C 972.307692 162.307692 978.461538 162.307692 978.461538 157.692308
C 978.461538 153.076923 972.307692 153.076923 972.307692 157.692308
M 978.461538 196.153846
C 978.461538 197.692308 972.307692 199.230769 972.307692 194.615385
C 972.307692 190.000000 986.153846 188.461538 972.307692 210.000000
M 1052.307692 150.000000
L 996.923077 170.000000
L 1052.307692 190.000000
M 1070.769231 160.769231
L 1126.153846 160.769231
M 1070.769231 179.230769
L 1126.153846 179.230769
M 1144.615385 150.000000
L 1200.000000 170.000000
L 1144.615385 190.000000
M 1218.461538 136.153846
C 1226.153846 131.538462 1255.384615 130.000000 1255.384615 148.461538
C 1255.384615 160.769231 1235.384615 163.846154 1235.384615 179.230769
M 1233.846154 194.615385
C 1233.846154 199.230769 1240.000000 199.230769 1240.000000 194.615385
C 1240.000000 190.000000 1233.846154 190.000000 1233.846154 194.615385
M 283.200000 250.000000
L 283.200000 330.000000
M 377.600000 278.800000
C 372.800000 264.400000 350.400000 262.800000 347.200000 285.200000
C 344.000000 307.600000 377.600000 320.400000 379.200000 269.200000
C 368.000000 314.000000 398.400000 312.400000 398.400000 285.200000
C 398.400000 242.000000 331.200000 242.000000 331.200000 285.200000
C 331.200000 330.000000 380.800000 323.600000 388.800000 310.800000
M 417.600000 320.400000
L 443.200000 253.200000
L 468.800000 320.400000
M 427.200000 298.000000
L 459.200000 298.000000
M 488.000000 320.400000
L 488.000000 253.200000
L 507.200000 253.200000
C 539.200000 253.200000 537.600000 285.200000 504.000000 285.200000
M 488.000000 285.200000
L 504.000000 285.200000
C 539.200000 285.200000 545.600000 320.400000 504.000000 320.400000
L 488.000000 320.400000
M 600.000000 256.400000
C 580.800000 248.400000 552.000000 256.400000 552.000000 286.800000
C 552.000000 317.200000 580.800000 325.200000 600.000000 317.200000
M 619.200000 320.400000
L 619.200000 253.200000
L 635.200000 253.200000
C 673.600000 253.200000 673.600000 320.400000 635.200000 320.400000
L 619.200000 320.400000
M 724.800000 253.200000
L 683.200000 253.200000
L 683.200000 320.400000
L 724.800000 320.400000
M 683.200000 285.200000
L 721.600000 285.200000
M 785.600000 253.200000
L 744.000000 253.200000
L 744.000000 320.400000
M 744.000000 285.200000
L 782.400000 285.200000
M 852.800000 256.400000
C 833.600000 248.400000 804.800000 256.400000 804.800000 286.800000
C 804.800000 317.200000 833.600000 325.200000 852.800000 317.200000
L 852.800000 288.400000
L 838.400000 288.400000
M 872.000000 253.200000
L 872.000000 320.400000
M 916.800000 253.200000
L 916.800000 320.400000
M 872.000000 285.200000
L 916.800000 285.200000
M 939.200000 253.200000
L 939.200000 320.400000
M 993.600000 253.200000
L 993.600000 301.200000
C 993.600000 323.600000 966.400000 320.400000 961.600000 318.800000
M 1012.800000 253.200000
L 1012.800000 320.400000
M 1057.600000 253.200000
L 1012.800000 298.000000
M 1028.800000 282.000000
L 1057.600000 320.400000
M 1076.800000 253.200000
L 1076.800000 320.400000
L 1115.200000 320.400000
M 1134.400000 320.400000
L 1134.400000 253.200000
L 1160.000000 288.400000
L 1185.600000 253.200000
L 1185.600000 320.400000
M 1204.800000 320.400000
L 1204.800000 253.200000
L 1249.600000 320.400000
L 1249.600000 253.200000
M 1268.800000 286.800000
C 1268.800000 242.000000 1320.000000 242.000000 1320.000000 286.800000
C 1320.000000 331.600000 1268.800000 331.600000 1268.800000 286.800000
M 270.400000 370.000000
L 270.400000 450.000000
M 318.400000 440.400000
L 318.400000 373.200000
L 334.400000 373.200000
C 372.800000 373.200000 372.800000 408.400000 334.400000 408.400000
L 318.400000 408.400000
M 433.600000 406.800000
C 433.600000 362.000000 382.400000 362.000000 382.400000 406.800000
C 382.400000 451.600000 433.600000 451.600000 433.600000 406.800000
M 412.800000 422.800000
L 433.600000 446.800000
M 452.800000 440.400000
L 452.800000 373.200000
L 468.800000 373.200000
C 499.200000 373.200000 499.200000 405.200000 468.800000 405.200000
L 452.800000 405.200000
M 475.200000 405.200000
L 497.600000 440.400000
M 560.000000 376.400000
C 552.000000 373.200000 516.800000 368.400000 516.800000 389.200000
C 516.800000 406.800000 561.600000 403.600000 561.600000 422.800000
C 561.600000 445.200000 524.800000 440.400000 516.800000 437.200000
M 603.200000 373.200000
L 603.200000 440.400000
M 580.800000 373.200000
L 625.600000 373.200000
M 644.800000 373.200000
L 644.800000 411.600000
C 644.800000 450.000000 689.600000 450.000000 689.600000 411.600000
L 689.600000 373.200000
M 708.800000 373.200000
L 734.400000 440.400000
L 760.000000 373.200000
M 779.200000 373.200000
L 798.400000 440.400000
L 811.200000 395.600000
L 824.000000 440.400000
L 843.200000 373.200000
M 862.400000 373.200000
L 907.200000 440.400000
M 907.200000 373.200000
L 862.400000 440.400000
M 926.400000 373.200000
L 952.000000 410.000000
L 952.000000 440.400000
M 977.600000 373.200000
L 952.000000 410.000000
M 996.800000 373.200000
L 1041.600000 373.200000
L 996.800000 440.400000
L 1041.600000 440.400000
M 1083.200000 370.000000
L 1060.800000 370.000000
L 1060.800000 440.400000
L 1083.200000 440.400000
M 1102.400000 370.000000
L 1144.000000 450.000000
M 1163.200000 370.000000
L 1185.600000 370.000000
L 1185.600000 440.400000
L 1163.200000 440.400000
M 1204.800000 398.800000
L 1230.400000 373.200000
L 1256.000000 398.800000
M 1275.200000 440.400000
L 1332.800000 440.400000
M 442.068966 490.000000
L 442.068966 558.965517
M 483.448276 506.551724
M 483.448276 492.758621
L 500.000000 502.413793
M 519.310345 514.827586
C 531.724138 509.310345 549.655172 510.689655 549.655172 527.241379
L 549.655172 550.689655
M 549.655172 530.000000
C 535.862069 528.620690 516.551724 528.620690 516.551724 541.034483
C 516.551724 556.206897 549.655172 553.448276 549.655172 532.758621
M 566.206897 492.758621
L 566.206897 550.689655
M 566.206897 531.379310
C 566.206897 506.551724 599.310345 506.551724 599.310345 531.379310
C 599.310345 556.206897 566.206897 556.206897 566.206897 531.379310
M 642.068966 513.448276
C 635.172414 510.689655 615.862069 510.689655 615.862069 531.379310
C 615.862069 550.689655 635.172414 552.068966 642.068966 549.310345
M 691.724138 492.758621
L 691.724138 550.689655
M 691.724138 531.379310
C 691.724138 506.551724 658.620690 506.551724 658.620690 531.379310
C 658.620690 556.206897 691.724138 556.206897 691.724138 531.379310
M 708.275862 530.000000
L 741.379310 530.000000
C 741.379310 506.551724 708.275862 506.551724 708.275862 530.000000
C 708.275862 550.689655 727.586207 553.448276 741.379310 547.931034
M 780.000000 494.137931
C 771.724138 491.379310 766.206897 495.517241 766.206897 505.172414
L 766.206897 550.689655
M 757.931034 513.448276
L 777.241379 513.448276
M 826.896552 512.068966
L 826.896552 550.689655
C 826.896552 574.137931 804.827586 571.379310 796.551724 567.241379
M 826.896552 531.379310
C 826.896552 506.551724 793.793103 506.551724 793.793103 531.379310
C 793.793103 556.206897 826.896552 556.206897 826.896552 531.379310
M 843.448276 492.758621
L 843.448276 550.689655
M 843.448276 528.620690
C 848.965517 509.310345 876.551724 505.172414 876.551724 528.620690
L 876.551724 550.689655
M 893.103448 496.896552
C 893.103448 501.034483 898.620690 501.034483 898.620690 496.896552
C 898.620690 492.758621 893.103448 492.758621 893.103448 496.896552
M 895.862069 512.068966
L 895.862069 550.689655
M 915.172414 496.896552
C 915.172414 501.034483 920.689655 501.034483 920.689655 496.896552
C 920.689655 492.758621 915.172414 492.758621 915.172414 496.896552
M 917.931034 512.068966
L 917.931034 557.586207
C 917.931034 567.241379 912.413793 571.379310 904.137931 568.620690
M 937.241379 492.758621
L 937.241379 550.689655
M 964.827586 512.068966
L 937.241379 539.655172
M 948.275862 528.620690
L 967.586207 550.689655
M 986.896552 492.758621
L 986.896552 550.689655
M 1006.206897 512.068966
L 1006.206897 550.689655
M 1006.206897 528.620690
C 1008.965517 510.689655 1033.793103 503.793103 1033.793103 528.620690
L 1033.793103 550.689655
M 1033.793103 528.620690
C 1036.551724 510.689655 1061.379310 503.793103 1061.379310 528.620690
L 1061.379310 550.689655
M 1077.931034 512.068966
L 1077.931034 550.689655
M 1077.931034 528.620690
C 1083.448276 509.310345 1111.034483 505.172414 1111.034483 528.620690
L 1111.034483 550.689655
M 1160.689655 531.379310
C 1160.689655 505.172414 1127.586207 505.172414 1127.586207 531.379310
C 1127.586207 557.586207 1160.689655 557.586207 1160.689655 531.379310
M 455.172414 610.000000
L 455.172414 678.965517
M 496.551724 690.000000
L 496.551724 632.068966
M 496.551724 651.379310
C 496.551724 676.206897 529.655172 676.206897 529.655172 651.379310
C 529.655172 626.551724 496.551724 626.551724 496.551724 651.379310
M 579.310345 690.000000
L 579.310345 632.068966
M 579.310345 651.379310
C 579.310345 676.206897 546.206897 676.206897 546.206897 651.379310
C 546.206897 626.551724 579.310345 626.551724 579.310345 651.379310
M 595.862069 632.068966
L 595.862069 670.689655
M 595.862069 654.137931
C 600.000000 638.965517 605.517241 632.068966 617.931034 632.068966
M 662.068966 633.448276
C 657.931034 632.068966 634.482759 629.310345 634.482759 641.724138
C 634.482759 650.000000 664.827586 651.379310 664.827586 661.034483
C 664.827586 673.448276 644.137931 670.689655 637.241379 669.310345
M 691.034483 612.758621
L 691.034483 656.896552
C 691.034483 667.931034 695.172414 672.068966 703.448276 669.310345
M 681.379310 627.931034
L 700.689655 627.931034
M 753.103448 670.689655
L 753.103448 632.068966
M 753.103448 654.137931
C 747.586207 673.448276 720.000000 677.586207 720.000000 654.137931
L 720.000000 632.068966
M 769.655172 632.068966
L 784.827586 670.689655
L 800.000000 632.068966
M 816.551724 632.068966
L 827.586207 670.689655
L 838.620690 632.068966
L 849.655172 670.689655
L 860.689655 632.068966
M 877.241379 632.068966
L 907.586207 670.689655
M 907.586207 632.068966
L 877.241379 670.689655
M 924.137931 632.068966
L 940.689655 670.689655
M 957.241379 632.068966
L 940.689655 670.689655
C 932.413793 690.000000 929.655172 691.379310 921.379310 688.620690
M 973.793103 632.068966
L 1004.137931 632.068966
L 973.793103 670.689655
L 1004.137931 670.689655
M 1031.724138 610.000000
C 1027.586207 610.000000 1026.206897 611.379310 1026.206897 621.034483
C 1026.206897 641.724138 1023.448276 640.344828 1020.689655 640.344828
C 1023.448276 640.344828 1026.206897 638.965517 1026.206897 659.655172
C 1026.206897 669.310345 1027.586207 670.689655 1031.724138 670.689655
M 1051.034483 610.000000
L 1051.034483 678.965517
M 1070.344828 610.000000
C 1074.482759 610.000000 1075.862069 611.379310 1075.862069 621.034483
C 1075.862069 641.724138 1078.620690 640.344828 1081.379310 640.344828
C 1078.620690 640.344828 1075.862069 638.965517 1075.862069 659.655172
C 1075.862069 669.310345 1074.482759 670.689655 1070.344828 670.689655
M 1097.931034 650.000000
C 1117.241379 615.517241 1129.655172 677.586207 1147.586207 643.103448
M 399.200000 730.000000
L 399.200000 810.000000
M 476.000000 800.400000
L 476.000000 755.600000
M 472.800000 736.400000
C 472.800000 731.600000 479.200000 731.600000 479.200000 736.400000
C 479.200000 741.200000 472.800000 741.200000 472.800000 736.400000
M 525.600000 749.200000
L 504.800000 806.800000
M 528.800000 757.200000
C 520.800000 754.000000 498.400000 754.000000 498.400000 778.000000
C 498.400000 800.400000 520.800000 802.000000 528.800000 798.800000
M 580.000000 739.600000
C 567.200000 736.400000 557.600000 741.200000 556.000000 760.400000
L 556.000000 800.400000
M 548.000000 766.800000
L 572.000000 766.800000
M 548.000000 800.400000
L 580.000000 800.400000
M 612.000000 758.800000
C 605.600000 758.800000 602.400000 762.000000 602.400000 768.400000
C 602.400000 774.800000 605.600000 778.000000 612.000000 778.000000
C 618.400000 778.000000 621.600000 774.800000 621.600000 768.400000
C 621.600000 762.000000 618.400000 758.800000 612.000000 758.800000
M 599.200000 755.600000
L 604.000000 760.400000
M 624.800000 755.600000
L 620.000000 760.400000
M 599.200000 781.200000
L 604.000000 776.400000
M 624.800000 781.200000
L 620.000000 776.400000
M 650.400000 768.400000
L 688.800000 768.400000
M 650.400000 784.400000
L 688.800000 784.400000
M 644.000000 733.200000
L 669.600000 770.000000
L 669.600000 800.400000
M 695.200000 733.200000
L 669.600000 770.000000
M 717.600000 730.000000
L 717.600000 762.000000
M 717.600000 778.000000
L 717.600000 810.000000
M 748.000000 752.400000
C 741.600000 757.200000 740.000000 758.800000 740.000000 765.200000
C 740.000000 779.600000 770.400000 773.200000 770.400000 789.200000
C 770.400000 795.600000 760.800000 803.600000 740.000000 798.800000
M 762.400000 778.000000
C 767.200000 774.800000 770.400000 773.200000 770.400000 766.800000
C 770.400000 752.400000 740.000000 755.600000 740.000000 742.800000
C 740.000000 736.400000 749.600000 728.400000 767.200000 733.200000
M 792.800000 739.600000
C 791.200000 739.600000 789.600000 738.000000 789.600000 736.400000
C 789.600000 734.800000 791.200000 733.200000 792.800000 733.200000
C 794.400000 733.200000 796.000000 734.800000 796.000000 736.400000
C 796.000000 738.000000 794.400000 739.600000 792.800000 739.600000
M 805.600000 739.600000
C 804.000000 739.600000 802.400000 738.000000 802.400000 736.400000
C 802.400000 734.800000 804.000000 733.200000 805.600000 733.200000
C 807.200000 733.200000 808.800000 734.800000 808.800000 736.400000
C 808.800000 738.000000 807.200000 739.600000 805.600000 739.600000
M 852.000000 752.400000
C 837.600000 752.400000 828.000000 762.000000 828.000000 776.400000
C 828.000000 790.800000 837.600000 800.400000 852.000000 800.400000
C 866.400000 800.400000 876.000000 790.800000 876.000000 776.400000
C 876.000000 762.000000 866.400000 752.400000 852.000000 752.400000
M 863.200000 768.400000
C 861.600000 765.200000 856.800000 762.000000 852.000000 762.000000
C 844.000000 762.000000 839.200000 768.400000 839.200000 776.400000
C 839.200000 784.400000 844.000000 790.800000 852.000000 790.800000
C 858.400000 790.800000 861.600000 787.600000 863.200000 784.400000
M 896.800000 762.000000
L 914.400000 762.000000
M 896.800000 734.800000
C 904.800000 731.600000 914.400000 733.200000 914.400000 742.800000
L 914.400000 755.600000
M 914.400000 744.400000
C 906.400000 742.800000 895.200000 742.800000 895.200000 750.800000
C 895.200000 758.800000 914.400000 757.200000 914.400000 746.000000
M 944.800000 755.600000
L 933.600000 776.400000
L 944.800000 797.200000
M 964.000000 755.600000
L 952.800000 776.400000
L 964.000000 797.200000
M 983.200000 762.000000
L 1040.800000 762.000000
L 1040.800000 781.200000
M 1103.200000 752.400000
C 1088.800000 752.400000 1079.200000 762.000000 1079.200000 776.400000
C 1079.200000 790.800000 1088.800000 800.400000 1103.200000 800.400000
C 1117.600000 800.400000 1127.200000 790.800000 1127.200000 776.400000
C 1127.200000 762.000000 1117.600000 752.400000 1103.200000 752.400000
M 1095.200000 790.800000
L 1095.200000 762.000000
L 1101.600000 762.000000
C 1114.400000 762.000000 1114.400000 776.400000 1101.600000 776.400000
L 1095.200000 776.400000
M 1104.800000 776.400000
L 1114.400000 790.800000
M 1146.400000 731.600000
L 1204.000000 731.600000
M 420.689655 850.000000
L 420.689655 918.965517
M 470.344828 869.310345
C 464.827586 869.310345 462.068966 866.551724 462.068966 861.034483
C 462.068966 855.517241 464.827586 852.758621 470.344828 852.758621
C 475.862069 852.758621 478.620690 855.517241 478.620690 861.034483
C 478.620690 866.551724 475.862069 869.310345 470.344828 869.310345
M 520.000000 861.034483
L 520.000000 894.137931
M 495.172414 877.586207
L 544.827586 877.586207
M 495.172414 902.413793
L 544.827586 902.413793
M 562.758621 854.137931
C 564.137931 852.758621 577.931034 850.000000 577.931034 861.034483
C 577.931034 865.172414 575.172414 867.931034 561.379310 881.724138
L 577.931034 881.724138
M 595.862069 854.137931
C 612.413793 848.620690 617.931034 866.551724 598.620690 866.551724
C 617.931034 866.551724 613.793103 887.241379 594.482759 880.344828
M 627.586207 863.793103
L 635.862069 850.000000
M 608.275862 917.586207
M 688.275862 910.689655
C 686.896552 909.310345 685.517241 907.931034 685.517241 899.655172
L 685.517241 872.068966
M 685.517241 894.137931
C 680.000000 913.448276 652.413793 917.586207 652.413793 894.137931
L 652.413793 872.068966
L 652.413793 930.000000
M 725.517241 852.758621
L 725.517241 910.689655
M 742.068966 910.689655
L 742.068966 852.758621
L 720.000000 852.758621
C 699.310345 852.758621 699.310345 876.206897 720.000000 874.827586
L 725.517241 874.827586
M 765.517241 878.965517
C 764.137931 878.965517 762.758621 880.344828 762.758621 881.724138
C 762.758621 883.103448 764.137931 884.482759 765.517241 884.482759
C 766.896552 884.482759 768.275862 883.103448 768.275862 881.724138
C 768.275862 880.344828 766.896552 878.965517 765.517241 878.965517
M 809.655172 910.689655
C 812.413793 913.448276 809.655172 921.724138 800.000000 917.586207
M 844.137931 858.275862
M 844.137931 858.275862
C 846.896552 858.275862 849.655172 855.517241 851.034483 852.758621
L 851.034483 881.724138
M 874.482759 877.586207
L 891.034483 877.586207
M 891.034483 862.413793
C 891.034483 850.000000 874.482759 850.000000 874.482759 862.413793
C 874.482759 876.206897 891.034483 876.206897 891.034483 862.413793
M 924.137931 872.068966
L 933.793103 890.000000
L 924.137931 907.931034
M 907.586207 872.068966
L 917.241379 890.000000
L 907.586207 907.931034
M 958.620690 910.689655
L 987.586207 852.758621
M 953.103448 858.275862
C 955.862069 858.275862 958.620690 855.517241 960.000000 852.758621
L 960.000000 881.724138
M 997.241379 910.689655
L 997.241379 881.724138
L 983.448276 903.793103
L 1000.000000 903.793103
M 1048.275862 888.620690
M 1024.827586 910.689655
L 1053.793103 852.758621
M 1019.310345 858.275862
C 1022.068966 858.275862 1024.827586 855.517241 1026.206897 852.758621
L 1026.206897 881.724138
M 1051.034483 883.103448
C 1052.413793 881.724138 1066.206897 878.965517 1066.206897 890.000000
C 1066.206897 894.137931 1063.448276 896.896552 1049.655172 910.689655
L 1066.206897 910.689655
M 1084.137931 854.137931
C 1100.689655 848.620690 1106.206897 866.551724 1086.896552 866.551724
C 1106.206897 866.551724 1102.068966 887.241379 1082.758621 880.344828
M 1091.034483 910.689655
L 1120.000000 852.758621
M 1129.655172 910.689655
L 1129.655172 881.724138
L 1115.862069 903.793103
L 1132.413793 903.793103
M 1182.068966 907.931034
C 1175.172414 912.068966 1148.965517 913.448276 1148.965517 896.896552
C 1148.965517 885.862069 1166.896552 883.103448 1166.896552 869.310345
M 1168.275862 855.517241
C 1168.275862 851.379310 1162.758621 851.379310 1162.758621 855.517241
C 1162.758621 859.655172 1168.275862 859.655172 1168.275862 855.517241
M 417.049180 984.426230
L 417.049180 1050.000000
M 456.393443 1042.131148
L 477.377049 987.049180
L 498.360656 1042.131148
M 464.262295 1023.770492
L 490.491803 1023.770492
M 481.311475 980.491803
L 473.442623 970.000000
M 514.098361 1042.131148
L 535.081967 987.049180
L 556.065574 1042.131148
M 521.967213 1023.770492
L 548.196721 1023.770492
M 531.147541 980.491803
L 539.016393 970.000000
M 571.803279 1042.131148
L 592.786885 987.049180
L 613.770492 1042.131148
M 579.672131 1023.770492
L 605.901639 1023.770492
M 586.229508 980.491803
L 592.786885 970.000000
L 599.344262 980.491803
M 629.508197 1042.131148
L 650.491803 987.049180
L 671.475410 1042.131148
M 637.377049 1023.770492
L 663.606557 1023.770492
M 640.000000 977.868852
C 647.868852 960.819672 653.114754 992.295082 660.983607 975.245902
M 687.213115 1042.131148
L 708.196721 987.049180
L 729.180328 1042.131148
M 695.081967 1023.770492
L 721.311475 1023.770492
M 699.016393 976.557377
C 699.016393 980.491803 704.262295 980.491803 704.262295 976.557377
C 704.262295 972.622951 699.016393 972.622951 699.016393 976.557377
M 712.131148 976.557377
C 712.131148 980.491803 717.377049 980.491803 717.377049 976.557377
C 717.377049 972.622951 712.131148 972.622951 712.131148 976.557377
M 765.901639 981.803279
C 763.278689 981.803279 760.655738 979.180328 760.655738 976.557377
C 760.655738 973.934426 763.278689 971.311475 765.901639 971.311475
C 768.524590 971.311475 771.147541 973.934426 771.147541 976.557377
C 771.147541 979.180328 768.524590 981.803279 765.901639 981.803279
M 744.918033 1042.131148
L 765.901639 987.049180
L 786.885246 1042.131148
M 752.786885 1023.770492
L 779.016393 1023.770492
M 802.622951 1042.131148
L 823.606557 987.049180
L 844.590164 987.049180
M 828.852459 987.049180
L 831.475410 1042.131148
L 847.213115 1042.131148
M 843.278689 1013.278689
L 830.163934 1013.278689
M 830.163934 1023.770492
L 810.491803 1023.770492
M 886.557377 1042.131148
C 889.180328 1044.754098 886.557377 1052.622951 877.377049 1048.688525
M 902.295082 989.672131
C 886.557377 983.114754 862.950820 989.672131 862.950820 1014.590164
C 862.950820 1039.508197 886.557377 1046.065574 902.295082 1039.508197
M 939.016393 980.491803
L 931.147541 970.000000
M 952.131148 987.049180
L 918.032787 987.049180
L 918.032787 1042.131148
L 952.131148 1042.131148
M 918.032787 1013.278689
L 949.508197 1013.278689
M 1001.967213 987.049180
L 967.868852 987.049180
L 967.868852 1042.131148
L 1001.967213 1042.131148
M 967.868852 1013.278689
L 999.344262 1013.278689
M 980.983607 980.491803
L 988.852459 970.000000
M 1051.803279 987.049180
L 1017.704918 987.049180
L 1017.704918 1042.131148
L 1051.803279 1042.131148
M 1017.704918 1013.278689
L 1049.180328 1013.278689
M 1028.196721 980.491803
L 1034.754098 970.000000
L 1041.311475 980.491803
M 1101.639344 987.049180
L 1067.540984 987.049180
L 1067.540984 1042.131148
L 1101.639344 1042.131148
M 1067.540984 1013.278689
L 1099.016393 1013.278689
M 1075.409836 976.557377
C 1075.409836 980.491803 1080.655738 980.491803 1080.655738 976.557377
C 1080.655738 972.622951 1075.409836 972.622951 1075.409836 976.557377
M 1088.524590 976.557377
C 1088.524590 980.491803 1093.770492 980.491803 1093.770492 976.557377
C 1093.770492 972.622951 1088.524590 972.622951 1088.524590 976.557377
M 1120.000000 987.049180
L 1120.000000 1042.131148
M 1120.000000 980.491803
L 1112.131148 970.000000
M 1140.983607 987.049180
L 1140.983607 1042.131148
M 1140.983607 980.491803
L 1148.852459 970.000000
M 1161.967213 987.049180
L 1161.967213 1042.131148
M 1155.409836 980.491803
L 1161.967213 970.000000
L 1168.524590 980.491803
M 1182.950820 987.049180
L 1182.950820 1042.131148
M 1173.770492 976.557377
C 1173.770492 980.491803 1179.016393 980.491803 1179.016393 976.557377
C 1179.016393 972.622951 1173.770492 972.622951 1173.770492 976.557377
M 1186.885246 976.557377
C 1186.885246 980.491803 1192.131148 980.491803 1192.131148 976.557377
C 1192.131148 972.622951 1186.885246 972.622951 1186.885246 976.557377
M 352.131148 1104.426230
L 352.131148 1170.000000
M 391.475410 1162.131148
L 391.475410 1107.049180
L 404.590164 1107.049180
C 436.065574 1107.049180 436.065574 1162.131148 404.590164 1162.131148
L 391.475410 1162.131148
M 386.229508 1134.590164
L 404.590164 1134.590164
M 443.934426 1162.131148
L 443.934426 1107.049180
L 480.655738 1162.131148
L 480.655738 1107.049180
M 451.803279 1097.868852
C 459.672131 1080.819672 464.918033 1112.295082 472.786885 1095.245902
M 496.393443 1134.590164
C 496.393443 1097.868852 538.360656 1097.868852 538.360656 1134.590164
C 538.360656 1171.311475 496.393443 1171.311475 496.393443 1134.590164
M 521.311475 1100.491803
L 513.442623 1090.000000
M 554.098361 1134.590164
C 554.098361 1097.868852 596.065574 1097.868852 596.065574 1134.590164
C 596.065574 1171.311475 554.098361 1171.311475 554.098361 1134.590164
M 571.147541 1100.491803
L 579.016393 1090.000000
M 611.803279 1134.590164
C 611.803279 1097.868852 653.770492 1097.868852 653.770492 1134.590164
C 653.770492 1171.311475 611.803279 1171.311475 611.803279 1134.590164
M 626.229508 1100.491803
L 632.786885 1090.000000
L 639.344262 1100.491803
M 669.508197 1134.590164
C 669.508197 1097.868852 711.475410 1097.868852 711.475410 1134.590164
C 711.475410 1171.311475 669.508197 1171.311475 669.508197 1134.590164
M 680.000000 1097.868852
C 687.868852 1080.819672 693.114754 1112.295082 700.983607 1095.245902
M 727.213115 1134.590164
C 727.213115 1097.868852 769.180328 1097.868852 769.180328 1134.590164
C 769.180328 1171.311475 727.213115 1171.311475 727.213115 1134.590164
M 739.016393 1096.557377
C 739.016393 1100.491803 744.262295 1100.491803 744.262295 1096.557377
C 744.262295 1092.622951 739.016393 1092.622951 739.016393 1096.557377
M 752.131148 1096.557377
C 752.131148 1100.491803 757.377049 1100.491803 757.377049 1096.557377
C 757.377049 1092.622951 752.131148 1092.622951 752.131148 1096.557377
M 784.918033 1117.540984
L 820.327869 1152.950820
M 784.918033 1152.950820
L 820.327869 1117.540984
M 836.065574 1134.590164
C 836.065574 1097.868852 878.032787 1097.868852 878.032787 1134.590164
C 878.032787 1171.311475 836.065574 1171.311475 836.065574 1134.590164
M 837.377049 1164.754098
L 876.721311 1104.426230
M 893.770492 1107.049180
L 893.770492 1138.524590
C 893.770492 1170.000000 930.491803 1170.000000 930.491803 1138.524590
L 930.491803 1107.049180
M 916.065574 1100.491803
L 908.196721 1090.000000
M 946.229508 1107.049180
L 946.229508 1138.524590
C 946.229508 1170.000000 982.950820 1170.000000 982.950820 1138.524590
L 982.950820 1107.049180
M 963.278689 1100.491803
L 971.147541 1090.000000
M 998.688525 1107.049180
L 998.688525 1138.524590
C 998.688525 1170.000000 1035.409836 1170.000000 1035.409836 1138.524590
L 1035.409836 1107.049180
M 1010.491803 1100.491803
L 1017.049180 1090.000000
L 1023.606557 1100.491803
M 1051.147541 1107.049180
L 1051.147541 1138.524590
C 1051.147541 1170.000000 1087.868852 1170.000000 1087.868852 1138.524590
L 1087.868852 1107.049180
M 1060.327869 1096.557377
C 1060.327869 1100.491803 1065.573770 1100.491803 1065.573770 1096.557377
C 1065.573770 1092.622951 1060.327869 1092.622951 1060.327869 1096.557377
M 1073.442623 1096.557377
C 1073.442623 1100.491803 1078.688525 1100.491803 1078.688525 1096.557377
C 1078.688525 1092.622951 1073.442623 1092.622951 1073.442623 1096.557377
M 1103.606557 1107.049180
L 1124.590164 1137.213115
L 1124.590164 1162.131148
M 1145.573770 1107.049180
L 1124.590164 1137.213115
M 1120.655738 1100.491803
L 1128.524590 1090.000000
M 1161.311475 1162.131148
L 1161.311475 1107.049180
M 1161.311475 1134.590164
C 1161.311475 1158.196721 1192.786885 1158.196721 1192.786885 1134.590164
C 1192.786885 1110.983607 1161.311475 1110.983607 1161.311475 1134.590164
M 1208.524590 1162.131148
L 1208.524590 1126.721311
C 1208.524590 1114.918033 1213.770492 1107.049180 1229.508197 1107.049180
C 1251.803279 1107.049180 1253.114754 1131.967213 1226.885246 1133.278689
C 1258.360656 1133.278689 1258.360656 1168.688525 1221.639344 1160.819672
M 386.666667 1211.568627
L 386.666667 1290.000000
M 436.862745 1239.803922
C 450.980392 1233.529412 471.372549 1235.098039 471.372549 1253.921569
L 471.372549 1280.588235
M 471.372549 1257.058824
C 455.686275 1255.490196 433.725490 1255.490196 433.725490 1269.607843
C 433.725490 1286.862745 471.372549 1283.725490 471.372549 1260.196078
M 457.254902 1222.549020
L 447.843137 1210.000000
M 493.333333 1239.803922
C 507.450980 1233.529412 527.843137 1235.098039 527.843137 1253.921569
L 527.843137 1280.588235
M 527.843137 1257.058824
C 512.156863 1255.490196 490.196078 1255.490196 490.196078 1269.607843
C 490.196078 1286.862745 527.843137 1283.725490 527.843137 1260.196078
M 504.313725 1222.549020
L 513.725490 1210.000000
M 549.803922 1239.803922
C 563.921569 1233.529412 584.313725 1235.098039 584.313725 1253.921569
L 584.313725 1280.588235
M 584.313725 1257.058824
C 568.627451 1255.490196 546.666667 1255.490196 546.666667 1269.607843
C 546.666667 1286.862745 584.313725 1283.725490 584.313725 1260.196078
M 557.647059 1222.549020
L 565.490196 1210.000000
L 573.333333 1222.549020
M 606.274510 1239.803922
C 620.392157 1233.529412 640.784314 1235.098039 640.784314 1253.921569
L 640.784314 1280.588235
M 640.784314 1257.058824
C 625.098039 1255.490196 603.137255 1255.490196 603.137255 1269.607843
C 603.137255 1286.862745 640.784314 1283.725490 640.784314 1260.196078
M 609.411765 1219.411765
C 618.823529 1199.019608 625.098039 1236.666667 634.509804 1216.274510
M 662.745098 1239.803922
C 676.862745 1233.529412 697.254902 1235.098039 697.254902 1253.921569
L 697.254902 1280.588235
M 697.254902 1257.058824
C 681.568627 1255.490196 659.607843 1255.490196 659.607843 1269.607843
C 659.607843 1286.862745 697.254902 1283.725490 697.254902 1260.196078
M 667.450980 1219.411765
C 667.450980 1224.117647 673.725490 1224.117647 673.725490 1219.411765
C 673.725490 1214.705882 667.450980 1214.705882 667.450980 1219.411765
M 683.137255 1219.411765
C 683.137255 1224.117647 689.411765 1224.117647 689.411765 1219.411765
C 689.411765 1214.705882 683.137255 1214.705882 683.137255 1219.411765
M 719.215686 1239.803922
C 733.333333 1233.529412 753.725490 1235.098039 753.725490 1253.921569
L 753.725490 1280.588235
M 753.725490 1257.058824
C 738.039216 1255.490196 716.078431 1255.490196 716.078431 1269.607843
C 716.078431 1286.862745 753.725490 1283.725490 753.725490 1260.196078
M 734.901961 1222.549020
C 731.764706 1222.549020 728.627451 1219.411765 728.627451 1216.274510
C 728.627451 1213.137255 731.764706 1210.000000 734.901961 1210.000000
C 738.039216 1210.000000 741.176471 1213.137255 741.176471 1216.274510
C 741.176471 1219.411765 738.039216 1222.549020 734.901961 1222.549020
M 775.686275 1239.803922
C 789.803922 1233.529412 807.058824 1235.098039 807.058824 1253.921569
L 807.058824 1260.196078
C 807.058824 1283.725490 772.549020 1286.862745 772.549020 1269.607843
C 772.549020 1255.490196 794.509804 1255.490196 807.058824 1257.058824
M 807.058824 1257.058824
L 843.137255 1257.058824
M 843.137255 1257.058824
C 843.137255 1230.392157 807.058824 1230.392157 807.058824 1257.058824
C 807.058824 1283.725490 829.019608 1282.156863 843.137255 1277.450980
M 891.764706 1238.235294
C 883.921569 1235.098039 861.960784 1235.098039 861.960784 1258.627451
C 861.960784 1280.588235 883.921569 1282.156863 891.764706 1279.019608
M 882.352941 1280.588235
C 885.490196 1283.725490 882.352941 1293.137255 871.372549 1288.431373
M 910.588235 1257.058824
L 948.235294 1257.058824
C 948.235294 1230.392157 910.588235 1230.392157 910.588235 1257.058824
C 910.588235 1280.588235 932.549020 1283.725490 948.235294 1277.450980
M 934.117647 1222.549020
L 924.705882 1210.000000
M 967.058824 1257.058824
L 1004.705882 1257.058824
C 1004.705882 1230.392157 967.058824 1230.392157 967.058824 1257.058824
C 967.058824 1280.588235 989.019608 1283.725490 1004.705882 1277.450980
M 981.176471 1222.549020
L 990.588235 1210.000000
M 1023.529412 1257.058824
L 1061.176471 1257.058824
C 1061.176471 1230.392157 1023.529412 1230.392157 1023.529412 1257.058824
C 1023.529412 1280.588235 1045.490196 1283.725490 1061.176471 1277.450980
M 1034.509804 1222.549020
L 1042.352941 1210.000000
L 1050.196078 1222.549020
M 1080.000000 1257.058824
L 1117.647059 1257.058824
C 1117.647059 1230.392157 1080.000000 1230.392157 1080.000000 1257.058824
C 1080.000000 1280.588235 1101.960784 1283.725490 1117.647059 1277.450980
M 1087.843137 1219.411765
C 1087.843137 1224.117647 1094.117647 1224.117647 1094.117647 1219.411765
C 1094.117647 1214.705882 1087.843137 1214.705882 1087.843137 1219.411765
M 1103.529412 1219.411765
C 1103.529412 1224.117647 1109.803922 1224.117647 1109.803922 1219.411765
C 1109.803922 1214.705882 1103.529412 1214.705882 1103.529412 1219.411765
M 1139.607843 1236.666667
L 1139.607843 1280.588235
M 1139.607843 1222.549020
L 1130.196078 1210.000000
M 1164.705882 1236.666667
L 1164.705882 1280.588235
M 1164.705882 1222.549020
L 1174.117647 1210.000000
M 1188.235294 1236.666667
L 1188.235294 1280.588235
M 1180.392157 1222.549020
L 1188.235294 1210.000000
L 1196.078431 1222.549020
M 1213.333333 1236.666667
L 1213.333333 1280.588235
M 1202.352941 1219.411765
C 1202.352941 1224.117647 1208.627451 1224.117647 1208.627451 1219.411765
C 1208.627451 1214.705882 1202.352941 1214.705882 1202.352941 1219.411765
M 1218.039216 1219.411765
C 1218.039216 1224.117647 1224.313725 1224.117647 1224.313725 1219.411765
C 1224.313725 1214.705882 1218.039216 1214.705882 1218.039216 1219.411765
M 389.152542 1331.355932
L 389.152542 1399.152542
M 465.084746 1372.033898
C 465.084746 1346.271186 429.830508 1346.271186 429.830508 1372.033898
C 429.830508 1397.796610 465.084746 1397.796610 465.084746 1372.033898
C 465.084746 1357.118644 454.237288 1340.847458 436.610169 1334.067797
M 435.254237 1346.271186
L 458.305085 1334.067797
M 481.355932 1353.050847
L 481.355932 1391.016949
M 481.355932 1369.322034
C 486.779661 1350.338983 513.898305 1346.271186 513.898305 1369.322034
L 513.898305 1391.016949
M 486.779661 1338.135593
C 494.915254 1320.508475 500.338983 1353.050847 508.474576 1335.423729
M 562.711864 1372.033898
C 562.711864 1346.271186 530.169492 1346.271186 530.169492 1372.033898
C 530.169492 1397.796610 562.711864 1397.796610 562.711864 1372.033898
M 550.508475 1340.847458
L 542.372881 1330.000000
M 611.525424 1372.033898
C 611.525424 1346.271186 578.983051 1346.271186 578.983051 1372.033898
C 578.983051 1397.796610 611.525424 1397.796610 611.525424 1372.033898
M 591.186441 1340.847458
L 599.322034 1330.000000
M 660.338983 1372.033898
C 660.338983 1346.271186 627.796610 1346.271186 627.796610 1372.033898
C 627.796610 1397.796610 660.338983 1397.796610 660.338983 1372.033898
M 637.288136 1340.847458
L 644.067797 1330.000000
L 650.847458 1340.847458
M 709.152542 1372.033898
C 709.152542 1346.271186 676.610169 1346.271186 676.610169 1372.033898
C 676.610169 1397.796610 709.152542 1397.796610 709.152542 1372.033898
M 682.033898 1338.135593
C 690.169492 1320.508475 695.593220 1353.050847 703.728814 1335.423729
M 757.966102 1372.033898
C 757.966102 1346.271186 725.423729 1346.271186 725.423729 1372.033898
C 725.423729 1397.796610 757.966102 1397.796610 757.966102 1372.033898
M 732.203390 1339.491525
C 732.203390 1343.559322 737.627119 1343.559322 737.627119 1339.491525
C 737.627119 1335.423729 732.203390 1335.423729 732.203390 1339.491525
M 745.762712 1339.491525
C 745.762712 1343.559322 751.186441 1343.559322 751.186441 1339.491525
C 751.186441 1335.423729 745.762712 1335.423729 745.762712 1339.491525
M 774.237288 1366.610169
L 823.050847 1366.610169
M 798.644068 1376.101695
C 797.288136 1376.101695 795.932203 1377.457627 795.932203 1378.813559
C 795.932203 1380.169492 797.288136 1381.525424 798.644068 1381.525424
C 800.000000 1381.525424 801.355932 1380.169492 801.355932 1378.813559
C 801.355932 1377.457627 800.000000 1376.101695 798.644068 1376.101695
M 798.644068 1351.694915
C 797.288136 1351.694915 795.932203 1353.050847 795.932203 1354.406780
C 795.932203 1355.762712 797.288136 1357.118644 798.644068 1357.118644
C 800.000000 1357.118644 801.355932 1355.762712 801.355932 1354.406780
C 801.355932 1353.050847 800.000000 1351.694915 798.644068 1351.694915
M 871.864407 1372.033898
C 871.864407 1346.271186 839.322034 1346.271186 839.322034 1372.033898
C 839.322034 1397.796610 871.864407 1397.796610 871.864407 1372.033898
M 839.322034 1393.728814
L 871.864407 1350.338983
M 920.677966 1391.016949
L 920.677966 1353.050847
M 920.677966 1374.745763
C 915.254237 1393.728814 888.135593 1397.796610 888.135593 1374.745763
L 888.135593 1353.050847
M 908.474576 1340.847458
L 900.338983 1330.000000
M 969.491525 1391.016949
L 969.491525 1353.050847
M 969.491525 1374.745763
C 964.067797 1393.728814 936.949153 1397.796610 936.949153 1374.745763
L 936.949153 1353.050847
M 949.152542 1340.847458
L 957.288136 1330.000000
M 1018.305085 1391.016949
L 1018.305085 1353.050847
M 1018.305085 1374.745763
C 1012.881356 1393.728814 985.762712 1397.796610 985.762712 1374.745763
L 985.762712 1353.050847
M 995.254237 1340.847458
L 1002.033898 1330.000000
L 1008.813559 1340.847458
M 1067.118644 1391.016949
L 1067.118644 1353.050847
M 1067.118644 1374.745763
C 1061.694915 1393.728814 1034.576271 1397.796610 1034.576271 1374.745763
L 1034.576271 1353.050847
M 1041.355932 1338.135593
C 1041.355932 1342.203390 1046.779661 1342.203390 1046.779661 1338.135593
C 1046.779661 1334.067797 1041.355932 1334.067797 1041.355932 1338.135593
M 1054.915254 1338.135593
C 1054.915254 1342.203390 1060.338983 1342.203390 1060.338983 1338.135593
C 1060.338983 1334.067797 1054.915254 1334.067797 1054.915254 1338.135593
M 1083.389831 1353.050847
L 1099.661017 1391.016949
M 1115.932203 1353.050847
L 1099.661017 1391.016949
C 1091.525424 1410.000000 1088.813559 1411.355932 1080.677966 1408.644068
M 1095.593220 1340.847458
L 1103.728814 1330.000000
M 1132.203390 1334.067797
L 1132.203390 1410.000000
M 1132.203390 1361.186441
C 1136.271186 1355.762712 1140.338983 1353.050847 1147.118644 1353.050847
C 1162.033898 1353.050847 1164.745763 1365.254237 1164.745763 1372.033898
C 1164.745763 1378.813559 1162.033898 1391.016949 1147.118644 1391.016949
C 1140.338983 1391.016949 1136.271186 1388.305085 1132.203390 1382.881356
M 1181.016949 1353.050847
L 1197.288136 1391.016949
M 1213.559322 1353.050847
L 1197.288136 1391.016949
C 1189.152542 1410.000000 1186.440678 1411.355932 1178.305085 1408.644068
M 1187.796610 1338.135593
C 1187.796610 1342.203390 1193.220339 1342.203390 1193.220339 1338.135593
C 1193.220339 1334.067797 1187.796610 1334.067797 1187.796610 1338.135593
M 1201.355932 1338.135593
C 1201.355932 1342.203390 1206.779661 1342.203390 1206.779661 1338.135593
C 1206.779661 1334.067797 1201.355932 1334.067797 1201.355932 1338.135593
M 446.153846 1450.000000
L 446.153846 1526.923077
M 492.307692 1490.000000
L 516.923077 1490.000000
M 535.384615 1490.000000
L 560.000000 1490.000000
M 578.461538 1490.000000
L 624.615385 1490.000000
M 643.076923 1490.000000
L 676.923077 1490.000000
M 695.384615 1517.692308
M 695.384615 1490.000000
L 744.615385 1490.000000
M 763.076923 1490.000000
L 824.615385 1490.000000
M 843.076923 1453.076923
L 843.076923 1517.692308
M 855.384615 1517.692308
L 855.384615 1453.076923
M 873.846154 1517.692308
L 910.769231 1517.692308
M 910.769231 1505.384615
L 873.846154 1505.384615
M 929.230769 1466.923077
C 929.230769 1465.384615 935.384615 1463.846154 935.384615 1468.461538
C 935.384615 1473.076923 921.538462 1474.615385 935.384615 1453.076923
M 960.000000 1457.692308
C 960.000000 1459.230769 953.846154 1460.769231 953.846154 1456.153846
C 953.846154 1451.538462 967.692308 1450.000000 953.846154 1471.538462
M 984.615385 1516.153846
C 984.615385 1517.692308 978.461538 1519.230769 978.461538 1514.615385
C 978.461538 1510.000000 992.307692 1508.461538 978.461538 1530.000000
M 1003.076923 1457.692308
C 1003.076923 1459.230769 1009.230769 1460.769231 1009.230769 1456.153846
C 1009.230769 1451.538462 995.384615 1450.000000 1009.230769 1471.538462
M 1027.692308 1466.923077
C 1027.692308 1465.384615 1033.846154 1463.846154 1033.846154 1468.461538
C 1033.846154 1473.076923 1020.000000 1474.615385 1033.846154 1453.076923
M 1040.000000 1466.923077
C 1040.000000 1465.384615 1046.153846 1463.846154 1046.153846 1468.461538
C 1046.153846 1473.076923 1032.307692 1474.615385 1046.153846 1453.076923
M 1070.769231 1457.692308
C 1070.769231 1459.230769 1064.615385 1460.769231 1064.615385 1456.153846
C 1064.615385 1451.538462 1078.461538 1450.000000 1064.615385 1471.538462
M 1083.076923 1457.692308
C 1083.076923 1459.230769 1076.923077 1460.769231 1076.923077 1456.153846
C 1076.923077 1451.538462 1090.769231 1450.000000 1076.923077 1471.538462
M 1107.692308 1516.153846
C 1107.692308 1517.692308 1101.538462 1519.230769 1101.538462 1514.615385
C 1101.538462 1510.000000 1115.384615 1508.461538 1101.538462 1530.000000
M 1120.000000 1516.153846
C 1120.000000 1517.692308 1113.846154 1519.230769 1113.846154 1514.615385
C 1113.846154 1510.000000 1127.692308 1508.461538 1113.846154 1530.000000
M 1150.769231 1457.692308
C 1150.769231 1459.230769 1156.923077 1460.769231 1156.923077 1456.153846
C 1156.923077 1451.538462 1143.076923 1450.000000 1156.923077 1471.538462
M 1138.461538 1457.692308
C 1138.461538 1459.230769 1144.615385 1460.769231 1144.615385 1456.153846
C 1144.615385 1451.538462 1130.769231 1450.000000 1144.615385 1471.538462
M 360.000000 1570.000000
L 360.000000 1638.965517
M 417.931034 1572.758621
L 417.931034 1650.000000
M 401.379310 1597.586207
L 434.482759 1597.586207
M 467.586207 1572.758621
L 467.586207 1650.000000
M 451.034483 1597.586207
L 484.137931 1597.586207
M 451.034483 1622.413793
L 484.137931 1622.413793
M 500.689655 1610.000000
C 500.689655 1601.724138 506.206897 1597.586207 513.103448 1597.586207
C 520.000000 1597.586207 525.517241 1603.103448 525.517241 1610.000000
C 525.517241 1616.896552 520.000000 1622.413793 513.103448 1622.413793
C 506.206897 1622.413793 500.689655 1616.896552 500.689655 1610.000000
M 503.448276 1604.482759
L 503.448276 1615.517241
M 506.206897 1618.275862
L 506.206897 1601.724138
M 508.965517 1600.344828
L 508.965517 1619.655172
M 511.724138 1621.034483
L 511.724138 1598.965517
M 514.482759 1598.965517
L 514.482759 1621.034483
M 517.241379 1619.655172
L 517.241379 1600.344828
M 520.000000 1601.724138
L 520.000000 1618.275862
M 522.758621 1615.517241
L 522.758621 1604.482759
M 542.068966 1630.689655
L 542.068966 1572.758621
L 586.206897 1572.758621
L 586.206897 1630.689655
L 542.068966 1630.689655
M 602.758621 1630.689655
L 602.758621 1572.758621
L 646.896552 1572.758621
L 646.896552 1630.689655
L 602.758621 1630.689655
M 663.448276 1630.689655
L 663.448276 1572.758621
L 707.586207 1572.758621
L 707.586207 1630.689655
L 663.448276 1630.689655
M 726.896552 1625.172414
C 725.517241 1625.172414 724.137931 1626.551724 724.137931 1627.931034
C 724.137931 1629.310345 725.517241 1630.689655 726.896552 1630.689655
C 728.275862 1630.689655 729.655172 1629.310345 729.655172 1627.931034
C 729.655172 1626.551724 728.275862 1625.172414 726.896552 1625.172414
M 740.689655 1625.172414
C 739.310345 1625.172414 737.931034 1626.551724 737.931034 1627.931034
C 737.931034 1629.310345 739.310345 1630.689655 740.689655 1630.689655
C 742.068966 1630.689655 743.448276 1629.310345 743.448276 1627.931034
C 743.448276 1626.551724 742.068966 1625.172414 740.689655 1625.172414
M 754.482759 1625.172414
C 753.103448 1625.172414 751.724138 1626.551724 751.724138 1627.931034
C 751.724138 1629.310345 753.103448 1630.689655 754.482759 1630.689655
C 755.862069 1630.689655 757.241379 1629.310345 757.241379 1627.931034
C 757.241379 1626.551724 755.862069 1625.172414 754.482759 1625.172414
M 773.793103 1630.689655
L 773.793103 1572.758621
L 817.931034 1572.758621
L 817.931034 1630.689655
L 773.793103 1630.689655
M 834.482759 1630.689655
L 834.482759 1572.758621
L 878.620690 1572.758621
L 878.620690 1630.689655
L 834.482759 1630.689655
M 895.172414 1630.689655
L 895.172414 1572.758621
L 939.310345 1572.758621
L 939.310345 1630.689655
L 895.172414 1630.689655
M 955.862069 1630.689655
L 955.862069 1572.758621
L 1000.000000 1572.758621
L 1000.000000 1630.689655
L 955.862069 1630.689655
M 1016.551724 1630.689655
L 1016.551724 1572.758621
L 1060.689655 1572.758621
L 1060.689655 1630.689655
L 1016.551724 1630.689655
M 1077.241379 1630.689655
L 1077.241379 1572.758621
L 1121.379310 1572.758621
L 1121.379310 1630.689655
L 1077.241379 1630.689655
M 1137.931034 1630.689655
L 1137.931034 1572.758621
L 1182.068966 1572.758621
L 1182.068966 1630.689655
L 1137.931034 1630.689655
M 1198.620690 1630.689655
L 1198.620690 1572.758621
L 1242.758621 1572.758621
L 1242.758621 1630.689655
L 1198.620690 1630.689655
M 246.400000 1690.000000
L 246.400000 1770.000000
M 313.600000 1710.800000
C 313.600000 1688.400000 294.400000 1688.400000 294.400000 1710.800000
C 294.400000 1733.200000 313.600000 1733.200000 313.600000 1710.800000
M 339.200000 1693.200000
L 307.200000 1760.400000
M 348.800000 1742.800000
C 348.800000 1720.400000 329.600000 1720.400000 329.600000 1742.800000
C 329.600000 1765.200000 348.800000 1765.200000 348.800000 1742.800000
M 380.800000 1742.800000
C 380.800000 1720.400000 361.600000 1720.400000 361.600000 1742.800000
C 361.600000 1765.200000 380.800000 1765.200000 380.800000 1742.800000
M 400.000000 1760.400000
L 400.000000 1693.200000
L 451.200000 1693.200000
L 451.200000 1760.400000
L 400.000000 1760.400000
M 470.400000 1760.400000
L 470.400000 1693.200000
L 521.600000 1693.200000
L 521.600000 1760.400000
L 470.400000 1760.400000
M 540.800000 1760.400000
L 540.800000 1693.200000
L 592.000000 1693.200000
L 592.000000 1760.400000
L 540.800000 1760.400000
M 611.200000 1760.400000
L 611.200000 1693.200000
L 662.400000 1693.200000
L 662.400000 1760.400000
L 611.200000 1760.400000
M 681.600000 1760.400000
L 681.600000 1693.200000
L 732.800000 1693.200000
L 732.800000 1760.400000
L 681.600000 1760.400000
M 752.000000 1760.400000
L 752.000000 1693.200000
L 803.200000 1693.200000
L 803.200000 1760.400000
L 752.000000 1760.400000
M 822.400000 1760.400000
L 822.400000 1693.200000
L 873.600000 1693.200000
L 873.600000 1760.400000
L 822.400000 1760.400000
M 892.800000 1760.400000
L 892.800000 1693.200000
L 944.000000 1693.200000
L 944.000000 1760.400000
L 892.800000 1760.400000
M 974.400000 1715.600000
L 963.200000 1736.400000
L 974.400000 1757.200000
M 993.600000 1715.600000
L 1004.800000 1736.400000
L 993.600000 1757.200000
M 1024.000000 1760.400000
L 1024.000000 1693.200000
L 1075.200000 1693.200000
L 1075.200000 1760.400000
L 1024.000000 1760.400000
M 1094.400000 1760.400000
L 1094.400000 1693.200000
L 1145.600000 1693.200000
L 1145.600000 1760.400000
L 1094.400000 1760.400000
M 1164.800000 1760.400000
L 1164.800000 1693.200000
L 1216.000000 1693.200000
L 1216.000000 1760.400000
L 1164.800000 1760.400000
M 1235.200000 1760.400000
L 1235.200000 1693.200000
L 1286.400000 1693.200000
L 1286.400000 1760.400000
L 1235.200000 1760.400000
M 1305.600000 1760.400000
L 1305.600000 1693.200000
L 1356.800000 1693.200000
L 1356.800000 1760.400000
L 1305.600000 1760.400000
M 451.200000 1810.000000
L 451.200000 1890.000000
M 518.400000 1830.800000
C 518.400000 1808.400000 499.200000 1808.400000 499.200000 1830.800000
C 499.200000 1853.200000 518.400000 1853.200000 518.400000 1830.800000
M 537.600000 1814.800000
C 537.600000 1816.400000 540.800000 1816.400000 540.800000 1814.800000
C 540.800000 1813.200000 537.600000 1813.200000 537.600000 1814.800000
M 539.200000 1822.800000
L 539.200000 1845.200000
M 560.000000 1880.400000
L 560.000000 1813.200000
L 611.200000 1813.200000
L 611.200000 1880.400000
L 560.000000 1880.400000
M 630.400000 1880.400000
L 630.400000 1813.200000
L 681.600000 1813.200000
L 681.600000 1880.400000
L 630.400000 1880.400000
M 716.800000 1846.800000
L 716.800000 1813.200000
L 700.800000 1838.800000
L 720.000000 1838.800000
M 756.800000 1813.200000
L 740.800000 1813.200000
L 739.200000 1829.200000
C 747.200000 1826.000000 758.400000 1827.600000 758.400000 1837.200000
C 758.400000 1848.400000 742.400000 1848.400000 739.200000 1845.200000
M 795.200000 1814.800000
C 793.600000 1813.200000 777.600000 1810.000000 777.600000 1832.400000
C 777.600000 1853.200000 796.800000 1848.400000 796.800000 1837.200000
C 796.800000 1827.600000 780.800000 1822.800000 779.200000 1837.200000
M 816.000000 1813.200000
L 835.200000 1813.200000
L 822.400000 1846.800000
M 872.000000 1821.200000
C 872.000000 1811.600000 856.000000 1811.600000 856.000000 1821.200000
C 856.000000 1830.800000 873.600000 1829.200000 873.600000 1838.800000
C 873.600000 1850.000000 854.400000 1850.000000 854.400000 1838.800000
C 854.400000 1829.200000 872.000000 1830.800000 872.000000 1821.200000
M 894.400000 1846.800000
C 897.600000 1846.800000 912.000000 1851.600000 912.000000 1829.200000
C 912.000000 1806.800000 892.800000 1811.600000 892.800000 1822.800000
C 892.800000 1834.000000 908.800000 1837.200000 910.400000 1824.400000
M 945.600000 1818.000000
L 945.600000 1846.800000
M 931.200000 1832.400000
L 960.000000 1832.400000
M 979.200000 1832.400000
L 1008.000000 1832.400000
M 1027.200000 1827.600000
L 1056.000000 1827.600000
M 1027.200000 1837.200000
L 1056.000000 1837.200000
M 1084.800000 1811.600000
C 1073.600000 1822.800000 1073.600000 1840.400000 1084.800000 1851.600000
M 1104.000000 1811.600000
C 1116.800000 1822.800000 1116.800000 1840.400000 1104.000000 1851.600000
M 1132.800000 1824.400000
L 1132.800000 1846.800000
M 1132.800000 1834.000000
C 1136.000000 1822.800000 1152.000000 1821.200000 1152.000000 1834.000000
L 1152.000000 1846.800000
M 459.200000 1930.000000
L 459.200000 2010.000000
M 526.400000 1987.600000
C 526.400000 1965.200000 507.200000 1965.200000 507.200000 1987.600000
C 507.200000 2010.000000 526.400000 2010.000000 526.400000 1987.600000
M 548.800000 1976.400000
C 552.000000 1976.400000 555.200000 1973.200000 556.800000 1970.000000
L 556.800000 2003.600000
M 585.600000 1971.600000
C 587.200000 1970.000000 603.200000 1966.800000 603.200000 1979.600000
C 603.200000 1984.400000 600.000000 1987.600000 584.000000 2003.600000
L 603.200000 2003.600000
M 624.000000 1971.600000
C 643.200000 1965.200000 649.600000 1986.000000 627.200000 1986.000000
C 649.600000 1986.000000 644.800000 2010.000000 622.400000 2002.000000
M 676.800000 2003.600000
L 676.800000 1970.000000
L 660.800000 1995.600000
L 680.000000 1995.600000
M 716.800000 1970.000000
L 700.800000 1970.000000
L 699.200000 1986.000000
C 707.200000 1982.800000 718.400000 1984.400000 718.400000 1994.000000
C 718.400000 2005.200000 702.400000 2005.200000 699.200000 2002.000000
M 755.200000 1971.600000
C 753.600000 1970.000000 737.600000 1966.800000 737.600000 1989.200000
C 737.600000 2010.000000 756.800000 2005.200000 756.800000 1994.000000
C 756.800000 1984.400000 740.800000 1979.600000 739.200000 1994.000000
M 776.000000 1970.000000
L 795.200000 1970.000000
L 782.400000 2003.600000
M 832.000000 1978.000000
C 832.000000 1968.400000 816.000000 1968.400000 816.000000 1978.000000
C 816.000000 1987.600000 833.600000 1986.000000 833.600000 1995.600000
C 833.600000 2006.800000 814.400000 2006.800000 814.400000 1995.600000
C 814.400000 1986.000000 832.000000 1987.600000 832.000000 1978.000000
M 854.400000 2003.600000
C 857.600000 2003.600000 872.000000 2008.400000 872.000000 1986.000000
C 872.000000 1963.600000 852.800000 1968.400000 852.800000 1979.600000
C 852.800000 1990.800000 868.800000 1994.000000 870.400000 1981.200000
M 905.600000 1974.800000
L 905.600000 2003.600000
M 891.200000 1989.200000
L 920.000000 1989.200000
M 939.200000 1981.200000
L 968.000000 1981.200000
M 987.200000 1984.400000
L 1016.000000 1984.400000
M 987.200000 1994.000000
L 1016.000000 1994.000000
M 1044.800000 1968.400000
C 1033.600000 1979.600000 1033.600000 1997.200000 1044.800000 2008.400000
M 1064.000000 1968.400000
C 1076.800000 1979.600000 1076.800000 1997.200000 1064.000000 2008.400000
M 1092.800000 2000.400000
L 1092.800000 1933.200000
L 1144.000000 1933.200000
L 1144.000000 2000.400000
L 1092.800000 2000.400000
M 460.377358 2050.000000
L 460.377358 2125.471698
M 507.169811 2099.811321
C 514.716981 2096.792453 523.773585 2098.301887 523.773585 2107.358491
L 523.773585 2119.433962
M 523.773585 2108.867925
C 516.226415 2107.358491 505.660377 2107.358491 505.660377 2114.905660
C 505.660377 2122.452830 523.773585 2120.943396 523.773585 2110.377358
M 541.886792 2108.867925
L 560.000000 2108.867925
C 560.000000 2095.283019 541.886792 2095.283019 541.886792 2108.867925
C 541.886792 2119.433962 552.452830 2120.943396 560.000000 2117.924528
M 596.226415 2108.867925
C 596.226415 2095.283019 578.113208 2095.283019 578.113208 2108.867925
C 578.113208 2123.962264 596.226415 2123.962264 596.226415 2108.867925
M 614.339623 2098.301887
L 630.943396 2119.433962
M 630.943396 2098.301887
L 614.339623 2119.433962
M 667.169811 2108.867925
L 649.056604 2108.867925
C 649.056604 2122.452830 667.169811 2122.452830 667.169811 2108.867925
C 667.169811 2098.301887 656.603774 2096.792453 649.056604 2099.811321
M 685.283019 2087.735849
L 685.283019 2119.433962
M 685.283019 2107.358491
C 688.301887 2096.792453 703.396226 2095.283019 703.396226 2107.358491
L 703.396226 2119.433962
M 721.509434 2087.735849
L 721.509434 2119.433962
M 736.603774 2098.301887
L 721.509434 2113.396226
M 727.547170 2107.358491
L 738.113208 2119.433962
M 757.735849 2087.735849
L 757.735849 2119.433962
M 777.358491 2098.301887
L 777.358491 2119.433962
M 777.358491 2107.358491
C 778.867925 2098.301887 792.452830 2093.773585 792.452830 2107.358491
L 792.452830 2119.433962
M 792.452830 2107.358491
C 793.962264 2098.301887 807.547170 2093.773585 807.547170 2107.358491
L 807.547170 2119.433962
M 825.660377 2098.301887
L 825.660377 2119.433962
M 825.660377 2107.358491
C 828.679245 2096.792453 843.773585 2095.283019 843.773585 2107.358491
L 843.773585 2119.433962
M 861.886792 2130.000000
L 861.886792 2098.301887
M 861.886792 2108.867925
C 861.886792 2122.452830 880.000000 2122.452830 880.000000 2108.867925
C 880.000000 2095.283019 861.886792 2095.283019 861.886792 2108.867925
M 913.207547 2099.811321
C 911.698113 2098.301887 898.113208 2096.792453 898.113208 2104.339623
C 898.113208 2108.867925 914.716981 2108.867925 914.716981 2114.905660
C 914.716981 2120.943396 904.150943 2119.433962 899.622642 2117.924528
M 937.358491 2087.735849
L 937.358491 2111.886792
C 937.358491 2117.924528 938.867925 2120.943396 943.396226 2119.433962
M 932.830189 2096.792453
L 941.886792 2096.792453
M 961.509434 2116.415094
L 961.509434 2053.018868
L 1009.811321 2053.018868
L 1009.811321 2116.415094
L 961.509434 2116.415094
M 1027.924528 2116.415094
L 1027.924528 2053.018868
L 1076.226415 2053.018868
L 1076.226415 2116.415094
L 1027.924528 2116.415094
M 1094.339623 2116.415094
L 1094.339623 2053.018868
L 1142.641509 2053.018868
L 1142.641509 2116.415094
L 1094.339623 2116.415094
M 225.600000 2170.000000
L 225.600000 2250.000000
M 273.600000 2240.400000
L 273.600000 2173.200000
L 324.800000 2173.200000
L 324.800000 2240.400000
L 273.600000 2240.400000
M 344.000000 2240.400000
L 344.000000 2173.200000
L 395.200000 2173.200000
L 395.200000 2240.400000
L 344.000000 2240.400000
M 414.400000 2240.400000
L 414.400000 2173.200000
L 465.600000 2173.200000
L 465.600000 2240.400000
L 414.400000 2240.400000
M 484.800000 2240.400000
L 484.800000 2173.200000
L 536.000000 2173.200000
L 536.000000 2240.400000
L 484.800000 2240.400000
M 555.200000 2240.400000
L 555.200000 2173.200000
L 606.400000 2173.200000
L 606.400000 2240.400000
L 555.200000 2240.400000
M 625.600000 2240.400000
L 625.600000 2173.200000
L 676.800000 2173.200000
L 676.800000 2240.400000
L 625.600000 2240.400000
M 696.000000 2240.400000
L 696.000000 2173.200000
L 747.200000 2173.200000
L 747.200000 2240.400000
L 696.000000 2240.400000
M 766.400000 2240.400000
L 766.400000 2173.200000
L 817.600000 2173.200000
L 817.600000 2240.400000
L 766.400000 2240.400000
M 836.800000 2240.400000
L 836.800000 2173.200000
L 888.000000 2173.200000
L 888.000000 2240.400000
L 836.800000 2240.400000
M 907.200000 2240.400000
L 907.200000 2173.200000
L 958.400000 2173.200000
L 958.400000 2240.400000
L 907.200000 2240.400000
M 977.600000 2240.400000
L 977.600000 2173.200000
L 1028.800000 2173.200000
L 1028.800000 2240.400000
L 977.600000 2240.400000
M 1048.000000 2240.400000
L 1048.000000 2173.200000
L 1099.200000 2173.200000
L 1099.200000 2240.400000
L 1048.000000 2240.400000
M 1166.400000 2176.400000
C 1147.200000 2168.400000 1118.400000 2176.400000 1118.400000 2206.800000
C 1118.400000 2237.200000 1147.200000 2245.200000 1166.400000 2237.200000
M 1160.000000 2213.200000
L 1115.200000 2213.200000
M 1115.200000 2200.400000
L 1163.200000 2200.400000
M 1185.600000 2240.400000
L 1185.600000 2173.200000
L 1236.800000 2173.200000
L 1236.800000 2240.400000
L 1185.600000 2240.400000
M 1256.000000 2240.400000
L 1256.000000 2173.200000
L 1307.200000 2173.200000
L 1307.200000 2240.400000
L 1256.000000 2240.400000
M 1326.400000 2240.400000
L 1326.400000 2173.200000
L 1377.600000 2173.200000
L 1377.600000 2240.400000
L 1326.400000 2240.400000
"/>
</svg>