<?xml version="1.0" encoding="UTF-8" standalone="no"?>
<svg version="1.1"
  xmlns="http://www.w3.org/2000/svg"
  xmlns:svg="http://www.w3.org/2000/svg"
  width="1600" height="2280">
<path fill="none" stroke-width="4" stroke="black" stroke-linecap="round" stroke-linejoin="round" d="
M 466.250000 10.000000
L 466.250000 90.000000
M 523.750000 20.000000
L 523.750000 55.000000
M 523.750000 67.500000
C 522.500000 67.500000 521.250000 68.750000 521.250000 70.000000
C 521.250000 71.250000 522.500000 72.500000 523.750000 72.500000
C 525.000000 72.500000 526.250000 71.250000 526.250000 70.000000
C 526.250000 68.750000 525.000000 67.500000 523.750000 67.500000
M 541.250000 20.000000
L 541.250000 37.500000
M 561.250000 20.000000
L 561.250000 37.500000
M 596.250000 10.000000
L 578.750000 90.000000
M 611.250000 10.000000
L 593.750000 90.000000
M 578.750000 42.500000
L 613.750000 42.500000
M 576.250000 57.500000
L 611.250000 57.500000
M 641.250000 10.000000
L 641.250000 82.500000
M 651.250000 10.000000
L 651.250000 82.500000
M 663.750000 27.500000
C 658.750000 20.000000 651.250000 20.000000 646.250000 20.000000
C 641.250000 20.000000 628.750000 20.000000 628.750000 30.000000
C 628.750000 41.250000 638.750000 42.500000 646.250000 45.000000
C 653.750000 47.500000 663.750000 48.750000 663.750000 61.250000
C 663.750000 72.500000 651.250000 72.500000 646.250000 72.500000
C 641.250000 72.500000 633.750000 72.500000 628.750000 65.000000
M 723.750000 20.000000
L 678.750000 72.500000
M 691.250000 20.000000
C 693.750000 21.250000 696.250000 22.500000 696.250000 27.500000
C 696.250000 35.000000 692.500000 37.500000 686.250000 37.500000
C 681.250000 37.500000 678.750000 35.000000 678.750000 30.000000
C 678.750000 23.750000 682.500000 20.000000 688.750000 20.000000
L 691.250000 20.000000
C 701.250000 26.250000 713.750000 26.250000 723.750000 20.000000
M 713.750000 55.000000
C 708.750000 55.000000 706.250000 58.750000 706.250000 65.000000
C 706.250000 70.000000 708.750000 72.500000 713.750000 72.500000
C 720.000000 72.500000 723.750000 70.000000 723.750000 62.500000
C 723.750000 57.500000 721.250000 55.000000 716.250000 55.000000
L 713.750000 55.000000
M 788.750000 41.250000
C 787.500000 38.750000 786.250000 37.500000 783.750000 37.500000
C 775.000000 37.500000 778.750000 72.500000 753.750000 72.500000
C 741.250000 72.500000 738.750000 63.750000 738.750000 60.000000
C 738.750000 42.500000 766.250000 47.500000 766.250000 30.000000
C 766.250000 22.500000 763.750000 20.000000 758.750000 20.000000
C 755.000000 20.000000 751.250000 21.250000 751.250000 30.000000
C 751.250000 38.750000 770.000000 72.500000 783.750000 72.500000
C 786.250000 72.500000 787.500000 71.250000 788.750000 68.750000
M 808.750000 22.500000
C 808.750000 23.750000 807.500000 25.000000 806.250000 25.000000
C 805.000000 25.000000 803.750000 23.750000 803.750000 22.500000
C 803.750000 21.250000 805.000000 20.000000 806.250000 20.000000
C 807.500000 20.000000 808.750000 21.250000 808.750000 22.500000
C 808.750000 30.000000 806.250000 32.500000 803.750000 35.000000
M 841.250000 10.000000
C 817.500000 32.500000 817.500000 66.250000 841.250000 90.000000
M 856.250000 10.000000
C 880.000000 30.000000 880.000000 70.000000 856.250000 90.000000
M 901.250000 35.000000
L 901.250000 65.000000
M 888.750000 42.500000
L 913.750000 57.500000
M 913.750000 42.500000
L 888.750000 57.500000
M 951.250000 27.500000
L 951.250000 72.500000
M 928.750000 50.000000
L 973.750000 50.000000
M 993.750000 70.000000
C 993.750000 71.250000 992.500000 72.500000 991.250000 72.500000
C 990.000000 72.500000 988.750000 71.250000 988.750000 70.000000
C 988.750000 68.750000 990.000000 67.500000 991.250000 67.500000
C 992.500000 67.500000 993.750000 68.750000 993.750000 70.000000
C 993.750000 77.500000 991.250000 80.000000 988.750000 82.500000
M 1008.750000 50.000000
L 1053.750000 50.000000
M 1071.250000 67.500000
C 1070.000000 67.500000 1068.750000 68.750000 1068.750000 70.000000
C 1068.750000 71.250000 1070.000000 72.500000 1071.250000 72.500000
C 1072.500000 72.500000 1073.750000 71.250000 1073.750000 70.000000
C 1073.750000 68.750000 1072.500000 67.500000 1071.250000 67.500000
M 1133.750000 10.000000
L 1088.750000 90.000000
M 412.500000 130.000000
L 412.500000 210.000000
M 465.000000 140.000000
C 458.750000 140.000000 447.500000 140.000000 447.500000 166.250000
C 447.500000 192.500000 458.750000 192.500000 465.000000 192.500000
C 471.250000 192.500000 482.500000 192.500000 482.500000 166.250000
C 482.500000 140.000000 471.250000 140.000000 465.000000 140.000000
M 506.250000 150.000000
C 511.250000 148.750000 516.250000 145.000000 518.750000 140.000000
L 518.750000 192.500000
M 550.000000 152.500000
C 550.000000 150.000000 550.000000 140.000000 565.000000 140.000000
C 580.000000 140.000000 580.000000 150.000000 580.000000 152.500000
C 580.000000 155.000000 578.750000 161.250000 560.000000 180.000000
L 547.500000 192.500000
L 582.500000 192.500000
M 602.500000 140.000000
L 630.000000 140.000000
L 615.000000 160.000000
C 623.750000 160.000000 632.500000 160.000000 632.500000 175.000000
C 632.500000 192.500000 618.750000 192.500000 613.750000 192.500000
C 607.500000 192.500000 601.250000 191.250000 597.500000 182.500000
M 672.500000 192.500000
L 672.500000 140.000000
L 647.500000 175.000000
L 685.000000 175.000000
M 727.500000 140.000000
L 702.500000 140.000000
L 700.000000 162.500000
C 703.750000 158.750000 710.000000 157.500000 713.750000 157.500000
C 717.500000 157.500000 732.500000 157.500000 732.500000 175.000000
C 732.500000 192.500000 717.500000 192.500000 713.750000 192.500000
C 710.000000 192.500000 701.250000 192.500000 697.500000 182.500000
M 777.500000 147.500000
C 775.000000 141.250000 771.250000 140.000000 765.000000 140.000000
C 758.750000 140.000000 747.500000 141.250000 747.500000 168.750000
C 747.500000 191.250000 758.750000 192.500000 763.750000 192.500000
C 770.000000 192.500000 780.000000 188.750000 780.000000 176.250000
C 780.000000 170.000000 776.250000 160.000000 763.750000 160.000000
C 760.000000 160.000000 748.750000 162.500000 747.500000 175.000000
M 797.500000 140.000000
L 832.500000 140.000000
L 807.500000 192.500000
M 865.000000 140.000000
C 853.750000 140.000000 850.000000 142.500000 850.000000 150.000000
C 850.000000 170.000000 882.500000 152.500000 882.500000 178.750000
C 882.500000 192.500000 870.000000 192.500000 865.000000 192.500000
C 860.000000 192.500000 847.500000 192.500000 847.500000 178.750000
C 847.500000 152.500000 880.000000 170.000000 880.000000 150.000000
C 880.000000 142.500000 876.250000 140.000000 865.000000 140.000000
M 930.000000 157.500000
C 928.750000 172.500000 913.750000 172.500000 913.750000 172.500000
C 907.500000 172.500000 897.500000 168.750000 897.500000 156.250000
C 897.500000 150.000000 901.250000 140.000000 913.750000 140.000000
C 927.500000 140.000000 930.000000 152.500000 930.000000 163.750000
C 930.000000 175.000000 927.500000 192.500000 912.500000 192.500000
C 906.250000 192.500000 902.500000 190.000000 900.000000 185.000000
M 950.000000 157.500000
C 948.750000 157.500000 947.500000 158.750000 947.500000 160.000000
C 947.500000 161.250000 948.750000 162.500000 950.000000 162.500000
C 951.250000 162.500000 952.500000 161.250000 952.500000 160.000000
C 952.500000 158.750000 951.250000 157.500000 950.000000 157.500000
M 950.000000 187.500000
C 948.750000 187.500000 947.500000 188.750000 947.500000 190.000000
C 947.500000 191.250000 948.750000 192.500000 950.000000 192.500000
C 951.250000 192.500000 952.500000 191.250000 952.500000 190.000000
C 952.500000 188.750000 951.250000 187.500000 950.000000 187.500000
M 970.000000 157.500000
C 968.750000 157.500000 967.500000 158.750000 967.500000 160.000000
C 967.500000 161.250000 968.750000 162.500000 970.000000 162.500000
C 971.250000 162.500000 972.500000 161.250000 972.500000 160.000000
C 972.500000 158.750000 971.250000 157.500000 970.000000 157.500000
M 972.500000 190.000000
C 972.500000 191.250000 971.250000 192.500000 970.000000 192.500000
C 968.750000 192.500000 967.500000 191.250000 967.500000 190.000000
C 967.500000 188.750000 968.750000 187.500000 970.000000 187.500000
C 971.250000 187.500000 972.500000 188.750000 972.500000 190.000000
C 972.500000 196.250000 970.000000 200.000000 967.500000 202.500000
M 1027.500000 147.500000
L 987.500000 170.000000
L 1027.500000 192.500000
M 1042.500000 162.500000
L 1087.500000 162.500000
M 1042.500000 177.500000
L 1087.500000 177.500000
M 1102.500000 147.500000
L 1142.500000 170.000000
L 1102.500000 192.500000
M 1157.500000 152.500000
C 1157.500000 150.000000 1157.500000 140.000000 1172.500000 140.000000
C 1187.500000 140.000000 1187.500000 150.000000 1187.500000 152.500000
C 1187.500000 156.250000 1187.500000 162.500000 1172.500000 167.500000
L 1172.500000 175.000000
M 1172.500000 187.500000
C 1168.750000 187.500000 1168.750000 192.500000 1172.500000 192.500000
C 1176.250000 192.500000 1176.250000 187.500000 1172.500000 187.500000
M 398.750000 250.000000
L 398.750000 330.000000
M 471.250000 280.000000
C 468.750000 273.750000 463.750000 272.500000 460.000000 272.500000
C 446.250000 272.500000 446.250000 283.750000 446.250000 288.750000
C 446.250000 296.250000 447.500000 300.000000 457.500000 300.000000
C 471.250000 300.000000 468.750000 286.250000 471.250000 272.500000
C 467.500000 300.000000 471.250000 300.000000 476.250000 300.000000
C 485.000000 300.000000 486.250000 288.750000 486.250000 285.000000
C 486.250000 270.000000 476.250000 260.000000 460.000000 260.000000
C 445.000000 260.000000 433.750000 270.000000 433.750000 286.250000
C 433.750000 301.250000 443.750000 312.500000 460.000000 312.500000
C 471.250000 312.500000 476.250000 308.750000 478.750000 305.000000
M 501.250000 312.500000
L 521.250000 260.000000
L 541.250000 312.500000
M 508.750000 295.000000
L 533.750000 295.000000
M 556.250000 312.500000
L 556.250000 260.000000
L 578.750000 260.000000
C 596.250000 260.000000 596.250000 285.000000 578.750000 285.000000
M 556.250000 285.000000
L 578.750000 285.000000
C 596.250000 285.000000 596.250000 312.500000 578.750000 312.500000
L 556.250000 312.500000
M 643.750000 272.500000
C 638.750000 260.000000 632.500000 260.000000 626.250000 260.000000
C 608.750000 260.000000 606.250000 276.250000 606.250000 286.250000
C 606.250000 296.250000 608.750000 312.500000 626.250000 312.500000
C 632.500000 312.500000 638.750000 312.500000 643.750000 300.000000
M 658.750000 312.500000
L 658.750000 260.000000
L 676.250000 260.000000
C 700.000000 260.000000 700.000000 312.500000 676.250000 312.500000
L 658.750000 312.500000
M 741.250000 260.000000
L 708.750000 260.000000
L 708.750000 312.500000
L 741.250000 312.500000
M 708.750000 285.000000
L 728.750000 285.000000
M 788.750000 260.000000
L 756.250000 260.000000
L 756.250000 312.500000
M 756.250000 285.000000
L 776.250000 285.000000
M 841.250000 272.500000
C 836.250000 260.000000 830.000000 260.000000 823.750000 260.000000
C 806.250000 260.000000 803.750000 276.250000 803.750000 286.250000
C 803.750000 296.250000 806.250000 312.500000 823.750000 312.500000
C 838.750000 312.500000 841.250000 303.750000 841.250000 292.500000
L 828.750000 292.500000
M 856.250000 260.000000
L 856.250000 312.500000
M 891.250000 260.000000
L 891.250000 312.500000
M 856.250000 285.000000
L 891.250000 285.000000
M 906.250000 260.000000
L 906.250000 312.500000
M 946.250000 260.000000
L 946.250000 300.000000
C 946.250000 316.250000 921.250000 316.250000 921.250000 300.000000
L 921.250000 295.000000
M 961.250000 260.000000
L 961.250000 312.500000
M 996.250000 260.000000
L 961.250000 295.000000
M 973.750000 282.500000
L 996.250000 312.500000
M 1011.250000 260.000000
L 1011.250000 312.500000
L 1041.250000 312.500000
M 1056.250000 312.500000
L 1056.250000 260.000000
L 1076.250000 312.500000
L 1096.250000 260.000000
L 1096.250000 312.500000
M 1111.250000 312.500000
L 1111.250000 260.000000
L 1146.250000 312.500000
L 1146.250000 260.000000
M 1181.250000 260.000000
C 1163.750000 260.000000 1161.250000 276.250000 1161.250000 286.250000
C 1161.250000 296.250000 1163.750000 312.500000 1181.250000 312.500000
C 1198.750000 312.500000 1201.250000 296.250000 1201.250000 286.250000
C 1201.250000 276.250000 1198.750000 260.000000 1181.250000 260.000000
M 380.000000 370.000000
L 380.000000 450.000000
M 415.000000 432.500000
L 415.000000 380.000000
L 437.500000 380.000000
C 455.000000 380.000000 455.000000 407.500000 437.500000 407.500000
L 415.000000 407.500000
M 485.000000 380.000000
C 467.500000 380.000000 465.000000 396.250000 465.000000 406.250000
C 465.000000 416.250000 467.500000 432.500000 485.000000 432.500000
C 502.500000 432.500000 505.000000 416.250000 505.000000 406.250000
C 505.000000 396.250000 502.500000 380.000000 485.000000 380.000000
M 487.500000 422.500000
L 502.500000 437.500000
M 520.000000 432.500000
L 520.000000 380.000000
L 542.500000 380.000000
C 560.000000 380.000000 558.750000 405.000000 542.500000 405.000000
L 520.000000 405.000000
M 537.500000 405.000000
L 555.000000 432.500000
M 605.000000 387.500000
C 601.250000 381.250000 596.250000 380.000000 587.500000 380.000000
C 582.500000 380.000000 570.000000 380.000000 570.000000 390.000000
C 570.000000 411.250000 605.000000 397.500000 605.000000 421.250000
C 605.000000 432.500000 593.750000 432.500000 587.500000 432.500000
C 578.750000 432.500000 573.750000 431.250000 570.000000 425.000000
M 637.500000 380.000000
L 637.500000 432.500000
M 620.000000 380.000000
L 655.000000 380.000000
M 670.000000 380.000000
L 670.000000 417.500000
C 670.000000 437.500000 705.000000 437.500000 705.000000 417.500000
L 705.000000 380.000000
M 720.000000 380.000000
L 740.000000 432.500000
L 760.000000 380.000000
M 775.000000 380.000000
L 787.500000 432.500000
L 800.000000 380.000000
L 812.500000 432.500000
L 825.000000 380.000000
M 840.000000 380.000000
L 875.000000 432.500000
M 875.000000 380.000000
L 840.000000 432.500000
M 890.000000 380.000000
L 910.000000 405.000000
L 910.000000 432.500000
M 930.000000 380.000000
L 910.000000 405.000000
M 945.000000 380.000000
L 980.000000 380.000000
L 945.000000 432.500000
L 980.000000 432.500000
M 1012.500000 377.500000
L 995.000000 377.500000
L 995.000000 432.500000
L 1012.500000 432.500000
M 1027.500000 370.000000
L 1072.500000 450.000000
M 1087.500000 377.500000
L 1105.000000 377.500000
L 1105.000000 432.500000
L 1087.500000 432.500000
M 1120.000000 410.000000
L 1140.000000 375.000000
L 1160.000000 410.000000
M 1175.000000 432.500000
L 1220.000000 432.500000
M 477.500000 490.000000
L 477.500000 570.000000
M 512.500000 512.500000
C 512.500000 511.250000 513.750000 510.000000 515.000000 510.000000
C 516.250000 510.000000 517.500000 511.250000 517.500000 512.500000
C 517.500000 513.750000 516.250000 515.000000 515.000000 515.000000
C 513.750000 515.000000 512.500000 513.750000 512.500000 512.500000
C 512.500000 505.000000 515.000000 502.500000 517.500000 500.000000
M 562.500000 517.500000
L 562.500000 552.500000
M 562.500000 525.000000
C 558.750000 518.750000 555.000000 517.500000 548.750000 517.500000
C 535.000000 517.500000 532.500000 528.750000 532.500000 535.000000
C 532.500000 541.250000 535.000000 552.500000 548.750000 552.500000
C 555.000000 552.500000 558.750000 551.250000 562.500000 545.000000
M 577.500000 500.000000
L 577.500000 552.500000
M 577.500000 525.000000
C 581.250000 520.000000 585.000000 517.500000 591.250000 517.500000
C 605.000000 517.500000 607.500000 528.750000 607.500000 535.000000
C 607.500000 541.250000 605.000000 552.500000 591.250000 552.500000
C 585.000000 552.500000 581.250000 550.000000 577.500000 545.000000
M 652.500000 525.000000
C 648.750000 520.000000 645.000000 517.500000 638.750000 517.500000
C 625.000000 517.500000 622.500000 528.750000 622.500000 535.000000
C 622.500000 541.250000 625.000000 552.500000 638.750000 552.500000
C 645.000000 552.500000 648.750000 550.000000 652.500000 545.000000
M 697.500000 500.000000
L 697.500000 552.500000
M 697.500000 525.000000
C 693.750000 520.000000 690.000000 517.500000 683.750000 517.500000
C 670.000000 517.500000 667.500000 528.750000 667.500000 535.000000
C 667.500000 541.250000 670.000000 552.500000 683.750000 552.500000
C 690.000000 552.500000 693.750000 550.000000 697.500000 545.000000
M 712.500000 532.500000
L 742.500000 532.500000
C 742.500000 527.500000 742.500000 517.500000 728.750000 517.500000
C 715.000000 517.500000 712.500000 528.750000 712.500000 535.000000
C 712.500000 541.250000 715.000000 552.500000 728.750000 552.500000
C 735.000000 552.500000 738.750000 550.000000 742.500000 545.000000
M 777.500000 500.000000
C 767.500000 500.000000 765.000000 502.500000 765.000000 510.000000
L 765.000000 552.500000
M 757.500000 517.500000
L 775.000000 517.500000
M 822.500000 517.500000
L 822.500000 557.500000
C 821.250000 570.000000 812.500000 570.000000 808.750000 570.000000
C 805.000000 570.000000 802.500000 570.000000 800.000000 567.500000
M 822.500000 525.000000
C 818.750000 520.000000 815.000000 517.500000 808.750000 517.500000
C 795.000000 517.500000 792.500000 528.750000 792.500000 535.000000
C 792.500000 541.250000 795.000000 552.500000 808.750000 552.500000
C 815.000000 552.500000 818.750000 550.000000 822.500000 545.000000
M 837.500000 500.000000
L 837.500000 552.500000
M 837.500000 527.500000
C 847.500000 512.500000 865.000000 513.750000 865.000000 527.500000
L 865.000000 552.500000
M 880.000000 500.000000
C 880.000000 503.750000 885.000000 503.750000 885.000000 500.000000
C 885.000000 496.250000 880.000000 496.250000 880.000000 500.000000
M 882.500000 517.500000
L 882.500000 552.500000
M 900.000000 500.000000
C 900.000000 503.750000 905.000000 503.750000 905.000000 500.000000
C 905.000000 496.250000 900.000000 496.250000 900.000000 500.000000
M 902.500000 517.500000
L 902.500000 560.000000
C 902.500000 568.750000 898.750000 570.000000 890.000000 570.000000
M 920.000000 500.000000
L 920.000000 552.500000
M 945.000000 517.500000
L 920.000000 542.500000
M 930.000000 532.500000
L 947.500000 552.500000
M 962.500000 500.000000
L 962.500000 552.500000
M 977.500000 517.500000
L 977.500000 552.500000
M 977.500000 527.500000
C 983.750000 516.250000 1005.000000 511.250000 1005.000000 527.500000
L 1005.000000 552.500000
M 1005.000000 527.500000
C 1011.250000 516.250000 1032.500000 511.250000 1032.500000 527.500000
L 1032.500000 552.500000
M 1047.500000 517.500000
L 1047.500000 552.500000
M 1047.500000 527.500000
C 1052.500000 517.500000 1075.000000 510.000000 1075.000000 527.500000
L 1075.000000 552.500000
M 1106.250000 517.500000
C 1092.500000 517.500000 1090.000000 528.750000 1090.000000 535.000000
C 1090.000000 541.250000 1092.500000 552.500000 1106.250000 552.500000
C 1120.000000 552.500000 1122.500000 541.250000 1122.500000 535.000000
C 1122.500000 528.750000 1120.000000 517.500000 1106.250000 517.500000
M 480.000000 610.000000
L 480.000000 690.000000
M 515.000000 637.500000
L 515.000000 690.000000
M 515.000000 645.000000
C 518.750000 640.000000 522.500000 637.500000 528.750000 637.500000
C 542.500000 637.500000 545.000000 648.750000 545.000000 655.000000
C 545.000000 661.250000 542.500000 672.500000 528.750000 672.500000
C 522.500000 672.500000 518.750000 670.000000 515.000000 665.000000
M 590.000000 637.500000
L 590.000000 690.000000
M 590.000000 645.000000
C 586.250000 640.000000 582.500000 637.500000 576.250000 637.500000
C 562.500000 637.500000 560.000000 648.750000 560.000000 655.000000
C 560.000000 661.250000 562.500000 672.500000 576.250000 672.500000
C 582.500000 672.500000 586.250000 670.000000 590.000000 665.000000
M 605.000000 637.500000
L 605.000000 672.500000
M 605.000000 652.500000
C 607.500000 638.750000 613.750000 637.500000 625.000000 637.500000
M 667.500000 645.000000
C 667.500000 638.750000 660.000000 637.500000 653.750000 637.500000
C 645.000000 637.500000 640.000000 640.000000 640.000000 645.000000
C 640.000000 658.750000 667.500000 647.500000 667.500000 663.750000
C 667.500000 672.500000 661.250000 672.500000 653.750000 672.500000
C 647.500000 672.500000 640.000000 671.250000 640.000000 665.000000
M 690.000000 620.000000
L 690.000000 662.500000
C 690.000000 670.000000 692.500000 672.500000 702.500000 672.500000
M 682.500000 637.500000
L 700.000000 637.500000
M 717.500000 637.500000
L 717.500000 662.500000
C 717.500000 680.000000 740.000000 672.500000 745.000000 662.500000
M 745.000000 637.500000
L 745.000000 672.500000
M 760.000000 637.500000
L 775.000000 672.500000
L 790.000000 637.500000
M 805.000000 637.500000
L 815.000000 672.500000
L 825.000000 637.500000
L 835.000000 672.500000
L 845.000000 637.500000
M 860.000000 637.500000
L 887.500000 672.500000
M 887.500000 637.500000
L 860.000000 672.500000
M 902.500000 637.500000
L 917.500000 672.500000
M 932.500000 637.500000
L 917.500000 672.500000
C 910.000000 688.750000 902.500000 690.000000 900.000000 690.000000
M 947.500000 637.500000
L 975.000000 637.500000
L 947.500000 672.500000
L 975.000000 672.500000
M 1010.000000 617.500000
C 1002.500000 617.500000 997.500000 620.000000 997.500000 627.500000
L 997.500000 645.000000
L 990.000000 645.000000
L 997.500000 645.000000
L 997.500000 662.500000
C 997.500000 670.000000 1002.500000 672.500000 1010.000000 672.500000
M 1025.000000 610.000000
L 1025.000000 690.000000
M 1040.000000 617.500000
C 1047.500000 617.500000 1052.500000 620.000000 1052.500000 627.500000
L 1052.500000 645.000000
L 1060.000000 645.000000
L 1052.500000 645.000000
L 1052.500000 662.500000
C 1052.500000 670.000000 1047.500000 672.500000 1040.000000 672.500000
M 1075.000000 653.750000
C 1092.500000 622.500000 1103.750000 678.750000 1120.000000 647.500000
M 481.875000 730.000000
L 481.875000 810.000000
M 539.375000 757.500000
L 539.375000 792.500000
M 539.375000 745.000000
C 538.125000 745.000000 536.875000 743.750000 536.875000 742.500000
C 536.875000 741.250000 538.125000 740.000000 539.375000 740.000000
C 540.625000 740.000000 541.875000 741.250000 541.875000 742.500000
C 541.875000 743.750000 540.625000 745.000000 539.375000 745.000000
M 586.875000 765.000000
C 583.125000 760.000000 579.375000 757.500000 573.125000 757.500000
C 559.375000 757.500000 556.875000 768.750000 556.875000 775.000000
C 556.875000 781.250000 559.375000 792.500000 573.125000 792.500000
C 579.375000 792.500000 583.125000 790.000000 586.875000 785.000000
M 573.125000 752.500000
L 573.125000 797.500000
M 624.375000 750.000000
C 616.875000 741.250000 609.375000 743.750000 609.375000 750.000000
L 609.375000 792.500000
M 601.875000 772.500000
L 619.375000 772.500000
M 601.875000 792.500000
L 626.875000 792.500000
M 651.875000 760.000000
C 646.875000 760.000000 644.375000 762.500000 644.375000 767.500000
C 644.375000 772.500000 646.875000 775.000000 651.875000 775.000000
C 656.875000 775.000000 659.375000 772.500000 659.375000 767.500000
C 659.375000 762.500000 656.875000 760.000000 651.875000 760.000000
M 641.875000 757.500000
L 645.625000 761.250000
M 661.875000 757.500000
L 658.125000 761.250000
M 641.875000 777.500000
L 645.625000 773.750000
M 661.875000 777.500000
L 658.125000 773.750000
M 676.875000 740.000000
L 696.875000 765.000000
L 696.875000 792.500000
M 716.875000 740.000000
L 696.875000 765.000000
M 681.875000 760.000000
L 711.875000 760.000000
M 681.875000 770.000000
L 711.875000 770.000000
M 731.875000 730.000000
L 731.875000 765.000000
M 731.875000 775.000000
L 731.875000 810.000000
M 760.625000 757.500000
C 751.875000 757.500000 746.875000 760.000000 746.875000 765.000000
C 746.875000 776.250000 768.125000 772.500000 768.125000 783.750000
C 768.125000 788.750000 763.125000 793.750000 751.875000 790.000000
M 756.875000 773.750000
C 765.625000 773.750000 770.625000 771.250000 770.625000 766.250000
C 770.625000 755.000000 749.375000 758.750000 749.375000 747.500000
C 749.375000 742.500000 754.375000 737.500000 765.625000 741.250000
M 788.125000 745.000000
C 786.875000 745.000000 785.625000 743.750000 785.625000 742.500000
C 785.625000 741.250000 786.875000 740.000000 788.125000 740.000000
C 789.375000 740.000000 790.625000 741.250000 790.625000 742.500000
C 790.625000 743.750000 789.375000 745.000000 788.125000 745.000000
M 798.125000 745.000000
C 796.875000 745.000000 795.625000 743.750000 795.625000 742.500000
C 795.625000 741.250000 796.875000 740.000000 798.125000 740.000000
C 799.375000 740.000000 800.625000 741.250000 800.625000 742.500000
C 800.625000 743.750000 799.375000 745.000000 798.125000 745.000000
M 834.375000 755.000000
C 823.125000 755.000000 815.625000 762.500000 815.625000 773.750000
C 815.625000 785.000000 823.125000 792.500000 834.375000 792.500000
C 845.625000 792.500000 853.125000 785.000000 853.125000 773.750000
C 853.125000 762.500000 845.625000 755.000000 834.375000 755.000000
M 843.125000 765.000000
C 841.875000 763.750000 839.375000 761.250000 834.375000 761.250000
C 824.375000 761.250000 821.875000 770.000000 821.875000 773.750000
C 821.875000 778.750000 824.375000 786.250000 834.375000 786.250000
C 839.375000 786.250000 841.875000 783.750000 843.125000 782.500000
M 883.125000 740.000000
L 883.125000 757.500000
M 883.125000 743.750000
C 881.875000 741.250000 879.375000 740.000000 876.875000 740.000000
C 869.375000 740.000000 868.125000 746.250000 868.125000 748.750000
C 868.125000 752.500000 869.375000 757.500000 876.875000 757.500000
C 879.375000 757.500000 881.875000 757.500000 883.125000 753.750000
M 869.375000 762.500000
L 883.125000 762.500000
M 918.125000 757.500000
L 898.125000 773.750000
L 918.125000 790.000000
M 930.625000 757.500000
L 910.625000 773.750000
L 930.625000 790.000000
M 945.625000 762.500000
L 990.625000 762.500000
L 990.625000 777.500000
M 1039.375000 755.000000
C 1028.125000 755.000000 1020.625000 762.500000 1020.625000 773.750000
C 1020.625000 785.000000 1028.125000 792.500000 1039.375000 792.500000
C 1050.625000 792.500000 1058.125000 785.000000 1058.125000 773.750000
C 1058.125000 762.500000 1050.625000 755.000000 1039.375000 755.000000
M 1031.875000 786.250000
L 1031.875000 761.250000
L 1043.125000 761.250000
C 1050.625000 761.250000 1050.625000 773.750000 1043.125000 773.750000
L 1031.875000 773.750000
M 1040.625000 773.750000
L 1048.125000 786.250000
M 1073.125000 738.750000
L 1118.125000 738.750000
M 450.625000 850.000000
L 450.625000 930.000000
M 493.125000 875.000000
C 488.125000 875.000000 485.625000 872.500000 485.625000 867.500000
C 485.625000 862.500000 488.125000 860.000000 493.125000 860.000000
C 498.125000 860.000000 500.625000 862.500000 500.625000 867.500000
C 500.625000 872.500000 498.125000 875.000000 493.125000 875.000000
M 538.125000 867.500000
L 538.125000 897.500000
M 515.625000 882.500000
L 560.625000 882.500000
M 515.625000 905.000000
L 560.625000 905.000000
M 576.875000 866.250000
C 576.875000 865.000000 576.875000 860.000000 584.375000 860.000000
C 591.875000 860.000000 591.875000 865.000000 591.875000 866.250000
C 591.875000 867.500000 591.875000 871.250000 581.875000 880.000000
L 575.625000 886.250000
L 593.125000 886.250000
M 610.625000 860.000000
L 624.375000 860.000000
L 616.875000 870.000000
C 621.875000 870.000000 625.625000 870.000000 625.625000 877.500000
C 625.625000 886.250000 619.375000 886.250000 616.875000 886.250000
C 613.125000 886.250000 610.625000 886.250000 608.125000 881.250000
M 640.625000 866.250000
L 646.875000 860.000000
M 661.875000 918.750000
L 661.875000 877.500000
L 661.875000 901.250000
C 661.875000 920.000000 684.375000 912.500000 689.375000 902.500000
M 689.375000 877.500000
L 689.375000 902.500000
C 689.375000 910.000000 690.625000 911.250000 691.875000 912.500000
M 740.625000 912.500000
L 740.625000 860.000000
L 718.125000 860.000000
C 701.875000 860.000000 701.875000 887.500000 718.125000 887.500000
L 735.625000 887.500000
M 735.625000 860.000000
L 735.625000 912.500000
M 761.875000 883.750000
C 760.625000 883.750000 759.375000 885.000000 759.375000 886.250000
C 759.375000 887.500000 760.625000 888.750000 761.875000 888.750000
C 763.125000 888.750000 764.375000 887.500000 764.375000 886.250000
C 764.375000 885.000000 763.125000 883.750000 761.875000 883.750000
M 801.875000 912.500000
C 804.375000 915.000000 801.875000 922.500000 793.125000 918.750000
M 833.125000 865.000000
M 833.125000 865.000000
C 835.625000 865.000000 838.125000 862.500000 839.375000 860.000000
L 839.375000 886.250000
M 860.625000 882.500000
L 876.875000 882.500000
M 869.375000 860.000000
C 861.875000 860.000000 860.625000 866.250000 860.625000 868.750000
C 860.625000 872.500000 861.875000 877.500000 869.375000 877.500000
C 875.625000 877.500000 876.875000 872.500000 876.875000 868.750000
C 876.875000 866.250000 875.625000 860.000000 869.375000 860.000000
M 891.875000 910.000000
L 911.875000 893.750000
L 891.875000 877.500000
M 904.375000 877.500000
L 924.375000 893.750000
L 904.375000 910.000000
M 945.625000 863.750000
C 948.125000 863.750000 950.625000 862.500000 951.875000 860.000000
L 951.875000 886.250000
M 944.375000 912.500000
L 979.375000 860.000000
M 976.875000 912.500000
L 976.875000 886.250000
L 964.375000 903.750000
L 984.375000 903.750000
M 1028.125000 892.500000
C 1028.125000 891.250000 1028.125000 886.250000 1035.625000 886.250000
C 1043.125000 886.250000 1043.125000 891.250000 1043.125000 892.500000
C 1043.125000 893.750000 1043.125000 896.250000 1033.125000 906.250000
L 1026.875000 912.500000
L 1044.375000 912.500000
M 1005.625000 863.750000
C 1008.125000 863.750000 1010.625000 862.500000 1011.875000 860.000000
L 1011.875000 886.250000
M 1004.375000 912.500000
L 1039.375000 860.000000
M 1061.875000 860.000000
L 1075.625000 860.000000
L 1068.125000 870.000000
C 1073.125000 870.000000 1076.875000 870.000000 1076.875000 877.500000
C 1076.875000 886.250000 1069.375000 886.250000 1068.125000 886.250000
C 1064.375000 886.250000 1061.875000 885.000000 1059.375000 881.250000
M 1064.375000 912.500000
L 1099.375000 860.000000
M 1095.625000 912.500000
L 1095.625000 886.250000
L 1083.125000 903.750000
L 1101.875000 903.750000
M 1119.375000 900.000000
C 1119.375000 902.500000 1119.375000 912.500000 1134.375000 912.500000
C 1149.375000 912.500000 1149.375000 902.500000 1149.375000 900.000000
C 1149.375000 896.250000 1149.375000 890.000000 1134.375000 885.000000
L 1134.375000 877.500000
M 1134.375000 865.000000
C 1130.625000 865.000000 1130.625000 860.000000 1134.375000 860.000000
C 1138.125000 860.000000 1138.125000 865.000000 1134.375000 865.000000
M 438.750000 970.000000
L 438.750000 1050.000000
M 473.750000 1032.500000
L 493.750000 980.000000
L 513.750000 1032.500000
M 481.250000 1015.000000
L 506.250000 1015.000000
M 501.250000 976.250000
L 486.250000 970.000000
M 528.750000 1032.500000
L 548.750000 980.000000
L 568.750000 1032.500000
M 536.250000 1015.000000
L 561.250000 1015.000000
M 541.250000 976.250000
L 556.250000 970.000000
M 583.750000 1032.500000
L 603.750000 980.000000
L 623.750000 1032.500000
M 591.250000 1015.000000
L 616.250000 1015.000000
M 596.250000 976.250000
L 603.750000 970.000000
L 611.250000 976.250000
M 638.750000 1032.500000
L 658.750000 980.000000
L 678.750000 1032.500000
M 646.250000 1015.000000
L 671.250000 1015.000000
M 648.750000 975.000000
C 656.250000 961.250000 661.250000 986.250000 668.750000 972.500000
M 693.750000 1032.500000
L 713.750000 980.000000
L 733.750000 1032.500000
M 701.250000 1015.000000
L 726.250000 1015.000000
M 708.750000 976.250000
C 707.500000 976.250000 706.250000 975.000000 706.250000 973.750000
C 706.250000 972.500000 707.500000 971.250000 708.750000 971.250000
C 710.000000 971.250000 711.250000 972.500000 711.250000 973.750000
C 711.250000 975.000000 710.000000 976.250000 708.750000 976.250000
M 718.750000 976.250000
C 717.500000 976.250000 716.250000 975.000000 716.250000 973.750000
C 716.250000 972.500000 717.500000 971.250000 718.750000 971.250000
C 720.000000 971.250000 721.250000 972.500000 721.250000 973.750000
C 721.250000 975.000000 720.000000 976.250000 718.750000 976.250000
M 768.750000 980.000000
C 766.250000 980.000000 765.000000 978.750000 765.000000 976.250000
C 765.000000 973.750000 766.250000 972.500000 768.750000 972.500000
C 771.250000 972.500000 772.500000 973.750000 772.500000 976.250000
C 772.500000 978.750000 771.250000 980.000000 768.750000 980.000000
M 748.750000 1032.500000
L 768.750000 980.000000
L 788.750000 1032.500000
M 756.250000 1015.000000
L 781.250000 1015.000000
M 826.250000 980.000000
L 826.250000 1032.500000
L 858.750000 1032.500000
M 826.250000 1005.000000
L 846.250000 1005.000000
M 803.750000 1032.500000
L 823.750000 980.000000
L 858.750000 980.000000
M 811.250000 1015.000000
L 826.250000 1015.000000
M 911.250000 992.500000
C 906.250000 980.000000 900.000000 980.000000 893.750000 980.000000
C 876.250000 980.000000 873.750000 996.250000 873.750000 1006.250000
C 873.750000 1016.250000 876.250000 1032.500000 893.750000 1032.500000
C 900.000000 1032.500000 906.250000 1032.500000 911.250000 1020.000000
M 896.250000 1032.500000
C 898.750000 1035.000000 896.250000 1042.500000 887.500000 1038.750000
M 958.750000 980.000000
L 926.250000 980.000000
L 926.250000 1032.500000
L 958.750000 1032.500000
M 926.250000 1005.000000
L 946.250000 1005.000000
M 950.000000 976.250000
L 935.000000 970.000000
M 1006.250000 980.000000
L 973.750000 980.000000
L 973.750000 1032.500000
L 1006.250000 1032.500000
M 973.750000 1005.000000
L 993.750000 1005.000000
M 982.500000 976.250000
L 997.500000 970.000000
M 1053.750000 980.000000
L 1021.250000 980.000000
L 1021.250000 1032.500000
L 1053.750000 1032.500000
M 1021.250000 1005.000000
L 1041.250000 1005.000000
M 1030.000000 976.250000
L 1037.500000 970.000000
L 1045.000000 976.250000
M 1101.250000 980.000000
L 1068.750000 980.000000
L 1068.750000 1032.500000
L 1101.250000 1032.500000
M 1068.750000 1005.000000
L 1088.750000 1005.000000
M 1080.000000 976.250000
C 1078.750000 976.250000 1077.500000 975.000000 1077.500000 973.750000
C 1077.500000 972.500000 1078.750000 971.250000 1080.000000 971.250000
C 1081.250000 971.250000 1082.500000 972.500000 1082.500000 973.750000
C 1082.500000 975.000000 1081.250000 976.250000 1080.000000 976.250000
M 1090.000000 976.250000
C 1088.750000 976.250000 1087.500000 975.000000 1087.500000 973.750000
C 1087.500000 972.500000 1088.750000 971.250000 1090.000000 971.250000
C 1091.250000 971.250000 1092.500000 972.500000 1092.500000 973.750000
C 1092.500000 975.000000 1091.250000 976.250000 1090.000000 976.250000
M 1116.250000 980.000000
L 1116.250000 1032.500000
M 1116.250000 976.250000
L 1101.250000 970.000000
M 1131.250000 980.000000
L 1131.250000 1032.500000
M 1131.250000 976.250000
L 1146.250000 970.000000
M 1146.250000 980.000000
L 1146.250000 1032.500000
M 1138.750000 976.250000
L 1146.250000 970.000000
L 1153.750000 976.250000
M 1161.250000 980.000000
L 1161.250000 1032.500000
M 1156.250000 976.250000
C 1155.000000 976.250000 1153.750000 975.000000 1153.750000 973.750000
C 1153.750000 972.500000 1155.000000 971.250000 1156.250000 971.250000
C 1157.500000 971.250000 1158.750000 972.500000 1158.750000 973.750000
C 1158.750000 975.000000 1157.500000 976.250000 1156.250000 976.250000
M 1166.250000 976.250000
C 1165.000000 976.250000 1163.750000 975.000000 1163.750000 973.750000
C 1163.750000 972.500000 1165.000000 971.250000 1166.250000 971.250000
C 1167.500000 971.250000 1168.750000 972.500000 1168.750000 973.750000
C 1168.750000 975.000000 1167.500000 976.250000 1166.250000 976.250000
M 365.000000 1090.000000
L 365.000000 1170.000000
M 411.250000 1152.500000
L 411.250000 1100.000000
L 428.750000 1100.000000
C 452.500000 1100.000000 452.500000 1152.500000 428.750000 1152.500000
L 411.250000 1152.500000
M 400.000000 1126.250000
L 422.500000 1126.250000
M 461.250000 1152.500000
L 461.250000 1100.000000
L 496.250000 1152.500000
L 496.250000 1100.000000
M 468.750000 1095.000000
C 476.250000 1081.250000 481.250000 1106.250000 488.750000 1092.500000
M 531.250000 1100.000000
C 513.750000 1100.000000 511.250000 1116.250000 511.250000 1126.250000
C 511.250000 1136.250000 513.750000 1152.500000 531.250000 1152.500000
C 548.750000 1152.500000 551.250000 1136.250000 551.250000 1126.250000
C 551.250000 1116.250000 548.750000 1100.000000 531.250000 1100.000000
M 538.750000 1096.250000
L 523.750000 1090.000000
M 586.250000 1100.000000
C 568.750000 1100.000000 566.250000 1116.250000 566.250000 1126.250000
C 566.250000 1136.250000 568.750000 1152.500000 586.250000 1152.500000
C 603.750000 1152.500000 606.250000 1136.250000 606.250000 1126.250000
C 606.250000 1116.250000 603.750000 1100.000000 586.250000 1100.000000
M 578.750000 1096.250000
L 593.750000 1090.000000
M 641.250000 1100.000000
C 623.750000 1100.000000 621.250000 1116.250000 621.250000 1126.250000
C 621.250000 1136.250000 623.750000 1152.500000 641.250000 1152.500000
C 658.750000 1152.500000 661.250000 1136.250000 661.250000 1126.250000
C 661.250000 1116.250000 658.750000 1100.000000 641.250000 1100.000000
M 633.750000 1096.250000
L 641.250000 1090.000000
L 648.750000 1096.250000
M 696.250000 1100.000000
C 678.750000 1100.000000 676.250000 1116.250000 676.250000 1126.250000
C 676.250000 1136.250000 678.750000 1152.500000 696.250000 1152.500000
C 713.750000 1152.500000 716.250000 1136.250000 716.250000 1126.250000
C 716.250000 1116.250000 713.750000 1100.000000 696.250000 1100.000000
M 686.250000 1095.000000
C 693.750000 1081.250000 698.750000 1106.250000 706.250000 1092.500000
M 751.250000 1100.000000
C 733.750000 1100.000000 731.250000 1116.250000 731.250000 1126.250000
C 731.250000 1136.250000 733.750000 1152.500000 751.250000 1152.500000
C 768.750000 1152.500000 771.250000 1136.250000 771.250000 1126.250000
C 771.250000 1116.250000 768.750000 1100.000000 751.250000 1100.000000
M 746.250000 1096.250000
C 745.000000 1096.250000 743.750000 1095.000000 743.750000 1093.750000
C 743.750000 1092.500000 745.000000 1091.250000 746.250000 1091.250000
C 747.500000 1091.250000 748.750000 1092.500000 748.750000 1093.750000
C 748.750000 1095.000000 747.500000 1096.250000 746.250000 1096.250000
M 756.250000 1096.250000
C 755.000000 1096.250000 753.750000 1095.000000 753.750000 1093.750000
C 753.750000 1092.500000 755.000000 1091.250000 756.250000 1091.250000
C 757.500000 1091.250000 758.750000 1092.500000 758.750000 1093.750000
C 758.750000 1095.000000 757.500000 1096.250000 756.250000 1096.250000
M 786.250000 1110.000000
L 820.000000 1143.750000
M 786.250000 1143.750000
L 820.000000 1110.000000
M 855.000000 1100.000000
C 837.500000 1100.000000 835.000000 1116.250000 835.000000 1126.250000
C 835.000000 1136.250000 837.500000 1152.500000 855.000000 1152.500000
C 872.500000 1152.500000 875.000000 1136.250000 875.000000 1126.250000
C 875.000000 1116.250000 872.500000 1100.000000 855.000000 1100.000000
M 877.500000 1097.500000
L 832.500000 1155.000000
M 890.000000 1100.000000
L 890.000000 1137.500000
C 890.000000 1157.500000 925.000000 1157.500000 925.000000 1137.500000
L 925.000000 1100.000000
M 915.000000 1096.250000
L 900.000000 1090.000000
M 940.000000 1100.000000
L 940.000000 1137.500000
C 940.000000 1157.500000 975.000000 1157.500000 975.000000 1137.500000
L 975.000000 1100.000000
M 950.000000 1096.250000
L 965.000000 1090.000000
M 990.000000 1100.000000
L 990.000000 1137.500000
C 990.000000 1157.500000 1025.000000 1157.500000 1025.000000 1137.500000
L 1025.000000 1100.000000
M 1000.000000 1096.250000
L 1007.500000 1090.000000
L 1015.000000 1096.250000
M 1040.000000 1100.000000
L 1040.000000 1137.500000
C 1040.000000 1157.500000 1075.000000 1157.500000 1075.000000 1137.500000
L 1075.000000 1100.000000
M 1052.500000 1096.250000
C 1051.250000 1096.250000 1050.000000 1095.000000 1050.000000 1093.750000
C 1050.000000 1092.500000 1051.250000 1091.250000 1052.500000 1091.250000
C 1053.750000 1091.250000 1055.000000 1092.500000 1055.000000 1093.750000
C 1055.000000 1095.000000 1053.750000 1096.250000 1052.500000 1096.250000
M 1062.500000 1096.250000
C 1061.250000 1096.250000 1060.000000 1095.000000 1060.000000 1093.750000
C 1060.000000 1092.500000 1061.250000 1091.250000 1062.500000 1091.250000
C 1063.750000 1091.250000 1065.000000 1092.500000 1065.000000 1093.750000
C 1065.000000 1095.000000 1063.750000 1096.250000 1062.500000 1096.250000
M 1090.000000 1100.000000
L 1110.000000 1125.000000
L 1110.000000 1152.500000
M 1130.000000 1100.000000
L 1110.000000 1125.000000
M 1102.500000 1096.250000
L 1117.500000 1090.000000
M 1145.000000 1152.500000
L 1145.000000 1100.000000
M 1145.000000 1113.750000
L 1167.500000 1113.750000
C 1185.000000 1112.500000 1185.000000 1141.250000 1167.500000 1141.250000
L 1145.000000 1141.250000
M 1195.000000 1152.500000
L 1195.000000 1107.500000
C 1195.000000 1102.500000 1201.250000 1100.000000 1210.000000 1100.000000
C 1218.750000 1100.000000 1225.000000 1102.500000 1225.000000 1107.500000
C 1218.750000 1107.500000 1215.000000 1110.000000 1215.000000 1118.750000
C 1215.000000 1132.500000 1235.000000 1126.250000 1235.000000 1141.250000
C 1235.000000 1150.000000 1225.000000 1152.500000 1218.750000 1152.500000
C 1211.250000 1152.500000 1208.750000 1151.250000 1207.500000 1150.000000
M 476.250000 1210.000000
L 476.250000 1290.000000
M 541.250000 1237.500000
L 541.250000 1272.500000
M 541.250000 1245.000000
C 537.500000 1238.750000 533.750000 1237.500000 527.500000 1237.500000
C 513.750000 1237.500000 511.250000 1248.750000 511.250000 1255.000000
C 511.250000 1261.250000 513.750000 1272.500000 527.500000 1272.500000
C 533.750000 1272.500000 537.500000 1271.250000 541.250000 1265.000000
M 533.750000 1233.750000
L 518.750000 1227.500000
M 586.250000 1237.500000
L 586.250000 1272.500000
M 586.250000 1245.000000
C 582.500000 1238.750000 578.750000 1237.500000 572.500000 1237.500000
C 558.750000 1237.500000 556.250000 1248.750000 556.250000 1255.000000
C 556.250000 1261.250000 558.750000 1272.500000 572.500000 1272.500000
C 578.750000 1272.500000 582.500000 1271.250000 586.250000 1265.000000
M 563.750000 1233.750000
L 578.750000 1227.500000
M 631.250000 1237.500000
L 631.250000 1272.500000
M 631.250000 1245.000000
C 627.500000 1238.750000 623.750000 1237.500000 617.500000 1237.500000
C 603.750000 1237.500000 601.250000 1248.750000 601.250000 1255.000000
C 601.250000 1261.250000 603.750000 1272.500000 617.500000 1272.500000
C 623.750000 1272.500000 627.500000 1271.250000 631.250000 1265.000000
M 608.750000 1233.750000
L 616.250000 1227.500000
L 623.750000 1233.750000
M 676.250000 1237.500000
L 676.250000 1272.500000
M 676.250000 1245.000000
C 672.500000 1238.750000 668.750000 1237.500000 662.500000 1237.500000
C 648.750000 1237.500000 646.250000 1248.750000 646.250000 1255.000000
C 646.250000 1261.250000 648.750000 1272.500000 662.500000 1272.500000
C 668.750000 1272.500000 672.500000 1271.250000 676.250000 1265.000000
M 651.250000 1232.500000
C 658.750000 1218.750000 663.750000 1243.750000 671.250000 1230.000000
M 721.250000 1237.500000
L 721.250000 1272.500000
M 721.250000 1245.000000
C 717.500000 1238.750000 713.750000 1237.500000 707.500000 1237.500000
C 693.750000 1237.500000 691.250000 1248.750000 691.250000 1255.000000
C 691.250000 1261.250000 693.750000 1272.500000 707.500000 1272.500000
C 713.750000 1272.500000 717.500000 1271.250000 721.250000 1265.000000
M 701.250000 1233.750000
C 700.000000 1233.750000 698.750000 1232.500000 698.750000 1231.250000
C 698.750000 1230.000000 700.000000 1228.750000 701.250000 1228.750000
C 702.500000 1228.750000 703.750000 1230.000000 703.750000 1231.250000
C 703.750000 1232.500000 702.500000 1233.750000 701.250000 1233.750000
M 711.250000 1233.750000
C 710.000000 1233.750000 708.750000 1232.500000 708.750000 1231.250000
C 708.750000 1230.000000 710.000000 1228.750000 711.250000 1228.750000
C 712.500000 1228.750000 713.750000 1230.000000 713.750000 1231.250000
C 713.750000 1232.500000 712.500000 1233.750000 711.250000 1233.750000
M 751.250000 1233.750000
C 748.750000 1233.750000 747.500000 1232.500000 747.500000 1230.000000
C 747.500000 1227.500000 748.750000 1226.250000 751.250000 1226.250000
C 753.750000 1226.250000 755.000000 1227.500000 755.000000 1230.000000
C 755.000000 1232.500000 753.750000 1233.750000 751.250000 1233.750000
M 766.250000 1237.500000
L 766.250000 1272.500000
M 766.250000 1245.000000
C 762.500000 1238.750000 758.750000 1237.500000 752.500000 1237.500000
C 738.750000 1237.500000 736.250000 1248.750000 736.250000 1255.000000
C 736.250000 1261.250000 738.750000 1272.500000 752.500000 1272.500000
C 758.750000 1272.500000 762.500000 1271.250000 766.250000 1265.000000
M 808.750000 1252.500000
L 838.750000 1252.500000
C 838.750000 1247.500000 838.750000 1237.500000 825.000000 1237.500000
C 811.250000 1237.500000 808.750000 1248.750000 808.750000 1255.000000
C 808.750000 1261.250000 811.250000 1272.500000 825.000000 1272.500000
C 831.250000 1272.500000 835.000000 1270.000000 838.750000 1265.000000
M 811.250000 1237.500000
L 811.250000 1245.000000
C 807.500000 1238.750000 803.750000 1237.500000 797.500000 1237.500000
C 783.750000 1237.500000 781.250000 1248.750000 781.250000 1255.000000
C 781.250000 1261.250000 783.750000 1272.500000 797.500000 1272.500000
C 803.750000 1272.500000 807.500000 1271.250000 811.250000 1265.000000
L 811.250000 1272.500000
M 883.750000 1245.000000
C 880.000000 1240.000000 876.250000 1237.500000 870.000000 1237.500000
C 856.250000 1237.500000 853.750000 1248.750000 853.750000 1255.000000
C 853.750000 1261.250000 856.250000 1272.500000 870.000000 1272.500000
C 876.250000 1272.500000 880.000000 1270.000000 883.750000 1265.000000
M 872.500000 1272.500000
C 875.000000 1275.000000 872.500000 1282.500000 863.750000 1278.750000
M 898.750000 1252.500000
L 928.750000 1252.500000
C 928.750000 1247.500000 928.750000 1237.500000 915.000000 1237.500000
C 901.250000 1237.500000 898.750000 1248.750000 898.750000 1255.000000
C 898.750000 1261.250000 901.250000 1272.500000 915.000000 1272.500000
C 921.250000 1272.500000 925.000000 1270.000000 928.750000 1265.000000
M 921.250000 1233.750000
L 906.250000 1227.500000
M 943.750000 1252.500000
L 973.750000 1252.500000
C 973.750000 1247.500000 973.750000 1237.500000 960.000000 1237.500000
C 946.250000 1237.500000 943.750000 1248.750000 943.750000 1255.000000
C 943.750000 1261.250000 946.250000 1272.500000 960.000000 1272.500000
C 966.250000 1272.500000 970.000000 1270.000000 973.750000 1265.000000
M 951.250000 1233.750000
L 966.250000 1227.500000
M 988.750000 1252.500000
L 1018.750000 1252.500000
C 1018.750000 1247.500000 1018.750000 1237.500000 1005.000000 1237.500000
C 991.250000 1237.500000 988.750000 1248.750000 988.750000 1255.000000
C 988.750000 1261.250000 991.250000 1272.500000 1005.000000 1272.500000
C 1011.250000 1272.500000 1015.000000 1270.000000 1018.750000 1265.000000
M 996.250000 1233.750000
L 1003.750000 1227.500000
L 1011.250000 1233.750000
M 1033.750000 1252.500000
L 1063.750000 1252.500000
C 1063.750000 1247.500000 1063.750000 1237.500000 1050.000000 1237.500000
C 1036.250000 1237.500000 1033.750000 1248.750000 1033.750000 1255.000000
C 1033.750000 1261.250000 1036.250000 1272.500000 1050.000000 1272.500000
C 1056.250000 1272.500000 1060.000000 1270.000000 1063.750000 1265.000000
M 1043.750000 1233.750000
C 1042.500000 1233.750000 1041.250000 1232.500000 1041.250000 1231.250000
C 1041.250000 1230.000000 1042.500000 1228.750000 1043.750000 1228.750000
C 1045.000000 1228.750000 1046.250000 1230.000000 1046.250000 1231.250000
C 1046.250000 1232.500000 1045.000000 1233.750000 1043.750000 1233.750000
M 1053.750000 1233.750000
C 1052.500000 1233.750000 1051.250000 1232.500000 1051.250000 1231.250000
C 1051.250000 1230.000000 1052.500000 1228.750000 1053.750000 1228.750000
C 1055.000000 1228.750000 1056.250000 1230.000000 1056.250000 1231.250000
C 1056.250000 1232.500000 1055.000000 1233.750000 1053.750000 1233.750000
M 1078.750000 1237.500000
L 1078.750000 1272.500000
M 1078.750000 1233.750000
L 1063.750000 1227.500000
M 1093.750000 1237.500000
L 1093.750000 1272.500000
M 1093.750000 1233.750000
L 1108.750000 1227.500000
M 1108.750000 1237.500000
L 1108.750000 1272.500000
M 1101.250000 1233.750000
L 1108.750000 1227.500000
L 1116.250000 1233.750000
M 1123.750000 1237.500000
L 1123.750000 1272.500000
M 1118.750000 1233.750000
C 1117.500000 1233.750000 1116.250000 1232.500000 1116.250000 1231.250000
C 1116.250000 1230.000000 1117.500000 1228.750000 1118.750000 1228.750000
C 1120.000000 1228.750000 1121.250000 1230.000000 1121.250000 1231.250000
C 1121.250000 1232.500000 1120.000000 1233.750000 1118.750000 1233.750000
M 1128.750000 1233.750000
C 1127.500000 1233.750000 1126.250000 1232.500000 1126.250000 1231.250000
C 1126.250000 1230.000000 1127.500000 1228.750000 1128.750000 1228.750000
C 1130.000000 1228.750000 1131.250000 1230.000000 1131.250000 1231.250000
C 1131.250000 1232.500000 1130.000000 1233.750000 1128.750000 1233.750000
M 420.000000 1330.000000
L 420.000000 1410.000000
M 481.250000 1360.000000
C 480.000000 1358.750000 480.000000 1357.500000 471.250000 1357.500000
C 457.500000 1357.500000 455.000000 1368.750000 455.000000 1375.000000
C 455.000000 1381.250000 457.500000 1392.500000 471.250000 1392.500000
C 485.000000 1392.500000 487.500000 1381.250000 487.500000 1375.000000
C 487.500000 1366.250000 481.250000 1360.000000 478.750000 1357.500000
L 461.250000 1340.000000
M 460.000000 1353.750000
L 476.250000 1342.500000
M 502.500000 1357.500000
L 502.500000 1392.500000
M 502.500000 1367.500000
C 507.500000 1357.500000 530.000000 1350.000000 530.000000 1367.500000
L 530.000000 1392.500000
M 506.250000 1352.500000
C 513.750000 1338.750000 518.750000 1363.750000 526.250000 1350.000000
M 561.250000 1357.500000
C 547.500000 1357.500000 545.000000 1368.750000 545.000000 1375.000000
C 545.000000 1381.250000 547.500000 1392.500000 561.250000 1392.500000
C 575.000000 1392.500000 577.500000 1381.250000 577.500000 1375.000000
C 577.500000 1368.750000 575.000000 1357.500000 561.250000 1357.500000
M 568.750000 1353.750000
L 553.750000 1347.500000
M 608.750000 1357.500000
C 595.000000 1357.500000 592.500000 1368.750000 592.500000 1375.000000
C 592.500000 1381.250000 595.000000 1392.500000 608.750000 1392.500000
C 622.500000 1392.500000 625.000000 1381.250000 625.000000 1375.000000
C 625.000000 1368.750000 622.500000 1357.500000 608.750000 1357.500000
M 601.250000 1353.750000
L 616.250000 1347.500000
M 656.250000 1357.500000
C 642.500000 1357.500000 640.000000 1368.750000 640.000000 1375.000000
C 640.000000 1381.250000 642.500000 1392.500000 656.250000 1392.500000
C 670.000000 1392.500000 672.500000 1381.250000 672.500000 1375.000000
C 672.500000 1368.750000 670.000000 1357.500000 656.250000 1357.500000
M 648.750000 1353.750000
L 656.250000 1347.500000
L 663.750000 1353.750000
M 703.750000 1357.500000
C 690.000000 1357.500000 687.500000 1368.750000 687.500000 1375.000000
C 687.500000 1381.250000 690.000000 1392.500000 703.750000 1392.500000
C 717.500000 1392.500000 720.000000 1381.250000 720.000000 1375.000000
C 720.000000 1368.750000 717.500000 1357.500000 703.750000 1357.500000
M 693.750000 1352.500000
C 701.250000 1338.750000 706.250000 1363.750000 713.750000 1350.000000
M 751.250000 1357.500000
C 737.500000 1357.500000 735.000000 1368.750000 735.000000 1375.000000
C 735.000000 1381.250000 737.500000 1392.500000 751.250000 1392.500000
C 765.000000 1392.500000 767.500000 1381.250000 767.500000 1375.000000
C 767.500000 1368.750000 765.000000 1357.500000 751.250000 1357.500000
M 746.250000 1353.750000
C 745.000000 1353.750000 743.750000 1352.500000 743.750000 1351.250000
C 743.750000 1350.000000 745.000000 1348.750000 746.250000 1348.750000
C 747.500000 1348.750000 748.750000 1350.000000 748.750000 1351.250000
C 748.750000 1352.500000 747.500000 1353.750000 746.250000 1353.750000
M 756.250000 1353.750000
C 755.000000 1353.750000 753.750000 1352.500000 753.750000 1351.250000
C 753.750000 1350.000000 755.000000 1348.750000 756.250000 1348.750000
C 757.500000 1348.750000 758.750000 1350.000000 758.750000 1351.250000
C 758.750000 1352.500000 757.500000 1353.750000 756.250000 1353.750000
M 782.500000 1370.000000
L 827.500000 1370.000000
M 805.000000 1378.750000
C 803.750000 1378.750000 802.500000 1380.000000 802.500000 1381.250000
C 802.500000 1382.500000 803.750000 1383.750000 805.000000 1383.750000
C 806.250000 1383.750000 807.500000 1382.500000 807.500000 1381.250000
C 807.500000 1380.000000 806.250000 1378.750000 805.000000 1378.750000
M 805.000000 1356.250000
C 803.750000 1356.250000 802.500000 1357.500000 802.500000 1358.750000
C 802.500000 1360.000000 803.750000 1361.250000 805.000000 1361.250000
C 806.250000 1361.250000 807.500000 1360.000000 807.500000 1358.750000
C 807.500000 1357.500000 806.250000 1356.250000 805.000000 1356.250000
M 858.750000 1357.500000
C 845.000000 1357.500000 842.500000 1368.750000 842.500000 1375.000000
C 842.500000 1381.250000 845.000000 1392.500000 858.750000 1392.500000
C 872.500000 1392.500000 875.000000 1381.250000 875.000000 1375.000000
C 875.000000 1368.750000 872.500000 1357.500000 858.750000 1357.500000
M 840.000000 1395.000000
L 877.500000 1355.000000
M 890.000000 1357.500000
L 890.000000 1382.500000
C 890.000000 1400.000000 912.500000 1392.500000 917.500000 1382.500000
M 917.500000 1357.500000
L 917.500000 1392.500000
M 911.250000 1353.750000
L 896.250000 1347.500000
M 932.500000 1357.500000
L 932.500000 1382.500000
C 932.500000 1400.000000 955.000000 1392.500000 960.000000 1382.500000
M 960.000000 1357.500000
L 960.000000 1392.500000
M 938.750000 1353.750000
L 953.750000 1347.500000
M 975.000000 1357.500000
L 975.000000 1382.500000
C 975.000000 1400.000000 997.500000 1392.500000 1002.500000 1382.500000
M 1002.500000 1357.500000
L 1002.500000 1392.500000
M 981.250000 1353.750000
L 988.750000 1347.500000
L 996.250000 1353.750000
M 1017.500000 1357.500000
L 1017.500000 1382.500000
C 1017.500000 1400.000000 1040.000000 1392.500000 1045.000000 1382.500000
M 1045.000000 1357.500000
L 1045.000000 1392.500000
M 1026.250000 1353.750000
C 1025.000000 1353.750000 1023.750000 1352.500000 1023.750000 1351.250000
C 1023.750000 1350.000000 1025.000000 1348.750000 1026.250000 1348.750000
C 1027.500000 1348.750000 1028.750000 1350.000000 1028.750000 1351.250000
C 1028.750000 1352.500000 1027.500000 1353.750000 1026.250000 1353.750000
M 1036.250000 1353.750000
C 1035.000000 1353.750000 1033.750000 1352.500000 1033.750000 1351.250000
C 1033.750000 1350.000000 1035.000000 1348.750000 1036.250000 1348.750000
C 1037.500000 1348.750000 1038.750000 1350.000000 1038.750000 1351.250000
C 1038.750000 1352.500000 1037.500000 1353.750000 1036.250000 1353.750000
M 1060.000000 1357.500000
L 1075.000000 1392.500000
M 1090.000000 1357.500000
L 1075.000000 1392.500000
C 1067.500000 1408.750000 1060.000000 1410.000000 1057.500000 1410.000000
M 1067.500000 1353.750000
L 1082.500000 1347.500000
M 1105.000000 1340.000000
L 1105.000000 1410.000000
M 1105.000000 1365.000000
C 1108.750000 1360.000000 1112.500000 1357.500000 1118.750000 1357.500000
C 1132.500000 1357.500000 1135.000000 1368.750000 1135.000000 1375.000000
C 1135.000000 1381.250000 1132.500000 1392.500000 1118.750000 1392.500000
C 1112.500000 1392.500000 1108.750000 1390.000000 1105.000000 1385.000000
M 1150.000000 1357.500000
L 1165.000000 1392.500000
M 1180.000000 1357.500000
L 1165.000000 1392.500000
C 1157.500000 1408.750000 1150.000000 1410.000000 1147.500000 1410.000000
M 1160.000000 1353.750000
C 1158.750000 1353.750000 1157.500000 1352.500000 1157.500000 1351.250000
C 1157.500000 1350.000000 1158.750000 1348.750000 1160.000000 1348.750000
C 1161.250000 1348.750000 1162.500000 1350.000000 1162.500000 1351.250000
C 1162.500000 1352.500000 1161.250000 1353.750000 1160.000000 1353.750000
M 1170.000000 1353.750000
C 1168.750000 1353.750000 1167.500000 1352.500000 1167.500000 1351.250000
C 1167.500000 1350.000000 1168.750000 1348.750000 1170.000000 1348.750000
C 1171.250000 1348.750000 1172.500000 1350.000000 1172.500000 1351.250000
C 1172.500000 1352.500000 1171.250000 1353.750000 1170.000000 1353.750000
M 501.875000 1450.000000
L 501.875000 1530.000000
M 536.875000 1490.000000
L 556.875000 1490.000000
M 571.875000 1490.000000
L 591.875000 1490.000000
M 606.875000 1490.000000
L 644.375000 1490.000000
M 659.375000 1490.000000
L 686.875000 1490.000000
M 701.875000 1512.500000
M 701.875000 1490.000000
L 741.875000 1490.000000
M 756.875000 1490.000000
L 806.875000 1490.000000
M 821.875000 1460.000000
L 821.875000 1512.500000
M 831.875000 1512.500000
L 831.875000 1460.000000
M 846.875000 1512.500000
L 876.875000 1512.500000
M 876.875000 1502.500000
L 846.875000 1502.500000
M 891.875000 1472.500000
C 891.875000 1471.250000 893.125000 1470.000000 894.375000 1470.000000
C 895.625000 1470.000000 896.875000 1471.250000 896.875000 1472.500000
C 896.875000 1473.750000 895.625000 1475.000000 894.375000 1475.000000
C 893.125000 1475.000000 891.875000 1473.750000 891.875000 1472.500000
C 891.875000 1465.000000 894.375000 1462.500000 896.875000 1460.000000
M 916.875000 1462.500000
C 916.875000 1463.750000 915.625000 1465.000000 914.375000 1465.000000
C 913.125000 1465.000000 911.875000 1463.750000 911.875000 1462.500000
C 911.875000 1461.250000 913.125000 1460.000000 914.375000 1460.000000
C 915.625000 1460.000000 916.875000 1461.250000 916.875000 1462.500000
C 916.875000 1470.000000 914.375000 1472.500000 911.875000 1475.000000
M 936.875000 1510.000000
C 936.875000 1511.250000 935.625000 1512.500000 934.375000 1512.500000
C 933.125000 1512.500000 931.875000 1511.250000 931.875000 1510.000000
C 931.875000 1508.750000 933.125000 1507.500000 934.375000 1507.500000
C 935.625000 1507.500000 936.875000 1508.750000 936.875000 1510.000000
C 936.875000 1517.500000 934.375000 1520.000000 931.875000 1522.500000
M 951.875000 1462.500000
C 951.875000 1463.750000 953.125000 1465.000000 954.375000 1465.000000
C 955.625000 1465.000000 956.875000 1463.750000 956.875000 1462.500000
C 956.875000 1461.250000 955.625000 1460.000000 954.375000 1460.000000
C 953.125000 1460.000000 951.875000 1461.250000 951.875000 1462.500000
C 951.875000 1470.000000 954.375000 1472.500000 956.875000 1475.000000
M 971.875000 1472.500000
C 971.875000 1471.250000 973.125000 1470.000000 974.375000 1470.000000
C 975.625000 1470.000000 976.875000 1471.250000 976.875000 1472.500000
C 976.875000 1473.750000 975.625000 1475.000000 974.375000 1475.000000
C 973.125000 1475.000000 971.875000 1473.750000 971.875000 1472.500000
C 971.875000 1465.000000 974.375000 1462.500000 976.875000 1460.000000
M 980.625000 1472.500000
C 980.625000 1471.250000 981.875000 1470.000000 983.125000 1470.000000
C 984.375000 1470.000000 985.625000 1471.250000 985.625000 1472.500000
C 985.625000 1473.750000 984.375000 1475.000000 983.125000 1475.000000
C 981.875000 1475.000000 980.625000 1473.750000 980.625000 1472.500000
C 980.625000 1465.000000 983.125000 1462.500000 985.625000 1460.000000
M 1014.375000 1462.500000
C 1014.375000 1463.750000 1013.125000 1465.000000 1011.875000 1465.000000
C 1010.625000 1465.000000 1009.375000 1463.750000 1009.375000 1462.500000
C 1009.375000 1461.250000 1010.625000 1460.000000 1011.875000 1460.000000
C 1013.125000 1460.000000 1014.375000 1461.250000 1014.375000 1462.500000
C 1014.375000 1470.000000 1011.875000 1472.500000 1009.375000 1475.000000
M 1005.625000 1462.500000
C 1005.625000 1463.750000 1004.375000 1465.000000 1003.125000 1465.000000
C 1001.875000 1465.000000 1000.625000 1463.750000 1000.625000 1462.500000
C 1000.625000 1461.250000 1001.875000 1460.000000 1003.125000 1460.000000
C 1004.375000 1460.000000 1005.625000 1461.250000 1005.625000 1462.500000
C 1005.625000 1470.000000 1003.125000 1472.500000 1000.625000 1475.000000
M 1043.125000 1510.000000
C 1043.125000 1511.250000 1041.875000 1512.500000 1040.625000 1512.500000
C 1039.375000 1512.500000 1038.125000 1511.250000 1038.125000 1510.000000
C 1038.125000 1508.750000 1039.375000 1507.500000 1040.625000 1507.500000
C 1041.875000 1507.500000 1043.125000 1508.750000 1043.125000 1510.000000
C 1043.125000 1517.500000 1040.625000 1520.000000 1038.125000 1522.500000
M 1034.375000 1510.000000
C 1034.375000 1511.250000 1033.125000 1512.500000 1031.875000 1512.500000
C 1030.625000 1512.500000 1029.375000 1511.250000 1029.375000 1510.000000
C 1029.375000 1508.750000 1030.625000 1507.500000 1031.875000 1507.500000
C 1033.125000 1507.500000 1034.375000 1508.750000 1034.375000 1510.000000
C 1034.375000 1517.500000 1031.875000 1520.000000 1029.375000 1522.500000
M 1058.125000 1462.500000
C 1058.125000 1463.750000 1059.375000 1465.000000 1060.625000 1465.000000
C 1061.875000 1465.000000 1063.125000 1463.750000 1063.125000 1462.500000
C 1063.125000 1461.250000 1061.875000 1460.000000 1060.625000 1460.000000
C 1059.375000 1460.000000 1058.125000 1461.250000 1058.125000 1462.500000
C 1058.125000 1470.000000 1060.625000 1472.500000 1063.125000 1475.000000
M 1066.875000 1462.500000
C 1066.875000 1463.750000 1068.125000 1465.000000 1069.375000 1465.000000
C 1070.625000 1465.000000 1071.875000 1463.750000 1071.875000 1462.500000
C 1071.875000 1461.250000 1070.625000 1460.000000 1069.375000 1460.000000
C 1068.125000 1460.000000 1066.875000 1461.250000 1066.875000 1462.500000
C 1066.875000 1470.000000 1069.375000 1472.500000 1071.875000 1475.000000
M 401.250000 1570.000000
L 401.250000 1650.000000
M 451.250000 1580.000000
L 451.250000 1650.000000
M 436.250000 1602.500000
L 466.250000 1602.500000
M 496.250000 1580.000000
L 496.250000 1650.000000
M 481.250000 1602.500000
L 511.250000 1602.500000
M 481.250000 1625.000000
L 511.250000 1625.000000
M 526.250000 1613.750000
C 526.250000 1606.250000 531.250000 1602.500000 537.500000 1602.500000
C 543.750000 1602.500000 548.750000 1607.500000 548.750000 1613.750000
C 548.750000 1620.000000 543.750000 1625.000000 537.500000 1625.000000
C 531.250000 1625.000000 526.250000 1620.000000 526.250000 1613.750000
M 528.750000 1608.750000
L 528.750000 1618.750000
M 531.250000 1621.250000
L 531.250000 1606.250000
M 533.750000 1605.000000
L 533.750000 1622.500000
M 536.250000 1623.750000
L 536.250000 1603.750000
M 538.750000 1603.750000
L 538.750000 1623.750000
M 541.250000 1622.500000
L 541.250000 1605.000000
M 543.750000 1606.250000
L 543.750000 1621.250000
M 546.250000 1618.750000
L 546.250000 1608.750000
M 563.750000 1632.500000
L 563.750000 1580.000000
L 603.750000 1580.000000
L 603.750000 1632.500000
L 563.750000 1632.500000
M 618.750000 1632.500000
L 618.750000 1580.000000
L 658.750000 1580.000000
L 658.750000 1632.500000
L 618.750000 1632.500000
M 673.750000 1632.500000
L 673.750000 1580.000000
L 713.750000 1580.000000
L 713.750000 1632.500000
L 673.750000 1632.500000
M 731.250000 1627.500000
C 730.000000 1627.500000 728.750000 1628.750000 728.750000 1630.000000
C 728.750000 1631.250000 730.000000 1632.500000 731.250000 1632.500000
C 732.500000 1632.500000 733.750000 1631.250000 733.750000 1630.000000
C 733.750000 1628.750000 732.500000 1627.500000 731.250000 1627.500000
M 743.750000 1627.500000
C 742.500000 1627.500000 741.250000 1628.750000 741.250000 1630.000000
C 741.250000 1631.250000 742.500000 1632.500000 743.750000 1632.500000
C 745.000000 1632.500000 746.250000 1631.250000 746.250000 1630.000000
C 746.250000 1628.750000 745.000000 1627.500000 743.750000 1627.500000
M 756.250000 1627.500000
C 755.000000 1627.500000 753.750000 1628.750000 753.750000 1630.000000
C 753.750000 1631.250000 755.000000 1632.500000 756.250000 1632.500000
C 757.500000 1632.500000 758.750000 1631.250000 758.750000 1630.000000
C 758.750000 1628.750000 757.500000 1627.500000 756.250000 1627.500000
M 773.750000 1632.500000
L 773.750000 1580.000000
L 813.750000 1580.000000
L 813.750000 1632.500000
L 773.750000 1632.500000
M 828.750000 1632.500000
L 828.750000 1580.000000
L 868.750000 1580.000000
L 868.750000 1632.500000
L 828.750000 1632.500000
M 883.750000 1632.500000
L 883.750000 1580.000000
L 923.750000 1580.000000
L 923.750000 1632.500000
L 883.750000 1632.500000
M 938.750000 1632.500000
L 938.750000 1580.000000
L 978.750000 1580.000000
L 978.750000 1632.500000
L 938.750000 1632.500000
M 993.750000 1632.500000
L 993.750000 1580.000000
L 1033.750000 1580.000000
L 1033.750000 1632.500000
L 993.750000 1632.500000
M 1048.750000 1632.500000
L 1048.750000 1580.000000
L 1088.750000 1580.000000
L 1088.750000 1632.500000
L 1048.750000 1632.500000
M 1103.750000 1632.500000
L 1103.750000 1580.000000
L 1143.750000 1580.000000
L 1143.750000 1632.500000
L 1103.750000 1632.500000
M 1158.750000 1632.500000
L 1158.750000 1580.000000
L 1198.750000 1580.000000
L 1198.750000 1632.500000
L 1158.750000 1632.500000
M 356.250000 1690.000000
L 356.250000 1770.000000
M 436.250000 1700.000000
L 391.250000 1752.500000
M 403.750000 1700.000000
C 406.250000 1701.250000 408.750000 1702.500000 408.750000 1707.500000
C 408.750000 1715.000000 405.000000 1717.500000 398.750000 1717.500000
C 393.750000 1717.500000 391.250000 1715.000000 391.250000 1710.000000
C 391.250000 1703.750000 395.000000 1700.000000 401.250000 1700.000000
L 403.750000 1700.000000
C 413.750000 1706.250000 426.250000 1706.250000 436.250000 1700.000000
M 426.250000 1735.000000
C 421.250000 1735.000000 418.750000 1738.750000 418.750000 1745.000000
C 418.750000 1750.000000 421.250000 1752.500000 426.250000 1752.500000
C 432.500000 1752.500000 436.250000 1750.000000 436.250000 1742.500000
C 436.250000 1737.500000 433.750000 1735.000000 428.750000 1735.000000
L 426.250000 1735.000000
M 448.750000 1735.000000
C 443.750000 1735.000000 441.250000 1738.750000 441.250000 1745.000000
C 441.250000 1750.000000 443.750000 1752.500000 448.750000 1752.500000
C 455.000000 1752.500000 458.750000 1750.000000 458.750000 1742.500000
C 458.750000 1737.500000 456.250000 1735.000000 451.250000 1735.000000
L 448.750000 1735.000000
M 473.750000 1752.500000
L 473.750000 1700.000000
L 513.750000 1700.000000
L 513.750000 1752.500000
L 473.750000 1752.500000
M 528.750000 1752.500000
L 528.750000 1700.000000
L 568.750000 1700.000000
L 568.750000 1752.500000
L 528.750000 1752.500000
M 583.750000 1752.500000
L 583.750000 1700.000000
L 623.750000 1700.000000
L 623.750000 1752.500000
L 583.750000 1752.500000
M 638.750000 1752.500000
L 638.750000 1700.000000
L 678.750000 1700.000000
L 678.750000 1752.500000
L 638.750000 1752.500000
M 693.750000 1752.500000
L 693.750000 1700.000000
L 733.750000 1700.000000
L 733.750000 1752.500000
L 693.750000 1752.500000
M 748.750000 1752.500000
L 748.750000 1700.000000
L 788.750000 1700.000000
L 788.750000 1752.500000
L 748.750000 1752.500000
M 803.750000 1752.500000
L 803.750000 1700.000000
L 843.750000 1700.000000
L 843.750000 1752.500000
L 803.750000 1752.500000
M 858.750000 1752.500000
L 858.750000 1700.000000
L 898.750000 1700.000000
L 898.750000 1752.500000
L 858.750000 1752.500000
M 933.750000 1717.500000
L 913.750000 1733.750000
L 933.750000 1750.000000
M 948.750000 1717.500000
L 968.750000 1733.750000
L 948.750000 1750.000000
M 983.750000 1752.500000
L 983.750000 1700.000000
L 1023.750000 1700.000000
L 1023.750000 1752.500000
L 983.750000 1752.500000
M 1038.750000 1752.500000
L 1038.750000 1700.000000
L 1078.750000 1700.000000
L 1078.750000 1752.500000
L 1038.750000 1752.500000
M 1093.750000 1752.500000
L 1093.750000 1700.000000
L 1133.750000 1700.000000
L 1133.750000 1752.500000
L 1093.750000 1752.500000
M 1148.750000 1752.500000
L 1148.750000 1700.000000
L 1188.750000 1700.000000
L 1188.750000 1752.500000
L 1148.750000 1752.500000
M 1203.750000 1752.500000
L 1203.750000 1700.000000
L 1243.750000 1700.000000
L 1243.750000 1752.500000
L 1203.750000 1752.500000
M 517.500000 1810.000000
L 517.500000 1890.000000
M 561.250000 1820.000000
C 558.750000 1820.000000 552.500000 1820.000000 552.500000 1833.750000
C 552.500000 1846.250000 558.750000 1846.250000 561.250000 1846.250000
C 565.000000 1846.250000 570.000000 1846.250000 570.000000 1833.750000
C 570.000000 1820.000000 565.000000 1820.000000 561.250000 1820.000000
M 585.000000 1821.250000
C 585.000000 1822.500000 587.500000 1822.500000 587.500000 1821.250000
C 587.500000 1820.000000 585.000000 1820.000000 585.000000 1821.250000
M 586.250000 1830.000000
L 586.250000 1847.500000
M 602.500000 1872.500000
L 602.500000 1820.000000
L 642.500000 1820.000000
L 642.500000 1872.500000
L 602.500000 1872.500000
M 657.500000 1872.500000
L 657.500000 1820.000000
L 697.500000 1820.000000
L 697.500000 1872.500000
L 657.500000 1872.500000
M 725.000000 1846.250000
L 725.000000 1820.000000
L 712.500000 1837.500000
L 730.000000 1837.500000
M 760.000000 1820.000000
L 747.500000 1820.000000
L 746.250000 1831.250000
C 748.750000 1830.000000 751.250000 1828.750000 753.750000 1828.750000
C 755.000000 1828.750000 762.500000 1828.750000 762.500000 1837.500000
C 762.500000 1846.250000 755.000000 1846.250000 753.750000 1846.250000
C 751.250000 1846.250000 747.500000 1846.250000 745.000000 1841.250000
M 792.500000 1823.750000
C 791.250000 1821.250000 790.000000 1820.000000 786.250000 1820.000000
C 783.750000 1820.000000 777.500000 1821.250000 777.500000 1835.000000
C 777.500000 1846.250000 783.750000 1846.250000 786.250000 1846.250000
C 788.750000 1846.250000 793.750000 1845.000000 793.750000 1838.750000
C 793.750000 1835.000000 792.500000 1830.000000 786.250000 1830.000000
C 783.750000 1830.000000 778.750000 1831.250000 777.500000 1837.500000
M 810.000000 1820.000000
L 827.500000 1820.000000
L 815.000000 1846.250000
M 851.250000 1820.000000
C 846.250000 1820.000000 843.750000 1821.250000 843.750000 1825.000000
C 843.750000 1835.000000 860.000000 1826.250000 860.000000 1840.000000
C 860.000000 1846.250000 853.750000 1846.250000 851.250000 1846.250000
C 848.750000 1846.250000 842.500000 1846.250000 842.500000 1840.000000
C 842.500000 1826.250000 858.750000 1835.000000 858.750000 1825.000000
C 858.750000 1821.250000 857.500000 1820.000000 851.250000 1820.000000
M 891.250000 1828.750000
C 891.250000 1836.250000 883.750000 1836.250000 883.750000 1836.250000
C 880.000000 1836.250000 875.000000 1835.000000 875.000000 1828.750000
C 875.000000 1825.000000 877.500000 1820.000000 883.750000 1820.000000
C 890.000000 1820.000000 891.250000 1826.250000 891.250000 1832.500000
C 891.250000 1837.500000 890.000000 1846.250000 882.500000 1846.250000
C 880.000000 1846.250000 877.500000 1845.000000 876.250000 1842.500000
M 918.750000 1823.750000
L 918.750000 1846.250000
M 907.500000 1835.000000
L 930.000000 1835.000000
M 945.000000 1835.000000
L 967.500000 1835.000000
M 982.500000 1831.250000
L 1005.000000 1831.250000
M 982.500000 1838.750000
L 1005.000000 1838.750000
M 1028.750000 1815.000000
C 1017.500000 1826.250000 1017.500000 1843.750000 1028.750000 1855.000000
M 1043.750000 1815.000000
C 1056.250000 1825.000000 1056.250000 1845.000000 1043.750000 1855.000000
M 1068.750000 1828.750000
L 1068.750000 1846.250000
M 1068.750000 1833.750000
C 1071.250000 1828.750000 1082.500000 1825.000000 1082.500000 1833.750000
L 1082.500000 1846.250000
M 519.375000 1930.000000
L 519.375000 2010.000000
M 563.125000 1968.750000
C 560.625000 1968.750000 554.375000 1968.750000 554.375000 1982.500000
C 554.375000 1995.000000 560.625000 1995.000000 563.125000 1995.000000
C 566.875000 1995.000000 571.875000 1995.000000 571.875000 1982.500000
C 571.875000 1968.750000 566.875000 1968.750000 563.125000 1968.750000
M 591.875000 1973.750000
M 591.875000 1973.750000
C 594.375000 1973.750000 596.875000 1971.250000 598.125000 1968.750000
L 598.125000 1995.000000
M 620.625000 1975.000000
C 620.625000 1973.750000 620.625000 1968.750000 628.125000 1968.750000
C 635.625000 1968.750000 635.625000 1973.750000 635.625000 1975.000000
C 635.625000 1976.250000 635.625000 1980.000000 625.625000 1988.750000
L 619.375000 1995.000000
L 636.875000 1995.000000
M 654.375000 1968.750000
L 668.125000 1968.750000
L 660.625000 1978.750000
C 665.625000 1978.750000 669.375000 1978.750000 669.375000 1986.250000
C 669.375000 1995.000000 663.125000 1995.000000 660.625000 1995.000000
C 656.875000 1995.000000 654.375000 1995.000000 651.875000 1990.000000
M 696.875000 1995.000000
L 696.875000 1968.750000
L 684.375000 1986.250000
L 701.875000 1986.250000
M 731.875000 1968.750000
L 719.375000 1968.750000
L 718.125000 1980.000000
C 720.625000 1978.750000 723.125000 1977.500000 725.625000 1977.500000
C 726.875000 1977.500000 734.375000 1977.500000 734.375000 1986.250000
C 734.375000 1995.000000 726.875000 1995.000000 725.625000 1995.000000
C 723.125000 1995.000000 719.375000 1995.000000 716.875000 1990.000000
M 764.375000 1972.500000
C 763.125000 1970.000000 761.875000 1968.750000 758.125000 1968.750000
C 755.625000 1968.750000 749.375000 1970.000000 749.375000 1983.750000
C 749.375000 1995.000000 755.625000 1995.000000 758.125000 1995.000000
C 760.625000 1995.000000 765.625000 1993.750000 765.625000 1987.500000
C 765.625000 1983.750000 764.375000 1978.750000 758.125000 1978.750000
C 755.625000 1978.750000 750.625000 1980.000000 749.375000 1986.250000
M 781.875000 1968.750000
L 799.375000 1968.750000
L 786.875000 1995.000000
M 823.125000 1968.750000
C 818.125000 1968.750000 815.625000 1970.000000 815.625000 1973.750000
C 815.625000 1983.750000 831.875000 1975.000000 831.875000 1988.750000
C 831.875000 1995.000000 825.625000 1995.000000 823.125000 1995.000000
C 820.625000 1995.000000 814.375000 1995.000000 814.375000 1988.750000
C 814.375000 1975.000000 830.625000 1983.750000 830.625000 1973.750000
C 830.625000 1970.000000 829.375000 1968.750000 823.125000 1968.750000
M 863.125000 1977.500000
C 863.125000 1985.000000 855.625000 1985.000000 855.625000 1985.000000
C 851.875000 1985.000000 846.875000 1983.750000 846.875000 1977.500000
C 846.875000 1973.750000 849.375000 1968.750000 855.625000 1968.750000
C 861.875000 1968.750000 863.125000 1975.000000 863.125000 1981.250000
C 863.125000 1986.250000 861.875000 1995.000000 854.375000 1995.000000
C 851.875000 1995.000000 849.375000 1993.750000 848.125000 1991.250000
M 890.625000 1972.500000
L 890.625000 1995.000000
M 879.375000 1983.750000
L 901.875000 1983.750000
M 916.875000 1977.500000
L 939.375000 1977.500000
M 954.375000 1980.000000
L 976.875000 1980.000000
M 954.375000 1987.500000
L 976.875000 1987.500000
M 1000.625000 1962.500000
C 989.375000 1973.750000 989.375000 1991.250000 1000.625000 2002.500000
M 1015.625000 1962.500000
C 1028.125000 1972.500000 1028.125000 1992.500000 1015.625000 2002.500000
M 1040.625000 1992.500000
L 1040.625000 1940.000000
L 1080.625000 1940.000000
L 1080.625000 1992.500000
L 1040.625000 1992.500000
M 518.750000 2050.000000
L 518.750000 2130.000000
M 568.750000 2097.500000
L 568.750000 2115.000000
M 568.750000 2101.250000
C 567.500000 2098.750000 565.000000 2097.500000 562.500000 2097.500000
C 555.000000 2097.500000 553.750000 2103.750000 553.750000 2106.250000
C 553.750000 2110.000000 555.000000 2115.000000 562.500000 2115.000000
C 565.000000 2115.000000 567.500000 2115.000000 568.750000 2111.250000
M 583.750000 2105.000000
L 598.750000 2105.000000
C 598.750000 2102.500000 598.750000 2097.500000 592.500000 2097.500000
C 585.000000 2097.500000 583.750000 2103.750000 583.750000 2106.250000
C 583.750000 2110.000000 585.000000 2115.000000 592.500000 2115.000000
C 595.000000 2115.000000 597.500000 2113.750000 598.750000 2111.250000
M 622.500000 2097.500000
C 615.000000 2097.500000 613.750000 2103.750000 613.750000 2106.250000
C 613.750000 2110.000000 615.000000 2115.000000 622.500000 2115.000000
C 628.750000 2115.000000 630.000000 2110.000000 630.000000 2106.250000
C 630.000000 2103.750000 628.750000 2097.500000 622.500000 2097.500000
M 645.000000 2097.500000
L 658.750000 2115.000000
M 658.750000 2097.500000
L 645.000000 2115.000000
M 688.750000 2107.500000
L 673.750000 2107.500000
C 673.750000 2110.000000 673.750000 2115.000000 680.000000 2115.000000
C 687.500000 2115.000000 688.750000 2108.750000 688.750000 2106.250000
C 688.750000 2102.500000 687.500000 2097.500000 680.000000 2097.500000
C 677.500000 2097.500000 675.000000 2098.750000 673.750000 2101.250000
M 703.750000 2088.750000
L 703.750000 2115.000000
M 703.750000 2102.500000
C 708.750000 2095.000000 717.500000 2096.250000 717.500000 2102.500000
L 717.500000 2115.000000
M 732.500000 2088.750000
L 732.500000 2115.000000
M 745.000000 2097.500000
L 732.500000 2110.000000
M 737.500000 2105.000000
L 746.250000 2115.000000
M 761.250000 2088.750000
L 761.250000 2115.000000
M 776.250000 2097.500000
L 776.250000 2115.000000
M 776.250000 2102.500000
C 780.000000 2097.500000 790.000000 2095.000000 790.000000 2102.500000
L 790.000000 2115.000000
M 790.000000 2102.500000
C 793.750000 2097.500000 803.750000 2095.000000 803.750000 2102.500000
L 803.750000 2115.000000
M 818.750000 2097.500000
L 818.750000 2115.000000
M 818.750000 2102.500000
C 821.250000 2097.500000 832.500000 2093.750000 832.500000 2102.500000
L 832.500000 2115.000000
M 847.500000 2097.500000
L 847.500000 2123.750000
M 847.500000 2101.250000
C 850.000000 2098.750000 851.250000 2097.500000 855.000000 2097.500000
C 861.250000 2097.500000 862.500000 2103.750000 862.500000 2106.250000
C 862.500000 2110.000000 861.250000 2115.000000 855.000000 2115.000000
C 851.250000 2115.000000 850.000000 2113.750000 847.500000 2111.250000
M 891.250000 2101.250000
C 891.250000 2098.750000 887.500000 2097.500000 885.000000 2097.500000
C 880.000000 2097.500000 877.500000 2098.750000 877.500000 2101.250000
C 877.500000 2108.750000 891.250000 2102.500000 891.250000 2111.250000
C 891.250000 2115.000000 888.750000 2115.000000 885.000000 2115.000000
C 881.250000 2115.000000 877.500000 2115.000000 877.500000 2111.250000
M 910.000000 2088.750000
L 910.000000 2110.000000
C 910.000000 2113.750000 911.250000 2115.000000 916.250000 2115.000000
M 906.250000 2097.500000
L 915.000000 2097.500000
M 931.250000 2112.500000
L 931.250000 2060.000000
L 971.250000 2060.000000
L 971.250000 2112.500000
L 931.250000 2112.500000
M 986.250000 2112.500000
L 986.250000 2060.000000
L 1026.250000 2060.000000
L 1026.250000 2112.500000
L 986.250000 2112.500000
M 1041.250000 2112.500000
L 1041.250000 2060.000000
L 1081.250000 2060.000000
L 1081.250000 2112.500000
L 1041.250000 2112.500000
M 350.000000 2170.000000
L 350.000000 2250.000000
M 385.000000 2232.500000
L 385.000000 2180.000000
L 425.000000 2180.000000
L 425.000000 2232.500000
L 385.000000 2232.500000
M 440.000000 2232.500000
L 440.000000 2180.000000
L 480.000000 2180.000000
L 480.000000 2232.500000
L 440.000000 2232.500000
M 495.000000 2232.500000
L 495.000000 2180.000000
L 535.000000 2180.000000
L 535.000000 2232.500000
L 495.000000 2232.500000
M 550.000000 2232.500000
L 550.000000 2180.000000
L 590.000000 2180.000000
L 590.000000 2232.500000
L 550.000000 2232.500000
M 605.000000 2232.500000
L 605.000000 2180.000000
L 645.000000 2180.000000
L 645.000000 2232.500000
L 605.000000 2232.500000
M 660.000000 2232.500000
L 660.000000 2180.000000
L 700.000000 2180.000000
L 700.000000 2232.500000
L 660.000000 2232.500000
M 715.000000 2232.500000
L 715.000000 2180.000000
L 755.000000 2180.000000
L 755.000000 2232.500000
L 715.000000 2232.500000
M 770.000000 2232.500000
L 770.000000 2180.000000
L 810.000000 2180.000000
L 810.000000 2232.500000
L 770.000000 2232.500000
M 825.000000 2232.500000
L 825.000000 2180.000000
L 865.000000 2180.000000
L 865.000000 2232.500000
L 825.000000 2232.500000
M 880.000000 2232.500000
L 880.000000 2180.000000
L 920.000000 2180.000000
L 920.000000 2232.500000
L 880.000000 2232.500000
M 935.000000 2232.500000
L 935.000000 2180.000000
L 975.000000 2180.000000
L 975.000000 2232.500000
L 935.000000 2232.500000
M 990.000000 2232.500000
L 990.000000 2180.000000
L 1030.000000 2180.000000
L 1030.000000 2232.500000
L 990.000000 2232.500000
M 1082.500000 2192.500000
C 1077.500000 2180.000000 1071.250000 2180.000000 1065.000000 2180.000000
C 1047.500000 2180.000000 1045.000000 2196.250000 1045.000000 2206.250000
C 1045.000000 2216.250000 1047.500000 2232.500000 1065.000000 2232.500000
C 1071.250000 2232.500000 1077.500000 2232.500000 1082.500000 2220.000000
M 1041.250000 2200.000000
L 1071.250000 2200.000000
M 1041.250000 2212.500000
L 1063.750000 2212.500000
M 1100.000000 2232.500000
L 1100.000000 2180.000000
L 1140.000000 2180.000000
L 1140.000000 2232.500000
L 1100.000000 2232.500000
M 1155.000000 2232.500000
L 1155.000000 2180.000000
L 1195.000000 2180.000000
L 1195.000000 2232.500000
L 1155.000000 2232.500000
M 1210.000000 2232.500000
L 1210.000000 2180.000000
L 1250.000000 2180.000000
L 1250.000000 2232.500000
L 1210.000000 2232.500000
"/>
</svg>