<?xml version="1.0" encoding="UTF-8" standalone="no"?>
<svg version="1.1"
  xmlns="http://www.w3.org/2000/svg"
  xmlns:svg="http://www.w3.org/2000/svg"
  width="1600" height="2800">
<path fill="none" stroke-width="6" stroke="black" stroke-linecap="round" stroke-linejoin="round" d="
M 51.562500 12.500000
L 51.562500 56.250000
M 50.000000 78.125000
L 50.000000 75.000000
L 53.125000 75.000000
L 53.125000 78.125000
L 50.000000 78.125000
M 90.625000 10.937500
L 90.625000 31.250000
M 104.687500 31.250000
L 104.687500 10.937500
M 146.875000 12.500000
L 137.500000 78.125000
M 165.625000 12.500000
L 156.250000 78.125000
M 131.250000 35.937500
L 175.000000 35.937500
M 128.125000 54.687500
L 171.875000 54.687500
M 221.875000 12.500000
C 215.625000 10.937500 189.062500 6.250000 189.062500 26.562500
C 189.062500 43.750000 225.000000 40.625000 225.000000 59.375000
C 223.437500 81.250000 195.312500 78.125000 189.062500 73.437500
M 206.250000 85.937500
L 206.250000 1.562500
M 268.750000 29.687500
C 268.750000 7.812500 250.000000 7.812500 250.000000 29.687500
C 250.000000 51.562500 268.750000 51.562500 268.750000 29.687500
M 303.125000 12.500000
L 264.062500 78.125000
M 315.625000 60.937500
C 315.625000 39.062500 296.875000 39.062500 296.875000 60.937500
C 296.875000 82.812500 315.625000 82.812500 315.625000 60.937500
M 392.187500 43.750000
C 392.187500 57.812500 382.812500 78.125000 364.062500 78.125000
C 356.250000 78.125000 345.312500 76.562500 345.312500 62.500000
C 345.312500 40.625000 379.687500 45.312500 379.687500 25.000000
C 379.687500 7.812500 353.125000 7.812500 353.125000 25.000000
C 353.125000 31.250000 356.250000 37.500000 360.937500 42.187500
L 396.875000 78.125000
M 417.187500 10.937500
L 417.187500 31.250000
M 456.250000 6.250000
C 435.937500 31.250000 435.937500 64.062500 456.250000 89.062500
M 471.875000 6.250000
C 492.187500 31.250000 492.187500 64.062500 471.875000 89.062500
M 525.000000 10.937500
L 525.000000 48.437500
M 509.375000 20.312500
L 540.625000 39.062500
M 540.625000 20.312500
L 509.375000 39.062500
M 581.250000 31.250000
L 581.250000 78.125000
M 557.812500 54.687500
L 604.687500 54.687500
M 621.875000 78.125000
L 620.312500 78.125000
L 620.312500 75.000000
L 623.437500 75.000000
C 623.437500 81.250000 621.875000 87.500000 617.187500 90.625000
M 642.187500 51.562500
L 664.062500 51.562500
M 681.250000 78.125000
L 681.250000 75.000000
L 684.375000 75.000000
L 684.375000 78.125000
L 681.250000 78.125000
M 721.875000 9.375000
L 698.437500 78.125000
M 87.500000 145.312500
C 87.500000 101.562500 50.000000 101.562500 50.000000 145.312500
C 50.000000 189.062500 87.500000 189.062500 87.500000 145.312500
M 110.937500 126.562500
L 128.125000 112.500000
L 128.125000 178.125000
M 159.375000 115.625000
C 164.062500 112.500000 195.312500 106.250000 193.750000 129.687500
C 193.750000 140.625000 189.062500 146.875000 157.812500 178.125000
L 195.312500 178.125000
M 214.062500 115.625000
C 253.125000 101.562500 264.062500 143.750000 221.875000 143.750000
C 265.625000 143.750000 254.687500 190.625000 212.500000 175.000000
M 296.875000 178.125000
L 296.875000 112.500000
L 267.187500 160.937500
L 304.687500 160.937500
M 354.687500 112.500000
L 323.437500 112.500000
L 321.875000 142.187500
C 335.937500 135.937500 359.375000 140.625000 359.375000 157.812500
C 359.375000 181.250000 328.125000 179.687500 321.875000 175.000000
M 412.500000 114.062500
C 406.250000 112.500000 376.562500 104.687500 376.562500 148.437500
C 376.562500 190.625000 414.062500 181.250000 414.062500 159.375000
C 414.062500 139.062500 382.812500 129.687500 378.125000 159.375000
M 431.250000 112.500000
L 468.750000 112.500000
L 442.187500 178.125000
M 520.312500 126.562500
C 520.312500 107.812500 489.062500 107.812500 489.062500 126.562500
C 489.062500 145.312500 523.437500 143.750000 523.437500 162.500000
C 523.437500 182.812500 485.937500 182.812500 485.937500 162.500000
C 485.937500 143.750000 520.312500 145.312500 520.312500 126.562500
M 542.187500 176.562500
C 548.437500 178.125000 578.125000 185.937500 578.125000 142.187500
C 578.125000 100.000000 540.625000 109.375000 540.625000 131.250000
C 540.625000 151.562500 571.875000 160.937500 576.562500 131.250000
M 600.000000 178.125000
L 600.000000 175.000000
L 603.125000 175.000000
L 603.125000 178.125000
L 600.000000 178.125000
M 600.000000 137.500000
L 600.000000 134.375000
L 603.125000 134.375000
L 603.125000 137.500000
L 600.000000 137.500000
M 628.125000 178.125000
L 626.562500 178.125000
L 626.562500 175.000000
L 629.687500 175.000000
C 629.687500 181.250000 628.125000 187.500000 623.437500 190.625000
M 626.562500 137.500000
L 626.562500 134.375000
L 629.687500 134.375000
L 629.687500 137.500000
L 626.562500 137.500000
M 695.312500 132.812500
L 648.437500 153.125000
L 695.312500 173.437500
M 707.812500 143.750000
L 754.687500 143.750000
M 707.812500 164.062500
L 754.687500 164.062500
M 767.187500 132.812500
L 814.062500 153.125000
L 767.187500 173.437500
M 828.125000 115.625000
C 835.937500 110.937500 860.937500 109.375000 860.937500 126.562500
C 859.375000 140.625000 845.312500 142.187500 845.312500 159.375000
M 843.750000 178.125000
L 843.750000 175.000000
L 846.875000 175.000000
L 846.875000 178.125000
L 843.750000 178.125000
M 95.312500 237.500000
C 90.625000 223.437500 68.750000 221.875000 65.625000 243.750000
C 62.500000 265.625000 95.312500 278.125000 96.875000 228.125000
C 85.937500 271.875000 115.625000 270.312500 115.625000 243.750000
C 115.625000 201.562500 50.000000 201.562500 50.000000 243.750000
C 50.000000 287.500000 98.437500 281.250000 106.250000 268.750000
M 131.250000 278.125000
L 157.812500 212.500000
L 184.375000 278.125000
M 140.625000 256.250000
L 175.000000 256.250000
M 204.687500 278.125000
L 204.687500 212.500000
L 223.437500 212.500000
C 245.312500 212.500000 245.312500 243.750000 220.312500 243.750000
M 204.687500 243.750000
L 220.312500 243.750000
C 248.437500 243.750000 248.437500 278.125000 220.312500 278.125000
L 204.687500 278.125000
M 306.250000 215.625000
C 287.500000 207.812500 262.500000 217.187500 262.500000 245.312500
C 262.500000 273.437500 287.500000 282.812500 306.250000 275.000000
M 323.437500 278.125000
L 323.437500 212.500000
L 339.062500 212.500000
C 381.250000 212.500000 381.250000 278.125000 339.062500 278.125000
L 323.437500 278.125000
M 425.000000 212.500000
L 395.312500 212.500000
L 395.312500 278.125000
L 425.000000 278.125000
M 395.312500 243.750000
L 421.875000 243.750000
M 476.562500 212.500000
L 448.437500 212.500000
L 448.437500 278.125000
M 448.437500 243.750000
L 475.000000 243.750000
M 542.187500 217.187500
C 523.437500 206.250000 493.750000 214.062500 493.750000 245.312500
C 493.750000 275.000000 521.875000 282.812500 542.187500 275.000000
L 542.187500 245.312500
L 525.000000 245.312500
M 568.750000 212.500000
L 568.750000 278.125000
M 612.500000 212.500000
L 612.500000 278.125000
M 568.750000 243.750000
L 612.500000 243.750000
M 637.500000 212.500000
L 637.500000 278.125000
M 675.000000 212.500000
L 675.000000 259.375000
C 675.000000 281.250000 659.375000 278.125000 654.687500 276.562500
M 701.562500 212.500000
L 701.562500 278.125000
M 743.750000 212.500000
L 701.562500 256.250000
M 714.062500 243.750000
L 745.312500 278.125000
M 767.187500 212.500000
L 767.187500 278.125000
L 800.000000 278.125000
M 817.187500 278.125000
L 817.187500 212.500000
L 842.187500 246.875000
L 867.187500 212.500000
L 867.187500 278.125000
M 892.187500 278.125000
L 892.187500 212.500000
L 935.937500 278.125000
L 935.937500 212.500000
M 957.812500 245.312500
C 957.812500 201.562500 1014.062500 201.562500 1014.062500 245.312500
C 1014.062500 289.062500 957.812500 289.062500 957.812500 245.312500
M 50.000000 378.125000
L 50.000000 312.500000
L 65.625000 312.500000
C 92.187500 312.500000 92.187500 346.875000 65.625000 346.875000
L 50.000000 346.875000
M 101.562500 345.312500
C 101.562500 301.562500 157.812500 301.562500 157.812500 345.312500
C 157.812500 389.062500 101.562500 389.062500 101.562500 345.312500
M 140.625000 376.562500
L 154.687500 390.625000
M 181.250000 378.125000
L 181.250000 312.500000
L 196.875000 312.500000
C 221.875000 312.500000 221.875000 343.750000 196.875000 343.750000
L 181.250000 343.750000
M 203.125000 343.750000
L 220.312500 378.125000
M 267.187500 314.062500
C 260.937500 312.500000 234.375000 307.812500 234.375000 328.125000
C 234.375000 345.312500 270.312500 342.187500 270.312500 360.937500
C 268.750000 382.812500 240.625000 379.687500 234.375000 375.000000
M 303.125000 312.500000
L 303.125000 378.125000
M 281.250000 312.500000
L 325.000000 312.500000
M 343.750000 312.500000
L 343.750000 350.000000
C 343.750000 387.500000 387.500000 387.500000 387.500000 350.000000
L 387.500000 312.500000
M 409.375000 312.500000
L 434.375000 378.125000
L 459.375000 312.500000
M 473.437500 312.500000
L 492.187500 378.125000
L 504.687500 334.375000
L 517.187500 378.125000
L 535.937500 312.500000
M 548.437500 312.500000
L 595.312500 378.125000
M 595.312500 312.500000
L 548.437500 378.125000
M 610.937500 312.500000
L 635.937500 348.437500
L 635.937500 378.125000
M 660.937500 312.500000
L 635.937500 348.437500
M 673.437500 312.500000
L 717.187500 312.500000
L 673.437500 378.125000
L 717.187500 378.125000
M 750.000000 307.812500
L 735.937500 307.812500
L 735.937500 387.500000
L 750.000000 387.500000
M 756.250000 309.375000
L 779.687500 378.125000
M 789.062500 307.812500
L 803.125000 307.812500
L 803.125000 387.500000
L 789.062500 387.500000
M 828.125000 348.437500
L 845.312500 312.500000
L 862.500000 348.437500
M 875.000000 387.500000
L 923.437500 387.500000
M 59.375000 420.312500
L 50.000000 407.812500
M 79.687500 437.500000
C 93.750000 431.250000 114.062500 432.812500 114.062500 451.562500
L 114.062500 478.125000
M 114.062500 454.687500
C 98.437500 453.125000 76.562500 453.125000 76.562500 467.187500
C 76.562500 484.375000 114.062500 481.250000 114.062500 457.812500
M 137.500000 412.500000
L 137.500000 478.125000
M 137.500000 456.250000
C 137.500000 428.125000 175.000000 428.125000 175.000000 456.250000
C 175.000000 484.375000 137.500000 484.375000 137.500000 456.250000
M 221.875000 435.937500
C 214.062500 432.812500 192.187500 432.812500 192.187500 456.250000
C 192.187500 478.125000 214.062500 479.687500 221.875000 476.562500
M 275.000000 412.500000
L 275.000000 478.125000
M 275.000000 456.250000
C 275.000000 428.125000 237.500000 428.125000 237.500000 456.250000
C 237.500000 484.375000 275.000000 484.375000 275.000000 456.250000
M 295.312500 454.687500
L 332.812500 454.687500
C 332.812500 428.125000 295.312500 428.125000 295.312500 454.687500
C 295.312500 478.125000 317.187500 481.250000 332.812500 475.000000
M 375.000000 414.062500
C 365.625000 410.937500 359.375000 415.625000 359.375000 426.562500
L 359.375000 478.125000
M 346.875000 435.937500
L 373.437500 435.937500
M 425.000000 434.375000
L 425.000000 478.125000
C 425.000000 504.687500 400.000000 501.562500 390.625000 496.875000
M 425.000000 456.250000
C 425.000000 428.125000 387.500000 428.125000 387.500000 456.250000
C 387.500000 484.375000 425.000000 484.375000 425.000000 456.250000
M 450.000000 412.500000
L 450.000000 478.125000
M 450.000000 453.125000
C 456.250000 431.250000 487.500000 426.562500 487.500000 453.125000
L 487.500000 478.125000
M 510.937500 434.375000
L 510.937500 478.125000
M 509.375000 417.187500
L 509.375000 414.062500
L 512.500000 414.062500
L 512.500000 417.187500
L 509.375000 417.187500
M 537.500000 434.375000
L 537.500000 482.812500
C 537.500000 496.875000 534.375000 501.562500 525.000000 498.437500
M 535.937500 417.187500
L 535.937500 414.062500
L 539.062500 414.062500
L 539.062500 417.187500
L 535.937500 417.187500
M 562.500000 412.500000
L 562.500000 478.125000
M 592.187500 431.250000
L 562.500000 460.937500
M 573.437500 451.562500
L 596.875000 478.125000
M 618.750000 412.500000
L 618.750000 478.125000
M 643.750000 434.375000
L 643.750000 478.125000
M 643.750000 453.125000
C 650.000000 431.250000 676.562500 426.562500 676.562500 453.125000
L 676.562500 478.125000
M 676.562500 453.125000
C 682.812500 431.250000 709.375000 426.562500 709.375000 453.125000
L 709.375000 478.125000
M 731.250000 434.375000
L 731.250000 478.125000
M 731.250000 453.125000
C 737.500000 431.250000 768.750000 426.562500 768.750000 453.125000
L 768.750000 478.125000
M 829.687500 456.250000
C 829.687500 426.562500 789.062500 426.562500 789.062500 456.250000
C 789.062500 485.937500 829.687500 485.937500 829.687500 456.250000
M 50.000000 600.000000
L 50.000000 534.375000
M 50.000000 556.250000
C 50.000000 584.375000 87.500000 584.375000 87.500000 556.250000
C 87.500000 528.125000 50.000000 528.125000 50.000000 556.250000
M 143.750000 600.000000
L 143.750000 534.375000
M 143.750000 556.250000
C 143.750000 584.375000 106.250000 584.375000 106.250000 556.250000
C 106.250000 528.125000 143.750000 528.125000 143.750000 556.250000
M 168.750000 534.375000
L 168.750000 578.125000
M 168.750000 559.375000
C 171.875000 543.750000 179.687500 534.375000 190.625000 534.375000
M 223.437500 535.937500
C 220.312500 534.375000 200.000000 531.250000 200.000000 545.312500
C 200.000000 554.687500 223.437500 556.250000 223.437500 567.187500
C 223.437500 581.250000 207.812500 579.687500 200.000000 576.562500
M 248.437500 518.750000
L 248.437500 562.500000
C 248.437500 576.562500 254.687500 579.687500 262.500000 576.562500
M 235.937500 534.375000
L 260.937500 534.375000
M 318.750000 578.125000
L 318.750000 534.375000
M 318.750000 559.375000
C 312.500000 581.250000 281.250000 585.937500 281.250000 559.375000
L 281.250000 534.375000
M 339.062500 534.375000
L 354.687500 578.125000
L 370.312500 534.375000
M 387.500000 534.375000
L 403.125000 578.125000
L 418.750000 534.375000
L 434.375000 578.125000
L 450.000000 534.375000
M 460.937500 534.375000
L 490.625000 578.125000
M 490.625000 534.375000
L 460.937500 578.125000
M 509.375000 534.375000
L 525.000000 578.125000
M 540.625000 534.375000
L 525.000000 578.125000
C 518.750000 598.437500 514.062500 600.000000 504.687500 596.875000
M 556.250000 534.375000
L 590.625000 534.375000
L 556.250000 578.125000
L 590.625000 578.125000
M 626.562500 507.812500
C 614.062500 507.812500 614.062500 507.812500 614.062500 525.000000
C 614.062500 548.437500 614.062500 546.875000 603.125000 546.875000
C 614.062500 546.875000 614.062500 545.312500 614.062500 568.750000
C 614.062500 585.937500 614.062500 585.937500 626.562500 585.937500
M 640.625000 506.250000
L 640.625000 587.500000
M 654.687500 507.812500
C 667.187500 507.812500 667.187500 507.812500 667.187500 525.000000
C 667.187500 548.437500 667.187500 546.875000 678.125000 546.875000
C 667.187500 546.875000 667.187500 545.312500 667.187500 568.750000
C 667.187500 585.937500 667.187500 585.937500 654.687500 585.937500
M 693.750000 556.250000
C 707.812500 535.937500 720.312500 570.312500 734.375000 550.000000
M 51.562500 698.437500
L 51.562500 654.687500
M 50.000000 632.812500
L 50.000000 635.937500
L 53.125000 635.937500
L 53.125000 632.812500
L 50.000000 632.812500
M 109.375000 625.000000
L 90.625000 687.500000
M 112.500000 635.937500
C 104.687500 632.812500 82.812500 632.812500 82.812500 656.250000
C 82.812500 678.125000 104.687500 679.687500 112.500000 676.562500
M 170.312500 620.312500
C 156.250000 614.062500 143.750000 620.312500 143.750000 639.062500
L 143.750000 678.125000
M 135.937500 645.312500
L 159.375000 645.312500
M 135.937500 678.125000
L 170.312500 678.125000
M 206.250000 628.125000
C 195.312500 628.125000 187.500000 635.937500 187.500000 646.875000
C 187.500000 657.812500 195.312500 665.625000 206.250000 665.625000
C 217.187500 665.625000 225.000000 657.812500 225.000000 646.875000
C 225.000000 635.937500 217.187500 628.125000 206.250000 628.125000
M 187.500000 628.125000
L 192.187500 632.812500
M 225.000000 628.125000
L 220.312500 632.812500
M 187.500000 665.625000
L 192.187500 660.937500
M 225.000000 665.625000
L 220.312500 660.937500
M 242.187500 646.875000
L 279.687500 646.875000
M 242.187500 662.500000
L 279.687500 662.500000
M 235.937500 612.500000
L 260.937500 648.437500
L 260.937500 678.125000
M 285.937500 612.500000
L 260.937500 648.437500
M 300.000000 614.062500
L 300.000000 645.312500
M 300.000000 660.937500
L 300.000000 692.187500
M 331.250000 635.937500
C 325.000000 640.625000 323.437500 642.187500 323.437500 648.437500
C 323.437500 662.500000 353.125000 656.250000 353.125000 671.875000
C 353.125000 678.125000 343.750000 685.937500 323.437500 681.250000
M 345.312500 660.937500
C 350.000000 657.812500 353.125000 656.250000 353.125000 650.000000
C 353.125000 635.937500 323.437500 639.062500 323.437500 626.562500
C 323.437500 620.312500 332.812500 612.500000 350.000000 617.187500
M 370.312500 617.187500
L 370.312500 614.062500
L 373.437500 614.062500
L 373.437500 617.187500
L 370.312500 617.187500
M 385.937500 617.187500
L 385.937500 614.062500
L 389.062500 614.062500
L 389.062500 617.187500
L 385.937500 617.187500
M 431.250000 615.625000
C 412.500000 615.625000 400.000000 628.125000 400.000000 646.875000
C 400.000000 665.625000 412.500000 678.125000 431.250000 678.125000
C 450.000000 678.125000 462.500000 665.625000 462.500000 646.875000
C 462.500000 628.125000 450.000000 615.625000 431.250000 615.625000
M 445.312500 635.937500
C 443.750000 632.812500 437.500000 628.125000 431.250000 628.125000
C 420.312500 628.125000 414.062500 635.937500 414.062500 646.875000
C 414.062500 657.812500 420.312500 665.625000 431.250000 665.625000
C 439.062500 665.625000 443.750000 660.937500 445.312500 657.812500
M 475.000000 614.062500
C 482.812500 610.937500 493.750000 610.937500 493.750000 621.875000
L 493.750000 635.937500
M 493.750000 623.437500
C 485.937500 621.875000 473.437500 621.875000 473.437500 629.687500
C 473.437500 639.062500 493.750000 637.500000 493.750000 625.000000
M 520.312500 634.375000
L 507.812500 651.562500
L 520.312500 668.750000
M 540.625000 634.375000
L 528.125000 651.562500
L 540.625000 668.750000
M 559.375000 643.750000
L 603.125000 643.750000
L 603.125000 662.500000
M 670.312500 615.625000
C 651.562500 615.625000 639.062500 628.125000 639.062500 646.875000
C 639.062500 665.625000 651.562500 678.125000 670.312500 678.125000
C 689.062500 678.125000 701.562500 665.625000 701.562500 646.875000
C 701.562500 628.125000 689.062500 615.625000 670.312500 615.625000
M 659.375000 665.625000
L 659.375000 628.125000
L 668.750000 628.125000
C 684.375000 628.125000 684.375000 646.875000 668.750000 646.875000
L 659.375000 646.875000
M 671.875000 646.875000
L 684.375000 665.625000
M 709.375000 617.187500
L 735.937500 617.187500
M 60.937500 734.375000
C 54.687500 734.375000 50.000000 729.687500 50.000000 723.437500
C 50.000000 717.187500 54.687500 712.500000 60.937500 712.500000
C 67.187500 712.500000 71.875000 717.187500 71.875000 723.437500
C 71.875000 729.687500 67.187500 734.375000 60.937500 734.375000
M 110.937500 729.687500
L 110.937500 764.062500
M 87.500000 746.875000
L 134.375000 746.875000
M 87.500000 773.437500
L 134.375000 773.437500
M 145.312500 714.062500
C 148.437500 712.500000 164.062500 709.375000 164.062500 721.875000
C 164.062500 728.125000 160.937500 731.250000 143.750000 748.437500
L 164.062500 748.437500
M 176.562500 714.062500
C 198.437500 706.250000 203.125000 729.687500 181.250000 729.687500
C 204.687500 729.687500 198.437500 754.687500 175.000000 746.875000
M 212.500000 725.000000
L 221.875000 712.500000
M 284.375000 778.125000
C 282.812500 776.562500 281.250000 775.000000 281.250000 765.625000
L 281.250000 734.375000
M 281.250000 759.375000
C 275.000000 781.250000 243.750000 785.937500 243.750000 759.375000
L 243.750000 734.375000
L 243.750000 800.000000
M 318.750000 712.500000
L 318.750000 785.937500
M 337.500000 785.937500
L 337.500000 712.500000
L 312.500000 712.500000
C 289.062500 712.500000 289.062500 739.062500 312.500000 737.500000
L 318.750000 737.500000
M 360.937500 750.000000
L 360.937500 746.875000
L 364.062500 746.875000
L 364.062500 750.000000
L 360.937500 750.000000
M 400.000000 778.125000
L 393.750000 785.937500
C 409.375000 782.812500 404.687500 804.687500 389.062500 796.875000
M 412.500000 720.312500
L 421.875000 712.500000
L 421.875000 748.437500
M 464.062500 725.000000
C 464.062500 707.812500 440.625000 707.812500 440.625000 725.000000
C 440.625000 742.187500 464.062500 742.187500 464.062500 723.437500
M 482.812500 734.375000
L 495.312500 751.562500
L 482.812500 768.750000
M 503.125000 734.375000
L 515.625000 751.562500
L 503.125000 768.750000
M 534.375000 720.312500
L 543.750000 712.500000
L 543.750000 748.437500
M 581.250000 712.500000
L 543.750000 778.125000
M 590.625000 778.125000
L 590.625000 742.187500
L 573.437500 768.750000
L 593.750000 768.750000
M 615.625000 720.312500
L 625.000000 712.500000
L 625.000000 748.437500
M 662.500000 712.500000
L 625.000000 778.125000
M 660.937500 743.750000
C 662.500000 742.187500 679.687500 739.062500 679.687500 751.562500
C 679.687500 757.812500 676.562500 760.937500 659.375000 778.125000
L 679.687500 778.125000
M 695.312500 714.062500
C 717.187500 706.250000 721.875000 729.687500 700.000000 729.687500
C 723.437500 729.687500 717.187500 754.687500 693.750000 746.875000
M 748.437500 712.500000
L 710.937500 778.125000
M 753.125000 778.125000
L 753.125000 742.187500
L 735.937500 768.750000
L 756.250000 768.750000
M 810.937500 795.312500
C 803.125000 800.000000 773.437500 801.562500 773.437500 782.812500
C 773.437500 770.312500 793.750000 767.187500 793.750000 751.562500
M 795.312500 732.812500
L 795.312500 735.937500
L 792.187500 735.937500
L 792.187500 732.812500
L 795.312500 732.812500
M 79.687500 804.687500
L 70.312500 792.187500
M 50.000000 878.125000
L 76.562500 812.500000
L 103.125000 878.125000
M 59.375000 856.250000
L 93.750000 856.250000
M 143.750000 804.687500
L 153.125000 792.187500
M 120.312500 878.125000
L 146.875000 812.500000
L 173.437500 878.125000
M 129.687500 856.250000
L 164.062500 856.250000
M 190.625000 878.125000
L 217.187500 812.500000
L 243.750000 878.125000
M 200.000000 856.250000
L 234.375000 856.250000
M 209.375000 804.687500
L 217.187500 792.187500
L 225.000000 804.687500
M 260.937500 878.125000
L 287.500000 812.500000
L 314.062500 878.125000
M 270.312500 856.250000
L 304.687500 856.250000
M 275.000000 801.562500
C 284.375000 781.250000 290.625000 818.750000 300.000000 798.437500
M 331.250000 878.125000
L 357.812500 812.500000
L 384.375000 878.125000
M 340.625000 856.250000
L 375.000000 856.250000
M 348.437500 801.562500
L 348.437500 798.437500
L 351.562500 798.437500
L 351.562500 801.562500
L 348.437500 801.562500
M 364.062500 801.562500
L 364.062500 798.437500
L 367.187500 798.437500
L 367.187500 801.562500
L 364.062500 801.562500
M 428.125000 806.250000
C 425.000000 806.250000 421.875000 803.125000 421.875000 800.000000
C 421.875000 796.875000 425.000000 793.750000 428.125000 793.750000
C 431.250000 793.750000 434.375000 796.875000 434.375000 800.000000
C 434.375000 803.125000 431.250000 806.250000 428.125000 806.250000
M 401.562500 878.125000
L 428.125000 812.500000
L 454.687500 878.125000
M 410.937500 856.250000
L 445.312500 856.250000
M 470.312500 878.125000
L 509.375000 812.500000
L 543.750000 812.500000
M 514.062500 812.500000
L 518.750000 878.125000
L 545.312500 878.125000
M 540.625000 843.750000
L 517.187500 843.750000
M 515.625000 856.250000
L 484.375000 856.250000
M 609.375000 815.625000
C 590.625000 807.812500 565.625000 817.187500 565.625000 845.312500
C 565.625000 873.437500 590.625000 882.812500 609.375000 875.000000
M 593.750000 878.125000
L 587.500000 885.937500
C 603.125000 882.812500 598.437500 904.687500 582.812500 896.875000
M 657.812500 812.500000
L 628.125000 812.500000
L 628.125000 878.125000
L 657.812500 878.125000
M 628.125000 843.750000
L 654.687500 843.750000
M 645.312500 804.687500
L 635.937500 792.187500
M 712.500000 812.500000
L 682.812500 812.500000
L 682.812500 878.125000
L 712.500000 878.125000
M 682.812500 843.750000
L 709.375000 843.750000
M 692.187500 804.687500
L 701.562500 792.187500
M 767.187500 812.500000
L 737.500000 812.500000
L 737.500000 878.125000
L 767.187500 878.125000
M 737.500000 843.750000
L 764.062500 843.750000
M 743.750000 804.687500
L 751.562500 792.187500
L 759.375000 804.687500
M 821.875000 812.500000
L 792.187500 812.500000
L 792.187500 878.125000
L 821.875000 878.125000
M 792.187500 843.750000
L 818.750000 843.750000
M 796.875000 801.562500
L 796.875000 798.437500
L 800.000000 798.437500
L 800.000000 801.562500
L 796.875000 801.562500
M 812.500000 801.562500
L 812.500000 798.437500
L 815.625000 798.437500
L 815.625000 801.562500
L 812.500000 801.562500
M 845.312500 812.500000
L 845.312500 878.125000
M 846.875000 804.687500
L 837.500000 792.187500
M 871.875000 812.500000
L 871.875000 878.125000
M 870.312500 804.687500
L 879.687500 792.187500
M 898.437500 812.500000
L 898.437500 878.125000
M 890.625000 804.687500
L 898.437500 792.187500
L 906.250000 804.687500
M 925.000000 812.500000
L 925.000000 878.125000
M 915.625000 801.562500
L 915.625000 798.437500
L 918.750000 798.437500
L 918.750000 801.562500
L 915.625000 801.562500
M 931.250000 801.562500
L 931.250000 798.437500
L 934.375000 798.437500
L 934.375000 801.562500
L 931.250000 801.562500
M 59.375000 978.125000
L 59.375000 912.500000
L 75.000000 912.500000
C 117.187500 912.500000 117.187500 978.125000 75.000000 978.125000
L 59.375000 978.125000
M 50.000000 942.187500
L 81.250000 942.187500
M 131.250000 978.125000
L 131.250000 912.500000
L 175.000000 978.125000
L 175.000000 912.500000
M 140.625000 901.562500
C 150.000000 881.250000 156.250000 918.750000 165.625000 898.437500
M 196.875000 945.312500
C 196.875000 901.562500 253.125000 901.562500 253.125000 945.312500
C 253.125000 989.062500 196.875000 989.062500 196.875000 945.312500
M 228.125000 904.687500
L 218.750000 892.187500
M 273.437500 945.312500
C 273.437500 901.562500 329.687500 901.562500 329.687500 945.312500
C 329.687500 989.062500 273.437500 989.062500 273.437500 945.312500
M 298.437500 904.687500
L 307.812500 892.187500
M 350.000000 945.312500
C 350.000000 901.562500 406.250000 901.562500 406.250000 945.312500
C 406.250000 989.062500 350.000000 989.062500 350.000000 945.312500
M 370.312500 904.687500
L 378.125000 892.187500
L 385.937500 904.687500
M 426.562500 945.312500
C 426.562500 901.562500 482.812500 901.562500 482.812500 945.312500
C 482.812500 989.062500 426.562500 989.062500 426.562500 945.312500
M 442.187500 901.562500
C 451.562500 881.250000 457.812500 918.750000 467.187500 898.437500
M 503.125000 945.312500
C 503.125000 901.562500 559.375000 901.562500 559.375000 945.312500
C 559.375000 989.062500 503.125000 989.062500 503.125000 945.312500
M 521.875000 901.562500
L 521.875000 898.437500
L 525.000000 898.437500
L 525.000000 901.562500
L 521.875000 901.562500
M 537.500000 901.562500
L 537.500000 898.437500
L 540.625000 898.437500
L 540.625000 901.562500
L 537.500000 901.562500
M 581.250000 935.937500
L 617.187500 971.875000
M 581.250000 971.875000
L 617.187500 935.937500
M 639.062500 945.312500
C 639.062500 901.562500 695.312500 901.562500 695.312500 945.312500
C 695.312500 989.062500 639.062500 989.062500 639.062500 945.312500
M 693.750000 910.937500
L 642.187500 978.125000
M 720.312500 912.500000
L 720.312500 950.000000
C 720.312500 987.500000 764.062500 987.500000 764.062500 950.000000
L 764.062500 912.500000
M 745.312500 904.687500
L 735.937500 892.187500
M 790.625000 912.500000
L 790.625000 950.000000
C 790.625000 987.500000 834.375000 987.500000 834.375000 950.000000
L 834.375000 912.500000
M 809.375000 904.687500
L 818.750000 892.187500
M 860.937500 912.500000
L 860.937500 950.000000
C 860.937500 987.500000 904.687500 987.500000 904.687500 950.000000
L 904.687500 912.500000
M 875.000000 904.687500
L 882.812500 892.187500
L 890.625000 904.687500
M 931.250000 912.500000
L 931.250000 950.000000
C 931.250000 987.500000 975.000000 987.500000 975.000000 950.000000
L 975.000000 912.500000
M 943.750000 901.562500
L 943.750000 898.437500
L 946.875000 898.437500
L 946.875000 901.562500
L 943.750000 901.562500
M 959.375000 901.562500
L 959.375000 898.437500
L 962.500000 898.437500
L 962.500000 901.562500
L 959.375000 901.562500
M 995.312500 912.500000
L 1020.312500 948.437500
L 1020.312500 978.125000
M 1045.312500 912.500000
L 1020.312500 948.437500
M 1017.187500 904.687500
L 1026.562500 892.187500
M 1065.625000 978.125000
L 1065.625000 912.500000
M 1065.625000 923.437500
L 1081.250000 923.437500
C 1107.812500 923.437500 1107.812500 957.812500 1081.250000 957.812500
L 1065.625000 957.812500
M 1120.312500 978.125000
L 1120.312500 935.937500
C 1120.312500 920.312500 1125.000000 912.500000 1137.500000 912.500000
C 1162.500000 912.500000 1164.062500 942.187500 1137.500000 943.750000
C 1168.750000 943.750000 1168.750000 987.500000 1132.812500 975.000000
M 53.125000 1037.500000
C 67.187500 1031.250000 87.500000 1032.812500 87.500000 1051.562500
L 87.500000 1078.125000
M 87.500000 1054.687500
C 71.875000 1053.125000 50.000000 1053.125000 50.000000 1067.187500
C 50.000000 1084.375000 87.500000 1081.250000 87.500000 1057.812500
M 73.437500 1020.312500
L 64.062500 1007.812500
M 107.812500 1037.500000
C 121.875000 1031.250000 142.187500 1032.812500 142.187500 1051.562500
L 142.187500 1078.125000
M 142.187500 1054.687500
C 126.562500 1053.125000 104.687500 1053.125000 104.687500 1067.187500
C 104.687500 1084.375000 142.187500 1081.250000 142.187500 1057.812500
M 121.875000 1020.312500
L 131.250000 1007.812500
M 162.500000 1037.500000
C 176.562500 1031.250000 196.875000 1032.812500 196.875000 1051.562500
L 196.875000 1078.125000
M 196.875000 1054.687500
C 181.250000 1053.125000 159.375000 1053.125000 159.375000 1067.187500
C 159.375000 1084.375000 196.875000 1081.250000 196.875000 1057.812500
M 170.312500 1020.312500
L 178.125000 1007.812500
L 185.937500 1020.312500
M 217.187500 1037.500000
C 231.250000 1031.250000 251.562500 1032.812500 251.562500 1051.562500
L 251.562500 1078.125000
M 251.562500 1054.687500
C 235.937500 1053.125000 214.062500 1053.125000 214.062500 1067.187500
C 214.062500 1084.375000 251.562500 1081.250000 251.562500 1057.812500
M 220.312500 1017.187500
C 229.687500 996.875000 235.937500 1034.375000 245.312500 1014.062500
M 271.875000 1037.500000
C 285.937500 1031.250000 306.250000 1032.812500 306.250000 1051.562500
L 306.250000 1078.125000
M 306.250000 1054.687500
C 290.625000 1053.125000 268.750000 1053.125000 268.750000 1067.187500
C 268.750000 1084.375000 306.250000 1081.250000 306.250000 1057.812500
M 279.687500 1017.187500
L 279.687500 1014.062500
L 282.812500 1014.062500
L 282.812500 1017.187500
L 279.687500 1017.187500
M 295.312500 1017.187500
L 295.312500 1014.062500
L 298.437500 1014.062500
L 298.437500 1017.187500
L 295.312500 1017.187500
M 326.562500 1037.500000
C 340.625000 1031.250000 360.937500 1032.812500 360.937500 1051.562500
L 360.937500 1078.125000
M 360.937500 1054.687500
C 345.312500 1053.125000 323.437500 1053.125000 323.437500 1067.187500
C 323.437500 1084.375000 360.937500 1081.250000 360.937500 1057.812500
M 342.187500 1020.312500
C 339.062500 1020.312500 335.937500 1017.187500 335.937500 1014.062500
C 335.937500 1010.937500 339.062500 1007.812500 342.187500 1007.812500
C 345.312500 1007.812500 348.437500 1010.937500 348.437500 1014.062500
C 348.437500 1017.187500 345.312500 1020.312500 342.187500 1020.312500
M 381.250000 1037.500000
C 395.312500 1031.250000 412.500000 1032.812500 412.500000 1051.562500
L 412.500000 1057.812500
C 412.500000 1081.250000 378.125000 1084.375000 378.125000 1067.187500
C 378.125000 1053.125000 400.000000 1053.125000 412.500000 1054.687500
M 412.500000 1054.687500
L 448.437500 1054.687500
M 448.437500 1054.687500
C 448.437500 1028.125000 412.500000 1028.125000 412.500000 1054.687500
C 412.500000 1081.250000 434.375000 1079.687500 448.437500 1075.000000
M 496.875000 1035.937500
C 489.062500 1032.812500 467.187500 1032.812500 467.187500 1056.250000
C 467.187500 1078.125000 489.062500 1079.687500 496.875000 1076.562500
M 487.500000 1078.125000
L 481.250000 1085.937500
C 496.875000 1082.812500 492.187500 1104.687500 476.562500 1096.875000
M 509.375000 1054.687500
L 546.875000 1054.687500
C 546.875000 1028.125000 509.375000 1028.125000 509.375000 1054.687500
C 509.375000 1078.125000 531.250000 1081.250000 546.875000 1075.000000
M 532.812500 1020.312500
L 523.437500 1007.812500
M 564.062500 1054.687500
L 601.562500 1054.687500
C 601.562500 1028.125000 564.062500 1028.125000 564.062500 1054.687500
C 564.062500 1078.125000 585.937500 1081.250000 601.562500 1075.000000
M 579.687500 1020.312500
L 589.062500 1007.812500
M 618.750000 1054.687500
L 656.250000 1054.687500
C 656.250000 1028.125000 618.750000 1028.125000 618.750000 1054.687500
C 618.750000 1078.125000 640.625000 1081.250000 656.250000 1075.000000
M 629.687500 1020.312500
L 637.500000 1007.812500
L 645.312500 1020.312500
M 673.437500 1054.687500
L 710.937500 1054.687500
C 710.937500 1028.125000 673.437500 1028.125000 673.437500 1054.687500
C 673.437500 1078.125000 695.312500 1081.250000 710.937500 1075.000000
M 682.812500 1017.187500
L 682.812500 1014.062500
L 685.937500 1014.062500
L 685.937500 1017.187500
L 682.812500 1017.187500
M 698.437500 1017.187500
L 698.437500 1014.062500
L 701.562500 1014.062500
L 701.562500 1017.187500
L 698.437500 1017.187500
M 734.375000 1034.375000
L 734.375000 1078.125000
M 735.937500 1020.312500
L 726.562500 1007.812500
M 760.937500 1034.375000
L 760.937500 1078.125000
M 759.375000 1020.312500
L 768.750000 1007.812500
M 787.500000 1034.375000
L 787.500000 1078.125000
M 779.687500 1020.312500
L 787.500000 1007.812500
L 795.312500 1020.312500
M 814.062500 1034.375000
L 814.062500 1078.125000
M 804.687500 1017.187500
L 804.687500 1014.062500
L 807.812500 1014.062500
L 807.812500 1017.187500
L 804.687500 1017.187500
M 820.312500 1017.187500
L 820.312500 1014.062500
L 823.437500 1014.062500
L 823.437500 1017.187500
L 820.312500 1017.187500
M 90.625000 1156.250000
C 90.625000 1126.562500 50.000000 1126.562500 50.000000 1156.250000
C 50.000000 1185.937500 90.625000 1185.937500 90.625000 1156.250000
C 90.625000 1139.062500 78.125000 1120.312500 57.812500 1112.500000
M 56.250000 1126.562500
L 82.812500 1112.500000
M 112.500000 1134.375000
L 112.500000 1178.125000
M 112.500000 1153.125000
C 118.750000 1131.250000 150.000000 1126.562500 150.000000 1153.125000
L 150.000000 1178.125000
M 118.750000 1117.187500
C 128.125000 1096.875000 134.375000 1134.375000 143.750000 1114.062500
M 210.937500 1156.250000
C 210.937500 1126.562500 170.312500 1126.562500 170.312500 1156.250000
C 170.312500 1185.937500 210.937500 1185.937500 210.937500 1156.250000
M 193.750000 1120.312500
L 184.375000 1107.812500
M 270.312500 1156.250000
C 270.312500 1126.562500 229.687500 1126.562500 229.687500 1156.250000
C 229.687500 1185.937500 270.312500 1185.937500 270.312500 1156.250000
M 246.875000 1120.312500
L 256.250000 1107.812500
M 329.687500 1156.250000
C 329.687500 1126.562500 289.062500 1126.562500 289.062500 1156.250000
C 289.062500 1185.937500 329.687500 1185.937500 329.687500 1156.250000
M 301.562500 1120.312500
L 309.375000 1107.812500
L 317.187500 1120.312500
M 389.062500 1156.250000
C 389.062500 1126.562500 348.437500 1126.562500 348.437500 1156.250000
C 348.437500 1185.937500 389.062500 1185.937500 389.062500 1156.250000
M 356.250000 1117.187500
C 365.625000 1096.875000 371.875000 1134.375000 381.250000 1114.062500
M 448.437500 1156.250000
C 448.437500 1126.562500 407.812500 1126.562500 407.812500 1156.250000
C 407.812500 1185.937500 448.437500 1185.937500 448.437500 1156.250000
M 418.750000 1117.187500
L 418.750000 1114.062500
L 421.875000 1114.062500
L 421.875000 1117.187500
L 418.750000 1117.187500
M 434.375000 1117.187500
L 434.375000 1114.062500
L 437.500000 1114.062500
L 437.500000 1117.187500
L 434.375000 1117.187500
M 464.062500 1151.562500
L 510.937500 1151.562500
M 485.937500 1173.437500
L 485.937500 1170.312500
L 489.062500 1170.312500
L 489.062500 1173.437500
L 485.937500 1173.437500
M 485.937500 1134.375000
L 485.937500 1131.250000
L 489.062500 1131.250000
L 489.062500 1134.375000
L 485.937500 1134.375000
M 567.187500 1156.250000
C 567.187500 1126.562500 526.562500 1126.562500 526.562500 1156.250000
C 526.562500 1185.937500 567.187500 1185.937500 567.187500 1156.250000
M 564.062500 1131.250000
L 526.562500 1178.125000
M 625.000000 1178.125000
L 625.000000 1134.375000
M 625.000000 1159.375000
C 618.750000 1181.250000 587.500000 1185.937500 587.500000 1159.375000
L 587.500000 1134.375000
M 610.937500 1120.312500
L 601.562500 1107.812500
M 684.375000 1178.125000
L 684.375000 1134.375000
M 684.375000 1159.375000
C 678.125000 1181.250000 646.875000 1185.937500 646.875000 1159.375000
L 646.875000 1134.375000
M 660.937500 1120.312500
L 670.312500 1107.812500
M 743.750000 1178.125000
L 743.750000 1134.375000
M 743.750000 1159.375000
C 737.500000 1181.250000 706.250000 1185.937500 706.250000 1159.375000
L 706.250000 1134.375000
M 717.187500 1120.312500
L 725.000000 1107.812500
L 732.812500 1120.312500
M 803.125000 1178.125000
L 803.125000 1134.375000
M 803.125000 1159.375000
C 796.875000 1181.250000 765.625000 1185.937500 765.625000 1159.375000
L 765.625000 1134.375000
M 775.000000 1117.187500
L 775.000000 1114.062500
L 778.125000 1114.062500
L 778.125000 1117.187500
L 775.000000 1117.187500
M 790.625000 1117.187500
L 790.625000 1114.062500
L 793.750000 1114.062500
L 793.750000 1117.187500
L 790.625000 1117.187500
M 823.437500 1134.375000
L 839.062500 1178.125000
M 854.687500 1134.375000
L 839.062500 1178.125000
C 832.812500 1198.437500 828.125000 1200.000000 818.750000 1196.875000
M 835.937500 1120.312500
L 845.312500 1107.812500
M 875.000000 1112.500000
L 875.000000 1200.000000
M 875.000000 1143.750000
C 879.687500 1137.500000 884.375000 1134.375000 892.187500 1134.375000
C 909.375000 1134.375000 912.500000 1148.437500 912.500000 1156.250000
C 912.500000 1164.062500 909.375000 1178.125000 892.187500 1178.125000
C 884.375000 1178.125000 879.687500 1175.000000 875.000000 1168.750000
M 931.250000 1134.375000
L 946.875000 1178.125000
M 962.500000 1134.375000
L 946.875000 1178.125000
C 940.625000 1198.437500 935.937500 1200.000000 926.562500 1196.875000
M 937.500000 1117.187500
L 937.500000 1114.062500
L 940.625000 1114.062500
L 940.625000 1117.187500
L 937.500000 1117.187500
M 953.125000 1117.187500
L 953.125000 1114.062500
L 956.250000 1114.062500
L 956.250000 1117.187500
L 953.125000 1117.187500
M 50.000000 1278.125000
L 76.562500 1212.500000
L 103.125000 1278.125000
M 59.375000 1256.250000
L 93.750000 1256.250000
M 67.187500 1203.125000
L 85.937500 1203.125000
M 120.312500 1237.500000
C 134.375000 1231.250000 154.687500 1232.812500 154.687500 1251.562500
L 154.687500 1278.125000
M 154.687500 1254.687500
C 139.062500 1253.125000 117.187500 1253.125000 117.187500 1267.187500
C 117.187500 1284.375000 154.687500 1281.250000 154.687500 1257.812500
M 126.562500 1217.187500
L 145.312500 1217.187500
M 175.000000 1278.125000
L 201.562500 1212.500000
L 228.125000 1278.125000
M 184.375000 1256.250000
L 218.750000 1256.250000
M 192.187500 1200.000000
C 196.875000 1206.250000 206.250000 1206.250000 210.937500 1200.000000
M 245.312500 1237.500000
C 259.375000 1231.250000 279.687500 1232.812500 279.687500 1251.562500
L 279.687500 1278.125000
M 279.687500 1254.687500
C 264.062500 1253.125000 242.187500 1253.125000 242.187500 1267.187500
C 242.187500 1284.375000 279.687500 1281.250000 279.687500 1257.812500
M 251.562500 1215.625000
C 256.250000 1221.875000 265.625000 1221.875000 270.312500 1215.625000
M 300.000000 1278.125000
L 326.562500 1212.500000
L 353.125000 1278.125000
M 309.375000 1256.250000
L 343.750000 1256.250000
M 353.125000 1278.125000
C 350.000000 1281.250000 353.125000 1290.625000 364.062500 1285.937500
M 370.312500 1237.500000
C 384.375000 1231.250000 404.687500 1232.812500 404.687500 1251.562500
L 404.687500 1278.125000
M 404.687500 1254.687500
C 389.062500 1253.125000 367.187500 1253.125000 367.187500 1267.187500
C 367.187500 1284.375000 404.687500 1281.250000 404.687500 1257.812500
M 404.687500 1278.125000
C 401.562500 1281.250000 404.687500 1290.625000 415.625000 1285.937500
M 470.312500 1215.625000
C 451.562500 1207.812500 426.562500 1217.187500 426.562500 1245.312500
C 426.562500 1273.437500 451.562500 1282.812500 470.312500 1275.000000
M 454.687500 1204.687500
L 464.062500 1192.187500
M 512.500000 1235.937500
C 504.687500 1232.812500 482.812500 1232.812500 482.812500 1256.250000
C 482.812500 1278.125000 504.687500 1279.687500 512.500000 1276.562500
M 500.000000 1225.000000
L 509.375000 1212.500000
M 578.125000 1215.625000
C 559.375000 1207.812500 534.375000 1217.187500 534.375000 1245.312500
C 534.375000 1273.437500 559.375000 1282.812500 578.125000 1275.000000
M 556.250000 1204.687500
L 564.062500 1192.187500
L 571.875000 1204.687500
M 620.312500 1235.937500
C 612.500000 1232.812500 590.625000 1232.812500 590.625000 1256.250000
C 590.625000 1278.125000 612.500000 1279.687500 620.312500 1276.562500
M 604.687500 1220.312500
L 612.500000 1207.812500
L 620.312500 1220.312500
M 685.937500 1215.625000
C 667.187500 1207.812500 642.187500 1217.187500 642.187500 1245.312500
C 642.187500 1273.437500 667.187500 1282.812500 685.937500 1275.000000
M 670.312500 1201.562500
L 670.312500 1198.437500
L 673.437500 1198.437500
L 673.437500 1201.562500
L 670.312500 1201.562500
M 728.125000 1235.937500
C 720.312500 1232.812500 698.437500 1232.812500 698.437500 1256.250000
C 698.437500 1278.125000 720.312500 1279.687500 728.125000 1276.562500
M 715.625000 1218.750000
L 715.625000 1215.625000
L 718.750000 1215.625000
L 718.750000 1218.750000
L 715.625000 1218.750000
M 793.750000 1215.625000
C 775.000000 1207.812500 750.000000 1217.187500 750.000000 1245.312500
C 750.000000 1273.437500 775.000000 1282.812500 793.750000 1275.000000
M 771.875000 1192.187500
L 779.687500 1204.687500
L 787.500000 1192.187500
M 835.937500 1235.937500
C 828.125000 1232.812500 806.250000 1232.812500 806.250000 1256.250000
C 806.250000 1278.125000 828.125000 1279.687500 835.937500 1276.562500
M 820.312500 1204.687500
L 828.125000 1217.187500
L 835.937500 1204.687500
M 859.375000 1278.125000
L 859.375000 1212.500000
L 875.000000 1212.500000
C 917.187500 1212.500000 917.187500 1278.125000 875.000000 1278.125000
L 859.375000 1278.125000
M 873.437500 1192.187500
L 881.250000 1204.687500
L 889.062500 1192.187500
M 964.062500 1212.500000
L 964.062500 1278.125000
M 964.062500 1256.250000
C 964.062500 1228.125000 926.562500 1228.125000 926.562500 1256.250000
C 926.562500 1284.375000 964.062500 1284.375000 964.062500 1256.250000
M 976.562500 1212.500000
L 973.437500 1225.000000
M 59.375000 1378.125000
L 59.375000 1312.500000
L 75.000000 1312.500000
C 117.187500 1312.500000 117.187500 1378.125000 75.000000 1378.125000
L 59.375000 1378.125000
M 50.000000 1342.187500
L 81.250000 1342.187500
M 164.062500 1312.500000
L 164.062500 1378.125000
M 164.062500 1356.250000
C 164.062500 1328.125000 126.562500 1328.125000 126.562500 1356.250000
C 126.562500 1384.375000 164.062500 1384.375000 164.062500 1356.250000
M 151.562500 1323.437500
L 176.562500 1323.437500
M 220.312500 1312.500000
L 190.625000 1312.500000
L 190.625000 1378.125000
L 220.312500 1378.125000
M 190.625000 1343.750000
L 217.187500 1343.750000
M 195.312500 1303.125000
L 214.062500 1303.125000
M 239.062500 1354.687500
L 276.562500 1354.687500
C 276.562500 1328.125000 239.062500 1328.125000 239.062500 1354.687500
C 239.062500 1378.125000 260.937500 1381.250000 276.562500 1375.000000
M 248.437500 1320.312500
L 267.187500 1320.312500
M 329.687500 1312.500000
L 300.000000 1312.500000
L 300.000000 1378.125000
L 329.687500 1378.125000
M 300.000000 1343.750000
L 326.562500 1343.750000
M 304.687500 1300.000000
C 309.375000 1306.250000 318.750000 1306.250000 323.437500 1300.000000
M 348.437500 1354.687500
L 385.937500 1354.687500
C 385.937500 1328.125000 348.437500 1328.125000 348.437500 1354.687500
C 348.437500 1378.125000 370.312500 1381.250000 385.937500 1375.000000
M 357.812500 1315.625000
C 362.500000 1321.875000 371.875000 1321.875000 376.562500 1315.625000
M 439.062500 1312.500000
L 409.375000 1312.500000
L 409.375000 1378.125000
L 439.062500 1378.125000
M 409.375000 1343.750000
L 435.937500 1343.750000
M 423.437500 1301.562500
L 423.437500 1298.437500
L 426.562500 1298.437500
L 426.562500 1301.562500
L 423.437500 1301.562500
M 457.812500 1354.687500
L 495.312500 1354.687500
C 495.312500 1328.125000 457.812500 1328.125000 457.812500 1354.687500
C 457.812500 1378.125000 479.687500 1381.250000 495.312500 1375.000000
M 475.000000 1317.187500
L 475.000000 1314.062500
L 478.125000 1314.062500
L 478.125000 1317.187500
L 475.000000 1317.187500
M 548.437500 1312.500000
L 518.750000 1312.500000
L 518.750000 1378.125000
L 548.437500 1378.125000
M 518.750000 1343.750000
L 545.312500 1343.750000
M 545.312500 1378.125000
C 542.187500 1381.250000 545.312500 1390.625000 556.250000 1385.937500
M 567.187500 1354.687500
L 604.687500 1354.687500
C 604.687500 1328.125000 567.187500 1328.125000 567.187500 1354.687500
C 567.187500 1378.125000 589.062500 1381.250000 604.687500 1375.000000
M 593.750000 1378.125000
C 590.625000 1381.250000 593.750000 1390.625000 604.687500 1385.937500
M 657.812500 1312.500000
L 628.125000 1312.500000
L 628.125000 1378.125000
L 657.812500 1378.125000
M 628.125000 1343.750000
L 654.687500 1343.750000
M 634.375000 1292.187500
L 642.187500 1304.687500
L 650.000000 1292.187500
M 676.562500 1354.687500
L 714.062500 1354.687500
C 714.062500 1328.125000 676.562500 1328.125000 676.562500 1354.687500
C 676.562500 1378.125000 698.437500 1381.250000 714.062500 1375.000000
M 687.500000 1307.812500
L 695.312500 1320.312500
L 703.125000 1307.812500
M 781.250000 1317.187500
C 762.500000 1306.250000 732.812500 1314.062500 732.812500 1345.312500
C 732.812500 1375.000000 760.937500 1382.812500 781.250000 1375.000000
L 781.250000 1345.312500
L 764.062500 1345.312500
M 756.250000 1304.687500
L 764.062500 1292.187500
L 771.875000 1304.687500
M 839.062500 1334.375000
L 839.062500 1378.125000
C 839.062500 1404.687500 814.062500 1401.562500 804.687500 1396.875000
M 839.062500 1356.250000
C 839.062500 1328.125000 801.562500 1328.125000 801.562500 1356.250000
C 801.562500 1384.375000 839.062500 1384.375000 839.062500 1356.250000
M 812.500000 1320.312500
L 820.312500 1307.812500
L 828.125000 1320.312500
M 910.937500 1317.187500
C 892.187500 1306.250000 862.500000 1314.062500 862.500000 1345.312500
C 862.500000 1375.000000 890.625000 1382.812500 910.937500 1375.000000
L 910.937500 1345.312500
L 893.750000 1345.312500
M 884.375000 1300.000000
C 889.062500 1306.250000 898.437500 1306.250000 903.125000 1300.000000
M 968.750000 1334.375000
L 968.750000 1378.125000
C 968.750000 1404.687500 943.750000 1401.562500 934.375000 1396.875000
M 968.750000 1356.250000
C 968.750000 1328.125000 931.250000 1328.125000 931.250000 1356.250000
C 931.250000 1384.375000 968.750000 1384.375000 968.750000 1356.250000
M 940.625000 1315.625000
C 945.312500 1321.875000 954.687500 1321.875000 959.375000 1315.625000
M 98.437500 1417.187500
C 79.687500 1406.250000 50.000000 1414.062500 50.000000 1445.312500
C 50.000000 1475.000000 78.125000 1482.812500 98.437500 1475.000000
L 98.437500 1445.312500
L 81.250000 1445.312500
M 79.687500 1401.562500
L 79.687500 1398.437500
L 82.812500 1398.437500
L 82.812500 1401.562500
L 79.687500 1401.562500
M 156.250000 1434.375000
L 156.250000 1478.125000
C 156.250000 1504.687500 131.250000 1501.562500 121.875000 1496.875000
M 156.250000 1456.250000
C 156.250000 1428.125000 118.750000 1428.125000 118.750000 1456.250000
C 118.750000 1484.375000 156.250000 1484.375000 156.250000 1456.250000
M 135.937500 1417.187500
L 135.937500 1414.062500
L 139.062500 1414.062500
L 139.062500 1417.187500
L 135.937500 1417.187500
M 228.125000 1417.187500
C 209.375000 1406.250000 179.687500 1414.062500 179.687500 1445.312500
C 179.687500 1475.000000 207.812500 1482.812500 228.125000 1475.000000
L 228.125000 1445.312500
L 210.937500 1445.312500
M 214.062500 1485.937500
L 210.937500 1492.187500
M 285.937500 1434.375000
L 285.937500 1478.125000
C 285.937500 1504.687500 260.937500 1501.562500 251.562500 1496.875000
M 285.937500 1456.250000
C 285.937500 1428.125000 248.437500 1428.125000 248.437500 1456.250000
C 248.437500 1484.375000 285.937500 1484.375000 285.937500 1456.250000
M 268.750000 1407.812500
L 265.625000 1420.312500
M 314.062500 1412.500000
L 314.062500 1478.125000
M 357.812500 1412.500000
L 357.812500 1478.125000
M 314.062500 1443.750000
L 357.812500 1443.750000
M 328.125000 1404.687500
L 335.937500 1392.187500
L 343.750000 1404.687500
M 381.250000 1412.500000
L 381.250000 1478.125000
M 381.250000 1453.125000
C 387.500000 1431.250000 418.750000 1426.562500 418.750000 1453.125000
L 418.750000 1478.125000
M 373.437500 1412.500000
L 381.250000 1400.000000
L 389.062500 1412.500000
M 443.750000 1412.500000
L 443.750000 1478.125000
M 487.500000 1412.500000
L 487.500000 1478.125000
M 443.750000 1443.750000
L 487.500000 1443.750000
M 439.062500 1428.125000
L 492.187500 1428.125000
M 510.937500 1412.500000
L 510.937500 1478.125000
M 510.937500 1453.125000
C 517.187500 1431.250000 548.437500 1426.562500 548.437500 1453.125000
L 548.437500 1478.125000
M 500.000000 1423.437500
L 521.875000 1423.437500
M 571.875000 1412.500000
L 571.875000 1478.125000
M 559.375000 1401.562500
C 568.750000 1381.250000 575.000000 1418.750000 584.375000 1398.437500
M 598.437500 1434.375000
L 598.437500 1478.125000
M 585.937500 1417.187500
C 595.312500 1396.875000 601.562500 1434.375000 610.937500 1414.062500
M 625.000000 1412.500000
L 625.000000 1478.125000
M 615.625000 1403.125000
L 634.375000 1403.125000
M 651.562500 1434.375000
L 651.562500 1478.125000
M 642.187500 1418.750000
L 660.937500 1418.750000
M 678.125000 1412.500000
L 678.125000 1478.125000
M 668.750000 1400.000000
C 673.437500 1406.250000 682.812500 1406.250000 687.500000 1400.000000
M 704.687500 1434.375000
L 704.687500 1478.125000
M 695.312500 1415.625000
C 700.000000 1421.875000 709.375000 1421.875000 714.062500 1415.625000
M 731.250000 1412.500000
L 731.250000 1478.125000
M 731.250000 1478.125000
C 728.125000 1481.250000 731.250000 1490.625000 742.187500 1485.937500
M 757.812500 1434.375000
L 757.812500 1478.125000
M 756.250000 1417.187500
L 756.250000 1414.062500
L 759.375000 1414.062500
L 759.375000 1417.187500
L 756.250000 1417.187500
M 757.812500 1478.125000
C 754.687500 1481.250000 757.812500 1490.625000 768.750000 1485.937500
M 51.562500 1512.500000
L 51.562500 1578.125000
M 50.000000 1501.562500
L 50.000000 1498.437500
L 53.125000 1498.437500
L 53.125000 1501.562500
L 50.000000 1501.562500
M 78.125000 1534.375000
L 78.125000 1578.125000
M 104.687500 1512.500000
L 104.687500 1578.125000
M 125.000000 1512.500000
L 125.000000 1568.750000
C 125.000000 1590.625000 109.375000 1587.500000 104.687500 1585.937500
M 151.562500 1534.375000
L 151.562500 1578.125000
M 150.000000 1517.187500
L 150.000000 1514.062500
L 153.125000 1514.062500
L 153.125000 1517.187500
L 150.000000 1517.187500
M 164.062500 1534.375000
L 164.062500 1585.937500
C 164.062500 1596.875000 157.812500 1601.562500 148.437500 1598.437500
M 162.500000 1517.187500
L 162.500000 1514.062500
L 165.625000 1514.062500
L 165.625000 1517.187500
L 162.500000 1517.187500
M 201.562500 1512.500000
L 201.562500 1559.375000
C 201.562500 1581.250000 185.937500 1578.125000 181.250000 1576.562500
M 193.750000 1504.687500
L 201.562500 1492.187500
L 209.375000 1504.687500
M 228.125000 1534.375000
L 228.125000 1582.812500
C 228.125000 1596.875000 225.000000 1601.562500 215.625000 1598.437500
M 220.312500 1520.312500
L 228.125000 1507.812500
L 235.937500 1520.312500
M 254.687500 1512.500000
L 254.687500 1578.125000
M 296.875000 1512.500000
L 254.687500 1556.250000
M 267.187500 1543.750000
L 298.437500 1578.125000
M 278.125000 1585.937500
L 275.000000 1592.187500
M 318.750000 1512.500000
L 318.750000 1578.125000
M 348.437500 1531.250000
L 318.750000 1560.937500
M 329.687500 1551.562500
L 353.125000 1578.125000
M 339.062500 1585.937500
L 335.937500 1592.187500
M 375.000000 1534.375000
L 375.000000 1578.125000
M 403.125000 1534.375000
L 375.000000 1564.062500
M 384.375000 1554.687500
L 404.687500 1578.125000
M 425.000000 1512.500000
L 425.000000 1578.125000
L 457.812500 1578.125000
M 437.500000 1504.687500
L 446.875000 1492.187500
M 475.000000 1512.500000
L 475.000000 1578.125000
M 473.437500 1504.687500
L 482.812500 1492.187500
M 501.562500 1512.500000
L 501.562500 1578.125000
L 534.375000 1578.125000
M 518.750000 1585.937500
L 515.625000 1592.187500
M 551.562500 1512.500000
L 551.562500 1578.125000
M 553.125000 1585.937500
L 550.000000 1592.187500
M 578.125000 1512.500000
L 578.125000 1578.125000
L 610.937500 1578.125000
M 592.187500 1512.500000
L 589.062500 1518.750000
M 628.125000 1512.500000
L 628.125000 1578.125000
M 639.062500 1512.500000
L 635.937500 1518.750000
M 654.687500 1512.500000
L 654.687500 1578.125000
L 687.500000 1578.125000
M 671.875000 1546.875000
L 671.875000 1543.750000
L 675.000000 1543.750000
L 675.000000 1546.875000
L 671.875000 1546.875000
M 50.000000 1612.500000
L 50.000000 1678.125000
M 59.375000 1646.875000
L 59.375000 1643.750000
L 62.500000 1643.750000
L 62.500000 1646.875000
L 59.375000 1646.875000
M 76.562500 1612.500000
L 76.562500 1678.125000
L 109.375000 1678.125000
M 68.750000 1654.687500
L 100.000000 1635.937500
M 126.562500 1612.500000
L 126.562500 1678.125000
M 118.750000 1651.562500
L 134.375000 1639.062500
M 154.687500 1678.125000
L 154.687500 1612.500000
L 198.437500 1678.125000
L 198.437500 1612.500000
M 171.875000 1604.687500
L 181.250000 1592.187500
M 221.875000 1634.375000
L 221.875000 1678.125000
M 221.875000 1653.125000
C 228.125000 1631.250000 259.375000 1626.562500 259.375000 1653.125000
L 259.375000 1678.125000
M 235.937500 1620.312500
L 245.312500 1607.812500
M 284.375000 1678.125000
L 284.375000 1612.500000
L 328.125000 1678.125000
L 328.125000 1612.500000
M 307.812500 1685.937500
L 304.687500 1692.187500
M 351.562500 1634.375000
L 351.562500 1678.125000
M 351.562500 1653.125000
C 357.812500 1631.250000 389.062500 1626.562500 389.062500 1653.125000
L 389.062500 1678.125000
M 371.875000 1685.937500
L 368.750000 1692.187500
M 414.062500 1678.125000
L 414.062500 1612.500000
L 457.812500 1678.125000
L 457.812500 1612.500000
M 428.125000 1592.187500
L 435.937500 1604.687500
L 443.750000 1592.187500
M 481.250000 1634.375000
L 481.250000 1678.125000
M 481.250000 1653.125000
C 487.500000 1631.250000 518.750000 1626.562500 518.750000 1653.125000
L 518.750000 1678.125000
M 492.187500 1607.812500
L 500.000000 1620.312500
L 507.812500 1607.812500
M 540.625000 1634.375000
L 540.625000 1678.125000
M 540.625000 1653.125000
C 546.875000 1631.250000 578.125000 1626.562500 578.125000 1653.125000
L 578.125000 1678.125000
M 537.500000 1623.437500
L 534.375000 1629.687500
M 603.125000 1612.500000
L 603.125000 1678.125000
M 603.125000 1640.625000
C 609.375000 1609.375000 653.125000 1600.000000 653.125000 1640.625000
L 653.125000 1678.125000
C 653.125000 1695.312500 651.562500 1698.437500 628.125000 1698.437500
M 678.125000 1634.375000
L 678.125000 1678.125000
M 678.125000 1653.125000
C 684.375000 1631.250000 715.625000 1626.562500 715.625000 1653.125000
L 715.625000 1678.125000
C 715.625000 1693.750000 714.062500 1695.312500 698.437500 1695.312500
M 735.937500 1645.312500
C 735.937500 1601.562500 792.187500 1601.562500 792.187500 1645.312500
C 792.187500 1689.062500 735.937500 1689.062500 735.937500 1645.312500
M 754.687500 1603.125000
L 773.437500 1603.125000
M 853.125000 1656.250000
C 853.125000 1626.562500 812.500000 1626.562500 812.500000 1656.250000
C 812.500000 1685.937500 853.125000 1685.937500 853.125000 1656.250000
M 823.437500 1618.750000
L 842.187500 1618.750000
M 871.875000 1645.312500
C 871.875000 1601.562500 928.125000 1601.562500 928.125000 1645.312500
C 928.125000 1689.062500 871.875000 1689.062500 871.875000 1645.312500
M 890.625000 1600.000000
C 895.312500 1606.250000 904.687500 1606.250000 909.375000 1600.000000
M 989.062500 1656.250000
C 989.062500 1626.562500 948.437500 1626.562500 948.437500 1656.250000
C 948.437500 1685.937500 989.062500 1685.937500 989.062500 1656.250000
M 959.375000 1615.625000
C 964.062500 1621.875000 973.437500 1621.875000 978.125000 1615.625000
M 50.000000 1745.312500
C 50.000000 1701.562500 106.250000 1701.562500 106.250000 1745.312500
C 106.250000 1789.062500 50.000000 1789.062500 50.000000 1745.312500
M 71.875000 1704.687500
L 81.250000 1692.187500
M 84.375000 1704.687500
L 93.750000 1692.187500
M 167.187500 1756.250000
C 167.187500 1726.562500 126.562500 1726.562500 126.562500 1756.250000
C 126.562500 1785.937500 167.187500 1785.937500 167.187500 1756.250000
M 140.625000 1720.312500
L 150.000000 1707.812500
M 153.125000 1720.312500
L 162.500000 1707.812500
M 229.687500 1773.437500
C 207.812500 1785.937500 185.937500 1771.875000 185.937500 1745.312500
C 185.937500 1718.750000 207.812500 1704.687500 229.687500 1717.187500
M 259.375000 1712.500000
L 229.687500 1712.500000
L 229.687500 1778.125000
L 259.375000 1778.125000
M 229.687500 1743.750000
L 256.250000 1743.750000
M 317.187500 1756.250000
C 317.187500 1726.562500 276.562500 1726.562500 276.562500 1756.250000
C 276.562500 1785.937500 317.187500 1785.937500 317.187500 1756.250000
M 317.187500 1754.687500
L 354.687500 1754.687500
C 354.687500 1728.125000 317.187500 1728.125000 317.187500 1754.687500
C 317.187500 1778.125000 339.062500 1781.250000 354.687500 1775.000000
M 373.437500 1778.125000
L 373.437500 1712.500000
L 389.062500 1712.500000
C 414.062500 1712.500000 414.062500 1743.750000 389.062500 1743.750000
L 373.437500 1743.750000
M 395.312500 1743.750000
L 412.500000 1778.125000
M 387.500000 1704.687500
L 396.875000 1692.187500
M 432.812500 1734.375000
L 432.812500 1778.125000
M 432.812500 1759.375000
C 435.937500 1743.750000 443.750000 1734.375000 454.687500 1734.375000
M 440.625000 1720.312500
L 450.000000 1707.812500
M 470.312500 1778.125000
L 470.312500 1712.500000
L 485.937500 1712.500000
C 510.937500 1712.500000 510.937500 1743.750000 485.937500 1743.750000
L 470.312500 1743.750000
M 492.187500 1743.750000
L 509.375000 1778.125000
M 490.625000 1785.937500
L 487.500000 1792.187500
M 529.687500 1734.375000
L 529.687500 1778.125000
M 529.687500 1759.375000
C 532.812500 1743.750000 540.625000 1734.375000 551.562500 1734.375000
M 543.750000 1785.937500
L 540.625000 1792.187500
M 567.187500 1778.125000
L 567.187500 1712.500000
L 582.812500 1712.500000
C 607.812500 1712.500000 607.812500 1743.750000 582.812500 1743.750000
L 567.187500 1743.750000
M 589.062500 1743.750000
L 606.250000 1778.125000
M 576.562500 1692.187500
L 584.375000 1704.687500
L 592.187500 1692.187500
M 626.562500 1734.375000
L 626.562500 1778.125000
M 626.562500 1759.375000
C 629.687500 1743.750000 637.500000 1734.375000 648.437500 1734.375000
M 629.687500 1707.812500
L 637.500000 1720.312500
L 645.312500 1707.812500
M 690.625000 1714.062500
C 684.375000 1712.500000 657.812500 1707.812500 657.812500 1728.125000
C 657.812500 1745.312500 693.750000 1742.187500 693.750000 1760.937500
C 692.187500 1782.812500 664.062500 1779.687500 657.812500 1775.000000
M 673.437500 1704.687500
L 682.812500 1692.187500
M 729.687500 1735.937500
C 726.562500 1734.375000 706.250000 1731.250000 706.250000 1745.312500
C 706.250000 1754.687500 729.687500 1756.250000 729.687500 1767.187500
C 729.687500 1781.250000 714.062500 1779.687500 706.250000 1776.562500
M 717.187500 1720.312500
L 726.562500 1707.812500
M 784.375000 1714.062500
C 778.125000 1712.500000 751.562500 1707.812500 751.562500 1728.125000
C 751.562500 1745.312500 787.500000 1742.187500 787.500000 1760.937500
C 785.937500 1782.812500 757.812500 1779.687500 751.562500 1775.000000
M 762.500000 1704.687500
L 770.312500 1692.187500
L 778.125000 1704.687500
M 823.437500 1735.937500
C 820.312500 1734.375000 800.000000 1731.250000 800.000000 1745.312500
C 800.000000 1754.687500 823.437500 1756.250000 823.437500 1767.187500
C 823.437500 1781.250000 807.812500 1779.687500 800.000000 1776.562500
M 804.687500 1720.312500
L 812.500000 1707.812500
L 820.312500 1720.312500
M 878.125000 1714.062500
C 871.875000 1712.500000 845.312500 1707.812500 845.312500 1728.125000
C 845.312500 1745.312500 881.250000 1742.187500 881.250000 1760.937500
C 879.687500 1782.812500 851.562500 1779.687500 845.312500 1775.000000
M 865.625000 1778.125000
L 859.375000 1785.937500
C 875.000000 1782.812500 870.312500 1804.687500 854.687500 1796.875000
M 925.000000 1735.937500
C 921.875000 1734.375000 901.562500 1731.250000 901.562500 1745.312500
C 901.562500 1754.687500 925.000000 1756.250000 925.000000 1767.187500
C 925.000000 1781.250000 909.375000 1779.687500 901.562500 1776.562500
M 917.187500 1778.125000
L 910.937500 1785.937500
C 926.562500 1782.812500 921.875000 1804.687500 906.250000 1796.875000
M 82.812500 1814.062500
C 76.562500 1812.500000 50.000000 1807.812500 50.000000 1828.125000
C 50.000000 1845.312500 85.937500 1842.187500 85.937500 1860.937500
C 84.375000 1882.812500 56.250000 1879.687500 50.000000 1875.000000
M 60.937500 1792.187500
L 68.750000 1804.687500
L 76.562500 1792.187500
M 121.875000 1835.937500
C 118.750000 1834.375000 98.437500 1831.250000 98.437500 1845.312500
C 98.437500 1854.687500 121.875000 1856.250000 121.875000 1867.187500
C 121.875000 1881.250000 106.250000 1879.687500 98.437500 1876.562500
M 103.125000 1807.812500
L 110.937500 1820.312500
L 118.750000 1807.812500
M 156.250000 1812.500000
L 156.250000 1878.125000
M 134.375000 1812.500000
L 178.125000 1812.500000
M 156.250000 1878.125000
L 150.000000 1885.937500
C 165.625000 1882.812500 160.937500 1904.687500 145.312500 1896.875000
M 201.562500 1818.750000
L 201.562500 1862.500000
C 201.562500 1876.562500 207.812500 1879.687500 215.625000 1876.562500
M 189.062500 1834.375000
L 214.062500 1834.375000
M 210.937500 1878.125000
L 204.687500 1885.937500
C 220.312500 1882.812500 215.625000 1904.687500 200.000000 1896.875000
M 250.000000 1812.500000
L 250.000000 1878.125000
M 228.125000 1812.500000
L 271.875000 1812.500000
M 242.187500 1792.187500
L 250.000000 1804.687500
L 257.812500 1792.187500
M 295.312500 1818.750000
L 295.312500 1862.500000
C 295.312500 1876.562500 301.562500 1879.687500 309.375000 1876.562500
M 282.812500 1834.375000
L 307.812500 1834.375000
M 306.250000 1812.500000
L 303.125000 1818.750000
M 343.750000 1812.500000
L 343.750000 1878.125000
M 321.875000 1812.500000
L 365.625000 1812.500000
M 332.812500 1845.312500
L 354.687500 1845.312500
M 389.062500 1818.750000
L 389.062500 1862.500000
C 389.062500 1876.562500 395.312500 1879.687500 403.125000 1876.562500
M 376.562500 1834.375000
L 401.562500 1834.375000
M 376.562500 1850.000000
L 401.562500 1850.000000
M 423.437500 1812.500000
L 423.437500 1850.000000
C 423.437500 1887.500000 467.187500 1887.500000 467.187500 1850.000000
L 467.187500 1812.500000
M 432.812500 1801.562500
C 442.187500 1781.250000 448.437500 1818.750000 457.812500 1798.437500
M 529.687500 1878.125000
L 529.687500 1834.375000
M 529.687500 1859.375000
C 523.437500 1881.250000 492.187500 1885.937500 492.187500 1859.375000
L 492.187500 1834.375000
M 498.437500 1817.187500
C 507.812500 1796.875000 514.062500 1834.375000 523.437500 1814.062500
M 553.125000 1812.500000
L 553.125000 1850.000000
C 553.125000 1887.500000 596.875000 1887.500000 596.875000 1850.000000
L 596.875000 1812.500000
M 565.625000 1803.125000
L 584.375000 1803.125000
M 659.375000 1878.125000
L 659.375000 1834.375000
M 659.375000 1859.375000
C 653.125000 1881.250000 621.875000 1885.937500 621.875000 1859.375000
L 621.875000 1834.375000
M 631.250000 1818.750000
L 650.000000 1818.750000
M 682.812500 1812.500000
L 682.812500 1850.000000
C 682.812500 1887.500000 726.562500 1887.500000 726.562500 1850.000000
L 726.562500 1812.500000
M 695.312500 1800.000000
C 700.000000 1806.250000 709.375000 1806.250000 714.062500 1800.000000
M 789.062500 1878.125000
L 789.062500 1834.375000
M 789.062500 1859.375000
C 782.812500 1881.250000 751.562500 1885.937500 751.562500 1859.375000
L 751.562500 1834.375000
M 760.937500 1815.625000
C 765.625000 1821.875000 775.000000 1821.875000 779.687500 1815.625000
M 812.500000 1812.500000
L 812.500000 1850.000000
C 812.500000 1887.500000 856.250000 1887.500000 856.250000 1850.000000
L 856.250000 1812.500000
M 834.375000 1806.250000
C 831.250000 1806.250000 828.125000 1803.125000 828.125000 1800.000000
C 828.125000 1796.875000 831.250000 1793.750000 834.375000 1793.750000
C 837.500000 1793.750000 840.625000 1796.875000 840.625000 1800.000000
C 840.625000 1803.125000 837.500000 1806.250000 834.375000 1806.250000
M 918.750000 1878.125000
L 918.750000 1834.375000
M 918.750000 1859.375000
C 912.500000 1881.250000 881.250000 1885.937500 881.250000 1859.375000
L 881.250000 1834.375000
M 900.000000 1820.312500
C 896.875000 1820.312500 893.750000 1817.187500 893.750000 1814.062500
C 893.750000 1810.937500 896.875000 1807.812500 900.000000 1807.812500
C 903.125000 1807.812500 906.250000 1810.937500 906.250000 1814.062500
C 906.250000 1817.187500 903.125000 1820.312500 900.000000 1820.312500
M 50.000000 1912.500000
L 50.000000 1950.000000
C 50.000000 1987.500000 93.750000 1987.500000 93.750000 1950.000000
L 93.750000 1912.500000
M 65.625000 1904.687500
L 75.000000 1892.187500
M 78.125000 1904.687500
L 87.500000 1892.187500
M 156.250000 1978.125000
L 156.250000 1934.375000
M 156.250000 1959.375000
C 150.000000 1981.250000 118.750000 1985.937500 118.750000 1959.375000
L 118.750000 1934.375000
M 131.250000 1920.312500
L 140.625000 1907.812500
M 143.750000 1920.312500
L 153.125000 1907.812500
M 179.687500 1912.500000
L 179.687500 1950.000000
C 179.687500 1987.500000 223.437500 1987.500000 223.437500 1950.000000
L 223.437500 1912.500000
M 201.562500 1978.125000
C 198.437500 1981.250000 201.562500 1990.625000 212.500000 1985.937500
M 285.937500 1978.125000
L 285.937500 1934.375000
M 285.937500 1959.375000
C 279.687500 1981.250000 248.437500 1985.937500 248.437500 1959.375000
L 248.437500 1934.375000
M 264.062500 1978.125000
C 260.937500 1981.250000 264.062500 1990.625000 275.000000 1985.937500
M 303.125000 1912.500000
L 321.875000 1978.125000
L 334.375000 1934.375000
L 346.875000 1978.125000
L 365.625000 1912.500000
M 326.562500 1904.687500
L 334.375000 1892.187500
L 342.187500 1904.687500
M 376.562500 1934.375000
L 392.187500 1978.125000
L 407.812500 1934.375000
L 423.437500 1978.125000
L 439.062500 1934.375000
M 400.000000 1920.312500
L 407.812500 1907.812500
L 415.625000 1920.312500
M 448.437500 1912.500000
L 473.437500 1948.437500
L 473.437500 1978.125000
M 498.437500 1912.500000
L 473.437500 1948.437500
M 465.625000 1904.687500
L 473.437500 1892.187500
L 481.250000 1904.687500
M 515.625000 1934.375000
L 531.250000 1978.125000
M 546.875000 1934.375000
L 531.250000 1978.125000
C 525.000000 1998.437500 520.312500 2000.000000 510.937500 1996.875000
M 523.437500 1920.312500
L 531.250000 1907.812500
L 539.062500 1920.312500
M 562.500000 1912.500000
L 587.500000 1948.437500
L 587.500000 1978.125000
M 612.500000 1912.500000
L 587.500000 1948.437500
M 578.125000 1901.562500
L 578.125000 1898.437500
L 581.250000 1898.437500
L 581.250000 1901.562500
L 578.125000 1901.562500
M 593.750000 1901.562500
L 593.750000 1898.437500
L 596.875000 1898.437500
L 596.875000 1901.562500
L 593.750000 1901.562500
M 625.000000 1912.500000
L 668.750000 1912.500000
L 625.000000 1978.125000
L 668.750000 1978.125000
M 645.312500 1904.687500
L 654.687500 1892.187500
M 682.812500 1934.375000
L 717.187500 1934.375000
L 682.812500 1978.125000
L 717.187500 1978.125000
M 698.437500 1920.312500
L 707.812500 1907.812500
M 728.125000 1912.500000
L 771.875000 1912.500000
L 728.125000 1978.125000
L 771.875000 1978.125000
M 748.437500 1901.562500
L 748.437500 1898.437500
L 751.562500 1898.437500
L 751.562500 1901.562500
L 748.437500 1901.562500
M 785.937500 1934.375000
L 820.312500 1934.375000
L 785.937500 1978.125000
L 820.312500 1978.125000
M 803.125000 1918.750000
L 803.125000 1915.625000
L 806.250000 1915.625000
L 806.250000 1918.750000
L 803.125000 1918.750000
M 831.250000 1912.500000
L 875.000000 1912.500000
L 831.250000 1978.125000
L 875.000000 1978.125000
M 845.312500 1892.187500
L 853.125000 1904.687500
L 860.937500 1892.187500
M 889.062500 1934.375000
L 923.437500 1934.375000
L 889.062500 1978.125000
L 923.437500 1978.125000
M 898.437500 1907.812500
L 906.250000 1920.312500
L 914.062500 1907.812500
M 962.500000 1914.062500
C 953.125000 1910.937500 946.875000 1915.625000 946.875000 1926.562500
L 946.875000 1978.125000
M 934.375000 1935.937500
L 946.875000 1935.937500
M 50.000000 2009.375000
L 50.000000 2087.500000
M 76.562500 2009.375000
L 76.562500 2087.500000
M 89.062500 2009.375000
L 89.062500 2087.500000
M 118.750000 2009.375000
L 118.750000 2087.500000
M 107.812500 2037.500000
L 129.687500 2037.500000
M 129.687500 2056.250000
L 107.812500 2056.250000
M 154.687500 2012.500000
L 154.687500 2056.250000
M 153.125000 2078.125000
L 153.125000 2075.000000
L 156.250000 2075.000000
L 156.250000 2078.125000
L 153.125000 2078.125000
M 185.937500 2078.125000
L 185.937500 2012.500000
L 201.562500 2012.500000
C 243.750000 2012.500000 243.750000 2078.125000 201.562500 2078.125000
L 185.937500 2078.125000
M 235.937500 2012.500000
L 279.687500 2012.500000
L 235.937500 2078.125000
L 279.687500 2078.125000
M 250.000000 1992.187500
L 257.812500 2004.687500
L 265.625000 1992.187500
M 298.437500 2078.125000
L 298.437500 2012.500000
L 314.062500 2012.500000
C 356.250000 2012.500000 356.250000 2078.125000 314.062500 2078.125000
L 298.437500 2078.125000
M 353.125000 2034.375000
L 387.500000 2034.375000
L 353.125000 2078.125000
L 387.500000 2078.125000
M 362.500000 2007.812500
L 370.312500 2020.312500
L 378.125000 2007.812500
M 440.625000 2012.500000
L 440.625000 2078.125000
M 440.625000 2056.250000
C 440.625000 2028.125000 403.125000 2028.125000 403.125000 2056.250000
C 403.125000 2084.375000 440.625000 2084.375000 440.625000 2056.250000
M 451.562500 2034.375000
L 485.937500 2034.375000
L 451.562500 2078.125000
L 485.937500 2078.125000
M 460.937500 2007.812500
L 468.750000 2020.312500
L 476.562500 2007.812500
M 504.687500 2012.500000
L 504.687500 2078.125000
L 537.500000 2078.125000
M 553.125000 2012.500000
L 553.125000 2068.750000
C 553.125000 2090.625000 537.500000 2087.500000 532.812500 2085.937500
M 579.687500 2012.500000
L 579.687500 2078.125000
L 612.500000 2078.125000
M 625.000000 2034.375000
L 625.000000 2082.812500
C 625.000000 2096.875000 621.875000 2101.562500 612.500000 2098.437500
M 623.437500 2017.187500
L 623.437500 2014.062500
L 626.562500 2014.062500
L 626.562500 2017.187500
L 623.437500 2017.187500
M 650.000000 2012.500000
L 650.000000 2078.125000
M 662.500000 2034.375000
L 662.500000 2082.812500
C 662.500000 2096.875000 659.375000 2101.562500 650.000000 2098.437500
M 660.937500 2017.187500
L 660.937500 2014.062500
L 664.062500 2014.062500
L 664.062500 2017.187500
L 660.937500 2017.187500
M 690.625000 2078.125000
L 690.625000 2012.500000
L 734.375000 2078.125000
L 734.375000 2012.500000
M 750.000000 2012.500000
L 750.000000 2068.750000
C 750.000000 2090.625000 734.375000 2087.500000 729.687500 2085.937500
M 778.125000 2078.125000
L 778.125000 2012.500000
L 821.875000 2078.125000
L 821.875000 2012.500000
M 834.375000 2034.375000
L 834.375000 2082.812500
C 834.375000 2096.875000 831.250000 2101.562500 821.875000 2098.437500
M 832.812500 2017.187500
L 832.812500 2014.062500
L 835.937500 2014.062500
L 835.937500 2017.187500
L 832.812500 2017.187500
M 857.812500 2034.375000
L 857.812500 2078.125000
M 857.812500 2053.125000
C 864.062500 2031.250000 895.312500 2026.562500 895.312500 2053.125000
L 895.312500 2078.125000
M 907.812500 2034.375000
L 907.812500 2082.812500
C 907.812500 2096.875000 904.687500 2101.562500 895.312500 2098.437500
M 906.250000 2017.187500
L 906.250000 2014.062500
L 909.375000 2014.062500
L 909.375000 2017.187500
L 906.250000 2017.187500
M 929.687500 2078.125000
L 956.250000 2012.500000
L 982.812500 2078.125000
M 939.062500 2056.250000
L 973.437500 2056.250000
M 948.437500 1992.187500
L 956.250000 2004.687500
L 964.062500 1992.187500
M 1000.000000 2037.500000
C 1014.062500 2031.250000 1034.375000 2032.812500 1034.375000 2051.562500
L 1034.375000 2078.125000
M 1034.375000 2054.687500
C 1018.750000 2053.125000 996.875000 2053.125000 996.875000 2067.187500
C 996.875000 2084.375000 1034.375000 2081.250000 1034.375000 2057.812500
M 1007.812500 2007.812500
L 1015.625000 2020.312500
L 1023.437500 2007.812500
M 1057.812500 2012.500000
L 1057.812500 2078.125000
M 1050.000000 1992.187500
L 1057.812500 2004.687500
L 1065.625000 1992.187500
M 50.000000 2151.562500
L 75.000000 2151.562500
M 87.500000 2151.562500
L 112.500000 2151.562500
M 126.562500 2151.562500
L 164.062500 2151.562500
M 173.437500 2151.562500
L 217.187500 2151.562500
M 217.187500 2151.562500
L 304.687500 2151.562500
M 304.687500 2151.562500
L 367.187500 2151.562500
M 398.437500 2112.500000
L 398.437500 2178.125000
M 410.937500 2178.125000
L 410.937500 2112.500000
M 432.812500 2178.125000
L 470.312500 2178.125000
M 470.312500 2165.625000
L 432.812500 2165.625000
M 489.062500 2125.000000
L 490.625000 2125.000000
L 490.625000 2128.125000
L 487.500000 2128.125000
C 487.500000 2121.875000 489.062500 2115.625000 493.750000 2112.500000
M 518.750000 2115.625000
L 517.187500 2115.625000
L 517.187500 2112.500000
L 520.312500 2112.500000
C 520.312500 2118.750000 518.750000 2125.000000 514.062500 2128.125000
M 543.750000 2178.125000
L 542.187500 2178.125000
L 542.187500 2175.000000
L 545.312500 2175.000000
C 545.312500 2181.250000 543.750000 2187.500000 539.062500 2190.625000
M 568.750000 2115.625000
L 570.312500 2115.625000
L 570.312500 2112.500000
L 567.187500 2112.500000
C 567.187500 2118.750000 568.750000 2125.000000 573.437500 2128.125000
M 601.562500 2125.000000
L 603.125000 2125.000000
L 603.125000 2128.125000
L 600.000000 2128.125000
C 600.000000 2121.875000 601.562500 2115.625000 606.250000 2112.500000
M 620.312500 2125.000000
L 621.875000 2125.000000
L 621.875000 2128.125000
L 618.750000 2128.125000
C 618.750000 2121.875000 620.312500 2115.625000 625.000000 2112.500000
M 657.812500 2115.625000
L 656.250000 2115.625000
L 656.250000 2112.500000
L 659.375000 2112.500000
C 659.375000 2118.750000 657.812500 2125.000000 653.125000 2128.125000
M 676.562500 2115.625000
L 675.000000 2115.625000
L 675.000000 2112.500000
L 678.125000 2112.500000
C 678.125000 2118.750000 676.562500 2125.000000 671.875000 2128.125000
M 712.500000 2175.000000
L 710.937500 2175.000000
L 710.937500 2171.875000
L 714.062500 2171.875000
C 714.062500 2178.125000 712.500000 2184.375000 707.812500 2187.500000
M 731.250000 2175.000000
L 729.687500 2175.000000
L 729.687500 2171.875000
L 732.812500 2171.875000
C 732.812500 2178.125000 731.250000 2184.375000 726.562500 2187.500000
M 765.625000 2115.625000
L 767.187500 2115.625000
L 767.187500 2112.500000
L 764.062500 2112.500000
C 764.062500 2118.750000 765.625000 2125.000000 770.312500 2128.125000
M 784.375000 2115.625000
L 785.937500 2115.625000
L 785.937500 2112.500000
L 782.812500 2112.500000
C 782.812500 2118.750000 784.375000 2125.000000 789.062500 2128.125000
M 68.750000 2212.500000
L 68.750000 2278.125000
M 50.000000 2231.250000
L 87.500000 2231.250000
M 123.437500 2212.500000
L 123.437500 2278.125000
M 104.687500 2231.250000
L 142.187500 2231.250000
M 104.687500 2259.375000
L 142.187500 2259.375000
M 162.500000 2245.312500
C 162.500000 2235.937500 168.750000 2231.250000 176.562500 2231.250000
C 184.375000 2231.250000 190.625000 2237.500000 190.625000 2245.312500
C 190.625000 2253.125000 184.375000 2259.375000 176.562500 2259.375000
C 168.750000 2259.375000 162.500000 2253.125000 162.500000 2245.312500
M 165.625000 2239.062500
L 165.625000 2251.562500
M 168.750000 2254.687500
L 168.750000 2235.937500
M 171.875000 2234.375000
L 171.875000 2256.250000
M 175.000000 2257.812500
L 175.000000 2232.812500
M 178.125000 2232.812500
L 178.125000 2257.812500
M 181.250000 2256.250000
L 181.250000 2234.375000
M 184.375000 2235.937500
L 184.375000 2254.687500
M 187.500000 2251.562500
L 187.500000 2239.062500
M 214.062500 2278.125000
L 214.062500 2212.500000
L 257.812500 2212.500000
L 257.812500 2278.125000
L 214.062500 2278.125000
M 284.375000 2278.125000
L 284.375000 2212.500000
L 328.125000 2212.500000
L 328.125000 2278.125000
L 284.375000 2278.125000
M 354.687500 2278.125000
L 354.687500 2212.500000
L 398.437500 2212.500000
L 398.437500 2278.125000
L 354.687500 2278.125000
M 425.000000 2276.562500
L 425.000000 2273.437500
L 428.125000 2273.437500
L 428.125000 2276.562500
L 425.000000 2276.562500
M 457.812500 2276.562500
L 457.812500 2273.437500
L 460.937500 2273.437500
L 460.937500 2276.562500
L 457.812500 2276.562500
M 490.625000 2276.562500
L 490.625000 2273.437500
L 493.750000 2273.437500
L 493.750000 2276.562500
L 490.625000 2276.562500
M 523.437500 2278.125000
L 523.437500 2212.500000
L 567.187500 2212.500000
L 567.187500 2278.125000
L 523.437500 2278.125000
M 593.750000 2278.125000
L 593.750000 2212.500000
L 637.500000 2212.500000
L 637.500000 2278.125000
L 593.750000 2278.125000
M 664.062500 2278.125000
L 664.062500 2212.500000
L 707.812500 2212.500000
L 707.812500 2278.125000
L 664.062500 2278.125000
M 734.375000 2278.125000
L 734.375000 2212.500000
L 778.125000 2212.500000
L 778.125000 2278.125000
L 734.375000 2278.125000
M 804.687500 2278.125000
L 804.687500 2212.500000
L 848.437500 2212.500000
L 848.437500 2278.125000
L 804.687500 2278.125000
M 875.000000 2278.125000
L 875.000000 2212.500000
L 918.750000 2212.500000
L 918.750000 2278.125000
L 875.000000 2278.125000
M 945.312500 2278.125000
L 945.312500 2212.500000
L 989.062500 2212.500000
L 989.062500 2278.125000
L 945.312500 2278.125000
M 1015.625000 2278.125000
L 1015.625000 2212.500000
L 1059.375000 2212.500000
L 1059.375000 2278.125000
L 1015.625000 2278.125000
M 68.750000 2329.687500
C 68.750000 2307.812500 50.000000 2307.812500 50.000000 2329.687500
C 50.000000 2351.562500 68.750000 2351.562500 68.750000 2329.687500
M 96.875000 2312.500000
L 57.812500 2378.125000
M 104.687500 2360.937500
C 104.687500 2339.062500 85.937500 2339.062500 85.937500 2360.937500
C 85.937500 2382.812500 104.687500 2382.812500 104.687500 2360.937500
M 135.937500 2360.937500
C 135.937500 2339.062500 117.187500 2339.062500 117.187500 2360.937500
C 117.187500 2382.812500 135.937500 2382.812500 135.937500 2360.937500
M 156.250000 2378.125000
L 156.250000 2312.500000
L 200.000000 2312.500000
L 200.000000 2378.125000
L 156.250000 2378.125000
M 226.562500 2378.125000
L 226.562500 2312.500000
L 270.312500 2312.500000
L 270.312500 2378.125000
L 226.562500 2378.125000
M 296.875000 2378.125000
L 296.875000 2312.500000
L 340.625000 2312.500000
L 340.625000 2378.125000
L 296.875000 2378.125000
M 367.187500 2378.125000
L 367.187500 2312.500000
L 410.937500 2312.500000
L 410.937500 2378.125000
L 367.187500 2378.125000
M 437.500000 2378.125000
L 437.500000 2312.500000
L 481.250000 2312.500000
L 481.250000 2378.125000
L 437.500000 2378.125000
M 507.812500 2378.125000
L 507.812500 2312.500000
L 551.562500 2312.500000
L 551.562500 2378.125000
L 507.812500 2378.125000
M 578.125000 2378.125000
L 578.125000 2312.500000
L 621.875000 2312.500000
L 621.875000 2378.125000
L 578.125000 2378.125000
M 648.437500 2378.125000
L 648.437500 2312.500000
L 692.187500 2312.500000
L 692.187500 2378.125000
L 648.437500 2378.125000
M 723.437500 2334.375000
L 710.937500 2351.562500
L 723.437500 2368.750000
M 739.062500 2334.375000
L 751.562500 2351.562500
L 739.062500 2368.750000
M 771.875000 2378.125000
L 771.875000 2312.500000
L 815.625000 2312.500000
L 815.625000 2378.125000
L 771.875000 2378.125000
M 842.187500 2378.125000
L 842.187500 2312.500000
L 885.937500 2312.500000
L 885.937500 2378.125000
L 842.187500 2378.125000
M 912.500000 2378.125000
L 912.500000 2312.500000
L 956.250000 2312.500000
L 956.250000 2378.125000
L 912.500000 2378.125000
M 982.812500 2378.125000
L 982.812500 2312.500000
L 1026.562500 2312.500000
L 1026.562500 2378.125000
L 982.812500 2378.125000
M 1053.125000 2378.125000
L 1053.125000 2312.500000
L 1096.875000 2312.500000
L 1096.875000 2378.125000
L 1053.125000 2378.125000
M 70.312500 2429.687500
C 70.312500 2406.250000 50.000000 2406.250000 50.000000 2429.687500
C 50.000000 2454.687500 70.312500 2454.687500 70.312500 2429.687500
M 82.812500 2425.000000
L 82.812500 2448.437500
M 82.812500 2415.625000
L 82.812500 2412.500000
L 84.375000 2412.500000
L 84.375000 2415.625000
L 82.812500 2415.625000
M 104.687500 2478.125000
L 104.687500 2412.500000
L 148.437500 2412.500000
L 148.437500 2478.125000
L 104.687500 2478.125000
M 175.000000 2478.125000
L 175.000000 2412.500000
L 218.750000 2412.500000
L 218.750000 2478.125000
L 175.000000 2478.125000
M 251.562500 2448.437500
L 251.562500 2412.500000
L 234.375000 2439.062500
L 254.687500 2439.062500
M 284.375000 2412.500000
L 267.187500 2412.500000
L 265.625000 2428.125000
C 273.437500 2425.000000 285.937500 2428.125000 285.937500 2437.500000
C 285.937500 2450.000000 268.750000 2450.000000 265.625000 2446.875000
M 315.625000 2414.062500
C 314.062500 2412.500000 296.875000 2407.812500 296.875000 2432.812500
C 296.875000 2454.687500 317.187500 2450.000000 317.187500 2437.500000
C 317.187500 2426.562500 300.000000 2421.875000 298.437500 2437.500000
M 328.125000 2412.500000
L 348.437500 2412.500000
L 334.375000 2448.437500
M 378.125000 2420.312500
C 378.125000 2409.375000 360.937500 2409.375000 360.937500 2420.312500
C 360.937500 2429.687500 379.687500 2429.687500 379.687500 2440.625000
C 379.687500 2451.562500 359.375000 2451.562500 359.375000 2440.625000
C 359.375000 2429.687500 378.125000 2429.687500 378.125000 2420.312500
M 392.187500 2446.875000
C 395.312500 2448.437500 410.937500 2453.125000 410.937500 2428.125000
C 410.937500 2406.250000 390.625000 2410.937500 390.625000 2423.437500
C 390.625000 2434.375000 407.812500 2439.062500 410.937500 2423.437500
M 434.375000 2420.312500
L 434.375000 2445.312500
M 421.875000 2432.812500
L 446.875000 2432.812500
M 453.125000 2428.125000
L 478.125000 2428.125000
M 484.375000 2420.312500
L 509.375000 2420.312500
M 484.375000 2432.812500
L 509.375000 2432.812500
M 526.562500 2404.687500
C 515.625000 2418.750000 515.625000 2435.937500 526.562500 2450.000000
M 535.937500 2404.687500
C 546.875000 2418.750000 546.875000 2435.937500 535.937500 2450.000000
M 556.250000 2425.000000
L 556.250000 2448.437500
M 556.250000 2434.375000
C 559.375000 2423.437500 576.562500 2420.312500 576.562500 2434.375000
L 576.562500 2448.437500
M 70.312500 2564.062500
C 70.312500 2540.625000 50.000000 2540.625000 50.000000 2564.062500
C 50.000000 2589.062500 70.312500 2589.062500 70.312500 2564.062500
M 84.375000 2554.687500
L 93.750000 2546.875000
L 93.750000 2582.812500
M 112.500000 2548.437500
C 115.625000 2546.875000 131.250000 2543.750000 131.250000 2556.250000
C 131.250000 2562.500000 128.125000 2565.625000 110.937500 2582.812500
L 131.250000 2582.812500
M 143.750000 2548.437500
C 165.625000 2540.625000 170.312500 2564.062500 148.437500 2564.062500
C 171.875000 2564.062500 165.625000 2589.062500 142.187500 2581.250000
M 190.625000 2582.812500
L 190.625000 2546.875000
L 173.437500 2573.437500
L 193.750000 2573.437500
M 223.437500 2546.875000
L 206.250000 2546.875000
L 204.687500 2562.500000
C 212.500000 2559.375000 225.000000 2562.500000 225.000000 2571.875000
C 225.000000 2584.375000 207.812500 2584.375000 204.687500 2581.250000
M 254.687500 2548.437500
C 253.125000 2546.875000 235.937500 2542.187500 235.937500 2567.187500
C 235.937500 2589.062500 256.250000 2584.375000 256.250000 2571.875000
C 256.250000 2560.937500 239.062500 2556.250000 237.500000 2571.875000
M 267.187500 2546.875000
L 287.500000 2546.875000
L 273.437500 2582.812500
M 317.187500 2554.687500
C 317.187500 2543.750000 300.000000 2543.750000 300.000000 2554.687500
C 300.000000 2564.062500 318.750000 2564.062500 318.750000 2575.000000
C 318.750000 2585.937500 298.437500 2585.937500 298.437500 2575.000000
C 298.437500 2564.062500 317.187500 2564.062500 317.187500 2554.687500
M 331.250000 2581.250000
C 334.375000 2582.812500 350.000000 2587.500000 350.000000 2562.500000
C 350.000000 2540.625000 329.687500 2545.312500 329.687500 2557.812500
C 329.687500 2568.750000 346.875000 2573.437500 350.000000 2557.812500
M 373.437500 2556.250000
L 373.437500 2581.250000
M 360.937500 2568.750000
L 385.937500 2568.750000
M 392.187500 2568.750000
L 417.187500 2568.750000
M 423.437500 2562.500000
L 448.437500 2562.500000
M 423.437500 2575.000000
L 448.437500 2575.000000
M 465.625000 2546.875000
C 454.687500 2560.937500 454.687500 2578.125000 465.625000 2592.187500
M 475.000000 2546.875000
C 485.937500 2560.937500 485.937500 2578.125000 475.000000 2592.187500
M 503.125000 2578.125000
L 503.125000 2512.500000
L 546.875000 2512.500000
L 546.875000 2578.125000
L 503.125000 2578.125000
M 51.562500 2660.937500
C 59.375000 2657.812500 70.312500 2657.812500 70.312500 2668.750000
L 70.312500 2682.812500
M 70.312500 2670.312500
C 62.500000 2668.750000 50.000000 2668.750000 50.000000 2676.562500
C 50.000000 2685.937500 70.312500 2684.375000 70.312500 2671.875000
M 78.125000 2670.312500
L 98.437500 2670.312500
C 98.437500 2654.687500 78.125000 2654.687500 78.125000 2670.312500
C 78.125000 2682.812500 90.625000 2685.937500 98.437500 2679.687500
M 131.250000 2670.312500
C 131.250000 2653.125000 107.812500 2653.125000 107.812500 2670.312500
C 107.812500 2687.500000 131.250000 2687.500000 131.250000 2670.312500
M 142.187500 2659.375000
L 159.375000 2682.812500
M 159.375000 2659.375000
L 142.187500 2682.812500
M 189.062500 2670.312500
L 168.750000 2670.312500
C 168.750000 2685.937500 189.062500 2685.937500 189.062500 2670.312500
C 189.062500 2657.812500 176.562500 2654.687500 168.750000 2660.937500
M 200.000000 2646.875000
L 200.000000 2682.812500
M 200.000000 2668.750000
C 203.125000 2657.812500 220.312500 2654.687500 220.312500 2668.750000
L 220.312500 2682.812500
M 232.812500 2646.875000
L 232.812500 2682.812500
M 248.437500 2657.812500
L 232.812500 2673.437500
M 239.062500 2668.750000
L 251.562500 2682.812500
M 262.500000 2646.875000
L 262.500000 2682.812500
M 276.562500 2659.375000
L 276.562500 2682.812500
M 276.562500 2668.750000
C 279.687500 2657.812500 293.750000 2654.687500 293.750000 2668.750000
L 293.750000 2682.812500
M 293.750000 2668.750000
C 298.437500 2657.812500 312.500000 2654.687500 312.500000 2668.750000
L 312.500000 2682.812500
M 326.562500 2659.375000
L 326.562500 2682.812500
M 326.562500 2668.750000
C 329.687500 2657.812500 346.875000 2654.687500 346.875000 2668.750000
L 346.875000 2682.812500
M 359.375000 2695.312500
L 359.375000 2659.375000
M 359.375000 2670.312500
C 359.375000 2685.937500 381.250000 2685.937500 381.250000 2670.312500
C 381.250000 2654.687500 359.375000 2654.687500 359.375000 2670.312500
M 403.125000 2660.937500
C 401.562500 2659.375000 390.625000 2657.812500 390.625000 2664.062500
C 390.625000 2670.312500 403.125000 2670.312500 403.125000 2676.562500
C 403.125000 2684.375000 395.312500 2684.375000 390.625000 2681.250000
M 417.187500 2650.000000
L 417.187500 2675.000000
C 417.187500 2681.250000 420.312500 2684.375000 425.000000 2681.250000
M 410.937500 2659.375000
L 423.437500 2659.375000
M 443.750000 2678.125000
L 443.750000 2612.500000
L 487.500000 2612.500000
L 487.500000 2678.125000
L 443.750000 2678.125000
M 514.062500 2678.125000
L 514.062500 2612.500000
L 557.812500 2612.500000
L 557.812500 2678.125000
L 514.062500 2678.125000
M 584.375000 2678.125000
L 584.375000 2612.500000
L 628.125000 2612.500000
L 628.125000 2678.125000
L 584.375000 2678.125000
M 50.000000 2778.125000
L 50.000000 2712.500000
L 93.750000 2712.500000
L 93.750000 2778.125000
L 50.000000 2778.125000
M 120.312500 2778.125000
L 120.312500 2712.500000
L 164.062500 2712.500000
L 164.062500 2778.125000
L 120.312500 2778.125000
M 190.625000 2778.125000
L 190.625000 2712.500000
L 234.375000 2712.500000
L 234.375000 2778.125000
L 190.625000 2778.125000
M 260.937500 2778.125000
L 260.937500 2712.500000
L 304.687500 2712.500000
L 304.687500 2778.125000
L 260.937500 2778.125000
M 331.250000 2778.125000
L 331.250000 2712.500000
L 375.000000 2712.500000
L 375.000000 2778.125000
L 331.250000 2778.125000
M 401.562500 2778.125000
L 401.562500 2712.500000
L 445.312500 2712.500000
L 445.312500 2778.125000
L 401.562500 2778.125000
M 471.875000 2778.125000
L 471.875000 2712.500000
L 515.625000 2712.500000
L 515.625000 2778.125000
L 471.875000 2778.125000
M 542.187500 2778.125000
L 542.187500 2712.500000
L 585.937500 2712.500000
L 585.937500 2778.125000
L 542.187500 2778.125000
M 612.500000 2778.125000
L 612.500000 2712.500000
L 656.250000 2712.500000
L 656.250000 2778.125000
L 612.500000 2778.125000
M 682.812500 2778.125000
L 682.812500 2712.500000
L 726.562500 2712.500000
L 726.562500 2778.125000
L 682.812500 2778.125000
M 753.125000 2778.125000
L 753.125000 2712.500000
L 796.875000 2712.500000
L 796.875000 2778.125000
L 753.125000 2778.125000
M 823.437500 2778.125000
L 823.437500 2712.500000
L 867.187500 2712.500000
L 867.187500 2778.125000
L 823.437500 2778.125000
M 934.375000 2715.625000
C 915.625000 2707.812500 890.625000 2717.187500 890.625000 2745.312500
C 890.625000 2773.437500 915.625000 2782.812500 934.375000 2775.000000
M 926.562500 2751.562500
L 882.812500 2751.562500
M 882.812500 2735.937500
L 929.687500 2735.937500
M 953.125000 2778.125000
L 953.125000 2712.500000
L 996.875000 2712.500000
L 996.875000 2778.125000
L 953.125000 2778.125000
M 1023.437500 2778.125000
L 1023.437500 2712.500000
L 1067.187500 2712.500000
L 1067.187500 2778.125000
L 1023.437500 2778.125000
M 1093.750000 2778.125000
L 1093.750000 2712.500000
L 1137.500000 2712.500000
L 1137.500000 2778.125000
L 1093.750000 2778.125000
"/>
</svg>