<?xml version="1.0" encoding="UTF-8" standalone="no"?>
<svg version="1.1"
  xmlns="http://www.w3.org/2000/svg"
  xmlns:svg="http://www.w3.org/2000/svg"
  width="640" height="100">
<path fill="none" stroke-width="5" stroke="black" stroke-linecap="round" stroke-linejoin="round" d="
M 44.191176470588235 34.044117647058824
C 39.632352941176471 22.647058823529412 33.933823529411765 22.647058823529412 28.235294117647059 22.647058823529412
C 12.279411764705882 22.647058823529412 10 37.463235294117647 10 46.580882352941176
C 10 55.698529411764706 12.279411764705882 70.514705882352941 28.235294117647059 70.514705882352941
C 41.911764705882353 70.514705882352941 44.191176470588235 62.536764705882353 44.191176470588235 52.279411764705882
M 32.794117647058824 52.279411764705882
L 44.191176470588235 52.279411764705882
M 85.220588235294118 45.441176470588235
C 81.801470588235294 40.882352941176471 78.382352941176471 38.602941176470588 72.683823529411765 38.602941176470588
C 60.147058823529412 38.602941176470588 57.867647058823529 48.860294117647059 57.867647058823529 54.558823529411765
C 57.867647058823529 60.257352941176471 60.147058823529412 70.514705882352941 72.683823529411765 70.514705882352941
C 78.382352941176471 70.514705882352941 81.801470588235294 68.235294117647059 85.220588235294118 63.676470588235294
M 113.713235294117647 38.602941176470588
C 101.176470588235294 38.602941176470588 98.897058823529412 48.860294117647059 98.897058823529412 54.558823529411765
C 98.897058823529412 60.257352941176471 101.176470588235294 70.514705882352941 113.713235294117647 70.514705882352941
C 126.25 70.514705882352941 128.529411764705882 60.257352941176471 128.529411764705882 54.558823529411765
C 128.529411764705882 48.860294117647059 126.25 38.602941176470588 113.713235294117647 38.602941176470588
M 169.558823529411765 22.647058823529412
L 169.558823529411765 70.514705882352941
M 169.558823529411765 45.441176470588235
C 166.139705882352941 40.882352941176471 162.720588235294118 38.602941176470588 157.022058823529412 38.602941176470588
C 144.485294117647059 38.602941176470588 142.205882352941176 48.860294117647059 142.205882352941176 54.558823529411765
C 142.205882352941176 60.257352941176471 144.485294117647059 70.514705882352941 157.022058823529412 70.514705882352941
C 162.720588235294118 70.514705882352941 166.139705882352941 68.235294117647059 169.558823529411765 63.676470588235294
M 183.235294117647059 52.279411764705882
L 210.588235294117647 52.279411764705882
C 210.588235294117647 47.720588235294118 210.588235294117647 38.602941176470588 198.051470588235294 38.602941176470588
C 185.514705882352941 38.602941176470588 183.235294117647059 48.860294117647059 183.235294117647059 54.558823529411765
C 183.235294117647059 60.257352941176471 185.514705882352941 70.514705882352941 198.051470588235294 70.514705882352941
C 203.75 70.514705882352941 207.169117647058824 68.235294117647059 210.588235294117647 63.676470588235294
M 224.264705882352941 50
L 265.294117647058824 50
M 285.808823529411765 22.647058823529412
L 285.808823529411765 61.397058823529412
C 285.808823529411765 68.235294117647059 288.088235294117647 70.514705882352941 297.205882352941176 70.514705882352941
M 278.970588235294118 38.602941176470588
L 294.926470588235294 38.602941176470588
M 310.882352941176471 52.279411764705882
L 338.235294117647059 52.279411764705882
C 338.235294117647059 47.720588235294118 338.235294117647059 38.602941176470588 325.698529411764706 38.602941176470588
C 313.161764705882353 38.602941176470588 310.882352941176471 48.860294117647059 310.882352941176471 54.558823529411765
C 310.882352941176471 60.257352941176471 313.161764705882353 70.514705882352941 325.698529411764706 70.514705882352941
C 331.397058823529412 70.514705882352941 334.816176470588235 68.235294117647059 338.235294117647059 63.676470588235294
M 351.911764705882353 38.602941176470588
L 376.985294117647059 70.514705882352941
M 376.985294117647059 38.602941176470588
L 351.911764705882353 70.514705882352941
M 397.5 22.647058823529412
L 397.5 61.397058823529412
C 397.5 68.235294117647059 399.779411764705882 70.514705882352941 408.897058823529412 70.514705882352941
M 390.661764705882353 38.602941176470588
L 406.617647058823529 38.602941176470588
M 456.764705882352941 13.529411764705882
C 435.110294117647059 34.044117647058824 435.110294117647059 64.816176470588235 456.764705882352941 86.470588235294118
M 502.352941176470588 29.485294117647059
C 498.933823529411765 23.786764705882353 494.375 22.647058823529412 486.397058823529412 22.647058823529412
C 481.838235294117647 22.647058823529412 470.441176470588235 22.647058823529412 470.441176470588235 31.764705882352941
C 470.441176470588235 51.139705882352941 502.352941176470588 38.602941176470588 502.352941176470588 60.257352941176471
C 502.352941176470588 70.514705882352941 492.095588235294118 70.514705882352941 486.397058823529412 70.514705882352941
C 478.419117647058824 70.514705882352941 473.860294117647059 69.375 470.441176470588235 63.676470588235294
M 516.029411764705882 22.647058823529412
L 534.264705882352941 70.514705882352941
M 552.5 22.647058823529412
L 534.264705882352941 70.514705882352941
M 600.367647058823529 34.044117647058824
C 595.808823529411765 22.647058823529412 590.110294117647059 22.647058823529412 584.411764705882353 22.647058823529412
C 568.455882352941176 22.647058823529412 566.176470588235294 37.463235294117647 566.176470588235294 46.580882352941176
C 566.176470588235294 55.698529411764706 568.455882352941176 70.514705882352941 584.411764705882353 70.514705882352941
C 598.088235294117647 70.514705882352941 600.367647058823529 62.536764705882353 600.367647058823529 52.279411764705882
M 588.970588235294118 52.279411764705882
L 600.367647058823529 52.279411764705882
M 614.044117647058824 13.529411764705882
C 635.698529411764706 31.764705882352941 635.698529411764706 68.235294117647059 614.044117647058824 86.470588235294118
"/>
</svg>