<?xml version="1.0" encoding="UTF-8" standalone="no"?>
<svg version="1.1"
  xmlns="http://www.w3.org/2000/svg"
  xmlns:svg="http://www.w3.org/2000/svg"
  width="640" height="100">
<path fill="none" stroke-width="5" stroke="black" stroke-linecap="round" stroke-linejoin="round" d="
M 44.896811 25.572233
C 30.938086 19.756098 10.000000 25.572233 10.000000 47.673546
C 10.000000 69.774859 30.938086 75.590994 44.896811 69.774859
L 44.896811 48.836773
L 34.427767 48.836773
M 80.956848 40.694184
C 75.140713 38.367730 58.855535 38.367730 58.855535 55.816135
C 58.855535 72.101313 75.140713 73.264540 80.956848 70.938086
M 122.833021 55.816135
C 122.833021 33.714822 94.915572 33.714822 94.915572 55.816135
C 94.915572 77.917448 122.833021 77.917448 122.833021 55.816135
M 164.709193 23.245779
L 164.709193 72.101313
M 164.709193 55.816135
C 164.709193 34.878049 136.791745 34.878049 136.791745 55.816135
C 136.791745 76.754221 164.709193 76.754221 164.709193 55.816135
M 178.667917 54.652908
L 206.585366 54.652908
C 206.585366 34.878049 178.667917 34.878049 178.667917 54.652908
C 178.667917 72.101313 194.953096 74.427767 206.585366 69.774859
M 220.544090 51.163227
L 262.420263 51.163227
M 284.521576 23.245779
L 284.521576 60.469043
C 284.521576 69.774859 288.011257 73.264540 294.990619 70.938086
M 276.378987 36.041276
L 292.664165 36.041276
M 308.949343 54.652908
L 336.866792 54.652908
C 336.866792 34.878049 308.949343 34.878049 308.949343 54.652908
C 308.949343 72.101313 325.234522 74.427767 336.866792 69.774859
M 350.825516 39.530957
L 376.416510 72.101313
M 376.416510 39.530957
L 350.825516 72.101313
M 398.517824 23.245779
L 398.517824 60.469043
C 398.517824 69.774859 402.007505 73.264540 408.986867 70.938086
M 390.375235 36.041276
L 406.660413 36.041276
M 455.515947 20.919325
C 438.067542 37.204503 438.067542 62.795497 455.515947 79.080675
M 500.881801 25.572233
C 495.065666 23.245779 469.474672 19.756098 469.474672 34.878049
C 469.474672 47.673546 502.045028 45.347092 502.045028 59.305816
C 502.045028 75.590994 475.290807 72.101313 469.474672 69.774859
M 516.003752 23.245779
L 534.615385 72.101313
L 553.227017 23.245779
M 602.082552 25.572233
C 588.123827 19.756098 567.185741 25.572233 567.185741 47.673546
C 567.185741 69.774859 588.123827 75.590994 602.082552 69.774859
L 602.082552 48.836773
L 591.613508 48.836773
M 616.041276 20.919325
C 633.489681 37.204503 633.489681 62.795497 616.041276 79.080675
"/>
</svg>