<?xml version="1.0" encoding="UTF-8" standalone="no"?>
<svg version="1.1"
  xmlns="http://www.w3.org/2000/svg"
  xmlns:svg="http://www.w3.org/2000/svg"
  width="640" height="100">
<path fill="none" stroke-width="5" stroke="black" stroke-linecap="round" stroke-linejoin="round" d="
M 57.298969 25.072165
C 41.958763 16.123711 17.670103 22.515464 17.670103 48.082474
C 17.670103 72.371134 40.680412 78.762887 57.298969 72.371134
L 57.298969 48.082474
L 43.237113 48.082474
M 98.206186 40.412371
C 91.814433 37.855670 73.917526 37.855670 73.917526 57.030928
C 73.917526 74.927835 91.814433 76.206186 98.206186 73.649485
M 144.226804 57.030928
C 144.226804 32.742268 110.989691 32.742268 110.989691 57.030928
C 110.989691 81.319588 144.226804 81.319588 144.226804 57.030928
M 190.247423 21.237113
L 190.247423 74.927835
M 190.247423 57.030928
C 190.247423 34.020619 159.567010 34.020619 159.567010 57.030928
C 159.567010 80.041237 190.247423 80.041237 190.247423 57.030928
M 206.865979 55.752577
L 237.546392 55.752577
C 237.546392 34.020619 206.865979 34.020619 206.865979 55.752577
C 206.865979 74.927835 224.762887 77.484536 237.546392 72.371134
M 249.051546 53.195876
L 268.226804 53.195876
M 286.123711 26.350515
L 286.123711 62.144330
C 286.123711 73.649485 291.237113 76.206186 297.628866 73.649485
M 275.896907 39.134021
L 296.350515 39.134021
M 310.412371 55.752577
L 341.092784 55.752577
C 341.092784 34.020619 310.412371 34.020619 310.412371 55.752577
C 310.412371 74.927835 328.309278 77.484536 341.092784 72.371134
M 356.432990 39.134021
L 380.721649 74.927835
M 380.721649 39.134021
L 356.432990 74.927835
M 402.453608 26.350515
L 402.453608 62.144330
C 402.453608 73.649485 407.567010 76.206186 413.958763 73.649485
M 392.226804 39.134021
L 412.680412 39.134021
M 461.257732 16.123711
C 444.639175 36.577320 444.639175 63.422680 461.257732 83.876289
M 499.608247 22.515464
C 494.494845 21.237113 472.762887 17.402062 472.762887 34.020619
C 472.762887 48.082474 502.164948 45.525773 502.164948 60.865979
C 500.886598 78.762887 477.876289 76.206186 472.762887 72.371134
M 513.670103 21.237113
L 534.123711 74.927835
L 554.577320 21.237113
M 608.268041 25.072165
C 592.927835 16.123711 568.639175 22.515464 568.639175 48.082474
C 568.639175 72.371134 591.649485 78.762887 608.268041 72.371134
L 608.268041 48.082474
L 594.206186 48.082474
M 624.886598 16.123711
C 641.505155 36.577320 641.505155 63.422680 624.886598 83.876289
"/>
</svg>